<?xml version="1.0" standalone="no"?>
<!DOCTYPE svg PUBLIC "-//W3C//DTD SVG 20010904//EN"
 "http://www.w3.org/TR/2001/REC-SVG-20010904/DTD/svg10.dtd">
<svg version="1.0" xmlns="http://www.w3.org/2000/svg"
 width="700.000000pt" height="700.000000pt" viewBox="0 0 700.000000 700.000000"
 preserveAspectRatio="xMidYMid meet">
<metadata>
Created by potrace 1.14, written by Peter Selinger 2001-2017
</metadata>
<g transform="translate(0.000000,700.000000) scale(0.100000,-0.100000)"
fill="#000000" stroke="none">
<path d="M5083 6710 c-103 -72 -231 -167 -243 -180 -3 -3 -45 -39 -95 -80
-407 -341 -776 -772 -1078 -1261 -147 -240 -301 -548 -382 -769 -9 -25 -21
-54 -25 -65 -33 -78 -108 -349 -126 -450 -3 -22 -10 -46 -13 -53 -14 -26 -243
714 -275 888 -2 14 -11 55 -20 91 -8 37 -17 79 -20 93 -13 74 -15 73 -73 -24
-48 -82 -176 -323 -182 -342 -1 -4 -13 -34 -28 -65 -169 -382 -263 -794 -266
-1173 0 -136 7 -295 18 -349 2 -13 7 -49 11 -80 3 -31 10 -66 15 -78 5 -13 6
-23 4 -23 -2 0 0 -12 5 -27 l10 -28 -21 25 c-11 14 -38 43 -58 65 -210 227
-373 426 -467 569 l-39 59 -7 -39 c-17 -92 -36 -237 -45 -349 -9 -105 -9 -458
0 -565 9 -101 40 -317 52 -360 2 -8 7 -28 9 -45 10 -57 67 -248 102 -344 69
-183 215 -459 287 -540 21 -23 21 -24 2 -17 -170 62 -494 159 -608 182 -106
21 -240 44 -274 48 l-42 5 11 -32 c125 -389 373 -708 713 -917 241 -148 551
-246 875 -277 158 -15 527 -8 665 12 17 2 81 11 143 20 62 9 122 19 133 24 12
4 51 2 88 -5 105 -21 244 -39 376 -50 44 -3 82 -8 85 -10 3 -1 12 1 20 6 8 5
19 5 25 1 14 -11 129 28 198 67 149 87 280 223 405 425 54 85 151 282 182 367
13 36 26 70 30 75 20 28 140 436 156 530 3 17 12 55 19 85 7 30 16 69 19 85 2
17 9 53 14 80 6 28 13 75 17 105 3 30 8 62 10 70 2 8 7 39 10 69 4 30 8 63 10
73 2 10 7 54 11 96 3 42 8 85 9 94 26 134 26 999 1 1158 -2 14 -7 61 -11 104
-11 140 -50 403 -86 581 -110 541 -303 1013 -532 1303 -33 42 -69 83 -79 90
-13 9 -17 21 -13 35 8 29 93 253 111 294 8 17 14 34 14 38 0 3 11 31 25 61 14
30 25 56 25 59 0 2 16 39 36 82 20 43 50 107 66 143 39 84 131 268 175 348 19
35 33 65 31 67 -2 2 -53 -32 -115 -75z m-313 -1238 c0 -16 -6 -35 -12 -44 -15
-19 -148 -92 -154 -85 -3 2 3 29 13 60 14 48 22 58 52 71 84 35 101 34 101 -2z
m87 -136 c11 -4 28 -22 37 -40 16 -35 22 -97 9 -95 -5 0 -39 17 -78 37 -77 41
-91 65 -54 93 23 17 45 18 86 5z m-91 -157 c208 -106 237 -124 258 -160 18
-31 21 -65 6 -74 -7 -5 -458 212 -478 230 -5 4 22 95 28 95 4 0 87 -41 186
-91z m14 -210 c151 -76 240 -126 240 -136 0 -12 -17 -14 -97 -12 -119 3 -125
5 -294 86 l-136 65 15 59 c8 33 19 59 24 59 5 0 116 -54 248 -121z m-248 -105
c61 -31 54 -45 -24 -47 l-55 -2 10 37 c5 21 11 38 14 38 2 0 27 -12 55 -26z
m578 -137 c14 -7 30 -24 37 -37 21 -45 51 -175 42 -184 -7 -8 -785 -17 -800
-10 -4 2 1 36 10 76 10 40 18 76 18 81 3 21 16 73 19 79 2 3 149 7 327 7 236
0 329 -3 347 -12z m-508 -316 c14 -2 -3 -26 -25 -36 -44 -21 -222 -117 -234
-127 -10 -8 -4 32 16 107 0 3 1 16 1 29 0 15 7 26 17 28 14 2 201 2 225 -1z
m528 -7 c0 -7 -26 -26 -57 -42 -32 -16 -143 -74 -248 -129 -104 -55 -262 -137
-350 -183 -88 -46 -166 -88 -174 -94 -15 -11 -15 -16 5 129 4 22 9 46 14 54
13 23 445 249 510 266 66 17 300 16 300 -1z m117 -135 c-5 -43 -33 -109 -47
-109 -5 0 -140 -70 -417 -215 -69 -37 -113 -65 -113 -75 0 -10 112 -71 317
-175 174 -88 326 -169 339 -181 13 -11 27 -31 32 -45 12 -33 12 -129 0 -129
-6 0 -103 47 -217 103 -660 331 -789 398 -795 414 -10 24 14 43 134 105 98 51
169 88 460 241 63 33 142 74 175 92 71 39 94 45 119 32 15 -7 17 -17 13 -58z
m35 -196 c9 -10 19 -47 23 -83 4 -36 9 -72 10 -80 3 -17 13 -92 21 -160 3 -25
8 -53 10 -62 7 -25 -13 -58 -36 -58 -10 0 -115 49 -232 109 -214 109 -241 130
-206 158 7 6 63 37 123 68 61 32 139 73 174 91 73 39 92 41 113 17z m-580
-503 c235 -118 428 -221 428 -227 0 -16 -255 -18 -315 -3 -22 6 -160 70 -307
143 l-267 132 4 30 c2 17 7 56 10 87 4 32 10 57 14 55 3 -1 198 -99 433 -217z
m-272 -138 c84 -43 155 -83 157 -89 5 -15 -30 -18 -212 -18 l-160 0 0 30 c1
17 4 58 8 93 7 55 10 62 30 62 13 0 92 -35 177 -78z m917 -206 c27 -23 28 -28
30 -130 2 -89 -1 -109 -17 -128 l-18 -23 -582 -3 -581 -2 5 57 c3 32 8 99 12
148 3 50 7 92 9 95 2 3 253 6 558 8 l556 2 28 -24z m-399 -365 c12 0 22 -5 22
-10 0 -12 -47 -38 -415 -231 -55 -29 -137 -73 -183 -97 -93 -51 -161 -74 -190
-66 -18 4 -20 13 -18 96 l1 92 40 -3 c34 -3 63 9 185 74 245 130 261 137 375
143 91 5 114 6 183 2z m412 -28 l25 -25 -35 -30 c-19 -16 -84 -55 -145 -87
-264 -137 -415 -216 -483 -254 -72 -38 -73 -40 -55 -57 10 -10 146 -82 302
-160 156 -78 295 -154 307 -168 32 -33 31 -73 -2 -106 -31 -30 -47 -32 -89
-10 -16 9 -209 106 -427 215 -219 110 -404 207 -413 215 -27 27 0 50 152 130
82 42 180 94 218 114 39 20 142 74 230 120 88 46 165 87 171 92 21 15 158 46
189 41 16 -2 41 -16 55 -30z m-920 13 c8 -14 -170 -104 -210 -106 -62 -3 -61
-5 -58 59 l3 59 130 -1 c72 -1 132 -6 135 -11z m915 -202 c14 -14 15 -29 10
-88 -4 -39 -8 -78 -10 -86 -2 -8 -6 -58 -10 -110 -11 -164 -17 -188 -49 -196
-25 -6 -46 3 -293 130 -154 78 -174 96 -140 124 6 6 82 46 167 90 85 44 184
96 220 116 74 41 82 42 105 20z m-670 -545 c418 -210 476 -242 464 -254 -9 -8
-249 -8 -302 0 -31 5 -143 55 -325 147 -253 128 -281 139 -319 135 -24 -2 -43
-1 -44 4 0 5 0 38 0 74 0 125 -4 115 44 115 35 0 115 -37 482 -221z m-273
-141 c153 -76 203 -107 193 -116 -3 -4 -104 -8 -224 -9 l-218 -3 -2 91 c-2
104 1 109 66 109 32 0 75 -17 185 -72z m828 -214 c18 -18 -28 -202 -54 -219
-17 -11 -121 -14 -506 -16 -267 -1 -490 -1 -496 0 -6 0 -11 34 -13 84 -1 45
-3 99 -4 119 l-2 37 65 3 c36 2 275 3 532 3 326 0 470 -3 478 -11z m-610 -322
c27 -4 -10 -28 -180 -118 -117 -61 -178 -88 -211 -92 l-46 -4 -1 43 c-1 24 -4
73 -7 109 l-5 65 217 -1 c120 0 225 -1 233 -2z m468 -4 c-5 -13 -11 -17 -193
-113 -71 -37 -166 -87 -210 -110 -386 -204 -473 -243 -476 -218 0 5 -2 17 -4
27 -2 11 -5 37 -7 60 -2 38 -1 41 28 46 16 4 82 34 145 67 62 34 143 77 179
95 176 94 251 130 291 143 57 18 252 20 247 3z m32 -120 c0 -26 -48 -103 -87
-140 -15 -14 -109 -68 -209 -120 -99 -51 -192 -101 -205 -110 -24 -17 -24 -18
-4 -34 11 -8 64 -38 118 -65 107 -54 140 -80 131 -104 -8 -19 -56 -45 -84 -45
-31 0 -417 197 -424 217 -10 25 15 43 154 116 69 35 184 95 255 133 249 130
336 174 345 174 6 0 10 -10 10 -22z m-110 -282 c0 -25 -49 -124 -71 -145 -13
-12 -33 -21 -46 -21 -50 0 -112 50 -95 77 10 15 174 102 195 103 9 0 17 -6 17
-14z m-514 -292 c252 -128 291 -163 216 -193 -68 -27 -77 -24 -276 76 -105 53
-192 97 -194 98 -1 1 -5 20 -8 41 -3 22 -7 52 -9 68 -4 27 -2 28 30 22 18 -4
127 -54 241 -112z m-63 -203 c119 -60 147 -78 147 -95 0 -12 -4 -26 -8 -32
-11 -17 -194 -102 -226 -106 -31 -3 -30 -6 -42 82 -3 25 -14 84 -23 133 -16
81 -16 102 -1 95 3 -2 72 -36 153 -77z"/>
</g>
</svg>
