<svg xmlns="http://www.w3.org/2000/svg" id="Layer_1" viewBox="0 0 424 424" width="424" height="424"><defs><style>.cls-1{fill:#fff}</style></defs><path d="M101.14 185.54c48.28 53.19 131.82 54.21 179.8.42a191.48 191.48 0 0 1 49.77 47.85c-39.47 4.08-68.63 22.81-83.95 59.15s-8.29 70 16.51 101H65.94c-30.85 0-51.73-20.65-50.79-51.61 2.01-66.61 31.85-118.24 85.99-156.81z" class="cls-1"/><path d="M287.12 105.92a96 96 0 0 1-95.86 96c-52.95 0-96.1-42.91-96.19-95.75a96 96 0 1 1 192.05-.29zm128 224.54c-.18 44.09-36.32 79.73-80.63 79.52-44.07-.21-79.64-36.38-79.41-80.74.24-44.05 36.45-79.54 80.88-79.27 43.8.27 79.34 36.41 79.16 80.49zM319 362c-3 0-5.45-.13-7.92 0-4.75.31-7.92 3.6-7.9 8a7.76 7.76 0 0 0 8 7.9q24 .19 48 0a7.79 7.79 0 0 0 8-7.88c0-4.37-3.19-7.71-7.9-8-2.59-.16-5.2 0-8.22 0V306c-13.58 0-26.71-.1-39.84.05a7.81 7.81 0 0 0-8 7.91c0 4.35 3.18 7.67 7.91 8 2.6.17 5.21 0 7.92 0zm32.12-80a16 16 0 1 0-15.93 16 16.09 16.09 0 0 0 15.89-16z" class="cls-1"/></svg>