<svg xmlns="http://www.w3.org/2000/svg" id="Layer_1" viewBox="0 0 400 400" width="400" height="400"><defs><style>.cls-1{fill:#fdfcfd}</style></defs><path d="M101.69 134h94.85v133.92h-94.85zm80.5 54.31c-4.44-1-8.33-1.74-12.16-2.71-10.64-2.69-21.23-2.95-31.76.49-16.45 5.36-26 18.46-24.8 34 1.13 14.93 12.62 27.2 29.46 29.15 9.35 1.08 19.06-.34 28.56-1.17 8.67-.75 12.56-5.5 13.45-16.52-6.57 9.28-14.17 15-24.65 15.95-10.7 1-20-2-27.43-9.75-11.09-11.55-11.61-31.25-1.16-42.23 7.37-7.74 16.79-10 27-9s17.94 6.59 22.83 16.21l1.33-1.1zM203 268V134.33h95V268zm75.46-33.28c-4.26 3.32-7.94 8.18-12.52 9.3-6.57 1.6-13.81.76-20.73.33-1.76-.1-4.74-2.46-4.84-3.94-.49-7.48-.23-15-.23-23.68 10.07 3.35 22.05-5.63 28.05 9.64V207c-2.52 2.31-4.58 5.85-7.05 6.15-6.76.82-13.69.28-20.77.28V188.9c8.32 0 16.35-.32 24.32.22 2.06.14 4.18 2.75 5.8 4.64 1.14 1.31 1.47 3.32 2.16 5l1.42-.3-.61-12.88h-54.18c10.83 3.05 10.83 3.05 10.83 14.75v32.27c0 12.59 0 12.58-12.7 14.2-.27 0-.48.55-1 1.18h60.66c.52-4.98.99-9.57 1.37-13.29zM94.69 268.16H0V134.24h94.69zm-19-88c-4.86 2.74-8.72 3.85-11 6.38C51 201.58 37.76 217.1 24 232.12 18.61 238 12.27 243.1 7 248h24.44c-.46-.61-.56-.9-.73-1-.84-.25-1.7-.43-2.56-.63-7.31-1.68-8-3.95-3-9.76 3.67-4.23 7.35-8.44 11.19-12.5 1.31-1.39 3.08-3.22 4.71-3.29 8.15-.33 16.33-.15 24.35-.15 2.38 21 2 21.88-12.24 27.18h31.66c-9.86-.1-9.31-6.83-9.15-13.5.16-6.49 0-13 0-19.47zM400 249.14V268h-95V134.29h57.82v35.45h36.93v76.9c-10.49.58-15-2.32-42.66-27.67a75.71 75.71 0 0 0 6.91-4c9.84-7.07 9.57-20.37-1.12-26a46 46 0 0 0-17.88-4.86c-10.89-.76-21.86-.22-33.23-.22.54 1.85.58 2.54.78 2.58 10 2.4 10 2.39 10 12.6v34.29c0 11.43.08 11.33-10.16 14.57h32.14c-13.14-3.87-14.12-6.25-11.51-25.68 7.3-1.05 14.39-1.61 20.14 4.78 1.93 2.15 4.5 3.71 6.55 5.78 11.01 11.06 23.04 19.5 40.29 16.33z" class="cls-1"/><path d="M333.41 186.41c9.28 0 18.45-.9 24.06 7.66a15.65 15.65 0 0 1-.47 18.31c-5.77 8-14.65 6.89-23.59 6.89zm35.13-21.08v-28.51c9.23 9.27 19.1 19.17 28.39 28.51zM65.4 191.19v24.39h-21c7-8.14 13.44-15.58 21-24.39z" class="cls-1"/></svg>