<svg id="katman_1" data-name="katman 1" xmlns="http://www.w3.org/2000/svg" viewBox="0 0 203.83 153.68"><defs><style>.cls-1{fill:#fff;}</style></defs><path class="cls-1" d="M192.54,33.18A75.07,75.07,0,0,0,137,9.19c-20.53,0-41.41,8.81-54.77,23a67.33,67.33,0,0,0-7.38-.41c-40.26,0-65.18,33.86-65.18,65.24A67.19,67.19,0,0,0,28,142.59a63.82,63.82,0,0,0,46.89,20.29H137c42.19,0,76.5-34.59,76.5-77.1a78.17,78.17,0,0,0-21-52.6ZM73.71,151.75a54.05,54.05,0,0,1-.25-108.1,53.54,53.54,0,0,1,35.92,13.66l.26.23,22.39,23a9.63,9.63,0,0,1-13.82,13.41L96,71.13A34.48,34.48,0,0,0,39,97.19c0,18.93,16.13,34.93,35.22,34.93l4.44,0,0,.13c6.35,8.76,24,19.48,24,19.48Zm110.73-19.44a64.13,64.13,0,0,1-46.29,19.82c-16.58,0-33.51-7.41-46.45-20.34L62.1,102.13A9.65,9.65,0,0,1,69,85.74h0a9.52,9.52,0,0,1,6.91,2.9l29.39,29.47c9.33,9.36,21.3,14.72,32.85,14.72a44.93,44.93,0,0,0,32.54-14.07,47.8,47.8,0,0,0,13.52-33.32A46.5,46.5,0,0,0,138,39.24c-9.72,0-17.76,1.88-25.6,7.47-.09-.07-2.21-1.48-4.61-2.94q-2.16-1.29-4.36-2.49c-1.4-.76-5.43-2.74-7.82-3.73-.56-.22-1.12-.44-1.69-.64l.07,0c12.18-11.38,27.34-16.93,44-16.93a65.9,65.9,0,0,1,65.52,65.5,67.09,67.09,0,0,1-19.07,46.87Z" transform="translate(-9.69 -9.19)"/></svg>