<?xml version="1.0" encoding="utf-8"?>
<!-- Generator: Adobe Illustrator 26.1.0, SVG Export Plug-In . SVG Version: 6.00 Build 0)  -->
<svg version="1.1" id="a" xmlns="http://www.w3.org/2000/svg" xmlns:xlink="http://www.w3.org/1999/xlink" x="0px" y="0px"
	 viewBox="0 0 144.6 144.6" style="enable-background:new 0 0 144.6 144.6;" xml:space="preserve">
<style type="text/css">
	.st0{fill:#B0B7BC;}
</style>
<path class="st0" d="M111.7,76.8c-0.2-18.3,14.9-27.1,15.6-27.5c-8.5-12.4-21.7-14.1-26.4-14.3c-11.3-1.1-22,6.6-27.7,6.6
	s-14.5-6.5-23.9-6.3c-12.3,0.2-23.6,7.1-29.9,18.1c-12.8,22.1-3.3,54.9,9.2,72.9c6.1,8.8,13.3,18.6,22.8,18.3
	c9.2-0.4,12.6-5.9,23.7-5.9s14.2,5.9,23.9,5.7c9.9-0.2,16.1-8.9,22.1-17.7c7-10.2,9.8-20.1,10-20.6C130.9,106,112,98.7,111.7,76.8
	 M93.5,23.1C98.6,17,102,8.5,101.1,0C93.8,0.3,85,4.8,79.8,11C75.1,16.4,71,25,72.1,33.3C80.2,34,88.5,29.2,93.5,23.1"/>
</svg>
