<?xml version="1.0" encoding="utf-8"?>
<!-- Generator: Adobe Illustrator 26.1.0, SVG Export Plug-In . SVG Version: 6.00 Build 0)  -->
<svg version="1.1" id="Layer_1" xmlns="http://www.w3.org/2000/svg" xmlns:xlink="http://www.w3.org/1999/xlink" x="0px" y="0px"
	 viewBox="0 0 597.7 597.8" style="enable-background:new 0 0 597.7 597.8;" xml:space="preserve">
<style type="text/css">
	.st0{fill:#B0B7BC;}
</style>
<path class="st0" d="M195.8,365.2c-3.5,8.1-7.8,15.8-12.8,23c-6.7,9.6-12.2,16.2-16.4,19.9c-6.6,6-13.6,9.1-21.1,9.3
	c-5.4,0-11.9-1.5-19.5-4.7c-6.6-2.9-13.8-4.4-21-4.6c-7.4,0.1-14.8,1.7-21.6,4.6c-7.7,3.1-13.9,4.7-18.7,4.9
	c-7.2,0.3-14.4-2.9-21.6-9.6c-4.6-4-10.3-10.9-17.2-20.6c-7.7-11.1-13.9-23.3-18.2-36.1c-5.1-14.8-7.7-29.1-7.7-43
	c0-15.9,3.4-29.6,10.3-41.1c5.2-9,12.7-16.6,21.6-21.9c8.8-5.3,18.9-8.2,29.2-8.3c5.7,0,13.3,1.8,22.6,5.3s15.3,5.3,17.9,5.3
	c2,0,8.6-2.1,19.9-6.2c10.7-3.8,19.7-5.4,27-4.8c20,1.6,35,9.5,45,23.7c-17.9,10.8-26.7,26-26.5,45.4c0.2,15.2,5.7,27.8,16.5,37.8
	c4.8,4.5,10.3,8.2,16.4,10.8C198.7,358.1,197.3,361.7,195.8,365.2L195.8,365.2z M150,185c0,11.9-4.3,23-13,33.2
	c-10.4,12.2-23.1,19.2-36.7,18.1c-0.2-1.5-0.3-3-0.3-4.5c0-11.4,5-23.6,13.8-33.6c4.7-5.3,10.4-9.6,16.8-12.6
	c6-3.1,12.5-4.9,19.2-5.4C149.9,181.8,150,183.4,150,185z M448,413.9v-150h-1l-61.1,150h-25.8l-61.1-150h-1v150h-34.2V202.5h43.8
	l64.8,161.3h1.2l64.8-161.3H482v211.4H448z M560.6,238.6h-0.9l-54.6,37.5v-34.8l55.2-38.8h37.3v211.4h-37.1V238.6H560.6z"/>
</svg>
