<svg xmlns="http://www.w3.org/2000/svg" id="Layer_1" viewBox="0 0 400 399.97" width="400" height="399.97"><defs><style>.cls-1{fill:#fff}</style></defs><path d="M1 220c2.68-5.89 5.1-11.93 10.26-16.3 12-10.13 27.07-10.9 39.55-2 11.81 8.47 16.41 25.43 10.7 39.39-5.09 12.42-15.76 20-28.32 20.11-13.94.13-24.64-6.88-30.12-19.71-.65-1.49-1.38-3-2.07-4.49zm8 8.27c0 14.73 10 25.56 23.54 25.52 12.78 0 23.14-11.21 23.25-25.08.11-14.07-10.32-25.5-23.3-25.52-13.41-.03-23.42 10.66-23.49 25.06zM401 181c-3.09 12.91-8.79 24.19-18.6 33.54-22.57 21.51-59.57 21.56-81.91-.29-29.73-29.08-23.79-75.77 12.3-96.51 5.68-3.27 12-4.89 18.21-6.74h21c12.9 3.11 24.27 8.76 33.52 18.65 8.16 8.7 12.48 19.11 15.48 30.35zm-59.53 46.85a57.47 57.47 0 0 0 57.33-57.2c0-31.43-25.82-57.42-57.18-57.45s-57.39 26.06-57.39 57.31c0 31.4 25.86 57.3 57.24 57.32zM226 291c-.07-5.28-.11-10.56-.2-15.84-.05-2.89 1.34-4.29 4.2-4.24a41.41 41.41 0 0 1 6.41.28c3.49.63 6.06 3.74 4.45 6.33-3.07 4.93-.61 9 .14 13.47h-2c-.94-1.75-1.9-3.49-2.82-5.25a4.17 4.17 0 0 0-4.4-2.55c-2.46.25-2.57 2.11-2.82 4a34.42 34.42 0 0 1-1 3.82zm7.2-11.18c1.83-.12 4.19.06 4.35-2.65s-2.08-3-4.12-3-4.17.07-4.17 2.9c.01 2.48 1.9 2.68 3.94 2.73zM126 291c-.08-5.14-.1-10.28-.28-15.42-.12-3.46 1.55-4.8 4.83-4.7 2.32.07 4.67-.17 6.87.8 2.79 1.23 4.91 4 3.38 6.26-3.22 4.75-.57 8.75.2 13.06h-3c-.63-1.53-1.24-3.08-1.88-4.6-1-2.44-2.78-3.73-5.5-3.18s-2.21 2.89-2.37 4.8c-.09 1-.17 2-.25 3zm6.83-11.15c2-.19 4.78.17 4.66-3s-2.85-2.68-4.94-2.73-4.22.05-4.13 3 2.41 2.57 4.41 2.71zM185 291c-.05-4.81.06-9.64-.21-14.45-.25-4.46 1.8-6.08 6-5.64 2.37.24 5-.76 7.32 1.34-1.13 2.42-3.32 1.63-5.09 1.86s-4-.46-4.47 2.05c-.47 2.69 2 2.5 3.6 3.14a6.75 6.75 0 0 1 1.48 1.14c-1.08 2.63-6.2 1-5.21 5s4.67 2 7.17 2.6c1.75.4 3.21.88 3.45 2.94zm-18 0c-1-1.18-3-1.71-2.48-4 2.39-1.14 4 1.13 6 1.41 2.26.31 4.72.39 5.51-2.06s-1.71-2.81-3.3-3.58c-1.34-.65-2.75-1.17-4.07-1.85-2.39-1.24-4.08-3-3.41-5.95s2.9-3.95 5.56-4.1c3.1-.17 6.22-.09 8.64 3-2.37 1.95-4.26.05-6.17-.18s-3.57-.09-4.29 1.65c-.89 2.14 1.07 2.8 2.54 3.52.89.43 1.84.75 2.75 1.16 6.38 2.92 6.92 5.11 2.72 11zm-20 0c-.07-4.79 0-9.6-.27-14.39-.27-4.37 1.62-6.16 5.83-5.7 2.33.26 5-.89 6.93 1.46-1.08 2.28-3.12 1.53-4.81 1.74s-4-.27-4.28 2.29c-.25 2.26 1.86 2.34 3.36 2.91a7.56 7.56 0 0 1 1.5 1c-.2.52-.23.93-.45 1.09-1.62 1.24-5.22.48-4.5 4.07.65 3.26 3.55 2.28 5.71 2.47s4.41.21 5 3zm123 0c-.22-6.42-.51-12.86.95-19.38 2.83 3.07 1.07 9.45 8.33 8.28 5.67-.92 1.89-6.05 5.72-8.79a43.51 43.51 0 0 1 0 19.89h-2a27 27 0 0 1-.21-3.91c.28-3.57-1.19-4.95-4.83-4.93s-5.17 1.33-4.91 4.92c.1 1.3 0 2.62-.05 3.92zm-68 0c2.55-6.74 5.19-13.44 9.6-20.42A59.86 59.86 0 0 1 221 291h-2c-1.46-3.45-3.67-5.29-7.83-5.11-3.72.17-5.1 2.23-6.17 5.11zm9.36-14.09c-.84 2-2.14 3.31-1.24 5.27a3 3 0 0 0 3.85-.27 6.15 6.15 0 0 0-2.61-5.02zM252 291c-6.44-5.27-7.73-10.9-3.76-16.37 3.72-5.13 11.34-5.11 14.56.52-4.86-.46-10.34-3.27-13 3.08a7.35 7.35 0 0 0 1.65 8.33c4.14 4.3 7.85.86 12-1.25.59 3.43-1.92 4.26-3.43 5.69zm-85.91-70.13v29.72a40.9 40.9 0 0 1-.37 6.46c-.35 2.11-1.56 3.85-4 3.7s-3.48-1.85-3.7-4a56.91 56.91 0 0 1-.17-6v-49c.06-2.44.46-4.86 3.28-5.5s4.11 1.46 5.13 3.69q7.46 16.38 14.92 32.73c2.13 4.68 4.29 9.34 6.55 14.26 2.21-1 2.43-2.93 3.14-4.48q9.69-21.39 19.35-42.79c.94-2.09 2.13-3.92 4.77-3.58s3.3 2.51 3.65 4.72a25.23 25.23 0 0 1 .32 4c0 15.82.1 31.65-.05 47.48 0 3.26.76 8.19-4 8.3-5.1.12-4-4.78-4-8.08-.11-11.14 0-22.29-.93-33.71l-13.59 30.16c-1.16 2.58-2.31 5.17-3.52 7.73-.94 2-2 4-4.53 4.14s-3.59-2.09-4.49-4.05c-4.37-9.54-8.69-19.11-13-28.65-1.14-2.51-2.36-5-3.54-7.47zm-54.7 11.19c3.35 7.17 6.56 14.07 9.8 21 1.25 2.66 2.68 5.64-.83 7.34s-5-1.45-6.27-4c-3.23-6.38-6.47-12.77-9.5-19.25-1.38-2.95-3.34-4.27-6.61-4.12-3.82.18-7.66.12-11.48 0-3.21-.07-4.49 1.45-4.44 4.56.08 5 0 10 0 15a24.63 24.63 0 0 1-.36 4.46c-.43 2.12-1.6 3.81-4 3.73-2.62-.08-3.81-1.83-3.87-4.31-.08-3.66-.07-7.32-.07-11v-41.94c0-5.86.89-6.74 6.61-6.79q11.49-.09 23 0c10.65.07 17.11 4.47 19.37 13.09s-1.09 15.94-9.81 21.23c-.45.28-.86.56-1.54 1zM95.51 225c2.82 0 5.64.05 8.46 0 7-.17 10.68-3.48 10.85-9.61.18-6.46-3.9-10.8-10.76-11.1-4.8-.2-9.62-.08-14.44-.07-7.53 0-7.61 0-7.54 7.31.16 15.53-2.08 13.24 13.43 13.47zm160.88 17.2c-11.91-3.31-18.26 2.16-21.09 13.3a9.82 9.82 0 0 1-1.35 2.66c-1.26 2-2.88 3.49-5.35 2.23s-2.6-3.39-1.6-5.61q5.19-11.91 10.53-23.75c4.67-10.32 9.44-20.59 14.13-30.9.94-2 1.94-4 4.54-4 2.33 0 3.47 1.81 4.32 3.67q12.32 27.06 24.59 54.14c1.14 2.51 1.44 5-1.47 6.44-3.16 1.52-4.54-.9-5.66-3.24-1.58-3.3-3.18-6.61-4.51-10-1.38-3.57-3.61-5.3-7.58-5-3.15.28-6.34.06-9.5.06zm11.07-7.85l-10.59-23.69c-3.7 4.19-10.36 19-10.79 23.69zm-131.72-6.29v-26.44c0-2.62.26-5.38 3.61-5.52s4.48 2.65 4.49 5.44q.12 26.7 0 53.38c0 2.59-.47 5.85-4.09 5.8-3.93-.05-4-3.28-4-6.21z" class="cls-1"/><path d="M286.36 170.55c-.07-30.15 24.47-55.46 54.86-55.39 30.61.07 55.47 23.37 55.52 55.16s-23.69 54.9-55.06 55.62c-30.25.69-55.24-24.8-55.32-55.39zM341.49 120c-28.33 0-50 22.06-50.53 50.39-.48 26.59 21.55 50.92 50.66 51.14 27.84.21 50.31-22.8 50.36-50.76C392 142 370.14 120 341.49 120z" class="cls-1"/><path d="M341.27 219.21a48.71 48.71 0 1 1 .79-97.42c26.69.08 48.22 22.06 48.14 49.16-.07 26.89-21.78 48.3-48.93 48.26zM296 170.33c-.05 25.82 20.21 46.45 45.57 46.4 24.74 0 46.2-21.42 46.1-45.89-.1-25.13-21.16-46.7-46.1-46.41-27.37.32-46.79 23.5-45.57 45.9z" class="cls-1"/><path d="M341.3 127.59c24-.11 43.56 19.19 43.53 42.92 0 23.49-20.2 43.65-43.46 43.44a43.15 43.15 0 0 1-42.62-42.82c-.08-24.61 18.32-43.42 42.55-43.54zm.24 83.24c22 0 40.23-18.07 40.27-39.87a40.52 40.52 0 0 0-40.5-40.78c-22 .09-40.11 18.54-40.09 40.75.03 21.76 18.37 39.91 40.32 39.9z" class="cls-1"/><path d="M341.32 209c-20.7-.18-38.05-17.67-38.17-38.47s18.09-38.92 38.64-38.55c20.85.38 38.26 17.93 38.2 38.52-.05 21.05-17.81 38.73-38.67 38.5zM375 170.51c0-19.14-14.3-33.47-33.38-33.49s-33.52 14.45-33.55 33.38 15.39 34.42 33.69 34.1c18.82-.33 33.24-15.08 33.24-33.99z" class="cls-1"/><path d="M341.28 202.21a31.71 31.71 0 1 1 31.92-31.4c-.08 17.71-14.05 31.45-31.92 31.4zm-28.51-32.38a29.32 29.32 0 0 0 28.06 29.87c15.53.55 29.4-12.86 29.81-28.82.39-15.16-13.21-29-28.82-29.41-15.21-.36-28.54 12.65-29.05 28.36z" class="cls-1"/><path d="M315.74 170.5c0-14.81 11-25.9 25.76-25.91a25.81 25.81 0 0 1 26.16 25.79c.11 14.45-12 26.63-26.28 26.48a26 26 0 0 1-25.64-26.36zm25.76-23.31c-12.62 0-23.39 11.05-23.26 23.86.11 12.54 10.79 22.8 23.69 22.76a23.15 23.15 0 0 0 22.88-23.46 23.41 23.41 0 0 0-23.31-23.16z" class="cls-1"/><path d="M362.11 170.6c-.06 11.14-9.75 20.66-20.85 20.5-10.87-.15-20.32-9.75-20.3-20.62 0-11.1 9.89-20.79 20.89-20.53s20.31 9.79 20.26 20.65zm-20.55 17.33c10.05 0 17.31-7.23 17.36-17.26a17.13 17.13 0 0 0-17.14-17.57c-10.23 0-17.63 7.39-17.66 17.62-.03 9.79 7.5 17.22 17.44 17.21z" class="cls-1"/></svg>