<svg xmlns="http://www.w3.org/2000/svg" id="Layer_1" viewBox="0 0 412 412" width="412" height="412"><defs><style>.cls-1{fill:#fcfdfe}</style></defs><path d="M207.18 391.56c-84.44.13-153.26-68.38-153.44-152.77C53.56 153.91 122 85 206.54 84.93c84.77-.1 153.66 68.47 153.72 153a153.24 153.24 0 0 1-153.08 153.63zm.35-263c-60.68-.23-110.07 48.65-110.3 109.17S146 347.74 206.49 348a110 110 0 0 0 110.33-109.27c.36-60.46-48.73-109.95-109.29-110.19zm-.34-108.75c16.77-.48 33.24 1.69 49.55 5.39 6.79 1.54 7.9 3.5 6.05 10.27-2.41 8.83-4.82 17.66-7.31 26.47-1.6 5.67-3.39 6.72-9.09 5.44a178.15 178.15 0 0 0-75.85-.59c-6.93 1.43-8.39.48-10.23-6.46q-3.45-13-6.83-26.09c-1.51-5.85-.31-8.28 5.66-9.19 15.92-2.44 31.9-4.5 47.86-6.7z" class="cls-1"/><path d="M158.69 286c4.47-16 9.61-30.66 12.57-45.76 4.3-21.95 16.6-33.91 38.57-37.88 15-2.72 29.61-7.67 45.07-11.8-.31 1.76-.41 3-.74 4.14q-7.33 26.2-14.75 52.4c-3.14 11-10 19.21-20.86 22.5-19.42 5.91-39.12 10.82-59.86 16.4z" class="cls-1"/></svg>