<svg xmlns="http://www.w3.org/2000/svg" xmlns:xlink="http://www.w3.org/1999/xlink" id="Layer_1" viewBox="0 0 1555 253.88" width="1555" height="253.88"><defs><style>.cls-1{fill:url(#linear-gradient)}.cls-2{fill:url(#linear-gradient-2)}.cls-3{fill:url(#linear-gradient-3)}.cls-4{fill:url(#linear-gradient-4)}.cls-5{fill:url(#linear-gradient-5)}.cls-6{fill:url(#linear-gradient-6)}.cls-7{fill:url(#linear-gradient-7)}.cls-8{fill:url(#linear-gradient-8)}.cls-9{fill:url(#linear-gradient-9)}.cls-10{fill:url(#linear-gradient-10)}.cls-11{fill:url(#linear-gradient-11)}.cls-12{fill:url(#linear-gradient-12)}.cls-13{fill:url(#linear-gradient-13)}.cls-14{fill:url(#linear-gradient-14)}.cls-15{fill:url(#linear-gradient-15)}.cls-16{fill:url(#linear-gradient-16)}.cls-17{fill:url(#linear-gradient-17)}.cls-18{fill:url(#linear-gradient-18)}.cls-19{fill:url(#linear-gradient-19)}</style><linearGradient id="linear-gradient" x1="91.6" x2="253.85" y1="164.86" y2="164.86" gradientUnits="userSpaceOnUse"><stop offset="0" stop-color="#6fcbdc"/><stop offset=".21" stop-color="#04bade"/><stop offset="1" stop-color="#00699f"/></linearGradient><linearGradient id="linear-gradient-2" x1="113.23" x2="137.88" y1="98.33" y2="43.43" xlink:href="#linear-gradient"/><linearGradient id="linear-gradient-3" x1="256.01" x2="286.9" y1="268.46" y2="208.1" xlink:href="#linear-gradient"/><linearGradient id="linear-gradient-4" x1="158.67" x2="276.88" y1="179.68" y2="179.68" xlink:href="#linear-gradient"/><linearGradient id="linear-gradient-5" x1="43.78" x2="230.82" y1="153.21" y2="153.21" xlink:href="#linear-gradient"/><linearGradient id="linear-gradient-6" x1="71.52" x2="125.64" y1="50.73" y2="50.73" xlink:href="#linear-gradient"/><linearGradient id="linear-gradient-7" x1="12.55" x2="32.78" y1="204.98" y2="204.98" xlink:href="#linear-gradient"/><linearGradient id="linear-gradient-8" x1="41.58" x2="207.79" y1="132.64" y2="132.64" xlink:href="#linear-gradient"/><linearGradient id="linear-gradient-9" x1="188.26" x2="121.5" y1="81.43" y2="119.18" xlink:href="#linear-gradient"/><linearGradient id="linear-gradient-10" x1="199.5" x2="123.38" y1="121.7" y2="216.53" xlink:href="#linear-gradient"/><linearGradient id="linear-gradient-11" x1="157.76" x2="114.71" y1="8.64" y2="66.67" xlink:href="#linear-gradient"/><linearGradient id="linear-gradient-12" x1="273.43" x2="197.32" y1="181.04" y2="275.88" xlink:href="#linear-gradient"/><linearGradient id="linear-gradient-13" x1="229.75" x2="153.63" y1="145.97" y2="240.81" xlink:href="#linear-gradient"/><linearGradient id="linear-gradient-14" x1="171.13" x2="95.01" y1="98.93" y2="193.77" xlink:href="#linear-gradient"/><linearGradient id="linear-gradient-15" x1="118.99" x2="68.45" y1="63.94" y2="28.69" xlink:href="#linear-gradient"/><linearGradient id="linear-gradient-16" x1="35.56" x2="11.54" y1="190.94" y2="222.13" xlink:href="#linear-gradient"/><linearGradient id="linear-gradient-17" x1="92.91" x2="65.3" y1="125.02" y2="166.19" xlink:href="#linear-gradient"/><linearGradient id="linear-gradient-18" x1="632.48" x2="632.48" y1="85.9" y2="220.1" xlink:href="#linear-gradient"/><linearGradient id="linear-gradient-19" x1="1239.58" x2="1239.58" y1="41.72" y2="177.8" xlink:href="#linear-gradient"/></defs><path d="M238.1 102.94L91.6 226.78l53.77-15.43 108.48-91.7-15.75-16.71z" class="cls-1"/><path d="M163.23 23.43L107.08 4.71l26.21 54.91L93.98 98.3l-1.39 25.92 92.17-77.92-21.53-22.87z" class="cls-2"/><path d="M360.07 232.45l-75.91-80.61-95.35 80.61h171.26z" class="cls-3"/><path d="M261.13 127.39L158.67 214l14.26 17.97 103.95-87.87-15.75-16.71z" class="cls-4"/><path d="M215.08 78.48L43.78 223.3l30.02 4.64L230.82 95.2l-15.74-16.72z" class="cls-5"/><path d="M125.64 56.81l-10.45-21.52-43.67-3.74 39.14 38.36 14.98-13.1z" class="cls-6"/><path d="M12.55 210.61l17.58 10.32 2.65-31.89-20.23 21.57z" class="cls-7"/><path d="M207.79 70.75l-15.74-16.72-59.56 50.49-10.6 26.69h-20.88l-56.77 48.12-2.66 31.92 166.21-140.5z" class="cls-8"/><path d="M192.05 54.03l-59.56 50.49-10.6 26.69h-20.88l17.83 14.73 73.21-91.91z" class="cls-9"/><path d="M238.1 102.94L91.6 226.78l53.77-15.43 92.73-108.41z" class="cls-10"/><path d="M163.23 23.43l-29.68-9.89-.26 46.08L93.98 98.3l-1.39 25.92 70.64-100.79z" class="cls-11"/><path d="M314.44 183.99l-30.28-32.15-95.35 80.61 125.63-48.46z" class="cls-12"/><path d="M261.13 127.39L158.67 214l14.26 17.97 88.2-104.58z" class="cls-13"/><path d="M215.08 78.48L43.78 223.3l30.02 4.64L215.08 78.48z" class="cls-14"/><path d="M125.64 56.81L71.52 31.55l39.14 38.36 14.98-13.1z" class="cls-15"/><path d="M12.55 210.61l10.83 6.35 9.4-27.92-20.23 21.57z" class="cls-16"/><path d="M101.01 131.21l-56.77 48.12-2.66 31.92 59.43-80.04z" class="cls-17"/><path d="M643 130.15c9.19-2.89 15.36-8.93 15.36-20.22 0-6.7-2.1-23.76-34.53-23.76h-87.66l-27.57 33.22c-2.89 3.41-6.43 6.82-9.06 11.42-2.63-4.6-6.17-8-8.93-11.42L463 86.17h-77.39c-32.29 0-43.32 15.36-43.32 44.9s11 44.9 43.32 44.9h71v-18.38h-71c-21.53 0-24.15-9.32-24.15-26.52s2.62-26.65 24.15-26.65h66.84l27.66 30.2c2.76 3 10.11 10.1 10.11 15.62V176H509v-25.76c0-5.38 7.22-12.47 10.11-15.62l29.23-31.91h78c9.59 0 13.79 4.07 13.79 9.85 0 6.17-4.86 9.45-15.1 9.45H547v54h78.65c24.81 0 35.05-10.11 35.05-24.29.03-10.28-5.35-18.03-17.7-21.57zm-15.36 29h-62.5V138h61.18c12.34 0 15.89 6.17 15.89 11.16s-3.54 10.01-14.56 10.01zm52.24-55c1.25-.08 2.54-.14 4-.14h105.39V86.17h-71.16c-20.25 0-32.17 6.1-38.22 17.99zM694 139.47h93.7v-16.8H675.17c-.24 2.66-.38 5.44-.38 8.4 0 29.54 11.16 44.9 43.32 44.9h71.16V158h-71.16c-17.59 0-22.84-6.58-24.11-18.53zm210.3-1.57c11.68-3.42 18.38-11.16 18.38-23.77 0-18-13.66-28-35.71-28H809v16.54h79.43c11.55 0 15.1 7.61 15.1 13.53s-3.55 13.52-15.1 13.52H809V176h18.77v-29.57h58.82c11.95 0 14.7 6.43 14.7 11.42V176h19.44v-17.75c-.02-9.33-5.01-16.68-16.43-20.35z" class="cls-18"/><path d="M1037.09 128.31h-93.48V86.17h-5.91V176h5.91v-42.31h93.48V176h5.9V86.17h-5.9zM1114 85.12c-37.68 0-60.92 8.27-60.92 45.95s23.24 46.08 60.92 46.08 60.92-8.27 60.92-46.08-23.23-45.95-60.92-45.95zm0 86.39c-34.53 0-55-6.43-55-40.44s20.48-40.44 55-40.44 55 6.57 55 40.44-20.47 40.44-55 40.44zM1284.92 134c0 27.83-11.29 37.42-47.79 37.42-36.1 0-47.53-9.59-47.53-37.42V86.17h-5.78V134c0 32.29 15 43.19 53.31 43.19 39.91 0 53.7-11.81 53.7-43.19V86.17h-5.91zm124.59 36.23h-2c-16 0-20.48-6.43-46.21-40.43-27-36-32.95-43.59-53-43.59h-6.57V176h5.91V92.08h2c15.89 0 20.09 5.78 47 41.22 26.75 35.19 32.66 42.7 52.36 42.7h6.43V86.17h-5.91zm90.2-84h-72.34V176h72.34c28.75 0 41.75-14.18 41.75-44.9 0-30.1-12.34-44.93-41.75-44.93zm0 84h-66.43V91.94h66.43c26 0 35.84 13.13 35.84 39.13s-9.98 39.12-35.84 39.12z" class="cls-19"/></svg>