<svg xmlns="http://www.w3.org/2000/svg" id="Layer_1" viewBox="0 0 806 806" width="806" height="806"><defs><style>.cls-1{fill:#094792}.cls-2{fill:#fff}</style></defs><path d="M257.55 580.94c15.67 0 28.22-11.75 28.22-27.25s-12.56-27.25-28.22-27.25-28.23 11.75-28.23 27.25 12.56 27.25 28.23 27.25m0-40.32a13.08 13.08 0 1 1-13.2 13.07 13.21 13.21 0 0 1 13.2-13.07m70.06 21.62c5.06-3.47 9.06-8.62 9.06-15.64 0-10.91-8.78-19-19.88-19h-23.94v52.14h14.33v-14.16h6.74l6.53 14.18h16.08zm-10.81-9.52h-9.62v-12.31h9.62c3.23 0 5.34 3.61 5.34 6.19s-2.11 6.12-5.34 6.12m28.57-25.1h14.33v52.14h-14.33zm44.09 0l-24.15 52.13h15.36l2.51-5.9h17.93l2.52 5.9H419l-24.14-52.13zm-1.9 33.85l4.44-10.15h.29l4.44 10.15zM197.5 579.76h14.33v-39.35h14.4v-12.79h-34.68l33.69-72.68H11l33.9 73.15h15.8l13 28 13-28h15.84L78.78 579.3H68.66l49.47 106.76 50.61-109.22a26.55 26.55 0 0 1-13.35 3.57c-15.29 0-27.44-11.54-27.44-26.76s12.15-26.77 27.44-26.77a26.7 26.7 0 0 1 22.94 13l-12 7.17a12.82 12.82 0 1 0-11 19.4 12.83 12.83 0 0 0 11-6.29l7.88 4.73 11.36-24.52h11.87v39.35zm-76.06-.46h-14.63v-51.21h14.63zM206 622.8a13.72 13.72 0 0 1-8.3-2.81l-2.7 4.19c2.8 2.26 7 3.4 11 3.4 5.61 0 10.68-2.73 10.68-8.49 0-4.54-3.65-6.53-8.31-7.3l-1.47-.24c-3.13-.52-5.38-1.09-5.38-3s2.06-3.13 5-3.13a14 14 0 0 1 7.39 2.22l2.46-4.25a18.4 18.4 0 0 0-10-2.77c-5.56 0-10.4 2.83-10.4 8.26 0 4.72 3.35 6.75 7.95 7.47l1.66.27c3.63.57 5.53 1.25 5.53 3 0 2-2.23 3.15-5.12 3.15m28.31 2.92l-1.79-3.81a6.86 6.86 0 0 1-3.38 1.19c-1.51 0-2.7-.83-2.7-3.08v-6.59H233v-4.33h-6.53v-5.36h-4.87v5.36h-3.48v4.33h3.48v7c0 4.67 2.29 7.21 6.77 7.21a10.06 10.06 0 0 0 6-1.9m19.68 1.42v-18h-4.76v2a6.63 6.63 0 0 0-5.4-2.47c-5 0-8.73 4.09-8.73 9.5s3.76 9.5 8.73 9.5a6.66 6.66 0 0 0 5.4-2.44v2zm-9.26-4.07a5 5 0 0 1 0-9.94c2.78 0 4.65 2.12 4.65 5s-1.87 5-4.65 5m22.07 4.47a10.14 10.14 0 0 0 6-1.89l-1.79-3.81a7 7 0 0 1-3.4 1.18c-1.5 0-2.7-.83-2.7-3.07v-6.6h6.55v-4.33H265v-5.36h-4.9v5.36h-3.49v4.33h3.49v7c0 4.66 2.29 7.2 6.76 7.2m21.05-5.88a7.32 7.32 0 0 1-4.57 1.74 4.37 4.37 0 0 1-4.64-3.75h12.8a11.48 11.48 0 0 0 .09-1.64c0-5.63-3.57-9.48-8.76-9.48-5.41 0-9.13 3.87-9.13 9.55s3.84 9.44 9.37 9.44a11 11 0 0 0 7.69-2.73zm-5.13-8.94c2.08 0 3.48 1.31 3.93 3.61h-8c.43-2.23 1.77-3.61 4.06-3.61m-73.53 33.39v4.34h6.62c-.68 3.71-3.16 5.77-7.41 5.77-4.51 0-8.14-3.34-8.14-8.67 0-5.08 3.47-8.58 8.23-8.58a8.11 8.11 0 0 1 6.3 2.73l3.75-3.67a13.13 13.13 0 0 0-9.89-4c-8 0-13.77 5.64-13.77 13.52 0 8.42 6.41 13.49 13.63 13.49 7.4 0 12.75-5.55 12.75-13.46a12.29 12.29 0 0 0-.08-1.47h-12zm24.26-4.06a9.5 9.5 0 1 0 9.78 9.5 9.36 9.36 0 0 0-9.78-9.5m0 14.48a5 5 0 1 1 4.81-5 4.71 4.71 0 0 1-4.81 5m20.23-1.06l-4.68-12.93h-5.28l7.13 18h5.6l7.06-18h-5.12zm19.46-13.42c-5.4 0-9.13 3.88-9.13 9.56s3.83 9.44 9.37 9.44a10.9 10.9 0 0 0 7.69-2.74l-2.85-3.13a7.27 7.27 0 0 1-4.56 1.74 4.36 4.36 0 0 1-4.64-3.74h12.8a13.29 13.29 0 0 0 .1-1.65c0-5.62-3.58-9.48-8.78-9.48m-4.1 7.81c.43-2.23 1.77-3.61 4.07-3.61 2.08 0 3.47 1.3 3.92 3.61zm20.8-5.35v-2h-4.71v18H290v-9.82c0-2.7 1.55-4.08 3.8-4.08a7.84 7.84 0 0 1 3 .59l.72-4.83a7.43 7.43 0 0 0-2.53-.39 5.73 5.73 0 0 0-5.09 2.46m20.22-2.39a6.07 6.07 0 0 0-5.31 2.6v-2.12h-4.72v18H305v-9.89c0-2.72 1.73-4.08 3.82-4.08s3.52 1.43 3.52 4.05v9.92h4.86v-11.44a6.73 6.73 0 0 0-7-7m33.28-.04a6.8 6.8 0 0 0-6.13 3.1 6.84 6.84 0 0 0-6-3.1 6.08 6.08 0 0 0-5.31 2.6v-2.12h-4.73v18h4.87v-9.89c0-2.72 1.73-4.08 3.82-4.08s3.52 1.43 3.52 4.05v9.92h4.86v-9.89c0-2.72 1.73-4.09 3.81-4.09s3.53 1.44 3.53 4.05v9.92h4.84v-11.44a6.72 6.72 0 0 0-7.12-7m19.37-.03c-5.4 0-9.14 3.88-9.14 9.56s3.85 9.44 9.37 9.44a11 11 0 0 0 7.71-2.74l-2.86-3.13a7.27 7.27 0 0 1-4.55 1.74 4.36 4.36 0 0 1-4.65-3.74h12.8a13.44 13.44 0 0 0 .09-1.65c0-5.62-3.58-9.48-8.77-9.48m-4.1 7.81c.43-2.23 1.77-3.61 4.07-3.61 2.08 0 3.47 1.3 3.93 3.61zm26.13-7.81a6.07 6.07 0 0 0-5.31 2.6v-2.12h-4.73v18h4.87v-9.89c0-2.72 1.73-4.08 3.82-4.08s3.52 1.43 3.52 4.05v9.92h4.86v-11.44a6.73 6.73 0 0 0-7-7m20.28 14.44c-1.52 0-2.71-.82-2.71-3.07v-6.6H409v-4.32h-6.53v-5.36h-4.86v5.36h-3.49v4.32h3.49v7c0 4.68 2.29 7.21 6.76 7.21a10.14 10.14 0 0 0 6-1.89l-1.79-3.81a7 7 0 0 1-3.38 1.18" class="cls-1"/><path d="M257.55 580.94c15.67 0 28.22-11.75 28.22-27.25s-12.56-27.25-28.22-27.25-28.23 11.75-28.23 27.25 12.56 27.25 28.23 27.25m0-40.32a13.08 13.08 0 1 1-13.2 13.07 13.21 13.21 0 0 1 13.2-13.07m70.06 21.62c5.06-3.47 9.06-8.62 9.06-15.64 0-10.91-8.78-19-19.88-19h-23.94v52.14h14.33v-14.16h6.74l6.53 14.18h16.08zm-10.81-9.52h-9.62v-12.31h9.62c3.23 0 5.34 3.61 5.34 6.19s-2.11 6.12-5.34 6.12m28.57-25.1h14.33v52.14h-14.33zm44.09 0l-24.15 52.13h15.36l2.51-5.9h17.93l2.52 5.9H419l-24.14-52.13zm-1.9 33.85l4.44-10.15h.29l4.44 10.15zM197.5 579.76h14.33v-39.35h14.4v-12.79h-34.68l33.69-72.68H11l33.9 73.15h15.8l13 28 13-28h15.84L78.78 579.3H68.66l49.47 106.76 50.61-109.22a26.55 26.55 0 0 1-13.35 3.57c-15.29 0-27.44-11.54-27.44-26.76s12.15-26.77 27.44-26.77a26.7 26.7 0 0 1 22.94 13l-12 7.17a12.82 12.82 0 1 0-11 19.4 12.83 12.83 0 0 0 11-6.29l7.88 4.73 11.36-24.52h11.87v39.35zm-76.06-.46h-14.63v-51.21h14.63zM206 622.8a13.72 13.72 0 0 1-8.3-2.81l-2.7 4.19c2.8 2.26 7 3.4 11 3.4 5.61 0 10.68-2.73 10.68-8.49 0-4.54-3.65-6.53-8.31-7.3l-1.47-.24c-3.13-.52-5.38-1.09-5.38-3s2.06-3.13 5-3.13a14 14 0 0 1 7.39 2.22l2.46-4.25a18.4 18.4 0 0 0-10-2.77c-5.56 0-10.4 2.83-10.4 8.26 0 4.72 3.35 6.75 7.95 7.47l1.66.27c3.63.57 5.53 1.25 5.53 3 0 2-2.23 3.15-5.12 3.15m28.31 2.92l-1.79-3.81a6.86 6.86 0 0 1-3.38 1.19c-1.51 0-2.7-.83-2.7-3.08v-6.59H233v-4.33h-6.53v-5.36h-4.87v5.36h-3.48v4.33h3.48v7c0 4.67 2.29 7.21 6.77 7.21a10.06 10.06 0 0 0 6-1.9m19.68 1.42v-18h-4.76v2a6.63 6.63 0 0 0-5.4-2.47c-5 0-8.73 4.09-8.73 9.5s3.76 9.5 8.73 9.5a6.66 6.66 0 0 0 5.4-2.44v2zm-9.26-4.07a5 5 0 0 1 0-9.94c2.78 0 4.65 2.12 4.65 5s-1.87 5-4.65 5m22.07 4.47a10.14 10.14 0 0 0 6-1.89l-1.79-3.81a7 7 0 0 1-3.4 1.18c-1.5 0-2.7-.83-2.7-3.07v-6.6h6.55v-4.33H265v-5.36h-4.9v5.36h-3.49v4.33h3.49v7c0 4.66 2.29 7.2 6.76 7.2m21.05-5.88a7.32 7.32 0 0 1-4.57 1.74 4.37 4.37 0 0 1-4.64-3.75h12.8a11.48 11.48 0 0 0 .09-1.64c0-5.63-3.57-9.48-8.76-9.48-5.41 0-9.13 3.87-9.13 9.55s3.84 9.44 9.37 9.44a11 11 0 0 0 7.69-2.73zm-5.13-8.94c2.08 0 3.48 1.31 3.93 3.61h-8c.43-2.23 1.77-3.61 4.06-3.61m-73.53 33.39v4.34h6.62c-.68 3.71-3.16 5.77-7.41 5.77-4.51 0-8.14-3.34-8.14-8.67 0-5.08 3.47-8.58 8.23-8.58a8.11 8.11 0 0 1 6.3 2.73l3.75-3.67a13.13 13.13 0 0 0-9.89-4c-8 0-13.77 5.64-13.77 13.52 0 8.42 6.41 13.49 13.63 13.49 7.4 0 12.75-5.55 12.75-13.46a12.29 12.29 0 0 0-.08-1.47h-12zm24.26-4.06a9.5 9.5 0 1 0 9.78 9.5 9.36 9.36 0 0 0-9.78-9.5m0 14.48a5 5 0 1 1 4.81-5 4.71 4.71 0 0 1-4.81 5m20.23-1.06l-4.68-12.93h-5.28l7.13 18h5.6l7.06-18h-5.12zm19.46-13.42c-5.4 0-9.13 3.88-9.13 9.56s3.83 9.44 9.37 9.44a10.9 10.9 0 0 0 7.69-2.74l-2.85-3.13a7.27 7.27 0 0 1-4.56 1.74 4.36 4.36 0 0 1-4.64-3.74h12.8a13.29 13.29 0 0 0 .1-1.65c0-5.62-3.58-9.48-8.78-9.48m-4.1 7.81c.43-2.23 1.77-3.61 4.07-3.61 2.08 0 3.47 1.3 3.92 3.61zm20.8-5.35v-2h-4.71v18H290v-9.82c0-2.7 1.55-4.08 3.8-4.08a7.84 7.84 0 0 1 3 .59l.72-4.83a7.43 7.43 0 0 0-2.53-.39 5.73 5.73 0 0 0-5.09 2.46m20.22-2.39a6.07 6.07 0 0 0-5.31 2.6v-2.12h-4.72v18H305v-9.89c0-2.72 1.73-4.08 3.82-4.08s3.52 1.43 3.52 4.05v9.92h4.86v-11.44a6.73 6.73 0 0 0-7-7m33.28-.04a6.8 6.8 0 0 0-6.13 3.1 6.84 6.84 0 0 0-6-3.1 6.08 6.08 0 0 0-5.31 2.6v-2.12h-4.73v18h4.87v-9.89c0-2.72 1.73-4.08 3.82-4.08s3.52 1.43 3.52 4.05v9.92h4.86v-9.89c0-2.72 1.73-4.09 3.81-4.09s3.53 1.44 3.53 4.05v9.92h4.84v-11.44a6.72 6.72 0 0 0-7.12-7m19.37-.03c-5.4 0-9.14 3.88-9.14 9.56s3.85 9.44 9.37 9.44a11 11 0 0 0 7.71-2.74l-2.86-3.13a7.27 7.27 0 0 1-4.55 1.74 4.36 4.36 0 0 1-4.65-3.74h12.8a13.44 13.44 0 0 0 .09-1.65c0-5.62-3.58-9.48-8.77-9.48m-4.1 7.81c.43-2.23 1.77-3.61 4.07-3.61 2.08 0 3.47 1.3 3.93 3.61zm26.13-7.81a6.07 6.07 0 0 0-5.31 2.6v-2.12h-4.73v18h4.87v-9.89c0-2.72 1.73-4.08 3.82-4.08s3.52 1.43 3.52 4.05v9.92h4.86v-11.44a6.73 6.73 0 0 0-7-7m20.28 14.44c-1.52 0-2.71-.82-2.71-3.07v-6.6H409v-4.32h-6.53v-5.36h-4.86v5.36h-3.49v4.32h3.49v7c0 4.68 2.29 7.21 6.76 7.21a10.14 10.14 0 0 0 6-1.89l-1.79-3.81a7 7 0 0 1-3.38 1.18M478.01 526h2v135h-2zm68.26 33v-33h17.62v4.4h-12.62v9.87h12.14v4.4h-12.14v9.94h12.62V559zm21.5-10.24c0-6.2 4.26-10.88 10.16-10.88a9.15 9.15 0 0 1 7.72 4v-17.29h4.76V559h-4.76v-3.4a9.15 9.15 0 0 1-7.72 4c-5.93.04-10.16-4.66-10.16-10.84zm11.5 6.8c3.8 0 6.52-2.84 6.52-6.8s-2.72-6.8-6.52-6.8a6.81 6.81 0 0 0 0 13.6zm17.12-17.04h4.76v9.86c0 5.18 1.42 7.36 5 7.36s5-2.18 5-7.36v-9.86h4.76v10.92c0 6.8-3.16 10.2-9.72 10.2s-9.72-3.4-9.72-10.2zm23.88 10.24a10.93 10.93 0 0 1 11.28-10.88 11.52 11.52 0 0 1 6.86 2.12l-1.92 3a7.52 7.52 0 0 0-4.26-1.24 7 7 0 1 0 0 13.92 7.52 7.52 0 0 0 4.26-1.24l1.92 3a11.52 11.52 0 0 1-6.86 2.12 10.93 10.93 0 0 1-11.28-10.8zm21.22 0c0-6.2 4.28-10.88 10.16-10.88a9.2 9.2 0 0 1 7.72 4v-3.4h4.76V559h-4.76v-3.4a9.2 9.2 0 0 1-7.72 4c-5.88.04-10.16-4.66-10.16-10.84zm11.5 6.8c3.8 0 6.52-2.84 6.52-6.8S656.79 542 653 542a6.81 6.81 0 0 0 0 13.6zM671 538.52v-7.67h4.76v7.67h4.76v3.62h-4.76v10.42c0 1.84.74 2.84 2.12 2.84a3.1 3.1 0 0 0 1.62-.46l1.88 3.36a8.48 8.48 0 0 1-4.62 1.34c-3.64 0-5.76-2.5-5.76-6.76v-10.74h-2.46v-3.62zm16-10.01a2.9 2.9 0 1 1-2.9 2.9 2.9 2.9 0 0 1 2.9-2.9zM684.57 559v-20.48h4.76V559zm21.04-21.12c6.62 0 11.72 4.46 11.72 10.88s-5.1 10.88-11.72 10.88-11.73-4.46-11.73-10.88 5.12-10.88 11.73-10.88zm0 17.66a6.78 6.78 0 1 0-6.76-6.78 6.56 6.56 0 0 0 6.76 6.78zm21.18-17.02v2.82a7.85 7.85 0 0 1 6.88-3.46c4.72 0 7.84 3.18 7.84 8.22V559h-4.76v-11.92c0-3.48-1.8-5.44-4.86-5.44s-5.1 2.12-5.1 5.84V559H722v-20.48zm-182.02 63.04c0-6.2 4.28-10.88 10.16-10.88a9.2 9.2 0 0 1 7.72 4v-3.4h4.76v20.52h-4.76v-3.4a9.2 9.2 0 0 1-7.72 4c-5.88.04-10.16-4.66-10.16-10.84zm11.5 6.8c3.8 0 6.52-2.84 6.52-6.8s-2.72-6.8-6.52-6.8a6.81 6.81 0 0 0 0 13.6zm22.22-17.04v2.82a7.85 7.85 0 0 1 6.88-3.46c4.72 0 7.84 3.18 7.84 8.22v12.9h-4.76v-11.92c0-3.48-1.8-5.44-4.86-5.44s-5.1 2.12-5.1 5.84v11.52h-4.76v-20.48zm19.3 10.24c0-6.2 4.26-10.88 10.16-10.88a9.15 9.15 0 0 1 7.72 4v-17.29h4.76v34.41h-4.76v-3.4a9.15 9.15 0 0 1-7.72 4c-5.9.04-10.16-4.66-10.16-10.84zm11.5 6.8c3.8 0 6.52-2.84 6.52-6.8s-2.72-6.8-6.52-6.8a6.81 6.81 0 0 0 0 13.6zm23.24-25.11v-4.46h23.2v4.46h-9.1v28.55h-5v-28.55zm24 8.07h4.76v3.5a6.49 6.49 0 0 1 6.24-4.14 8.22 8.22 0 0 1 3.86 1l-2 4a6.58 6.58 0 0 0-3.12-.86c-2.66 0-5 2.22-5 6.34v10.64h-4.76zm16.06 10.24c0-6.2 4.28-10.88 10.16-10.88a9.2 9.2 0 0 1 7.72 4v-3.4h4.76v20.52h-4.76v-3.4a9.2 9.2 0 0 1-7.72 4c-5.88.04-10.16-4.66-10.16-10.84zm11.5 6.8c3.8 0 6.52-2.84 6.52-6.8s-2.72-6.8-6.52-6.8a6.81 6.81 0 0 0 0 13.6zm19.62-27.05a2.9 2.9 0 1 1-2.9 2.9 2.9 2.9 0 0 1 2.9-2.9zm-2.38 30.49v-20.48h4.76v20.48zM717 591.32v2.82a7.85 7.85 0 0 1 6.88-3.46c4.72 0 7.84 3.18 7.84 8.22v12.9h-4.76v-11.92c0-3.48-1.8-5.44-4.86-5.44s-5.1 2.12-5.1 5.84v11.52h-4.76v-20.48zm22.81-10.01a2.9 2.9 0 1 1-2.9 2.9 2.9 2.9 0 0 1 2.9-2.9zm-2.38 30.49v-20.48h4.76v20.48zm15.62-20.48v2.82a7.85 7.85 0 0 1 6.88-3.46c4.72 0 7.84 3.18 7.84 8.22v12.9H763v-11.92c0-3.48-1.8-5.44-4.86-5.44s-5.1 2.12-5.1 5.84v11.52h-4.77v-20.48zm29.46-.64a9.14 9.14 0 0 1 7.7 4v-3.4H795v21c0 6.36-4 10.44-11.6 10.44-5.39 0-9.11-2.06-10.85-6l3.92-1.88a7.67 7.67 0 0 0 6.93 3.74c4 0 6.84-2.5 6.84-6.52v-3.66a9.14 9.14 0 0 1-7.7 4c-5.9 0-10.17-4.7-10.17-10.88s4.24-10.84 10.14-10.84zm1.34 17.68c3.8 0 6.52-2.84 6.52-6.8s-2.72-6.8-6.52-6.8a6.81 6.81 0 0 0 0 13.6zM124.21 210.52c23.92 0 42.56 18.56 42.56 41.76 0 1.52-.08 2.64-.16 4.08H98.93c0 15.36 11.12 25.92 27.36 25.92 10.08 0 18-4.16 24.4-12.48l13.76 7.12c-7.84 13-22.32 20.64-39.12 20.64-26.48 0-45.84-18.8-45.84-43.28 0-24.88 19.84-43.76 44.72-43.76zm-24.72 35.92h48.64c-1.52-13.2-11.44-22.32-24.4-22.32-13.2 0-23.28 9.28-24.24 22.32zm80.79 7.56c0-24.8 17-43.52 40.64-43.52a36.59 36.59 0 0 1 30.89 16.16V157.4h19V295h-19v-13.6a36.59 36.59 0 0 1-30.89 16.16c-23.6 0-40.64-18.8-40.64-43.56zm46 27.2c15.21 0 26.09-11.36 26.09-27.2s-10.88-27.2-26.09-27.2-26.16 11.4-26.16 27.2 11.04 27.24 26.16 27.24zm68.48-68.12h19v39.44c0 20.72 5.68 29.44 19.84 29.44s19.84-8.72 19.84-29.44v-39.44h19v43.68c0 27.2-12.64 40.8-38.88 40.8s-38.88-13.6-38.88-40.8zM403.72 163h21.36l34.56 91.44L494.28 163h21.36l14.81 132h-20l-11-95.76-33.36 90.48h-12.85l-33.36-90.48-11 95.76h-20zm138.88 91c0-24.8 17.12-43.52 40.64-43.52a36.79 36.79 0 0 1 30.88 16.16v-13.6h19V295h-19v-13.6a36.79 36.79 0 0 1-30.88 16.16c-23.52 0-40.64-18.8-40.64-43.56zm46 27.2c15.2 0 26.08-11.36 26.08-27.2s-10.88-27.2-26.08-27.2-26.16 11.4-26.16 27.2 11.04 27.24 26.16 27.24zm78.48-108.12a11.6 11.6 0 1 1-11.6 11.6 11.61 11.61 0 0 1 11.6-11.6zM657.56 295v-81.92h19V295zm43.6 0V157.4h19V295z" class="cls-2"/></svg>