<svg xmlns="http://www.w3.org/2000/svg" id="Layer_1" viewBox="0 0 554 554" width="554" height="554"><defs><style>.cls-1{fill:#41a4e0}.cls-2{fill:#858890}.cls-3{fill:#fff}</style></defs><path d="M57.44 269.6a23.56 23.56 0 0 1-3 11.18 31.21 31.21 0 0 1-10.53 11 33.78 33.78 0 0 1-14.69 5.78c-2.51.35-4.38.17-5.59-.52q2.34 8.84 8.19 8.84 5.2 0 12.35-6.37a7.28 7.28 0 0 1 4.94-1.95 6.36 6.36 0 0 1 4.61 2.21 7.19 7.19 0 0 1-.45 10.66q-10.53 9.36-20.54 9.36-10.92 0-17.94-10.14a35.47 35.47 0 0 1-6.23-20.55 35 35 0 0 1 5.2-18.72 35.88 35.88 0 0 1 12.09-11.83 29.64 29.64 0 0 1 15.73-4.94q7.16 0 11.5 4.42t4.36 11.57zm-12.87 1.17q0-2.73-4.16-2.73a9.87 9.87 0 0 0-3.77.65q-11.57 5.07-13.26 15.21a10.53 10.53 0 0 0 3.51 1.43A23.64 23.64 0 0 0 37.68 282a14.78 14.78 0 0 0 5.07-5.46 12.12 12.12 0 0 0 1.82-5.77zm78.65 42.77a5.75 5.75 0 0 1-2.08 4.61 7.39 7.39 0 0 1-4.94 1.76q-4 0-9.62-6.63A29 29 0 0 1 89 319q-11.31 0-17.29-8.06-5.46-7.15-5.72-19-.39-14.18 8.12-23.08T96.7 260a32.06 32.06 0 0 1 6.5.65V238.4a7.32 7.32 0 0 1 7.54-7.54 7.15 7.15 0 0 1 5.33 2.14 7.49 7.49 0 0 1 2.08 5.4v65.26q5.07 5.46 5.07 9.88zm-20-18.33v-18.07a7.42 7.42 0 0 1-2.47-1.69q-5.07-1.81-11.18.78a13.34 13.34 0 0 0-6.5 6.17 19.12 19.12 0 0 0-2.34 9.17 15.85 15.85 0 0 0 2 8.06q2.2 4.29 6.5 4.55a13.74 13.74 0 0 0 8.19-2.34q3-1.95 3.51-3a14.46 14.46 0 0 1 2.27-3.63zM188 313.15a7.72 7.72 0 0 1-2.21 5.46 7.08 7.08 0 0 1-5.33 2.34q-4.81 0-10.53-7.93-8.32 6.63-17.42 6.63-14.31 0-19.24-16.12a28.9 28.9 0 0 1-1.17-8.58q0-12.87 7.41-30.68 2-4.68 6.63-4.68a8 8 0 0 1 5.46 2.08 6.67 6.67 0 0 1 2.34 5.2 8.12 8.12 0 0 1-.65 3.12Q147 285.07 147 295a14.2 14.2 0 0 0 .52 4.16q1.82 6 6.11 6 4.94 0 10.66-6.89a38.61 38.61 0 0 1-.26-4.68q0-9.61 5.59-28.47 1.56-5.32 6.89-5.33a8 8 0 0 1 5.52 2 6.71 6.71 0 0 1 2.28 5.27 8.62 8.62 0 0 1-.39 2.47q-5.07 16.51-5.07 23.27 0 9.75 6.24 14.69a7.16 7.16 0 0 1 2.91 5.66z" class="cls-1"/><path d="M257.72 250.1a7.87 7.87 0 0 1-2.14 5.46 6.88 6.88 0 0 1-5.27 2.34 7.52 7.52 0 0 1-3.9-1.17 31.61 31.61 0 0 0-16.12-4.55 20.79 20.79 0 0 0-7.54 1.3q-4.55 2-4.55 5.46 0 6.24 14.3 12.09 24 9.89 24.05 28.08a20 20 0 0 1-7.67 16.25q-7 5.85-17.29 5.85a36.9 36.9 0 0 1-9.23-1.17 52.53 52.53 0 0 1-13.78-5.85q-7.94-4.81-10.66-10.27a10.59 10.59 0 0 1-1.3-4.68q0-5.72 7.41-5.72 4.16 0 6.11 2.08 9.23 9.88 20.41 9.88a15.77 15.77 0 0 0 7.15-1.56c2.69-1.39 4-3.29 4-5.72q0-7.27-14.95-13.39Q203 275.19 203 259.07q0-10 9.1-16.38a31.78 31.78 0 0 1 18.59-5.59q11.7 0 23.27 6.89a6.8 6.8 0 0 1 3.76 6.11zm70.07-8.32q0 5.33-5.59 6.89L303.09 254v61.1a7.1 7.1 0 0 1-2.15 5.33 7.42 7.42 0 0 1-5.39 2.08 7.12 7.12 0 0 1-7.41-7.41v-56.94l-12.22 3.25a9.14 9.14 0 0 1-2.21.39 6.71 6.71 0 0 1-5.27-2.28 8 8 0 0 1-2-5.52q0-5.33 5.59-6.89l46.28-12.74a9.07 9.07 0 0 1 2.21-.39 6.75 6.75 0 0 1 5.27 2.27 8.06 8.06 0 0 1 2 5.53zM401 293.65q0 6.11-5.59 7.28.9 6.24 1.3 14.17a7.6 7.6 0 0 1-1.95 5.65 7.05 7.05 0 0 1-5.46 2.28q-7 0-7.41-7.09t-1.56-14.75l-20.8.13a7.5 7.5 0 0 1-5.46-2 7.18 7.18 0 0 1-2.08-5.4 7.1 7.1 0 0 1 2.14-5.33 7.43 7.43 0 0 1 5.4-2.08l17.68-.26q-5.6-20.81-14.95-32.24-4.68 8.44-9 29.9A255.69 255.69 0 0 0 349 312q-.53 6.88-7.28 6.89a7.26 7.26 0 0 1-5.72-2.34 7.55 7.55 0 0 1-1.82-5.85 255.25 255.25 0 0 1 5.2-34.06q5.33-23.79 12.48-33.93a7.59 7.59 0 0 1 1.75-6.17 7 7 0 0 1 5.66-2.8 7.52 7.52 0 0 1 4.16 1.17q19.89 12.48 29.12 51.35h1a6.94 6.94 0 0 1 7.41 7.41zm68.36 16.64a7.58 7.58 0 0 1-2.34 5.4 7.26 7.26 0 0 1-5.33 2.4 7.48 7.48 0 0 1-5.07-2.08l-25.35-23.14q-2.61.78-5.2 1.43V313a9.5 9.5 0 0 1-2.86 6.83 9.18 9.18 0 0 1-6.76 2.92c-3.56 0-5.33-1.95-5.33-5.85v-21.17a7.31 7.31 0 0 1-5.14-2.21 7.19 7.19 0 0 1-2-5.2q0-7.15 7.15-7.41v-14.43a9.59 9.59 0 0 1 2.79-6.83 9 9 0 0 1 6.7-2.92q5.46 0 5.46 5.85v16.25q14.55-4.15 21.84-13.26 3-3.76 3-6.89 0-5.33-6.89-8.06a30.48 30.48 0 0 0-11.44-2.08q-9.1 0-14.43 3.77a7.65 7.65 0 0 1-4.42 1.56 6.78 6.78 0 0 1-5.27-2.41 8 8 0 0 1-2.14-5.52 7 7 0 0 1 3.25-5.85 37.45 37.45 0 0 1 22.1-6.76 42.06 42.06 0 0 1 22.62 6.37q11.7 7.41 11.7 19.11 0 8.19-6.37 16.12a51.06 51.06 0 0 1-13.39 11.31l20.54 18.59a7.16 7.16 0 0 1 2.58 5.46z" class="cls-2"/><path d="M15.23 361.14a8.29 8.29 0 0 0 4.21 1.19c2.4 0 3.8-1.27 3.8-3.11s-1-2.67-3.42-3.61c-3-1.06-4.81-2.6-4.81-5.16 0-2.83 2.35-4.94 5.89-4.94a8.25 8.25 0 0 1 4 .89l-.65 1.92a7.16 7.16 0 0 0-3.46-.87c-2.48 0-3.42 1.49-3.42 2.73 0 1.7 1.1 2.54 3.61 3.51 3.08 1.19 4.65 2.67 4.65 5.34s-2.08 5.24-6.37 5.24a9.42 9.42 0 0 1-4.65-1.16zm23.03 2.37a8.7 8.7 0 0 1-3.76.76c-3.94 0-6.5-2.67-6.5-6.67a6.63 6.63 0 0 1 7-6.93 8 8 0 0 1 3.29.67l-.54 1.84a5.46 5.46 0 0 0-2.75-.62c-3 0-4.62 2.21-4.62 4.93 0 3 1.94 4.89 4.54 4.89a6.65 6.65 0 0 0 2.91-.65zM41 344.83h2.37V353h.06a4.43 4.43 0 0 1 1.7-1.68 4.94 4.94 0 0 1 2.43-.67c1.75 0 4.56 1.08 4.56 5.59V364h-2.33v-7.5c0-2.11-.79-3.89-3-3.89a3.41 3.41 0 0 0-3.21 2.39 2.83 2.83 0 0 0-.17 1.14V364H41zm26.85 12.53c0 4.83-3.35 6.94-6.51 6.94-3.53 0-6.26-2.59-6.26-6.72 0-4.38 2.86-6.94 6.48-6.94s6.29 2.72 6.29 6.72zm-10.37.13c0 2.87 1.65 5 4 5s4-2.14 4-5.08c0-2.21-1.11-5-3.92-5s-4.08 2.59-4.08 5.08zm25.19-.13c0 4.83-3.35 6.94-6.51 6.94-3.53 0-6.26-2.59-6.26-6.72 0-4.38 2.86-6.94 6.48-6.94s6.29 2.72 6.29 6.72zm-10.37.13c0 2.87 1.65 5 4 5s4-2.14 4-5.08c0-2.21-1.11-5-3.91-5s-4.09 2.59-4.09 5.08zm13.37-12.66H88V364h-2.33zm14.52 2.97h-5.53v-2h13.47v2h-5.56V364h-2.38zm9.29 10.1c.06 3.21 2.11 4.53 4.48 4.53a8.58 8.58 0 0 0 3.62-.67l.41 1.7a10.58 10.58 0 0 1-4.35.81c-4 0-6.42-2.65-6.42-6.59s2.32-7 6.12-7c4.27 0 5.4 3.75 5.4 6.15a8.39 8.39 0 0 1-.08 1.11zm7-1.7c0-1.51-.62-3.86-3.3-3.86-2.4 0-3.45 2.21-3.64 3.86zm14.52 7.31a8.65 8.65 0 0 1-3.75.76c-3.94 0-6.51-2.67-6.51-6.67a6.64 6.64 0 0 1 7-6.93 8 8 0 0 1 3.29.67l-.54 1.84a5.4 5.4 0 0 0-2.75-.62c-3 0-4.61 2.21-4.61 4.93 0 3 1.94 4.89 4.53 4.89a6.65 6.65 0 0 0 2.91-.65zm2.78-18.68h2.38V353h.05a4.43 4.43 0 0 1 1.7-1.68 5 5 0 0 1 2.43-.67c1.76 0 4.56 1.08 4.56 5.59V364h-2.37v-7.5c0-2.11-.78-3.89-3-3.89a3.42 3.42 0 0 0-3.19 2.37 3 3 0 0 0-.16 1.14V364h-2.38zm14.99 9.64c0-1.35 0-2.45-.11-3.53h2.11l.13 2.15a4.81 4.81 0 0 1 4.32-2.45c1.81 0 4.62 1.08 4.62 5.56v7.8h-2.38v-7.53c0-2.11-.78-3.86-3-3.86a3.51 3.51 0 0 0-3.35 3.54V364h-2.37zm26.81 2.89c0 4.83-3.35 6.94-6.51 6.94-3.54 0-6.26-2.59-6.26-6.72 0-4.38 2.86-6.94 6.48-6.94s6.29 2.72 6.29 6.72zm-10.37.13c0 2.87 1.65 5 4 5s4-2.14 4-5.08c0-2.21-1.11-5-3.92-5s-4.08 2.59-4.08 5.08zm13.37-12.66H181V364h-2.37zm18.19 12.53c0 4.83-3.35 6.94-6.5 6.94-3.54 0-6.27-2.59-6.27-6.72 0-4.38 2.86-6.94 6.48-6.94s6.29 2.72 6.29 6.72zm-10.36.13c0 2.87 1.64 5 4 5s4-2.14 4-5.08c0-2.21-1.11-5-3.91-5s-4.09 2.59-4.09 5.08zm24.59-6.55c-.06.94-.11 2-.11 3.59v7.58c0 3-.6 4.83-1.86 6a7 7 0 0 1-4.75 1.56 8.45 8.45 0 0 1-4.35-1.08l.59-1.81a7.41 7.41 0 0 0 3.84 1c2.43 0 4.21-1.27 4.21-4.56v-1.46h-.06a4.67 4.67 0 0 1-4.15 2.19c-3.24 0-5.56-2.76-5.56-6.37 0-4.43 2.88-6.94 5.88-6.94a4.35 4.35 0 0 1 4.08 2.27h.05l.11-2zm-2.46 5.15a3.68 3.68 0 0 0-.13-1.08 3.43 3.43 0 0 0-3.33-2.51c-2.26 0-3.88 1.92-3.88 4.94 0 2.56 1.29 4.7 3.86 4.7a3.47 3.47 0 0 0 3.29-2.43 4 4 0 0 0 .19-1.27zm7.19-5.15l2.86 7.72c.29.86.62 1.88.83 2.67h.06c.24-.79.51-1.78.84-2.73l2.59-7.66h2.51l-3.57 9.31c-1.7 4.48-2.86 6.77-4.48 8.18a6.53 6.53 0 0 1-2.91 1.54l-.6-2a6.3 6.3 0 0 0 2.08-1.16 7.22 7.22 0 0 0 2-2.65 1.65 1.65 0 0 0 .19-.56 2 2 0 0 0-.13-.6l-4.83-12zm20.6 7.34l-1.89 5.72H232l6.18-18.19H241l6.23 18.19h-2.51l-1.94-5.72zm6-1.84l-1.78-5.23c-.4-1.19-.67-2.27-.94-3.32h-.06c-.27 1.07-.56 2.18-.92 3.29l-1.78 5.26zm7.42-1.44c0-1.54 0-2.86-.11-4.07h2.08l.08 2.56h.11a3.91 3.91 0 0 1 3.61-2.86 2.82 2.82 0 0 1 .68.08V353a3.83 3.83 0 0 0-.81-.08 3.34 3.34 0 0 0-3.19 3.05 7.14 7.14 0 0 0-.1 1.11v7h-2.35zm17.87 8.51a8.65 8.65 0 0 1-3.75.76c-3.94 0-6.51-2.67-6.51-6.67a6.63 6.63 0 0 1 7-6.93 8 8 0 0 1 3.29.67l-.54 1.84a5.43 5.43 0 0 0-2.75-.62c-3 0-4.62 2.21-4.62 4.93 0 3 1.95 4.89 4.54 4.89a6.65 6.65 0 0 0 2.91-.65zm2.78-18.68h2.38V353h.05a4.43 4.43 0 0 1 1.7-1.68 4.94 4.94 0 0 1 2.43-.67c1.76 0 4.56 1.08 4.56 5.59V364h-2.37v-7.5c0-2.11-.78-3.89-3-3.89a3.42 3.42 0 0 0-3.18 2.37 2.83 2.83 0 0 0-.16 1.14V364h-2.41zm17.6 2.43a1.47 1.47 0 0 1-2.94 0 1.45 1.45 0 0 1 1.48-1.48 1.41 1.41 0 0 1 1.46 1.48zM285.39 364v-13.06h2.37V364zm9.18-16.82v3.76H298v1.8h-3.4v7.05c0 1.62.46 2.54 1.78 2.54a4.77 4.77 0 0 0 1.37-.17l.11 1.79a6 6 0 0 1-2.1.32 3.3 3.3 0 0 1-2.57-1 4.86 4.86 0 0 1-.91-3.4v-7.13h-2v-1.8h2v-3.14zm7.23 10.72c.06 3.21 2.11 4.53 4.48 4.53a8.58 8.58 0 0 0 3.62-.67l.4 1.7a10.48 10.48 0 0 1-4.34.81c-4 0-6.43-2.65-6.43-6.59s2.33-7 6.13-7c4.27 0 5.4 3.75 5.4 6.15a8.39 8.39 0 0 1-.08 1.11zm7-1.7c0-1.51-.62-3.86-3.3-3.86-2.4 0-3.45 2.21-3.64 3.86zm14.52 7.31a8.65 8.65 0 0 1-3.75.76c-3.94 0-6.51-2.67-6.51-6.67a6.64 6.64 0 0 1 7-6.93 8 8 0 0 1 3.29.67l-.54 1.84a5.4 5.4 0 0 0-2.75-.62c-3 0-4.62 2.21-4.62 4.93 0 3 2 4.89 4.54 4.89a6.65 6.65 0 0 0 2.91-.65zm5.99-16.33v3.76h3.4v1.8h-3.4v7.05c0 1.62.46 2.54 1.79 2.54a4.77 4.77 0 0 0 1.37-.17l.11 1.79a6.06 6.06 0 0 1-2.11.32 3.29 3.29 0 0 1-2.56-1 4.86 4.86 0 0 1-.92-3.4v-7.13h-2v-1.8h2v-3.14zm17.01 13.26c0 1.35 0 2.53.11 3.56h-2.11l-.13-2.13h-.06a4.91 4.91 0 0 1-4.31 2.43c-2.06 0-4.51-1.14-4.51-5.73v-7.63h2.37v7.23c0 2.48.76 4.16 2.92 4.16a3.44 3.44 0 0 0 3.13-2.16A3.4 3.4 0 0 0 344 359v-8h2.37zm3.95-5.44c0-1.54 0-2.86-.11-4.07h2.08l.08 2.56h.11a3.91 3.91 0 0 1 3.61-2.86 2.82 2.82 0 0 1 .68.08V353a3.9 3.9 0 0 0-.81-.08 3.34 3.34 0 0 0-3.19 3.05 7.14 7.14 0 0 0-.1 1.11v7h-2.35zm9.88 2.9c.05 3.21 2.1 4.53 4.48 4.53a8.58 8.58 0 0 0 3.62-.67l.4 1.7a10.56 10.56 0 0 1-4.34.81c-4 0-6.43-2.65-6.43-6.59s2.32-7 6.13-7c4.26 0 5.4 3.75 5.4 6.15a10.59 10.59 0 0 1-.08 1.11zm7-1.7c0-1.51-.62-3.86-3.29-3.86-2.4 0-3.46 2.21-3.64 3.86zm18.16 7.8l-.19-1.65H385a4.86 4.86 0 0 1-4 1.95 3.73 3.73 0 0 1-4-3.76c0-3.15 2.81-4.88 7.86-4.85v-.27a2.7 2.7 0 0 0-3-3 6.5 6.5 0 0 0-3.4 1l-.46-1.62a8.08 8.08 0 0 1 4.29-1.16c4 0 5 2.72 5 5.34v4.89a18.58 18.58 0 0 0 .22 3.13zm-.35-6.67c-2.59-.05-5.53.41-5.53 2.94a2.1 2.1 0 0 0 2.24 2.27 3.24 3.24 0 0 0 3.15-2.18 2.31 2.31 0 0 0 .14-.76zm6.13-2.86c0-1.35 0-2.45-.11-3.53h2.11l.13 2.15h.06a4.79 4.79 0 0 1 4.31-2.45c1.81 0 4.62 1.08 4.62 5.56v7.8h-2.38v-7.53c0-2.11-.78-3.86-3-3.86a3.51 3.51 0 0 0-3.35 3.54V364h-2.37zm26.27-9.64v15.8c0 1.16 0 2.48.11 3.37h-2.14l-.1-2.27h-.06a4.83 4.83 0 0 1-4.45 2.57c-3.16 0-5.59-2.68-5.59-6.64 0-4.35 2.67-7 5.86-7a4.36 4.36 0 0 1 3.94 2h.07v-7.81zM415 356.25a4.3 4.3 0 0 0-.1-1 3.5 3.5 0 0 0-3.43-2.75c-2.46 0-3.92 2.16-3.92 5.05 0 2.64 1.3 4.83 3.86 4.83a3.58 3.58 0 0 0 3.49-2.83 4.24 4.24 0 0 0 .1-1zm12.11-10.2a24.66 24.66 0 0 1 4.51-.38c2.5 0 4.13.46 5.26 1.49a4.52 4.52 0 0 1 1.43 3.45 4.77 4.77 0 0 1-3.43 4.64v.09c1.41.48 2.24 1.78 2.67 3.67a29.24 29.24 0 0 0 1.41 5h-2.43a23.69 23.69 0 0 1-1.22-4.35c-.54-2.51-1.51-3.45-3.64-3.53h-2.21V364h-2.35zm2.35 8.29h2.4c2.51 0 4.1-1.38 4.1-3.46 0-2.35-1.7-3.37-4.18-3.4a9.39 9.39 0 0 0-2.32.22zM443 357.9c.06 3.21 2.11 4.53 4.48 4.53a8.58 8.58 0 0 0 3.62-.67l.41 1.7a10.58 10.58 0 0 1-4.35.81c-4 0-6.43-2.65-6.43-6.59s2.33-7 6.13-7c4.27 0 5.4 3.75 5.4 6.15a8.39 8.39 0 0 1-.08 1.11zm7-1.7c0-1.51-.62-3.86-3.3-3.86-2.4 0-3.45 2.21-3.64 3.86zm4.86 5.37a6.26 6.26 0 0 0 3.13.95c1.73 0 2.54-.87 2.54-1.95s-.67-1.75-2.43-2.4c-2.35-.84-3.45-2.13-3.45-3.7 0-2.1 1.7-3.83 4.51-3.83a6.54 6.54 0 0 1 3.21.81l-.6 1.73a5 5 0 0 0-2.67-.76c-1.4 0-2.18.81-2.18 1.78s.78 1.57 2.48 2.22c2.27.86 3.43 2 3.43 3.94 0 2.29-1.79 3.91-4.89 3.91a7.45 7.45 0 0 1-3.67-.89zm22.84-4.21c0 4.83-3.35 6.94-6.5 6.94-3.54 0-6.27-2.59-6.27-6.72 0-4.38 2.86-6.94 6.48-6.94s6.29 2.72 6.29 6.72zm-10.36.13c0 2.87 1.64 5 4 5s4-2.14 4-5.08c0-2.21-1.1-5-3.91-5s-4.09 2.59-4.09 5.08zm24.29 2.95c0 1.35 0 2.53.11 3.56h-2.1l-.14-2.13h-.05a4.92 4.92 0 0 1-4.32 2.43c-2.05 0-4.51-1.14-4.51-5.73v-7.63H483v7.23c0 2.48.75 4.16 2.91 4.16a3.44 3.44 0 0 0 3.13-2.16 3.4 3.4 0 0 0 .22-1.22v-8h2.37zm3.95-5.44c0-1.54 0-2.86-.11-4.07h2.08l.08 2.56h.11a3.92 3.92 0 0 1 3.62-2.86 2.8 2.8 0 0 1 .67.08V353a3.83 3.83 0 0 0-.81-.08 3.33 3.33 0 0 0-3.18 3.05 6 6 0 0 0-.11 1.11v7h-2.35zm17.87 8.51a8.65 8.65 0 0 1-3.75.76c-3.94 0-6.51-2.67-6.51-6.67a6.64 6.64 0 0 1 7-6.93 8 8 0 0 1 3.29.67l-.54 1.84a5.4 5.4 0 0 0-2.75-.62c-3 0-4.62 2.21-4.62 4.93 0 3 2 4.89 4.54 4.89a6.65 6.65 0 0 0 2.91-.65zm3.94-5.61c.06 3.21 2.11 4.53 4.49 4.53a8.53 8.53 0 0 0 3.61-.67l.41 1.7a10.58 10.58 0 0 1-4.35.81c-4 0-6.42-2.65-6.42-6.59s2.32-7 6.12-7c4.27 0 5.4 3.75 5.4 6.15a8.39 8.39 0 0 1-.08 1.11zm7-1.7c0-1.51-.62-3.86-3.29-3.86-2.41 0-3.46 2.21-3.65 3.86zm4.88 5.37a6.27 6.27 0 0 0 3.14.95c1.72 0 2.53-.87 2.53-1.95s-.67-1.75-2.43-2.4c-2.34-.84-3.45-2.13-3.45-3.7 0-2.1 1.7-3.83 4.51-3.83a6.54 6.54 0 0 1 3.21.81l-.6 1.73a5 5 0 0 0-2.67-.76c-1.4 0-2.18.81-2.18 1.78s.78 1.57 2.48 2.22c2.27.86 3.43 2 3.43 3.94 0 2.29-1.78 3.91-4.89 3.91a7.45 7.45 0 0 1-3.67-.89z" class="cls-3"/><path d="M510.84 185.75l7.94 20.1 20.66-6.33-10.77 18.73 17.83 12.21-21.36 3.26 1.57 21.56-15.87-14.67-15.87 14.67 1.57-21.56-21.36-3.26 17.83-12.21-10.76-18.73 20.66 6.33 7.93-20.1z" class="cls-1"/></svg>