<svg xmlns="http://www.w3.org/2000/svg" id="Layer_1" viewBox="0 0 498 498" width="498" height="498"><defs><style>.cls-1{fill:#1a2753}.cls-2{fill:#fff}</style></defs><path d="M294.71 318.57v60.8c0 11.62-2.22 13.85-13.79 13.85-5.48 0-11 .06-16.44 0-7.17-.1-10.47-3.21-10.54-10.36-.14-13.4 0-26.8 0-40.2v-159c0-11.53 2-13.59 13.32-13.6h15.84c8.84 0 11.44 2.66 11.66 11.59 0 .93.08 1.86.17 3.87 11.74-12.13 25.69-17.45 41.25-18.49 27.59-1.85 50.12 8.51 63.38 32.63 19.59 35.66 19.63 72.61-2.26 107.42-18.57 29.54-58.39 38.21-88.89 21.24-4.59-2.51-8.58-6.05-13.7-9.75zm-.72-67.4c.29 5 .36 9.87.91 14.69 2 17.49 16.21 31.33 33.22 32.54 21.48 1.53 36.22-7.91 41.28-26.73 3.27-12.14 3.1-24.46.84-36.74-3.55-19.19-17.79-30.47-38-30.36-19.25.09-34 12.28-37.07 31-.88 5.15-.83 10.43-1.17 15.6zm-168.43 18.26c-.37 11.92 6.45 22 18.1 26.19 15.45 5.55 30.45 5 44.9-4 4-2.51 9.3-3.69 14.14-4.16 7-.68 14.19-.3 21.29-.14 7.38.18 11.34 5.11 8.24 11.68a56 56 0 0 1-11.72 16.67c-25.46 24.06-73.46 28-102.56 8.63-18.69-12.44-28.18-30.81-32-52.44-4.24-24.13-1.83-47.42 10.81-68.76 16.56-27.94 46.09-40.69 79.22-35 29.59 5.08 53.93 28.46 60 59 2.14 10.83 2.1 22.14 2.46 33.25.21 6.39-3.43 9-11 9.06q-47.49.06-95 0zm70.05-36.13c-2.33-20.08-15.54-30-37.8-28.74-17.5 1-32.18 14.17-32 28.74z" class="cls-1"/><path d="M294.71 318.57v60.8c0 11.62-2.22 13.85-13.79 13.85-5.48 0-11 .06-16.44 0-7.17-.1-10.47-3.21-10.54-10.36-.14-13.4 0-26.8 0-40.2v-159c0-11.53 2-13.59 13.32-13.6h15.84c8.84 0 11.44 2.66 11.66 11.59 0 .93.08 1.86.17 3.87 11.74-12.13 25.69-17.45 41.25-18.49 27.59-1.85 50.12 8.51 63.38 32.63 19.59 35.66 19.63 72.61-2.26 107.42-18.57 29.54-58.39 38.21-88.89 21.24-4.59-2.51-8.58-6.05-13.7-9.75zm-.72-67.4c.29 5 .36 9.87.91 14.69 2 17.49 16.21 31.33 33.22 32.54 21.48 1.53 36.22-7.91 41.28-26.73 3.27-12.14 3.1-24.46.84-36.74-3.55-19.19-17.79-30.47-38-30.36-19.25.09-34 12.28-37.07 31-.88 5.15-.83 10.43-1.17 15.6zm-168.43 18.26c-.37 11.92 6.45 22 18.1 26.19 15.45 5.55 30.45 5 44.9-4 4-2.51 9.3-3.69 14.14-4.16 7-.68 14.19-.3 21.29-.14 7.38.18 11.34 5.11 8.24 11.68a56 56 0 0 1-11.72 16.67c-25.46 24.06-73.46 28-102.56 8.63-18.69-12.44-28.18-30.81-32-52.44-4.24-24.13-1.83-47.42 10.81-68.76 16.56-27.94 46.09-40.69 79.22-35 29.59 5.08 53.93 28.46 60 59 2.14 10.83 2.1 22.14 2.46 33.25.21 6.39-3.43 9-11 9.06q-47.49.06-95 0zm70.05-36.13c-2.33-20.08-15.54-30-37.8-28.74-17.5 1-32.18 14.17-32 28.74z" class="cls-2"/></svg>