<svg xmlns="http://www.w3.org/2000/svg" id="Layer_1" viewBox="0 0 2585.84 966.6" width="2585.84" height="966.6"><defs><style>.cls-1{fill:#2b3e8a}.cls-2{fill:#a1c7e9}.cls-3{fill:#2d3259}.cls-4{fill:#fff}.cls-5{fill:#2b347c}.cls-6{fill:#f4bf18}.cls-7,.cls-9{fill:none}.cls-7{stroke:#f4bf18;stroke-miterlimit:10;stroke-width:.23px}.cls-8{fill:#0e1533}.cls-10{fill:#262b63}.cls-11{fill:#78a4d7}.cls-12{fill:#bbd6f0}.cls-13{fill:url(#linear-gradient)}.cls-14{fill:#fcdb03}</style><linearGradient id="linear-gradient" x1="574.31" x2="574.31" y1="309.68" y2="656.82" gradientUnits="userSpaceOnUse"><stop offset="0" stop-color="#fff"/><stop offset=".18" stop-color="#fafcfe"/><stop offset=".41" stop-color="#eaf4fc"/><stop offset=".67" stop-color="#d1e7f9"/><stop offset=".94" stop-color="#aed5f5"/><stop offset="1" stop-color="#a4d0f4"/></linearGradient></defs><path d="M860.55 638.05v-80h38.72v7.54h-29.68v26.77h28.28v7.54h-28.28v38.14zm71.63 0v-80h9v72.45h28.64v7.54zm66.54 0v-80h38.71v7.54h-29.67v26.77H1036v7.54h-28.28v30.6h30.72v7.54zm116.28 0l-20.17-33.62-20.29 33.62h-9.85l25.15-42-22.72-38h9.88l17.81 29.95 17.62-29.91h9.85l-22.6 38 25.15 42zm38.46 0v-80h9v80zm46.25 0v-80h21.21a29.63 29.63 0 0 1 8.64 1.22 19.44 19.44 0 0 1 7 3.71 16.77 16.77 0 0 1 4.58 6.2 21.28 21.28 0 0 1 1.62 8.58 20.53 20.53 0 0 1-2.89 10.9 16.28 16.28 0 0 1-8.81 6.84v.23q8.1 2.09 11.76 7.18t3.65 13.45a23 23 0 0 1-2 10 18.1 18.1 0 0 1-5.39 6.73 21.91 21.91 0 0 1-8.11 3.77 41.86 41.86 0 0 1-10 1.16zm16.81-45.44a34.07 34.07 0 0 0 6.72-.64 14.35 14.35 0 0 0 5.45-2.26 11.13 11.13 0 0 0 3.65-4.41 16 16 0 0 0 1.33-6.95 13.83 13.83 0 0 0-1.27-6.32 10.35 10.35 0 0 0-3.42-3.94 13 13 0 0 0-5-2 34.62 34.62 0 0 0-6.15-.52h-9v27zm2.66 37.9a31.68 31.68 0 0 0 7-.75 16.31 16.31 0 0 0 5.79-2.5 12.05 12.05 0 0 0 3.94-4.63 15.93 15.93 0 0 0 1.45-7.19 15.49 15.49 0 0 0-1.33-6.66 13.59 13.59 0 0 0-3.65-4.76 16 16 0 0 0-5.45-2.89 22.2 22.2 0 0 0-6.72-1h-11.48v30.37zm60.05 7.54v-80h9v72.45h28.63v7.54zm66.53 0v-80h38.72v7.54h-29.68v26.77h28.28v7.54h-28.28v30.6h30.72v7.54zm118.93 0v-80h9v72.45h28.63v7.54zm66.53 0v-80h38.71v7.54h-29.67v26.77h28.28v7.54h-28.28v30.6H1571v7.54zm116.61 0l-8-24.7h-28.52l-7.76 24.7h-9l25.5-80h11l25.85 80zm-22.14-71.76h-.23l-11.71 39.53h23.64zm98.06 71.76l-3.94-18.44q-.93-4.17-1.91-7.36a15.88 15.88 0 0 0-2.78-5.39 11 11 0 0 0-4.75-3.3 22.66 22.66 0 0 0-7.71-1.1h-8.35v35.59h-9v-80h20.28q12.65 0 18.84 5.16t6.2 15q0 8.82-4.46 13.56a23 23 0 0 1-11.77 6.5v.23a20.85 20.85 0 0 1 6.32 2.43 12 12 0 0 1 3.77 3.71 19.26 19.26 0 0 1 2.2 5c.54 1.9 1 4 1.51 6.44l4.63 21.91zm-24.46-43.12a51.89 51.89 0 0 0 8.7-.7 20.34 20.34 0 0 0 7.07-2.49 13.06 13.06 0 0 0 4.75-4.87 15.48 15.48 0 0 0 1.74-7.71 15.19 15.19 0 0 0-1.51-7.36 9.81 9.81 0 0 0-4.23-4.11 17.66 17.66 0 0 0-6.49-1.74c-2.51-.24-5.27-.35-8.29-.35h-6.72v29.33zm107.11 43.12l-32.92-67.35h-.23v67.35h-8.58v-80h11.59l32.92 67.58h.23v-67.57h8.59v80zm48.8 0v-80h9v80zm87.98 0l-32.92-67.35h-.26v67.35h-8.58v-80H1913l33 67.59h.23v-67.58h8.58v80zm90.64-37.68h-18.31v-7.53h27.35v38.83a25.43 25.43 0 0 1-5.1 3.3 36.52 36.52 0 0 1-6 2.38 51.4 51.4 0 0 1-6.31 1.45 36.91 36.91 0 0 1-6 .52q-9.73 0-15.94-3.82a27.52 27.52 0 0 1-9.68-10 42.39 42.39 0 0 1-4.75-14.09 99.89 99.89 0 0 1-1.28-16 66.83 66.83 0 0 1 1.51-14.26 36.79 36.79 0 0 1 5-12.34 26.68 26.68 0 0 1 9.15-8.7q5.68-3.3 14.14-3.3a32.75 32.75 0 0 1 10 1.5 24.27 24.27 0 0 1 8.17 4.41 20.59 20.59 0 0 1 5.51 7.25 23.18 23.18 0 0 1 2 9.91h-10.2q0-7.08-4.12-11.3t-11.3-4.24a16.55 16.55 0 0 0-10.2 3 19.69 19.69 0 0 0-6.09 7.53 36.1 36.1 0 0 0-3 10.09 72.25 72.25 0 0 0-.82 10.49c0 2.4.08 5 .24 7.71a58 58 0 0 0 1 8.17 45.72 45.72 0 0 0 2.26 7.76 23.18 23.18 0 0 0 3.83 6.55 17.38 17.38 0 0 0 5.85 4.53 18.74 18.74 0 0 0 8.23 1.68 32.34 32.34 0 0 0 3.77-.24 27.35 27.35 0 0 0 4-.75 23 23 0 0 0 3.82-1.39 12.53 12.53 0 0 0 3.13-2zM2151 639.32q-8.82 0-14.38-3.77a26.21 26.21 0 0 1-8.69-9.79 43.35 43.35 0 0 1-4.29-13.33 91.83 91.83 0 0 1 0-29.1 41.94 41.94 0 0 1 4.29-13.21 26 26 0 0 1 8.69-9.62q5.57-3.71 14.38-3.71t14.31 3.77a26.65 26.65 0 0 1 8.64 9.68 42.2 42.2 0 0 1 4.29 13.21 91.08 91.08 0 0 1 0 29 43.62 43.62 0 0 1-4.29 13.33 26.43 26.43 0 0 1-8.64 9.79q-5.49 3.74-14.31 3.75zm0-7.53q6.25 0 9.91-3.54a23 23 0 0 0 5.56-8.75 44.92 44.92 0 0 0 2.5-11.13q.57-5.91.57-10.55c0-2.08-.07-4.36-.23-6.84a66.77 66.77 0 0 0-.87-7.41 40.48 40.48 0 0 0-1.91-7.19 23.23 23.23 0 0 0-3.3-6.14 15.51 15.51 0 0 0-5-4.29 14.84 14.84 0 0 0-7.18-1.63q-6.37 0-10.09 3.48a22.38 22.38 0 0 0-5.62 8.58 41.44 41.44 0 0 0-2.43 11c-.35 3.91-.53 7.4-.53 10.49q0 3.13.24 6.9a68.91 68.91 0 0 0 .87 7.53 45.49 45.49 0 0 0 1.85 7.31 22.09 22.09 0 0 0 3.3 6.26 15.89 15.89 0 0 0 5.1 4.34 15.15 15.15 0 0 0 7.26 1.58zm105.37-51.59a24.47 24.47 0 0 1-1.91 10.2 18 18 0 0 1-5.28 6.84 21.53 21.53 0 0 1-8 3.89 40.19 40.19 0 0 1-10.2 1.21h-9.51v35.71h-9v-80H2231a44.91 44.91 0 0 1 10.31 1.1 20.37 20.37 0 0 1 8 3.77 17.86 17.86 0 0 1 5.22 6.84 25.83 25.83 0 0 1 1.84 10.44zm-9 .12a17.35 17.35 0 0 0-1.39-7.59 11.07 11.07 0 0 0-3.83-4.46 14.08 14.08 0 0 0-5.73-2.15 47.27 47.27 0 0 0-7.36-.52h-7.54v29.21h9.74q7.31 0 11.36-3 4.72-3.48 4.71-11.49zm51.31 57.73V565.6h-19.13v-7.54h47.3v7.54h-19.13v72.45zm56.57 0v-80h9v80zm71.05 1.27q-8.81 0-14.37-3.77a26.24 26.24 0 0 1-8.7-9.79 43.9 43.9 0 0 1-4.29-13.33 91.83 91.83 0 0 1 0-29.1 42.46 42.46 0 0 1 4.29-13.21 26 26 0 0 1 8.7-9.62q5.57-3.71 14.37-3.71t14.32 3.77a26.54 26.54 0 0 1 8.63 9.68 41.94 41.94 0 0 1 4.29 13.21 91.08 91.08 0 0 1 0 29 43.35 43.35 0 0 1-4.29 13.33 26.32 26.32 0 0 1-8.63 9.79q-5.52 3.74-14.32 3.75zm0-7.53q6.25 0 9.91-3.54a23.1 23.1 0 0 0 5.57-8.75 45.37 45.37 0 0 0 2.49-11.13c.38-3.94.58-7.46.58-10.55q0-3.12-.24-6.84a66.77 66.77 0 0 0-.87-7.41 40.48 40.48 0 0 0-1.91-7.19 23.23 23.23 0 0 0-3.3-6.14 15.48 15.48 0 0 0-5-4.29 14.88 14.88 0 0 0-7.19-1.63q-6.37 0-10.08 3.48a22.29 22.29 0 0 0-5.63 8.58 41.84 41.84 0 0 0-2.43 11c-.35 3.91-.52 7.4-.52 10.49 0 2.09.07 4.39.23 6.9a68.91 68.91 0 0 0 .87 7.53 45.49 45.49 0 0 0 1.85 7.31 22.11 22.11 0 0 0 3.31 6.26 15.79 15.79 0 0 0 5.1 4.34 15.11 15.11 0 0 0 7.26 1.58zm103.16 6.26l-32.92-67.35h-.23v67.35h-8.58v-80h11.59l32.93 67.58h.23v-67.57h8.57v80zM885.73 417.63q0 20.69.75 30.65t3.38 12.42a11.59 11.59 0 0 0 2.73 2 14.83 14.83 0 0 0 4.14 1.32 61.64 61.64 0 0 0 6.39.75q3.86.28 9.31.28a108.1 108.1 0 0 0 13.45-.75 13.72 13.72 0 0 0 9.3-4.89 20.84 20.84 0 0 0 3.2-5.45 24.72 24.72 0 0 0 1.69-5.83c.25-1.63.82-2.45 1.7-2.45s1.12.94 1.12 2.82c0 .5-.06 1.5-.18 3s-.35 3.2-.66 5.08-.63 3.79-.94 5.73a49.19 49.19 0 0 1-1 5 21.33 21.33 0 0 1-1 2.63 3.4 3.4 0 0 1-1.6 1.5 9.43 9.43 0 0 1-3.29.76c-1.44.12-3.42.18-5.92.18q-10.15 0-17.68-.18t-13.62-.41q-6-.37-10.53-.47c-3-.07-5.9-.09-8.65-.09-.38 0-1.29 0-2.73.09s-3.1.09-5 .09-3.8.22-5.74.29-3.6.09-5 .09c-2 0-3-.5-3-1.5 0-.76.5-1.13 1.5-1.13a22.16 22.16 0 0 0 2.83-.19 17.16 17.16 0 0 0 2.82-.57 4.92 4.92 0 0 0 3.85-3.38 33.91 33.91 0 0 0 1.6-7 155 155 0 0 0 .85-16.64q.09-10.62.09-24.17V355.2q0-4.33-.09-6.87c-.07-1.69-.16-3.29-.29-4.79a16.82 16.82 0 0 0-1.88-7.34q-1.5-2.43-6.2-3.38a11.92 11.92 0 0 0-3.1-.47c-1.32-.06-2.42-.1-3.3-.1s-1.5-.37-1.5-1.12c0-1 1-1.51 3-1.51s4.39 0 6.77.1l6.67.18 5.27.19c1.44.07 2.29.1 2.54.1s1.19 0 2.82-.1l5.64-.19 6.49-.18c2.19-.07 4-.1 5.36-.1 2 0 3 .5 3 1.51 0 .75-.51 1.12-1.51 1.12-.63 0-1.53 0-2.73.1a20.71 20.71 0 0 0-3.47.47q-4.14.75-5.55 3.29a18.61 18.61 0 0 0-1.79 7.43c-.12 1.5-.22 3.1-.28 4.79s-.09 4-.09 6.87v62.43zm124.48-83.31a48.34 48.34 0 0 1 2.45-6c.5-.88 1.06-1.32 1.69-1.32a2.08 2.08 0 0 1 1.69 1.22 44.7 44.7 0 0 1 2.45 5.55q.75 1.69 3.48 8.84t6.58 17.39q3.85 10.26 8.56 22.47t9.31 24.17q4.61 11.94 8.83 22.66t7.06 17.86a69.76 69.76 0 0 0 4.79 10.16 42.72 42.72 0 0 0 4.33 6.2 13.38 13.38 0 0 0 3.76 3.2 14.66 14.66 0 0 0 3.29 1.32 16.14 16.14 0 0 0 4 .94c1.32.13 2.48.19 3.48.19 1.25 0 1.88.37 1.88 1.13s-.38 1-1.13 1.22a10.82 10.82 0 0 1-2.63.28H1073q-3.94 0-8.74-.09c-3.2-.07-6.43-.16-9.68-.29l-4.14-.28c-1-.06-1.51-.4-1.51-1s.44-1.07 1.32-1.32a2.86 2.86 0 0 0 1.5-1.6c.38-.81.25-2-.37-3.48l-17.49-46.26a1.81 1.81 0 0 0-1.69-1.13h-40.41a2 2 0 0 0-1.88 1.51l-11.29 33.24a38.53 38.53 0 0 0-2.62 12.6 4.41 4.41 0 0 0 2.35 4.14 9.68 9.68 0 0 0 4.8 1.32H985c1.25 0 1.88.37 1.88 1.13q0 1.5-2.82 1.5c-1.13 0-2.45 0-4-.09l-4.33-.19-3.85-.19c-1.2-.07-2-.09-2.54-.09s-1.48 0-2.92.09l-5.17.19-6.39.19q-3.39.09-6.77.09-3.57 0-3.57-1.5c0-.76.56-1.13 1.69-1.13.63 0 1.5 0 2.63-.1a24.75 24.75 0 0 0 2.82-.28 13.63 13.63 0 0 0 9.94-5.78 54 54 0 0 0 5.93-11.94zm19.56 75.22c.75 0 1-.43.75-1.31l-17.86-50.78q-1.51-4.12-2.82 0l-16.55 50.78c-.38.88-.19 1.31.56 1.31zm111.89 7.71q0 13.54.1 24.17a152.91 152.91 0 0 0 .84 16.64 20.89 20.89 0 0 0 1.7 7q1.31 2.82 5.64 3.38a40.3 40.3 0 0 0 4.61.57c1.69.13 3 .19 3.85.19s1.51.37 1.51 1.13c0 1-1 1.5-3 1.5q-4 0-7.9-.09l-7.24-.19-5.46-.19c-1.44-.07-2.28-.09-2.53-.09s-1.1 0-2.54.09l-5 .19-5.83.19q-3 .09-5.07.09c-2 0-3-.5-3-1.5 0-.76.5-1.13 1.5-1.13a21.89 21.89 0 0 0 2.82-.19 17 17 0 0 0 2.82-.57 4.93 4.93 0 0 0 3.86-3.38 33.91 33.91 0 0 0 1.6-7 152.91 152.91 0 0 0 .84-16.64q.09-10.62.1-24.17v-79.54l-27.83.37a62.92 62.92 0 0 0-7.43.38 34.8 34.8 0 0 0-5.36 1 11.85 11.85 0 0 0-3.76 1.79 11.33 11.33 0 0 0-2.64 2.82c-1 1.63-1.72 2.85-2.16 3.67a21.16 21.16 0 0 0-1 2.16c-.5 1.26-1.13 1.88-1.88 1.88s-.94-.56-.94-1.69a26.66 26.66 0 0 1 .56-3.67c.38-1.94.81-4 1.32-6.3s1-4.32 1.41-6.2.72-3 .84-3.39c.25-.62.54-1.38.85-2.25s.66-1.32 1-1.32a6.56 6.56 0 0 1 2.73.94 15.8 15.8 0 0 0 5.55 1.32q4.14.38 8.65.65t6.2.29h70.52q4.51 0 7.81-.29t5.55-.65c1.37-.25 2.5-.47 3.38-.66a10.23 10.23 0 0 1 1.88-.28c.5 0 .78.21.85.65a12.16 12.16 0 0 1 .09 1.6c0 1.38 0 3.14-.09 5.27s-.13 4.26-.19 6.39-.13 4-.19 5.74-.09 2.79-.09 3.29c0 1.63-.44 2.44-1.32 2.44a1.05 1.05 0 0 1-1-.56 9.06 9.06 0 0 1-.47-2.64l-.19-2.06a9.3 9.3 0 0 0-1.32-3.95 8.91 8.91 0 0 0-3.66-3.2 26.47 26.47 0 0 0-7-2.16 71.65 71.65 0 0 0-11.19-1l-23.7-.37zm89.89-33.09v-29q0-4.33-.09-6.87c-.07-1.69-.16-3.29-.28-4.79a16.8 16.8 0 0 0-1.89-7.34q-1.5-2.43-6.2-3.38a11.92 11.92 0 0 0-3.1-.47c-1.32-.06-2.42-.1-3.29-.1s-1.51-.37-1.51-1.12c0-1 1-1.51 3-1.51s4.39 0 6.77.1l6.68.18 5.26.19c1.44.07 2.29.1 2.54.1.5 0 1.66 0 3.48-.1l6.21-.19 6.86-.18c2.25-.07 4.14-.1 5.64-.1a115 115 0 0 1 18 1.41 37.65 37.65 0 0 1 16.45 6.87 38.72 38.72 0 0 1 4 3.66 32.61 32.61 0 0 1 4.23 5.55 35.83 35.83 0 0 1 3.39 7.34 27.74 27.74 0 0 1 1.41 9 48.67 48.67 0 0 1-5.08 21.16q-5.07 10.62-17.68 22.28l21.18 27.15q9.59 12.22 17.86 21.06 7.71 8.08 13.54 10.53a43 43 0 0 0 9.4 3c1.76.26 3.26.41 4.52.47s2.19.1 2.81.1c1.13 0 1.7.37 1.7 1.13a1.19 1.19 0 0 1-.94 1.22 14.67 14.67 0 0 1-3.57.28h-13.36a76 76 0 0 1-12.22-.75 23.63 23.63 0 0 1-7.9-2.82 39.51 39.51 0 0 1-11.66-10.06q-5.64-6.87-13.73-17.59-3-3.94-6-8.08l-5.74-7.9q-2.73-3.76-5.08-6.87t-3.66-5a3.43 3.43 0 0 0-2.45-1.13l-23.13-.37c-.88 0-1.31.5-1.31 1.5v4.51q0 13.54.09 24.17a150 150 0 0 0 .85 16.64 20.66 20.66 0 0 0 1.69 7c.88 1.88 2.75 3 5.64 3.38a40.3 40.3 0 0 0 4.61.57c1.69.13 3 .19 3.85.19s1.51.37 1.51 1.13c0 1-1 1.5-3 1.5-2.63 0-5.27 0-7.9-.09l-7.24-.19-5.45-.19c-1.45-.07-2.29-.09-2.54-.09q-3.95.18-6.77.28l-5.83.19c-2 .06-3.7.09-5.08.09-2 0-3-.5-3-1.5 0-.76.5-1.13 1.51-1.13a22.12 22.12 0 0 0 2.82-.19 17.16 17.16 0 0 0 2.82-.57A4.92 4.92 0 0 0 1229 465a33.27 33.27 0 0 0 1.6-7 155 155 0 0 0 .85-16.64q.09-10.62.09-24.17zm15 16.36a2.42 2.42 0 0 0 1.31 2.25q2.07 1.32 7.81 2.17a82.27 82.27 0 0 0 11.94.84 40.45 40.45 0 0 0 7.14-.66 16.94 16.94 0 0 0 7-2.91q4.89-3.39 8.18-10.81t3.29-18.15q0-17.67-8.65-27.64t-23.88-10a70.56 70.56 0 0 0-7.71.38 41.23 41.23 0 0 0-4.89.75 2.19 2.19 0 0 0-1.5 2.25zm110.06-15.99a75.63 75.63 0 0 1 5.83-16.64 82.78 82.78 0 0 1 9.87-15.61 64.39 64.39 0 0 1 14.2-13.07 70.54 70.54 0 0 1 18.8-8.93 78.76 78.76 0 0 1 23.51-3.29 85.68 85.68 0 0 1 29.33 4.89 68.26 68.26 0 0 1 23.42 14 64.69 64.69 0 0 1 15.51 22.19 73.56 73.56 0 0 1 5.64 29.43 82.7 82.7 0 0 1-5.36 29.8 74 74 0 0 1-15.13 24.45 71.35 71.35 0 0 1-23.7 16.55 76 76 0 0 1-30.84 6.11q-19.37 0-33.19-6.77a67 67 0 0 1-22.66-17.49 70.34 70.34 0 0 1-13-23.79 85.24 85.24 0 0 1-4.14-25.85 73.6 73.6 0 0 1 1.91-15.98zM1377.2 425a68 68 0 0 0 12.8 22.72 57.11 57.11 0 0 0 19.09 14.48 55.53 55.53 0 0 0 23.7 5.08 61 61 0 0 0 15.23-2.35 43.73 43.73 0 0 0 17-9.31q8.18-7 13.91-19.65t5.74-33.2q0-16.92-4.8-29.9a66 66 0 0 0-12.69-21.72 53.26 53.26 0 0 0-39.68-17.77 60.75 60.75 0 0 0-21.91 3.86 46.29 46.29 0 0 0-17.39 11.66 54.65 54.65 0 0 0-11.47 19.37q-4.14 11.57-4.14 27a90.46 90.46 0 0 0 4.61 29.73zm165.39-40.84v-29c0-2.89 0-5.18-.1-6.87s-.15-3.29-.28-4.79a16.82 16.82 0 0 0-1.88-7.34q-1.5-2.43-6.2-3.38a12 12 0 0 0-3.11-.47c-1.32-.06-2.41-.1-3.29-.1s-1.5-.37-1.5-1.12c0-1 1-1.51 3-1.51s4.38 0 6.77.1l6.67.18 5.27.19c1.44.07 2.28.1 2.54.1q3.38 0 8.65-.29t11.84-.28q11.48 0 18.81 3.1a34.07 34.07 0 0 1 11.56 7.53 23.59 23.59 0 0 1 5.74 9.21 28.7 28.7 0 0 1 1.51 8.37 34.5 34.5 0 0 1-1.51 10.53 38.33 38.33 0 0 1-4 8.75 62.16 62.16 0 0 1-5.64 7.61c-2.07 2.39-4.24 4.7-6.49 7a58.33 58.33 0 0 1 11 5 47.56 47.56 0 0 1 10.53 8.28 42.81 42.81 0 0 1 7.9 11.56 34.42 34.42 0 0 1 3.1 14.86 39.49 39.49 0 0 1-11.94 28 44.05 44.05 0 0 1-15 9.4 57.07 57.07 0 0 1-21.06 3.57c-1 0-2.82-.06-5.46-.18l-8.08-.38q-4.14-.37-7.53-.47c-2.25-.07-3.57-.09-3.94-.09H1548c-1.38 0-3.07.06-5.08.18s-3.82.06-5.82.19-3.7.19-5.08.19c-2 0-3-.5-3-1.5 0-.76.5-1.13 1.5-1.13a21.89 21.89 0 0 0 2.82-.19 16.74 16.74 0 0 0 2.82-.57 4.92 4.92 0 0 0 3.86-3.38 33.91 33.91 0 0 0 1.6-7 152.91 152.91 0 0 0 .84-16.64q.09-10.62.1-24.17zm15 4.13a2.05 2.05 0 0 0 1.32 2.07c.63.13 1.81.28 3.57.47s4.39.28 7.9.28q3.94 0 6.58-.09a16.57 16.57 0 0 0 4.42-.66 12.25 12.25 0 0 0 3.2-1.5 15.84 15.84 0 0 0 2.91-2.63 26.69 26.69 0 0 0 4.89-8.28 29.48 29.48 0 0 0 1.88-10.72 49.51 49.51 0 0 0-1.41-11.66 33.1 33.1 0 0 0-4.42-10.43 23.31 23.31 0 0 0-7.8-7.43 22.86 22.86 0 0 0-11.76-2.82c-1 0-2.38.06-4.13.19a27.55 27.55 0 0 0-4.89.75c-1.51.37-2.26 1.06-2.26 2.07zm0 19.94v24.63q0 6 .1 10.44t.09 5.55c.13 2.25.25 4.17.38 5.73a13 13 0 0 0 .84 3.95 8.25 8.25 0 0 0 1.79 2.73 13 13 0 0 0 3.39 2.25 19.74 19.74 0 0 0 4.22 1.51 40.87 40.87 0 0 0 4.71.85c1.56.18 3 .31 4.32.37s2.41.1 3.29.1a32.71 32.71 0 0 0 8.37-1.23 25.14 25.14 0 0 0 8.65-4.23 23.83 23.83 0 0 0 6.77-8.18q2.73-5.16 2.73-13.07a55.87 55.87 0 0 0-.85-9.21 47.37 47.37 0 0 0-2.91-10.16 45.2 45.2 0 0 0-5.55-9.78A37.41 37.41 0 0 0 1589 402a30 30 0 0 0-8.55-4.14 52.11 52.11 0 0 0-7-1.31 20.55 20.55 0 0 0-2.92-.28c-1.31-.07-2.72-.1-4.23-.1h-7.52c-.75 0-1.13.44-1.13 1.32zm114.19-24.07v-29q0-4.33-.1-6.87c-.06-1.69-.16-3.29-.28-4.79a16.82 16.82 0 0 0-1.88-7.34q-1.5-2.43-6.2-3.38a12 12 0 0 0-3.11-.47c-1.31-.06-2.41-.1-3.29-.1s-1.5-.37-1.5-1.12c0-1 1-1.51 3-1.51h6.77c2.38 0 4.63.07 6.77.19l7.71.38H1700q7.71 0 14.38-.1t8.37-.09a63.92 63.92 0 0 0 8.09-.94 4 4 0 0 0 1.31-.57 2.34 2.34 0 0 1 1.32-.37c.5 0 .75.56.75 1.69a12.08 12.08 0 0 1-.56 2.91 35.19 35.19 0 0 0-.94 5.93c0 .5 0 1.31-.1 2.44s-.16 2.35-.28 3.67-.22 2.57-.28 3.76a16.7 16.7 0 0 1-.28 2.54 11.1 11.1 0 0 1-.47 1.41.91.91 0 0 1-.85.66c-1 0-1.5-.82-1.5-2.45 0-.62-.07-1.63-.19-3a12.06 12.06 0 0 0-.94-3.77 8.6 8.6 0 0 0-3.39-3.85q-2.45-1.6-10-2.54a49 49 0 0 0-5.08-.28l-8.28-.19q-4.32-.09-8.08-.09h-4.33c-.75 0-1.12.62-1.12 1.88v51.9c0 1.25.37 1.88 1.12 1.88h14.11q5.07 0 9.59-.1t6.2-.28q3.39-.37 5.46-.75a5.72 5.72 0 0 0 3.38-1.88c1.38-1.63 2.32-2.44 2.82-2.44s.94.5.94 1.5a18.3 18.3 0 0 1-.56 3.38 52.48 52.48 0 0 0-.94 7.15c-.13 1-.22 2.1-.28 3.29s-.13 2.38-.19 3.58-.13 2.25-.19 3.19-.09 1.6-.09 2a16.27 16.27 0 0 1-.19 2.35c-.13.81-.5 1.22-1.13 1.22-.88 0-1.32-.57-1.32-1.69s0-2-.09-2.92a15.51 15.51 0 0 0-.66-3.29 9.62 9.62 0 0 0-2.44-4c-1.26-1.32-3.7-2.16-7.34-2.54-1.25-.12-3.23-.25-5.92-.38s-5.45-.21-8.28-.28-5.45-.12-7.89-.19-4-.09-4.8-.09a1.16 1.16 0 0 0-1.31 1.32v48.7a35.06 35.06 0 0 0 1 7.9 8.35 8.35 0 0 0 3.2 4.7 14.35 14.35 0 0 0 6.48 2.26 87.38 87.38 0 0 0 11.1.56q3.77 0 9-.28a28.34 28.34 0 0 0 9-1.79 11.21 11.21 0 0 0 5.64-4.6 25.14 25.14 0 0 0 2.82-8.94c.38-1.88.94-2.82 1.7-2.82a.93.93 0 0 1 1 .94c.06.63.1 1.26.1 1.88 0 .38-.1 1.35-.29 2.92s-.4 3.32-.66 5.26-.5 3.86-.75 5.74a41.67 41.67 0 0 1-.75 4.32 13 13 0 0 1-1.13 2.83 3.49 3.49 0 0 1-1.69 1.41 8.63 8.63 0 0 1-2.82.56c-1.13.06-2.63.09-4.51.09q-10.73 0-18.53-.18t-13.26-.38q-5.44-.37-9-.47c-2.38-.07-4.27-.09-5.64-.09h-2.45c-1.38 0-3.07.06-5.08.18s-3.82.06-5.83.19-3.7.19-5.07.19c-2 0-3-.5-3-1.5 0-.76.5-1.13 1.5-1.13a21.89 21.89 0 0 0 2.82-.19 16.74 16.74 0 0 0 2.82-.57 4.92 4.92 0 0 0 3.86-3.38 33.91 33.91 0 0 0 1.6-7 152.91 152.91 0 0 0 .84-16.64q.1-10.62.1-24.17zm216.63 64.69q2.64-6.39 6.4-15.61t7.89-19.65q4.14-10.44 8.37-21.25t7.81-20.31q3.57-9.5 6.11-16.83t3.67-10.72c.5-1.38.9-2.7 1.22-4a13.71 13.71 0 0 0 .47-3.2 6.64 6.64 0 0 0-.47-2.35 3.8 3.8 0 0 0-2-2 13.28 13.28 0 0 0-3.66-.66c-1.32-.06-2.48-.1-3.48-.1-1.38 0-2.07-.37-2.07-1.12 0-1 1.38-1.51 4.14-1.51 3.76 0 7.49.1 11.19.28s6.11.29 7.23.29c.25 0 .91 0 2-.1l3.76-.19 4.51-.18c1.57-.07 3-.1 4.42-.1 2.13 0 3.2.44 3.2 1.32s-.75 1.31-2.26 1.31c-.63 0-1.85.1-3.66.29a12 12 0 0 0-5.36 2 10.6 10.6 0 0 0-2 1.6 16.58 16.58 0 0 0-2.25 3 50.42 50.42 0 0 0-2.73 5.17c-1 2.13-2.13 4.76-3.39 7.9q-.75 2.07-2.82 7t-4.87 11.87q-2.82 7-6.3 15.24t-7 16.92q-8.65 20.69-14.85 35.35t-9.41 21.63q-3.95 8.46-5.26 11.38c-.88 1.94-1.76 2.91-2.63 2.91-1.13 0-2.11-.82-2.92-2.44s-2.1-4.7-3.86-9.22l-46.07-115.27a44.94 44.94 0 0 0-2.91-6.4 22.32 22.32 0 0 0-2.92-4 10.6 10.6 0 0 0-3.38-2.44 36.57 36.57 0 0 0-4.33-1.6 18.6 18.6 0 0 0-4.13-.66c-1.38-.06-2.39-.1-3-.1-1 0-1.51-.43-1.51-1.31s1.63-1.32 4.89-1.32q3.39 0 7 .1l6.58.18 5.27.19c1.5.07 2.56.1 3.19.1 1 0 3.26-.1 6.77-.29s7.08-.28 10.72-.28q5.09 0 5.08 1.32c0 .88-.63 1.31-1.88 1.31-1 0-2.23.07-3.67.19a11.92 11.92 0 0 0-3.48.75 4 4 0 0 0-2 1.79 4.69 4.69 0 0 0-.47 2 20.3 20.3 0 0 0 1.5 6q1.51 4.14 3.58 9.59zm111.7-114.53a48.34 48.34 0 0 1 2.45-6c.5-.88 1.06-1.32 1.69-1.32a2.08 2.08 0 0 1 1.69 1.22 44.7 44.7 0 0 1 2.45 5.55q.75 1.69 3.48 8.84t6.58 17.39q3.85 10.26 8.56 22.47t9.3 24.17q4.62 11.94 8.84 22.66l7 17.86a70.74 70.74 0 0 0 4.8 10.16 43.57 43.57 0 0 0 4.32 6.2 13.54 13.54 0 0 0 3.77 3.2 14.66 14.66 0 0 0 3.29 1.32 16 16 0 0 0 4 .94c1.32.13 2.47.19 3.48.19 1.25 0 1.88.37 1.88 1.13s-.38 1-1.13 1.22a10.82 10.82 0 0 1-2.63.28h-11.1q-3.95 0-8.74-.09c-3.2-.07-6.43-.16-9.69-.29l-4.13-.28c-1-.06-1.51-.4-1.51-1s.44-1.07 1.32-1.32a2.89 2.89 0 0 0 1.5-1.6c.38-.81.25-2-.37-3.48l-17.49-46.26a1.81 1.81 0 0 0-1.69-1.13h-40.43a2 2 0 0 0-1.89 1.51l-11.28 33.28a38.27 38.27 0 0 0-2.63 12.6 4.41 4.41 0 0 0 2.35 4.14 9.65 9.65 0 0 0 4.79 1.32h1.88c1.26 0 1.89.37 1.89 1.13 0 1-.94 1.5-2.83 1.5-1.12 0-2.44 0-3.94-.09l-4.33-.19-3.86-.19c-1.19-.07-2-.09-2.53-.09s-1.48 0-2.92.09l-5.17.19-6.39.19q-3.39.09-6.77.09c-2.38 0-3.58-.5-3.58-1.5 0-.76.57-1.13 1.7-1.13.62 0 1.5 0 2.63-.1a24.75 24.75 0 0 0 2.82-.28 13.63 13.63 0 0 0 9.87-5.74 54.4 54.4 0 0 0 5.93-11.94zm19.56 75.22c.75 0 1-.43.75-1.31l-17.86-50.78q-1.51-4.12-2.82 0l-16.55 50.78c-.38.88-.19 1.31.56 1.31zm100.8 8.09q0 20.69.75 30.65t3.38 12.42a11.59 11.59 0 0 0 2.73 2 14.83 14.83 0 0 0 4.14 1.32 61.64 61.64 0 0 0 6.39.75q3.85.28 9.31.28a108.22 108.22 0 0 0 13.45-.75 13.72 13.72 0 0 0 9.3-4.89 20.84 20.84 0 0 0 3.2-5.45 24.72 24.72 0 0 0 1.69-5.83c.25-1.63.82-2.45 1.7-2.45s1.12.94 1.12 2.82c0 .5-.06 1.5-.18 3s-.35 3.2-.66 5.08-.63 3.79-.94 5.73a49.19 49.19 0 0 1-1 5 21.33 21.33 0 0 1-1 2.63 3.4 3.4 0 0 1-1.6 1.5 9.43 9.43 0 0 1-3.29.76q-2.16.18-5.93.18c-6.76 0-12.66-.06-17.67-.18s-9.53-.26-13.54-.38-7.52-.41-10.53-.47-5.9-.09-8.65-.09c-.38 0-1.29 0-2.73.09s-3.1.09-5 .09-3.8.22-5.74.29-3.6.09-5 .09c-2 0-3-.5-3-1.5 0-.76.5-1.13 1.5-1.13a22.16 22.16 0 0 0 2.83-.19 16.83 16.83 0 0 0 2.81-.57 4.92 4.92 0 0 0 3.86-3.38 33.91 33.91 0 0 0 1.6-7 152.91 152.91 0 0 0 .84-16.64q.1-10.62.1-24.17V355.2q0-4.33-.1-6.87c-.06-1.69-.15-3.29-.28-4.79a16.82 16.82 0 0 0-1.88-7.34q-1.5-2.43-6.2-3.38a11.93 11.93 0 0 0-3.11-.47c-1.31-.06-2.41-.1-3.29-.1s-1.5-.37-1.5-1.12c0-1 1-1.51 3-1.51s4.38 0 6.77.1l6.67.18 5.27.19c1.44.07 2.28.1 2.54.1s1.19 0 2.82-.1l5.64-.19 6.49-.18c2.19-.07 4-.1 5.36-.1 2 0 3 .5 3 1.51 0 .75-.51 1.12-1.51 1.12-.63 0-1.54 0-2.72.1a20.69 20.69 0 0 0-3.48.47q-4.14.75-5.55 3.29a18.61 18.61 0 0 0-1.79 7.43c-.12 1.5-.22 3.1-.28 4.79s-.09 4-.09 6.87v62.43zm111.32 0q0 20.69.75 30.65c.51 6.65 1.63 10.79 3.39 12.42a11.39 11.39 0 0 0 2.73 2 14.86 14.86 0 0 0 4.13 1.32 62.21 62.21 0 0 0 6.4.75c2.56.19 5.67.28 9.31.28a107.94 107.94 0 0 0 13.44-.75 13.74 13.74 0 0 0 9.31-4.89 21.12 21.12 0 0 0 3.2-5.45 25.2 25.2 0 0 0 1.69-5.83c.25-1.63.81-2.45 1.69-2.45s1.13.94 1.13 2.82c0 .5-.06 1.5-.19 3s-.34 3.2-.66 5.08-.63 3.79-.94 5.73a46.82 46.82 0 0 1-1 5 23.07 23.07 0 0 1-1 2.63 3.4 3.4 0 0 1-1.6 1.5 9.49 9.49 0 0 1-3.29.76c-1.45.12-3.42.18-5.93.18q-10.15 0-17.68-.18t-13.53-.38q-6-.37-10.54-.47c-3-.07-5.89-.09-8.65-.09-.37 0-1.28 0-2.72.09s-3.11.09-5 .09-3.79.22-5.73.29-3.61.09-5 .09c-2 0-3-.5-3-1.5 0-.76.5-1.13 1.5-1.13a21.89 21.89 0 0 0 2.82-.19 17.16 17.16 0 0 0 2.82-.57 4.93 4.93 0 0 0 3.86-3.38 33.32 33.32 0 0 0 1.59-7 150 150 0 0 0 .85-16.64q.09-10.62.1-24.17V355.2c0-2.89 0-5.18-.1-6.87s-.16-3.29-.28-4.79a16.82 16.82 0 0 0-1.88-7.34c-1-1.62-3.07-2.75-6.21-3.38a11.85 11.85 0 0 0-3.1-.47c-1.32-.06-2.41-.1-3.29-.1s-1.5-.37-1.5-1.12c0-1 1-1.51 3-1.51s4.38 0 6.76.1l6.68.18 5.26.19c1.44.07 2.29.1 2.54.1s1.19 0 2.82-.1l5.65-.19 6.48-.18c2.2-.07 4-.1 5.37-.1 2 0 3 .5 3 1.51 0 .75-.5 1.12-1.5 1.12-.63 0-1.54 0-2.73.1a21 21 0 0 0-3.48.47c-2.76.5-4.6 1.6-5.55 3.29a18.63 18.63 0 0 0-1.78 7.43c-.13 1.5-.22 3.1-.28 4.79s-.1 4-.1 6.87v62.43zm95.53-33.47v-29q0-4.33-.09-6.87c-.07-1.69-.16-3.29-.29-4.79a16.68 16.68 0 0 0-1.88-7.34q-1.5-2.43-6.2-3.38a11.93 11.93 0 0 0-3.11-.47c-1.31-.06-2.41-.1-3.28-.1s-1.51-.37-1.51-1.12c0-1 1-1.51 3-1.51h6.77c2.38 0 4.64.07 6.77.19l7.71.38h20.31q7.71 0 14.38-.1c4.45-.06 7.25-.09 8.37-.09a63.92 63.92 0 0 0 8.09-.94 4.16 4.16 0 0 0 1.32-.57 2.29 2.29 0 0 1 1.31-.37c.5 0 .75.56.75 1.69a11.59 11.59 0 0 1-.56 2.91 35.19 35.19 0 0 0-.94 5.93c0 .5 0 1.31-.09 2.44s-.16 2.35-.29 3.67-.22 2.57-.28 3.76a15.48 15.48 0 0 1-.28 2.54 9.71 9.71 0 0 1-.47 1.41.91.91 0 0 1-.85.66c-1 0-1.5-.82-1.5-2.45 0-.62-.07-1.63-.19-3a12.06 12.06 0 0 0-.94-3.77 8.6 8.6 0 0 0-3.39-3.85q-2.44-1.6-10-2.54a48.82 48.82 0 0 0-5.08-.28l-8.27-.19c-2.89-.06-5.58-.09-8.09-.09h-4.33c-.75 0-1.12.62-1.12 1.88v51.9c0 1.25.37 1.88 1.12 1.88h14.11q5.07 0 9.59-.1t6.21-.28q3.38-.37 5.45-.75a5.69 5.69 0 0 0 3.38-1.88c1.38-1.63 2.32-2.44 2.82-2.44s.94.5.94 1.5a17.46 17.46 0 0 1-.56 3.38 52.48 52.48 0 0 0-.94 7.15c-.13 1-.22 2.1-.28 3.29s-.13 2.38-.19 3.58-.13 2.25-.19 3.19-.09 1.6-.09 2a16.27 16.27 0 0 1-.19 2.35c-.13.81-.5 1.22-1.13 1.22-.88 0-1.31-.57-1.31-1.69s0-2-.1-2.92a14.91 14.91 0 0 0-.66-3.29 9.52 9.52 0 0 0-2.44-4c-1.26-1.32-3.7-2.16-7.33-2.54-1.26-.12-3.23-.25-5.93-.38s-5.45-.21-8.27-.28-5.46-.12-7.9-.19-4-.09-4.8-.09a1.16 1.16 0 0 0-1.31 1.32v48.7a35.06 35.06 0 0 0 1 7.9 8.35 8.35 0 0 0 3.2 4.7 14.35 14.35 0 0 0 6.49 2.26 87.1 87.1 0 0 0 11.09.56q3.77 0 9-.28a28.28 28.28 0 0 0 9-1.79 11.27 11.27 0 0 0 5.65-4.6 25.55 25.55 0 0 0 2.82-8.94c.37-1.88.94-2.82 1.69-2.82a.93.93 0 0 1 1 .94c.06.63.1 1.26.1 1.88 0 .38-.1 1.35-.28 2.92s-.41 3.32-.66 5.26-.5 3.86-.76 5.74a41.67 41.67 0 0 1-.75 4.32 13.09 13.09 0 0 1-1.12 2.83 3.57 3.57 0 0 1-1.7 1.41 8.63 8.63 0 0 1-2.82.56c-1.13.06-2.63.09-4.51.09q-10.73 0-18.53-.18t-13.25-.38q-5.46-.37-9-.47c-2.38-.07-4.26-.09-5.64-.09h-2.45q-2.07 0-5.07.18c-1.88 0-3.83.06-5.83.19s-3.7.19-5.08.19c-2 0-3-.5-3-1.5 0-.76.5-1.13 1.5-1.13a22.16 22.16 0 0 0 2.83-.19 17.16 17.16 0 0 0 2.82-.57 4.92 4.92 0 0 0 3.85-3.38 33.27 33.27 0 0 0 1.6-7 155 155 0 0 0 .85-16.64q.09-10.62.09-24.17zm140.28 38.92a50.72 50.72 0 0 0-.37-6.58 47.92 47.92 0 0 0-.94-5.08 32.91 32.91 0 0 0-1.32-4.13c-.5-1.25-1.07-2.57-1.69-4-.25-.5-1.07-2-2.45-4.42s-3.13-5.39-5.26-8.84-4.42-7.21-6.87-11.28-4.86-8-7.24-11.85-4.57-7.33-6.58-10.53-3.57-5.61-4.7-7.24a71 71 0 0 0-6.86-8.75 34.1 34.1 0 0 0-5.93-5.17A15.52 15.52 0 0 0 2413 333a13 13 0 0 0-3.66-.76c-1.25 0-1.88-.43-1.88-1.31s.81-1.32 2.44-1.32c.88 0 2.29 0 4.23.1l6 .18 5.55.19c1.63.07 2.57.1 2.82.1.63 0 2.51-.1 5.64-.29s6.52-.28 10.16-.28a3.45 3.45 0 0 1 2 .38 1.16 1.16 0 0 1 .47.94q0 .57-.75.84c-.5.19-1.19.47-2.07.85-1.63.88-2.45 2-2.45 3.39a10 10 0 0 0 .66 3.47 29.32 29.32 0 0 0 1.79 3.86l3.38 5.92q2.64 4.62 6.21 10.72l7.62 13.07q4 7 7.61 13.07t6.21 10.72c1.75 3.07 2.94 5 3.57 5.92.63-1.37 1.72-3.54 3.29-6.48s3.42-6.27 5.55-10 4.35-7.62 6.67-11.75 4.55-8.06 6.68-11.76 4-6.92 5.64-9.68 2.76-4.64 3.39-5.64a21.85 21.85 0 0 0 2.54-5.36 16.22 16.22 0 0 0 .65-4.23 8.35 8.35 0 0 0-.65-3.48 3.22 3.22 0 0 0-2.35-1.79c-1.88-.62-2.83-1.25-2.83-1.88s1-1.13 3-1.13c2.51 0 5 .1 7.53.28s4.13.29 4.88.29c.26 0 1.2 0 2.83-.1l5.36-.19 5.83-.18c1.94-.07 3.35-.1 4.23-.1 1.62 0 2.44.38 2.44 1.13 0 1-.82 1.5-2.44 1.5a18.23 18.23 0 0 0-4 .57 14.09 14.09 0 0 0-4.7 2.07 22.93 22.93 0 0 0-4.8 3.76q-2 2.07-5.17 5.83-1.51 1.88-4.51 6.49t-6.77 10.53q-3.77 5.92-7.71 12.6t-7.43 12.69q-3.48 6-6.11 10.72a53.29 53.29 0 0 0-3.39 6.77 32.63 32.63 0 0 0-2.44 9.59c-.26 3-.38 6.08-.38 9.21v16.18q0 2.25.09 7.52c.07 3.51.22 7.27.47 11.28a18.08 18.08 0 0 0 1.89 7q1.5 2.82 5.83 3.38a40.11 40.11 0 0 0 4.6.57c1.7.13 3 .19 3.86.19s1.5.37 1.5 1.13c0 1-1 1.5-3 1.5q-3.95 0-7.9-.09l-7.24-.19-5.45-.19c-1.44-.07-2.29-.09-2.54-.09s-1.1 0-2.54.09l-5 .19-5.83.19c-2 .06-3.7.09-5.08.09-2 0-3-.5-3-1.5 0-.76.5-1.13 1.51-1.13a22 22 0 0 0 2.82-.19 17.16 17.16 0 0 0 2.82-.57 5.62 5.62 0 0 0 4.14-3.38 21.14 21.14 0 0 0 1.69-7q.38-6 .47-11.28t.09-7.52z" class="cls-1"/><path d="M123 657.89l72.24-119.45a3.33 3.33 0 0 0-2.85-5H46a3.32 3.32 0 0 0-2.81 5.07l74.18 119.45a3.32 3.32 0 0 0 5.63-.07z" class="cls-2"/><path d="M118.44 535.9h72.94c1.14.08 1.54.79 1 1.78-1.77 3.09-3.5 6.2-5.33 9.26-3.46 5.79-7 11.56-10.43 17.34q-4.71 7.83-9.4 15.68-3.5 5.82-7 11.65l-11.23 18.62q-5.74 9.51-11.48 19c-3.22 5.37-6.41 10.75-9.63 16.11-1.9 3.17-3.85 6.32-5.77 9.5a12.36 12.36 0 0 1-.88 1.3.75.75 0 0 1-1.15.22 3.67 3.67 0 0 1-.94-.9c-2-3.14-4-6.31-6-9.46-2.94-4.7-5.9-9.39-8.82-14.1q-5.08-8.12-10.14-16.29-7-11.22-14-22.42l-7.91-12.73q-6.35-10.17-12.7-20.32-6.91-11.09-13.82-22.14a6.72 6.72 0 0 1-.64-1.67c-.12-.4.08-.58.55-.55h2.47zm12.14 76.34a.61.61 0 0 1 .07-.17.11.11 0 0 0 .06-.1l.09-.08a.11.11 0 0 0 .08-.08l.38-.7.16-.34.5-.8.15-.19c.16-.27.31-.55.48-.81l.39-.63c.09-.12.17-.25.27-.36a.22.22 0 0 0 .08-.14c.17-.29.35-.59.51-.89l.3-.43c.22-.33.43-.66.63-1 .56-.82 1.14-1.63 1.67-2.47.31-.5.56-1 .82-1.54l.15-.28a1 1 0 0 0 .13-.17l.5-.84 2.21-3.49s.05-.11.09-.16c1.27-2 2.52-4 3.8-6.06.65-1 1.31-2.08 2-3.12.07-.12.12-.23.18-.35l.14-.15s.06-.06.08-.13.23-.38.35-.56a1.09 1.09 0 0 1 .08-.15 1 1 0 0 1 .1-.18l.2-.25.19-.4a1.26 1.26 0 0 0 .13-.17l.11-.15.23-.4c.05-.06.08-.13.13-.18l.07-.14c.11-.15.21-.3.33-.45s.15-.26.21-.4l.34-.57.17-.22c.2-.33.38-.66.58-1l.05-.05.24-.43.12-.16.13-.15.87-1.47a1.13 1.13 0 0 0 .12-.18l.11-.11.15-.27c.65-1 1.31-1.92 1.92-2.91.12-.18 0-.51 0-.77v-.28c.21-.55.13-1.09-.46-1.23a10.86 10.86 0 0 0-2.42-.23h-25.5c-.68 0-.83-.2-.83-.85v-14.6c0-.38 0-.78-.51-.76a6.68 6.68 0 0 0-1.17.21h-1.13a4.16 4.16 0 0 0-.77-.14h-46.1a4.16 4.16 0 0 0-.77.14h-.35c-1.12-.1-1.93.56-1.73 1.45a12.06 12.06 0 0 0 2.39 4.25v.07a.65.65 0 0 1 .08.17c0 .06.05.11.07.18.21.34.43.67.64 1a.17.17 0 0 0 .09.13l-.05.05.1.07v.05c.12.18.23.38.35.56a.06.06 0 0 0 0 .08.69.69 0 0 1 .1.17l.13.15.46.81c.26.44.53.87.79 1.32l.1.08s.08.12.13.17c.06.13.15.24.21.38a.07.07 0 0 0 0 .08l.09.11v.05l.1.14.1.2.23.33a.26.26 0 0 0 .1.13.11.11 0 0 0 0 .07l.1.08c.05 0 .08.12.13.17a1.13 1.13 0 0 0 .12.18l4.8 7.46a.76.76 0 0 1 .14.16l.22.39.14.16.48.7c0 .09.11.21.16.31a.65.65 0 0 1 .13.16l.26.46c.23.35.47.7.71 1a.27.27 0 0 0 .07.14l.45.67c.88 1.37 1.75 2.73 2.65 4.1a.87.87 0 0 1 .13.15c.17.26.35.53.51.79.28.45.57.88.83 1.32h.08c.07.08.13.16.2.23l.1.15c.16.26.33.53.48.79s.49.78.74 1.16l.41.64a1.29 1.29 0 0 1 .15.17c.06.13.13.24.2.38s0 .08.09.12l.07.06a.07.07 0 0 0 .08.08c.07.14.12.27.19.4a1.37 1.37 0 0 0 .16.18c.43.66.86 1.34 1.27 2l.3.43c.58 1 1.12 2 1.75 2.92s1.14 1.62 1.72 2.43a.1.1 0 0 0 .08.1.23.23 0 0 0 .1.07 1.19 1.19 0 0 1 .13.25.65.65 0 0 1 .13.16 4.68 4.68 0 0 0 .2.45l6.69 10.26.1.1a.06.06 0 0 0 0 .06 1.38 1.38 0 0 1 .08.17c0 .06 0 .11.09.18s.18.21.26.33.05.12.08.17l.1.14a1.29 1.29 0 0 1 .15.17l.1.2c.07.1.12.2.18.28l.07.07s0 .06.07.08a1.38 1.38 0 0 1 .08.17 1 1 0 0 1 .13.23l.36.57a.87.87 0 0 1 .13.15l.45.67a.9.9 0 0 0 .1.09 2.12 2.12 0 0 0 .12.2c.21.33.43.65.66 1a.84.84 0 0 1 .06.14l.45.67a1 1 0 0 1 .13.17c.05.1.12.21.16.31s0 .05 0 .05a.11.11 0 0 0 .07 0v.07l.1.1c.07.13.13.26.2.41s.18.22.26.33a2.91 2.91 0 0 1 .18.35c.12.2.24.38.35.58a.06.06 0 0 0 0 .06l.08.09.4.57c.18.3.36.6.54.88a.15.15 0 0 0 .07.13l.31.46c0 .06.08.11.12.18s.11.11.16.18c.17.27.32.55.48.81s.22.3.33.45a2.42 2.42 0 0 1 .18.36c0 .05.08.11.13.16l.51.83c.14.2.25.38.38.58a1.88 1.88 0 0 0 .12.18c.18.28.36.55.56.83a1.4 1.4 0 0 0 .1.16c.16.17.34.33.51.51l.15.15a.81.81 0 0 0 .12.14l.15.11.13.13c.43.33.81.79 1.43.51h.55l.23-.09a2.37 2.37 0 0 0 .36-.17h.17l.18-.1c1.3-.67 1.8-2 2.62-3.12.3-.51.6-1 .89-1.52V623a.62.62 0 0 0 .09-.12c.07-.08.14-.18.2-.26s0-.13.09-.2l.5-.79s.09-.12.14-.17a.2.2 0 0 0 .06-.13c.09-.13.15-.25.23-.38a3 3 0 0 0 .19-.35l.34-.53.32-.46c.16-.26.31-.55.48-.81a1.4 1.4 0 0 0 .1-.16c.1-.15.2-.3.28-.45l.25-.36.48-.81a.52.52 0 0 0 .08-.19l.11-.12.86-1.4.07-.15c.21-.31.43-.62.64-1l.35-.57c0-.05.05-.1.08-.14a.52.52 0 0 0 .08-.19l.3-.43c.22-.33.42-.66.63-1a.62.62 0 0 0 1.15.41z" class="cls-3"/><path d="M121.45 625.24c-.27.38-.55.76-.81 1.14a1 1 0 0 1-.1.18.81.81 0 0 1-.12.14 1.13 1.13 0 0 1-.1.13v.08l-.61.61s-.06 0-.06.07l-.09.08-.56.33-.49.23h-.35l-.48-.1h-.06l-.12-.1h-.07l-.39-.2-.15-.15-.18-.18a1.4 1.4 0 0 0-.12-.18l-.39-.46v-.05a.09.09 0 0 0-.07-.09l-.08-.08s0-.06-.07-.06-.13-.25-.21-.38l-.15-.15-1-1.63c-.12-.2-.25-.38-.36-.58l-.37-.55c-.06-.08-.13-.15-.2-.23l-.13-.28a1.09 1.09 0 0 1-.08-.15l-.34-.56-.05-.07-.12-.12a.06.06 0 0 0 0-.06 1.09 1.09 0 0 1-.08-.15 1.74 1.74 0 0 0-.1-.19.87.87 0 0 0-.15-.13l-.08-.18c-1.08-1.7-2.15-3.4-3.24-5.09q-3.45-5.33-6.89-10.64c-.78-1.19-1.57-2.36-2.35-3.55a2 2 0 0 0-.13-.18l-.29-.45a1.13 1.13 0 0 1-.1-.13l-.23-.4c-.28-.44-.56-.87-.86-1.32-.11-.15-.21-.31-.33-.46a1.4 1.4 0 0 1-.1-.16v-.05l-.23-.36-.14-.16c-.2-.33-.42-.66-.61-1a1.51 1.51 0 0 0-.17-.2l-1-1.49a.22.22 0 0 0 0-.14c-.39-.6-.79-1.18-1.17-1.77l-.26-.37c-.15-.21-.28-.43-.43-.64l-.07-.17-.2-.27-3.32-5.15c-.08-.12-.18-.25-.27-.37s-.28-.43-.43-.64c0-.05 0-.12-.06-.17l-.25-.36c0-.09-.08-.18-.11-.27-.25-.39-.51-.77-.76-1.17l-.28-.3-.27-.48-.57-.88a.18.18 0 0 0-.06-.14l-.38-.57v-.05l-1-1.53c-.29-.5-.59-1-.89-1.47a.87.87 0 0 1-.13-.15c-1.8-2.79-3.62-5.57-5.39-8.38-1.4-2.19-2.76-4.44-4.13-6.66a.11.11 0 0 0 0-.06l-.1-.1c-.18-.28-.37-.56-.53-.83s-.22-.39-.32-.59-.21-.38-.33-.58-.19-.31-.29-.48l-.16-.27-.65-1.38c.07-.62.32-1 1-.9.08 0 .18-.08.28-.11h47.84a2.19 2.19 0 0 0 .7.18c.56 0 .69.23.69.74v14.61a3 3 0 0 0 .17.76v.05H151c.38 0 .76-.1 1.14-.1.19 0 .51 0 .57.1a1.1 1.1 0 0 1 .07.68 8.39 8.39 0 0 1-.18.84c-.1.17-.2.35-.3.51a1.47 1.47 0 0 1-.1.13l-.23.4-.5.74a.27.27 0 0 0-.08.14 5.05 5.05 0 0 0-.28.51c-.16.23-.31.48-.48.71s-.15.28-.21.43l-.15.2a.7.7 0 0 0-.08.2 1.47 1.47 0 0 0-.1.13s-.05 0-.05.05l-.2.39a1.58 1.58 0 0 0-.12.15l-.15.15h-.06v.12c0 .09-.1.21-.15.31a1 1 0 0 0-.13.16l-.07.15c-.18.31-.38.61-.56.92l-.11.1c-.06.13-.13.26-.21.41s-.12.14-.17.2-.05.12-.08.17l-.25.34a2.68 2.68 0 0 1-.18.28c0 .1-.08.2-.13.29l-.08.08s-.07 0-.07.06l-.2.38-.14.15-.35.59-.1.17s0 .12-.06.17 0 0 0 .1l-.08.08s-.09 0-.09.1c-.07.14-.12.27-.19.4l-.13.13-.23.48-.13.15-.12.16-.31.44-.84 1.37h-.07v.12c0 .04-.23.31-.35.46s0 .13-.08.2v.05s-.06 0-.1.06v.07s-.07 0-.07.08l-.22.38c-.1.11-.18.23-.28.33s-.07.18-.12.28l-.26.36s-.07.07-.07.12c-.16.3-.35.61-.51.91h-.05l-.12.11c-.21.36-.43.73-.66 1.09-.35.58-.7 1.16-1 1.74l-.34.5c-.09.11-.17.24-.27.36l-.35.54a1 1 0 0 0-.08.14c-.08.16-.16.33-.26.49a.76.76 0 0 0-.13.17.18.18 0 0 0-.07.15l-.31.47c0 .07-.05.12-.07.18s-.25.35-.36.53l-.15.32c-.07.06-.12.13-.18.19l-.23.4-.2.31c-.08.14-.17.27-.23.38l-.16.3-.1.18a1.42 1.42 0 0 0-.12.13c-.25.39-.5.79-.73 1.17-.17.3-.33.6-.5.88a1.4 1.4 0 0 1-.1.16l-.43.67-.36.59-.08.08c-.05 0-.07 0-.07.09h-.08c-.18.34-.36.65-.55 1-.05 0-.08.12-.13.16l-.43.68a.17.17 0 0 0-.09.13l-.08.2v.05a.45.45 0 0 1-.1.13.4.4 0 0 0-.1.12c-.1.16-.19.31-.28.48s-.09.11-.14.16h-.07v.12a2.82 2.82 0 0 0-.18.29c-.05 0-.09.12-.14.17l-.44.73a3.27 3.27 0 0 1-.17.31l-.18.2c-.12.2-.25.39-.36.59-.26.45-.53.88-.79 1.32a.21.21 0 0 0-.07.14c-.15.28-.31.54-.46.82l-.35.51-.25.37q-.16.27-.36.54c-.17.27-.33.51-.48.78l-.07.15c-.09.16-.21.33-.31.48l-.41.64c0 .07 0 .12-.07.18-.09.12-.19.23-.27.35s-.08.16-.11.26l-.2.23-.14.25c-.13.23-.28.46-.41.69a1 1 0 0 0-.13.22.91.91 0 0 0-.13.16c-.07.13-.15.28-.21.41l-.15.15a.16.16 0 0 0-.07.15l-.34.56c-.13.18-.25.36-.38.53s-.23.39-.35.61-.07.11-.1.18v.05c-.15.26-.3.53-.45.77s-.08.07-.12.12v.05c-.26.41-.53.84-.81 1.25 0 .1-.08.19-.11.28-.2.29-.42.57-.62.85zm3.22-12.24l.63-1.07 3.76-6.1c.48-.76 1-1.47 1.49-2.23 1.16-1.83 2.3-3.68 3.44-5.52l2.48-3.93c.86-1.39 1.68-2.78 2.56-4.15 1.05-1.67 2.16-3.3 3.2-5 1.34-2.15 2.63-4.31 3.93-6.46a5.58 5.58 0 0 0 .35-.69 5.21 5.21 0 0 0-.82-.17h-19.9c-1 0-1.15.12-1.15 1.16v31.21c.03.95.03 1.81.03 2.95zm-3.4-17.49v-24a2.52 2.52 0 0 0-.28-.81 3 3 0 0 0-.76.34q-5.44 4.47-10.9 8.94c-4.15 3.41-8.3 6.79-12.44 10.18-.45.36-.68.69-.2 1.22a9.31 9.31 0 0 1 .87 1.31c.67 1 1 1 1.89.24q8.9-7.5 17.78-15a3.17 3.17 0 0 1 .69-.34 5.54 5.54 0 0 1 .12.69v9.09a1.56 1.56 0 0 1-.46 1c-4.3 3.82-8.63 7.6-13 11.39-1.32 1.15-1.85 1.07-.46 2.94.78 1 1 1.12 2 .28l11-9.47a2.53 2.53 0 0 1 .68-.33 3.31 3.31 0 0 1 .12.7c0 3.33-.07 6.65-.07 10a1.6 1.6 0 0 1-.56 1.29c-2.15 1.93-4.26 3.9-6.41 5.83a1.08 1.08 0 0 0-.32 1.52l6.84 11c.42.64.8.66 1.26 0 .73-1 1.49-1.9 2.16-2.91a2.39 2.39 0 0 0 .4-1.29c.06-7.95.05-15.88.05-23.81zm-25.61-33.84H80.81a7.66 7.66 0 0 0-.83 0c-.64.07-.84.48-.51 1l1.83 2.93q4.17 6.72 8.34 13.41c.5.8.68.83 1.33.3l18.38-14.87c.73-.59 1.48-1.16 2.17-1.77a1 1 0 0 0 .25-.71c0-.13-.38-.23-.61-.29a1.65 1.65 0 0 0-.5 0z" class="cls-3"/><path d="M118.18 628.91l-1.44-.51c.41.33.79.79 1.44.51zm35.44-54.47a1.19 1.19 0 0 0 0-.83c-.12-.31-.43-.39-.73-.44a14.57 14.57 0 0 0-2.56-.2H126a4.67 4.67 0 0 1-1.12 0 .46.46 0 0 1-.38-.36 3.51 3.51 0 0 1 0-1V558a4.12 4.12 0 0 0 0-1c-.08-.31-.36-.33-.65-.31a10.82 10.82 0 0 1-1.27.2h-.63a3.85 3.85 0 0 1-.67-.09 7.91 7.91 0 0 0-1.29 0H74.41c-.23 0-.43.08-.66.11s-.68 0-1 .07a1.55 1.55 0 0 0-.76.34c-.5.43-.38 1-.22 1.59a9.56 9.56 0 0 0 1 2.1c.39.64.84 1.25 1.29 1.87 0-.15-.09-.32-.14-.47a2.58 2.58 0 0 1 .12.42c0 .13.13.21.18.34a4.67 4.67 0 0 0 .48.81 2.22 2.22 0 0 1 .21.37s0 .06.09.11 0 .07 0 .13a2.58 2.58 0 0 0 .18.32c.07.11.13.25.18.34s.27.37.38.57l.48.81c.17.26.32.52.48.79s.25.44.4.66.15.25.21.36a2.53 2.53 0 0 0 .18.27.84.84 0 0 1 .2.28 3.49 3.49 0 0 0 .28.43c0 .08.1.17.15.25a.87.87 0 0 0 .17.21 3.91 3.91 0 0 1 .3.45c.13.2.24.38.38.58l.73 1.09c.49.78 1 1.56 1.49 2.32l1.48 2.31c.22.35.45.68.68 1 .12.15.17.35.28.49a6.18 6.18 0 0 1 .36.53 4.56 4.56 0 0 1 .33.56c.09.15.2.27.29.42.21.38.46.72.71 1.09.1.16.18.31.29.48s.23.36.37.54c.24.35.46.71.69 1.08.5.77 1 1.55 1.5 2.33.14.19.25.38.38.57a2.27 2.27 0 0 0 .27.33c.26.35.48.75.71 1.13.13.21.28.44.41.66s.15.21.22.33a2.26 2.26 0 0 1 .23.29l.15.25.38.61c.26.43.55.86.83 1.29.13.2.24.41.39.61a1.81 1.81 0 0 1 .18.23 2.06 2.06 0 0 1 .17.33c0 .1.08.06.13.11s0 .09.08.13 0 0 .07.09 0 .08 0 .11a1.26 1.26 0 0 0 .18.32 7.73 7.73 0 0 1 .71 1.05c.46.71.93 1.43 1.44 2.1s1 1.31 1.37 2 .86 1.44 1.27 2.17c.18.33.38.62.56.95a.8.8 0 0 0 .15.2 1.42 1.42 0 0 1 .12.25 3.56 3.56 0 0 0 .3.53l1.4 2.15c.94 1.45 1.9 2.9 2.84 4.36l1.59 2.43.38.58.2.29a2.71 2.71 0 0 0 .19.25 3.82 3.82 0 0 0 .29.48 2.35 2.35 0 0 1 .19.25c.07.1.1.21.17.33s.11.11.16.18a1.51 1.51 0 0 1 .15.28 2.12 2.12 0 0 0 .12.2l.08.05a.29.29 0 0 1 0 .1 1 1 0 0 1 .12.16l.23.4.25.4c.07.09.16.18.23.28a5 5 0 0 1 .48.77 6.49 6.49 0 0 0 .46.73c.18.26.33.55.51.81l.27.41c.06.1.15.18.21.28a2.39 2.39 0 0 0 .12.22s.07.05.07.08v.07a.5.5 0 0 0 .1.11c.12.1.15.27.23.4s.22.26.32.41.14.28.23.43.18.27.26.41 0 .09.08.12 0 0 .07 0 0 0 0 .06l.15.22c.18.28.36.54.52.82s.29.52.47.76a2.49 2.49 0 0 1 .2.32c.08.15.21.25.29.39s.32.58.51.83.2.23.29.36.11.27.19.38a3.6 3.6 0 0 1 .28.4c.1.17.2.33.32.5l.53.84.59.89a5 5 0 0 0 .78.81s.13.2.18.2a1.4 1.4 0 0 1 .18.13 1.36 1.36 0 0 0 .17.17 2.13 2.13 0 0 0 .33.11l.33.12.66.23a1.83 1.83 0 0 0 .66 0 2.9 2.9 0 0 1 .58-.24 1.92 1.92 0 0 0 .33-.14l.25-.13a3.64 3.64 0 0 0 .94-.81c.54-.64.94-1.4 1.42-2.08a12.45 12.45 0 0 0 .79-1.32 3.42 3.42 0 0 1 .38-.58 4.25 4.25 0 0 0 .35-.58c.13-.21.26-.44.41-.64l.18-.22a2.19 2.19 0 0 1 .17-.29c.15-.25.28-.5.44-.75s.3-.44.47-.67c.33-.5.59-1 .92-1.52a15.29 15.29 0 0 0 .86-1.39 1.13 1.13 0 0 0 .3-.38c.13-.23.28-.45.41-.68.25-.4.46-.79.71-1.16a9.27 9.27 0 0 0 .8-1.23c.21-.43.51-.81.76-1.23.09-.16.21-.33.31-.49a4.13 4.13 0 0 1 .26-.47 2.11 2.11 0 0 0 .33-.54c.14-.23.24-.46.37-.69.26-.42.54-.83.79-1.24s.5-.85.78-1.24a2.69 2.69 0 0 0 .2-.27c.06-.11.11-.23.18-.34a5.37 5.37 0 0 1 .43-.73l.44-.7c.09-.11.15-.24.23-.36s.22-.26.15-.31c.46-.68.94-1.35 1.38-2s.76-1.34 1.14-2c.1-.17.22-.32.32-.48s.23-.38.33-.56c.21-.37.44-.73.68-1.1.44-.71.89-1.4 1.33-2.11a6.64 6.64 0 0 0 .6-1.07 8.73 8.73 0 0 1 .53-1.06c.41-.71.86-1.41 1.29-2.12s.9-1.43 1.35-2.16c.08-.15.13-.25.3-.3s.1 0 .13-.05.1-.2.15-.28c.18-.36.38-.72.56-1.07a7.46 7.46 0 0 1 .68-1.17 3.88 3.88 0 0 1 .39-.42 2.05 2.05 0 0 0 .2-.23c.05-.1.09-.2.15-.3a1.94 1.94 0 0 1 .2-.21c0-.07.08-.15.13-.23a6.32 6.32 0 0 0 .33-.56 6.16 6.16 0 0 0 .33-.55 4.34 4.34 0 0 1 .28-.46 1.24 1.24 0 0 0 .14-.18 9.23 9.23 0 0 1 .56-1c.25-.35.46-.73.69-1.11.12-.18.25-.36.35-.54l.38-.67.08-.13.05-.08a1.38 1.38 0 0 0 .14-.24 2.55 2.55 0 0 1 .38-.53 2.32 2.32 0 0 0 .21-.38l.23-.4c.15-.26.3-.53.46-.78s.17-.19.24-.31a4.65 4.65 0 0 1 .26-.41l.5-.75c.34-.51.67-1 1-1.53a1.29 1.29 0 0 0 .32-.7v-.36a.56.56 0 0 0 .41-.3zM72.1 558c0-.06.07-.11.11-.18a1.08 1.08 0 0 0-.11.18zm80.59 16.72a2.62 2.62 0 0 1-.25 1l-.49.85c-.17.29-.37.57-.56.84s-.3.54-.47.79a9.45 9.45 0 0 0-.53.86c-.06.13-.18.23-.24.36a1.84 1.84 0 0 1-.15.28c-.17.19-.23.47-.4.67a1.57 1.57 0 0 0-.18.19 2.87 2.87 0 0 0-.18.4c-.05.1-.13.17-.18.26s-.17.3-.27.45l-.23.38c-.05.07-.08.15-.13.22s-.1.06-.13.11a2.64 2.64 0 0 0-.2.36 1.15 1.15 0 0 1-.15.2 2.39 2.39 0 0 0-.12.22 8.3 8.3 0 0 0-.49.81.75.75 0 0 1-.07.18h-.11c-.03 0 0 .11-.07.15s-.08.16-.13.24-.13.14-.18.22a4.5 4.5 0 0 0-.25.41c-.12.2-.27.4-.37.61a.27.27 0 0 1 0 .14s-.06 0-.09.05-.12.23-.15.31a1.86 1.86 0 0 1-.1.2s-.1.08-.13.13a2.22 2.22 0 0 0-.2.41 4.33 4.33 0 0 1-.27.37c-.06.11-.15.21-.23.33-.2.28-.36.56-.54.86-.09.13-.17.28-.25.41s-.08.15-.13.21 0 .12-.07.19-.1.11-.13.14l-.15.22a1.52 1.52 0 0 0-.18.36 1.3 1.3 0 0 1-.15.23c-.08.12-.15.27-.23.38a3.07 3.07 0 0 0-.28.35 2 2 0 0 0-.09.2.59.59 0 0 1-.14.23 2 2 0 0 0-.25.35 4.62 4.62 0 0 1-.28.48 2.5 2.5 0 0 1-.23.39 1.89 1.89 0 0 1-.2.2 8.7 8.7 0 0 0-.5.83c-.33.56-.68 1.12-1 1.68s-.74 1.11-1.09 1.67l-.23.36a3 3 0 0 1-.25.43 2.43 2.43 0 0 0-.18.32c-.08.13-.18.26-.26.41s-.12.23-.2.35a2.29 2.29 0 0 0-.28.41 1.21 1.21 0 0 1-.23.38 3.18 3.18 0 0 0-.28.43l-.5.78a4.2 4.2 0 0 1-.36.59 6.12 6.12 0 0 0-.46.71c-.15.25-.32.48-.47.73s-.33.56-.48.86-.38.58-.56.87a3.89 3.89 0 0 1-.25.4c-.06.08-.16.22-.26.25h.05a11.19 11.19 0 0 1-.66 1.11c-.1.13-.18.26-.27.39a2.83 2.83 0 0 0-.29.47 5.25 5.25 0 0 1-.47.72 2 2 0 0 1-.14.25c0 .07-.12.13-.15.2s0 .08 0 .13a1.27 1.27 0 0 1-.1.12l-.1.15a12.22 12.22 0 0 0-.66 1 1.28 1.28 0 0 1-.15.25 1.24 1.24 0 0 0-.18.21c-.11.17-.21.36-.33.55l-.61 1c-.2.33-.38.68-.58 1s-.53.79-.79 1.19-.55.84-.81 1.26a.11.11 0 0 0 .08 0c-.08 0-.07 0-.11.07v.1a1.57 1.57 0 0 1-.19.26l-.38.59c0 .09-.13.19-.18.27s0 .13-.08.2-.13.16-.18.24a2.28 2.28 0 0 0-.17.3 1.14 1.14 0 0 1-.18.25 1.65 1.65 0 0 0-.15.25l-.34.59a2.62 2.62 0 0 1-.34.48 2.42 2.42 0 0 0-.24.45c-.07.11-.2.2-.25.31s-.23.41-.35.6-.25.34-.38.52a6.14 6.14 0 0 0-.34.62c-.19.29-.35.61-.53.9a1.64 1.64 0 0 1-.27.32c-.11.15-.21.35-.33.51l-.35.55a4.91 4.91 0 0 1-.33.59c-.24.33-.49.68-.74 1a9.26 9.26 0 0 0-.69 1 2.37 2.37 0 0 1-.23.3c-.12.13-.19.25-.32.38l-.46.44-.13.15a2.48 2.48 0 0 1-.32.17 3.33 3.33 0 0 1-.54.26 1.3 1.3 0 0 1-.65 0 .58.58 0 0 1-.14 0l-.1-.05a.88.88 0 0 1-.17-.12c-.13-.1-.33-.15-.46-.24a3.3 3.3 0 0 1-.37-.38 5.51 5.51 0 0 0-.38-.5.71.71 0 0 1-.11-.17.25.25 0 0 0-.07-.08h-.08c-.08 0 0-.06 0-.1l-.1-.11a2.09 2.09 0 0 0-.17-.28 1 1 0 0 0-.18-.18c-.06-.1-.13-.2-.18-.3s-.28-.43-.41-.66l-.78-1.23c-.13-.19-.26-.41-.41-.59a1.66 1.66 0 0 1-.22-.3c0-.1-.1-.21-.16-.31s-.18-.3-.22-.35a1.85 1.85 0 0 0-.23-.36c-.16-.15-.23-.4-.4-.56a3.65 3.65 0 0 1-.47-.73c-.2-.3-.38-.61-.58-.91-.8-1.24-1.57-2.48-2.37-3.7l-4.79-7.42c-1.58-2.44-3.19-4.86-4.77-7.28a3.88 3.88 0 0 0-.23-.33 4.91 4.91 0 0 1-.28-.5c-.2-.3-.4-.6-.58-.91s-.38-.54-.55-.83a4.87 4.87 0 0 0-.46-.69 7.56 7.56 0 0 1-.51-.79c-.18-.3-.4-.6-.6-.89l-.59-.95a2 2 0 0 1-.12-.19.23.23 0 0 0-.1-.14 2.62 2.62 0 0 1-.34-.24 3 3 0 0 1-.71-1.29 3.12 3.12 0 0 0-.47-.76c-.1-.15-.19-.28-.28-.43s-.13-.25-.21-.38c-.43-.58-.79-1.22-1.19-1.82s-.79-1.24-1.19-1.85-.78-1.26-1.21-1.83a5.21 5.21 0 0 1-.56-.88 4.05 4.05 0 0 0-.21-.35c-.1-.15-.17-.31-.27-.48s-.39-.61-.59-.9a2.63 2.63 0 0 0-.3-.38 2.46 2.46 0 0 1-.26-.43c-.17-.28-.35-.55-.52-.81a.85.85 0 0 1-.13-.22.94.94 0 0 0-.06-.15l-.32-.46c-.38-.56-.76-1.11-1.12-1.67-.2-.3-.37-.59-.55-.89-.1-.15-.18-.3-.28-.45s-.2-.26-.3-.41L82 574.13c-1.59-2.47-3.18-4.94-4.73-7.44-.76-1.24-1.52-2.48-2.3-3.72a4.63 4.63 0 0 0-.24-.43l-.3-.47c-.18-.3-.33-.62-.51-.91l-.55-.9c-.16-.28-.3-.54-.44-.84l-.22-.46a.85.85 0 0 1-.16-.46 1.2 1.2 0 0 1 .21-.58.68.68 0 0 1 .51-.25h.37c.12 0 .11-.08.18-.1a.49.49 0 0 1 .21 0c1.46.06 2.93 0 4.4 0h43.22a3.09 3.09 0 0 1 .53 0c.16 0 .31.12.47.15s.45 0 .65.1a.56.56 0 0 1 .21.46 8.17 8.17 0 0 1 0 1v13.24a3.67 3.67 0 0 0 .08 1c0 .1 0 .29.12.35s.19 0 .26 0h26.81c.35 0 .68-.05 1-.08a1.54 1.54 0 0 1 .77 0c.22.32.16.72.14.91z" class="cls-4"/><path d="M124.67 613v-34.15c0-1 .12-1.16 1.16-1.16h19.89a3.23 3.23 0 0 1 .82.17c-.11.23-.21.46-.34.69-1.31 2.16-2.61 4.33-3.93 6.46-1.05 1.67-2.15 3.3-3.21 5-.88 1.37-1.7 2.78-2.56 4.15s-1.65 2.61-2.48 3.93c-1.16 1.84-2.28 3.69-3.44 5.52-.47.76-1 1.47-1.48 2.23-1.27 2-2.51 4.07-3.77 6.1a12.27 12.27 0 0 0-.66 1.06zm-3.4-17.49v23.79a2.36 2.36 0 0 1-.4 1.28c-.67 1-1.42 1.95-2.16 2.91-.48.63-.86.61-1.26 0q-3.44-5.48-6.84-11a1.08 1.08 0 0 1 .32-1.52c2.15-1.94 4.26-3.9 6.41-5.84a1.6 1.6 0 0 0 .56-1.29c0-3.33.05-6.65.07-10a5.54 5.54 0 0 0-.12-.69 3.3 3.3 0 0 0-.68.33l-11 9.46c-1 .85-1.24.76-2-.28-1.39-1.87-.86-1.78.46-2.94l13-11.38a1.59 1.59 0 0 0 .46-1.06v-9.09a3.33 3.33 0 0 0-.12-.69 3.19 3.19 0 0 0-.69.35q-8.91 7.49-17.78 15c-.93.77-1.22.74-1.89-.25a11.32 11.32 0 0 0-.87-1.3c-.48-.53-.25-.86.2-1.23 4.14-3.38 8.29-6.79 12.44-10.17l10.9-8.94a3.77 3.77 0 0 1 .76-.35 2.61 2.61 0 0 1 .28.81v24zm-.76.61v-23a3.58 3.58 0 0 0-.17-.84 3.91 3.91 0 0 0-.79.4c-1.26 1-2.5 2-3.74 3s-2.64 2.22-4 3.31c-1.78 1.47-3.58 2.92-5.38 4.39-.93.76-1.85 1.52-2.78 2.31-.33.3-.59.68-.94 1-.71.57-1.47 1.09-2.2 1.65s-1.67 1.32-2.48 2c-.18.15-.41.47-.36.6a4.49 4.49 0 0 0 .79 1.19c.09.08.53-.1.75-.25.44-.33.84-.74 1.29-1.11 1.83-1.52 3.66-3 5.5-4.56 1.07-.91 2.11-1.85 3.19-2.74 1.58-1.32 3.2-2.63 4.8-4 1.26-1 2.5-2.11 3.77-3.15.2-.17.6-.33.76-.25a1 1 0 0 1 .3.76v11.07a1.5 1.5 0 0 1-.44 1c-1.19 1.09-2.45 2.11-3.66 3.18-2.72 2.43-5.41 4.88-8.14 7.32-.61.55-1.26 1-1.85 1.61s-.07.84.25 1.17c.11.11.46.2.57.11.57-.41 1.08-.9 1.61-1.35 2-1.69 4-3.35 6-5 1.66-1.4 3.26-2.84 4.91-4.24a3.33 3.33 0 0 1 .7-.37 2.54 2.54 0 0 1 .21.83c0 2.81-.1 5.6-.15 8.41v4a1.3 1.3 0 0 1-.3.8c-.61.64-1.25 1.25-1.92 1.85-1.5 1.34-3 2.66-4.54 4-.79.72-.78.92-.15 1.8s1.08 1.52 1.57 2.29c1.44 2.27 2.88 4.53 4.26 6.83.32.51.53.46.85.06a18.5 18.5 0 0 0 1.52-2 3.26 3.26 0 0 0 .38-1.45c.01-7.55.01-15.1.01-22.63zm-24.85-34.45h15a1.6 1.6 0 0 1 .49 0c.22.06.58.16.61.29a.91.91 0 0 1-.24.71c-.7.61-1.46 1.18-2.17 1.77L91 579.33c-.64.53-.82.5-1.32-.3q-4.18-6.69-8.34-13.41l-1.84-2.93c-.33-.54-.13-1 .52-1a7.47 7.47 0 0 1 .82 0zm14.37 1H82.28c-.38 0-.76-.1-1.14-.09s-.78 0-.35.55c.56.79 1.07 1.64 1.6 2.48.91 1.47 1.82 3 2.73 4.44q1.86 3 3.73 6c.45.71.89 1.42 1.41 2.1a.68.68 0 0 0 .64.11c1.26-.95 2.5-1.95 3.72-2.94s2.64-2.19 4-3.28c1.95-1.59 3.93-3.14 5.89-4.71 1-.83 2.1-1.64 3.14-2.46.73-.76 1.47-1.42 2.35-2.19z" class="cls-4"/><path d="M120.51 596.12v22.63a2.88 2.88 0 0 1-.38 1.45 20.38 20.38 0 0 1-1.52 2c-.31.39-.53.43-.84-.07-1.41-2.3-2.83-4.56-4.26-6.82-.5-.8-1-1.56-1.57-2.3s-.67-1.07.14-1.8c1.51-1.35 3-2.66 4.55-4 .66-.59 1.3-1.2 1.91-1.85a1.23 1.23 0 0 0 .3-.79v-4.05c.05-2.81.12-5.6.15-8.41a4.5 4.5 0 0 0-.21-.82 3.09 3.09 0 0 0-.7.36c-1.63 1.4-3.25 2.84-4.9 4.24-2 1.69-4 3.36-6 5-.53.45-1 .93-1.6 1.36a.63.63 0 0 1-.58-.12c-.31-.31-.76-.67-.25-1.17s1.24-1.06 1.85-1.6c2.71-2.43 5.42-4.89 8.15-7.32 1.2-1.08 2.46-2.1 3.65-3.19a1.43 1.43 0 0 0 .44-1v-11.07c0-.26-.11-.66-.3-.76s-.56.08-.76.25c-1.27 1-2.49 2.11-3.76 3.16l-4.81 3.94c-1.07.9-2.12 1.85-3.19 2.75-1.82 1.52-3.67 3-5.5 4.56-.43.36-.83.77-1.29 1.1-.21.15-.66.33-.74.25a4.22 4.22 0 0 1-.8-1.19c0-.11.2-.44.37-.59.81-.7 1.63-1.36 2.48-2s1.48-1.09 2.19-1.65c.35-.28.61-.66.94-.94.91-.78 1.84-1.56 2.78-2.32 1.78-1.47 3.59-2.92 5.39-4.39 1.33-1.09 2.64-2.21 4-3.3s2.48-2 3.73-3.06a4.5 4.5 0 0 1 .79-.4 4.92 4.92 0 0 1 .17.85q-.03 11.59-.02 23.08zM110 562.68c-.91.77-1.65 1.43-2.41 2.06-1 .84-2.1 1.64-3.14 2.46l-5.9 4.71c-1.34 1.08-2.66 2.2-4 3.29s-2.46 2-3.71 2.94a.64.64 0 0 1-.65-.11c-.49-.68-1-1.39-1.4-2.1-1.26-2-2.5-4-3.74-5.95-.92-1.47-1.81-3-2.72-4.44-.51-.83-1-1.67-1.6-2.48-.42-.58.06-.53.34-.55s.76.08 1.14.08h26.59c.39.04.72.07 1.2.09z" class="cls-2"/><path d="M156.74 548.63a5.18 5.18 0 0 1-2.41 4.15 8.23 8.23 0 0 1-4.93 1.47 7 7 0 0 1-4.54-1.58 4.47 4.47 0 0 1-1.6-4.56 5.36 5.36 0 0 1 3.48-3.84 8.58 8.58 0 0 1 4-.66 7.21 7.21 0 0 1 4.74 1.93 4 4 0 0 1 1.26 3.09zm-1.84-.14a2.74 2.74 0 0 0-.11-1c-.81-1.83-2.46-2.51-4.26-2.89a5.37 5.37 0 0 0-2.63.52 3.59 3.59 0 0 0-2.56 2.24 4.67 4.67 0 0 0-.28 2 3.24 3.24 0 0 0 1.32 2.63 5.75 5.75 0 0 0 6.06.48 4 4 0 0 0 2.46-3.98zm13.35 2.97a16.05 16.05 0 0 0-.54-7.25c.44-.58 1.07-.35 1.62-.38a1.21 1.21 0 0 1 .59 1.14c0 .82-.06 1.65-.11 2.46-.05 1-.17 2-.17 3s.12 2 .18 3c-.2.41-.56.61-1.29.45-1.61-1.51-3.37-3.14-5.12-4.74-.76-.7-1.55-1.38-2.34-2.05a1.67 1.67 0 0 0-.42-.17 6.16 6.16 0 0 0-.11.89c0 1.66.05 3.31.08 4.94a1.11 1.11 0 0 1-.53 1.14c-1.09.17-1.2.14-1.7-.36 1-2.59.76-5.27.64-7.83l-.72-1.17a1.43 1.43 0 0 1 2.26-.19c.55.5 1 1.06 1.59 1.56 1.47 1.32 2.94 2.64 4.39 4 .35.32.66.66 1 1a6.78 6.78 0 0 0 .7.56zm-87.38-.94l-1.82-.37a5.46 5.46 0 0 0 .22 3.36 2 2 0 0 1-2.23.26c0-.49-.05-1 0-1.57v-6.34a16.09 16.09 0 0 0-.22-1.84 1.36 1.36 0 0 1 .4-.11c1.24 0 2.48-.08 3.7-.08a3.63 3.63 0 0 1 3.14 1.47 9.76 9.76 0 0 1 .58 1.17c-.14.53-.25 1-.42 1.64l-1.82 1.76a11.77 11.77 0 0 0 3.87 3v.9l-1 .52c-.41-.32-.87-.61-1.27-1-1.1-.91-2.19-1.91-3.13-2.77zm2-3c.12-1.4-.26-2.15-1.43-2.49a5.15 5.15 0 0 0-2.5 0v4.27c1.55-.05 2.97-.25 3.91-1.74zm20.69 2.95l-1.56-.3a6.92 6.92 0 0 0 .2 3.49 2.94 2.94 0 0 1-2.1.24 4.25 4.25 0 0 1-.16-2v-6a16.09 16.09 0 0 0-.23-1.85.74.74 0 0 1 .33-.13c1.32 0 2.64-.1 4-.07a3.55 3.55 0 0 1 3 1.47 10.06 10.06 0 0 1 .56 1 3.67 3.67 0 0 1-2.68 3.42c0 .15 0 .23.08.25a6 6 0 0 1 2.1 1.53 22.65 22.65 0 0 0 2.17 1.57v.66l-1 .57c-.41-.32-.89-.63-1.32-1s-.89-.9-1.35-1.33a11.9 11.9 0 0 0-.94-.79c-.34-.2-.66-.43-1.1-.73zm2.24-4.33a3.27 3.27 0 0 0-4-.91v4.15c1.56-.23 3.06-.27 4-1.82zm33.9-2.28c0 .48 0 .84-.08 1.27-3-.41-5.65 0-7.33 2.78 0 .51 0 1-.07 1.43a2.85 2.85 0 0 0 1.78 2.76 7.12 7.12 0 0 0 4.64.66c.48-.06 1.09.1 1.37-.56a4.77 4.77 0 0 0-.43-2.84 1.7 1.7 0 0 1 1.82-.43c.71 1.19.59 2.71-.32 4.54a7.7 7.7 0 0 1-5 .7 17.31 17.31 0 0 1-2.47-.56 4.69 4.69 0 0 1-3.16-3.08 4 4 0 0 1 .78-3.88 7.88 7.88 0 0 1 5.27-2.89c.66-.07 1.3-.2 1.95-.21a6.56 6.56 0 0 1 1.25.31zm-42.82 10.26a6 6 0 0 1-2.2-3.17c-1.45-.1-2.94 0-4.47 0a6.08 6.08 0 0 0-1.21 2.87c-.63.4-.63.4-1.55.07-.56-.7 0-1.24.3-1.77.57-1.11 1.25-2.18 1.88-3.27.3-.5.61-1 .89-1.47.41-.7.79-1.41 1.17-2.08l-.38-.81c.27-.2.52-.4.7-.55 1.12-.16 1.39.7 1.73 1.32 1.06 2 2 4 3.06 5.93.33.63.73 1.23 1.07 1.85a4.74 4.74 0 0 1 .27.85c-.55.11-.9.11-1.26.23zm-4.48-7.53a10.53 10.53 0 0 0-1.52 3.08 11.64 11.64 0 0 0 3.23 0 9.75 9.75 0 0 0-1.71-3.08zm28.45 7.33c-.31.07-.62.12-1 .18-1.24-.66-1.67-1.9-2.26-3.15-1.46-.14-3 0-4.56-.05-.45 1-.88 1.91-1.29 2.84-.35.59-.86.33-1.36.16-.61-.67-.06-1.25.22-1.73 1-1.77 2.13-3.5 3.19-5.25.31-.53.56-1.11.87-1.74l-.44-.68c.26-.21.51-.41.69-.57 1.16-.15 1.4.72 1.77 1.38.77 1.42 1.47 2.89 2.19 4.35a6.58 6.58 0 0 1 .45 1 5.22 5.22 0 0 0 1 1.77c.32.37.95.75.53 1.49zm-7-4.25a20.77 20.77 0 0 0 3.25 0 7.77 7.77 0 0 0-1.72-3.06 10.85 10.85 0 0 0-1.56 3.06zM69 545c-1.24.09-2.49.21-3.88.33-.1-.42-.18-.81-.3-1.34a7.35 7.35 0 0 1 1.31-.2c1.4 0 2.81.08 4.21.08a13 13 0 0 0 4.56-.43c.2.28.36.55.56.83L75 545h-1.33v.07h-2.53a23.92 23.92 0 0 0 .12 8.49 2.11 2.11 0 0 1-1.8.4c-.8-.57-.6-1.34-.52-2a46.68 46.68 0 0 0 .2-6.58c0-.05 0-.1-.06-.15zm54 8.94c-.06-3.26.63-6.41-.31-9.59.48-.77 1.24-.52 2-.52a2 2 0 0 1 .41 1.81 3.9 3.9 0 0 0-.13.81c0 1.84-.05 3.69-.06 5.52a6.25 6.25 0 0 0 .09.83h4.37c.48.46.38.79 0 1.14zm17.45 5.99a11.79 11.79 0 0 1-.38 1.76 3.53 3.53 0 0 1-4.93 1.6 2.6 2.6 0 0 1-1.4-2 3.35 3.35 0 0 1 4.59-3.58 3.44 3.44 0 0 1 2.12 2.22zm-.79.67a2.57 2.57 0 0 0-5.14-.07c.1 1.68.89 2.69 2.41 2.69a2.7 2.7 0 0 0 2.73-2.62zm19.34-2.45c-.37 0-.75 0-1.13.05a2.75 2.75 0 0 0-2.41 1.72A2.22 2.22 0 0 0 157 563a3.2 3.2 0 0 0 2.46-.15v-2c.3-.26.65-.23.7.12a5.67 5.67 0 0 1-.1 1.93 1.29 1.29 0 0 1-.93.71 8.29 8.29 0 0 1-2.28 0 2.69 2.69 0 0 1-2.31-2.08 2.86 2.86 0 0 1 1.1-2.93 4.43 4.43 0 0 1 2.81-1c.32-.09.65-.04.55.55zm-5.83 2.31c-.63.53-1.45 0-2.21.35V563h2.23v.6h-3V558c1.16-.46 2.86-.43 3.47.2l-1.36.05c-.43 0-.87 0-1.35.08v1.88c.76 0 1.49.05 2.23.08a.67.67 0 0 0-.01.17zm-20.6 2.38a.74.74 0 0 1-.8.76 3.92 3.92 0 0 1-3.4-1.07 2.69 2.69 0 0 1-.16-3.54 4.45 4.45 0 0 1 3.76-1.48c.45 0 .45 0 .56.67h-.71a4.4 4.4 0 0 0-2.08.35 2.26 2.26 0 0 0-1.34 2 2.32 2.32 0 0 0 1.13 2 3.35 3.35 0 0 0 2.38.36 4.28 4.28 0 0 0 .66-.05zm29.7-2.56h2.15c-.59.71-1.42.22-2.15.58v2c.76.43 1.62-.07 2.35.35-.94.79-2.05 0-3.11.56v-6c.93-.06 1.9-.15 2.86-.18.17 0 .35.18.51.38-.82.38-1.71 0-2.61.33zm-15.63 2.55c.83.56 1.71-.05 2.48.34-.39.51-1.47.63-3.17.38a3.91 3.91 0 0 1-.08-.61v-4.51c0-.33-.05-.68.41-.76.43.13.38.5.38.81v3.62zm-4.44-5.19a4 4 0 0 1 .16.84v4.51h2.3c.13.53-.13.63-.47.65h-2.54c0-.29-.08-.52-.08-.75v-4.51c0-.48 0-.49.63-.74z" class="cls-4"/><path d="M54.26 421.31c.65 1.29 1.38 2.54 2 3.85 5.32 12.17 11.31 24 19.15 34.74 11.62 16 27.12 26.81 45.49 33.76 14 5.3 28.5 8.72 43.14 11.62 4.89 1 9.82 1.83 14.72 2.72a10.94 10.94 0 0 1 1.35.5c-.81.51-1.4.95-2 1.27A113.46 113.46 0 0 1 139.08 521c-30.57 2.8-58.35-5.21-83.61-22.43-.42-.29-.81-.61-1.22-.95z" class="cls-5"/><path d="M183.79 460v46.66c-.4-.39-.8-.73-1.16-1.11-5.34-5.66-10.86-11.08-17.55-15.18-9.45-5.78-19.88-7.27-30.67-6.84-5.69.23-11.37.93-17 1.41l-3 .25a51 51 0 0 1 11-9.72c10.52-7 22.23-11 34.57-13.08 7.18-1.22 14.5-1.62 21.76-2.37a20.3 20.3 0 0 1 2.07 0" class="cls-6"/><path d="M183.79 460v46.66c-.4-.39-.8-.73-1.16-1.11-5.34-5.66-10.86-11.08-17.55-15.18-9.45-5.78-19.88-7.27-30.67-6.84-5.69.23-11.37.93-17 1.41l-3 .25a51 51 0 0 1 11-9.72c10.52-7 22.23-11 34.57-13.08 7.18-1.22 14.5-1.62 21.76-2.37a19.77 19.77 0 0 1 2.05-.02z" class="cls-7"/><path d="M87.41 436.56v-15.31h1.51v13.82h5.39v1.49h-6.9zm8.71-10.8a8 8 0 0 1 1.78-2.6 7.77 7.77 0 0 1 2.48-1.66 7.6 7.6 0 0 1 2.93-.56 7.89 7.89 0 0 1 7.25 4.8 8 8 0 0 1 .61 3.06 8.69 8.69 0 0 1-.5 3 7.92 7.92 0 0 1-7.36 5 7.43 7.43 0 0 1-5.54-2.32 7.91 7.91 0 0 1-2.24-5.74 7.67 7.67 0 0 1 .61-3.06m2.75 7.81a6 6 0 0 0 4.49 1.89 5.81 5.81 0 0 0 4.41-1.91 6.66 6.66 0 0 0 1.8-4.72 6.22 6.22 0 0 0-1.84-4.49 6 6 0 0 0-4.46-1.89 5.94 5.94 0 0 0-3.86 1.43 6.57 6.57 0 0 0-1.72 2.26 6.74 6.74 0 0 0 1.23 7.43m25.42.31l3.83-12.55h1.47l-4.74 15.31h-1.26l-3.07-12.5-3.08 12.5h-1.25l-4.77-15.31h1.5l3.81 12.55 3.1-12.55h1.38l3.08 12.55zm4.43 2.76l6-15.28h1.83l5.93 15.31h-1.61l-1.83-4.8h-6.85l-1.83 4.8zm6.79-13.87l-2.86 7.68h5.76zm18.03-1.44h1.49v15.31h-1.81l-8.4-13.51.16 13.51h-1.48v-15.31h1.81l8.4 13.48-.17-13.48zm14.37 0h1.49v15.31h-1.81l-8.41-13.51.17 13.51h-1.48v-15.31h1.81l8.4 13.48-.17-13.48zm2.41 15.31l5.94-15.28h1.84l5.92 15.31h-1.61l-1.84-4.8h-6.83l-1.84 4.8zm6.81-13.87l-2.87 7.68h5.77zm-71.58 19.73a6.16 6.16 0 0 0-2.89-.69 5.8 5.8 0 0 0-4.37 1.89 6.27 6.27 0 0 0-1.83 4.5 6.52 6.52 0 0 0 1.83 4.68 5.84 5.84 0 0 0 4.38 1.91 6.11 6.11 0 0 0 2.88-.65 6.21 6.21 0 0 0 2.22-2h1.8a7.77 7.77 0 0 1-2.82 3.06 8 8 0 0 1-9.6-1.22 7.87 7.87 0 0 1-2.22-5.73 7.6 7.6 0 0 1 .61-3.06 7.91 7.91 0 0 1 1.79-2.6 7.55 7.55 0 0 1 2.44-1.66 7.71 7.71 0 0 1 3-.56 7.61 7.61 0 0 1 4.08 1.08 7.77 7.77 0 0 1 2.89 3.15h-1.84a6.62 6.62 0 0 0-2.27-2.1m6.06 2.65a8 8 0 0 1 1.81-2.6 7.82 7.82 0 0 1 2.44-1.66 8 8 0 0 1 5.91 0 8 8 0 0 1 4.28 4.24 7.86 7.86 0 0 1 .62 3.06 8.47 8.47 0 0 1-.51 3 7.55 7.55 0 0 1-1.51 2.45 7.86 7.86 0 0 1-2.67 2 7.66 7.66 0 0 1-3.2.64 7.37 7.37 0 0 1-5.54-2.31 7.94 7.94 0 0 1-2.27-5.74 7.67 7.67 0 0 1 .61-3.06m2.82 7.77a6 6 0 0 0 4.48 1.9 5.85 5.85 0 0 0 4.41-1.92 6.64 6.64 0 0 0 1.8-4.71 6.18 6.18 0 0 0-1.84-4.5 6 6 0 0 0-8.31-.46 6.63 6.63 0 0 0-1.74 2.26 6.72 6.72 0 0 0 1.23 7.42m14.3 3.02v-15.32h1.51v13.84h5.39v1.48h-6.9zm8.87 0v-15.32h1.52v13.84h5.39v1.48h-6.91zm16.84-8.44v1.51h-6.44v5.45h6.44v1.48h-7.96v-15.32h7.96v1.51h-6.44v5.37h6.44zm17.72 1.1a8 8 0 0 1-2.41 5.5 7.54 7.54 0 0 1-5.45 2.15 7.41 7.41 0 0 1-5.55-2.31 7.94 7.94 0 0 1-2.23-5.75 7.59 7.59 0 0 1 .61-3.05 7.88 7.88 0 0 1 1.78-2.6 7.6 7.6 0 0 1 2.52-1.67 8.21 8.21 0 0 1 3.06-.55 7.52 7.52 0 0 1 4 1.08 7.84 7.84 0 0 1 2.85 3.06h-1.84a7.32 7.32 0 0 0-2.32-2 5.81 5.81 0 0 0-2.78-.62 5.93 5.93 0 0 0-4.46 1.89 6.29 6.29 0 0 0-1.84 4.53 6.52 6.52 0 0 0 1.84 4.7 6 6 0 0 0 4.49 1.89 5.93 5.93 0 0 0 3.78-1.35 6.23 6.23 0 0 0 2.17-3.49h-7.74v-1.37zm10.04-1.1v1.51h-6.44v5.45h6.44v1.48h-7.95v-15.32h7.95v1.51h-6.44v5.37h6.44z" class="cls-5"/><path d="M122.77 355.6l5.33 8.51h5.71l-7.02-11.08 6.77-9.85h-5.52l-5.27 7.84v-7.84h-4.83v20.93h4.83v-8.51zm24.44-6.24h-4.74v8.35a9.1 9.1 0 0 1 0 .91 2.85 2.85 0 0 1-.21.8 1.25 1.25 0 0 1-.45.56 1.32 1.32 0 0 1-.77.2 1.05 1.05 0 0 1-1-.5 3.49 3.49 0 0 1-.28-1.6v-8.72H135v10.26a6.94 6.94 0 0 0 .32 2.24 3.92 3.92 0 0 0 .88 1.51 3.34 3.34 0 0 0 1.33.85 5.28 5.28 0 0 0 1.68.26 5.13 5.13 0 0 0 1.19-.12 3.84 3.84 0 0 0 .9-.36 4.83 4.83 0 0 0 .72-.54c.22-.2.44-.42.67-.67l.32 1.32h4.23zm11.89-.03a3.21 3.21 0 0 0-.5-.09 5.66 5.66 0 0 0-.6 0 5.35 5.35 0 0 0-1.66.32 3.58 3.58 0 0 0-1.66 1.22l-.35-1.38h-4.23v14.75h4.73v-8.55a2 2 0 0 1 .84-1.86 4.15 4.15 0 0 1 2.24-.52 5.36 5.36 0 0 1 1.19.13zm6.81 6.43a6.75 6.75 0 0 1 .05-.91 2.31 2.31 0 0 1 .22-.8 1.3 1.3 0 0 1 .47-.56 1.33 1.33 0 0 1 .8-.21 1.09 1.09 0 0 1 1 .5 3.42 3.42 0 0 1 .28 1.6v8.73h4.74v-10.26a6.76 6.76 0 0 0-.33-2.25 4.24 4.24 0 0 0-.89-1.5 3.37 3.37 0 0 0-1.34-.85 5 5 0 0 0-1.67-.27 5.25 5.25 0 0 0-1.2.13 3.46 3.46 0 0 0-.91.36 5.92 5.92 0 0 0-.75.53 8.78 8.78 0 0 0-.69.68l-.31-1.32h-4.24v14.75h4.74zm21.8-.34a11.52 11.52 0 0 0-.28-2.69 4.05 4.05 0 0 0-1.07-2 5 5 0 0 0-2.15-1.19 12.79 12.79 0 0 0-3.56-.41h-.83l-1 .1-1 .12c-.32.05-.6.1-.83.16v3.51c.4-.08.87-.17 1.43-.26a8.66 8.66 0 0 1 1.55-.14 8.26 8.26 0 0 1 1.74.15 2.86 2.86 0 0 1 1.05.44 1.42 1.42 0 0 1 .51.69 3.23 3.23 0 0 1 .12.91v.54a5.33 5.33 0 0 0-1.19-.38 7.9 7.9 0 0 0-1.48-.13 8 8 0 0 0-1.85.21 4.42 4.42 0 0 0-1.55.67 3.41 3.41 0 0 0-1.08 1.26 4.19 4.19 0 0 0-.41 1.94v.82a5.91 5.91 0 0 0 .38 2.29 3.56 3.56 0 0 0 1 1.39 3.36 3.36 0 0 0 1.44.71 7.32 7.32 0 0 0 1.7.19 3.74 3.74 0 0 0 1.75-.38 4.85 4.85 0 0 0 1.35-1l.25 1.13h4.05zm-4.33 4.14a1.68 1.68 0 0 1-1.82 1.63 1.69 1.69 0 0 1-1.25-.39 1.75 1.75 0 0 1-.38-1.24v-.22a1.47 1.47 0 0 1 .52-1.34 2.57 2.57 0 0 1 1.4-.32 2.28 2.28 0 0 1 1.53.47zm7.22-16.38h4.74v4.27h-4.74zm0 6.18h4.74v14.75h-4.74zm-64.21 34.49a6.81 6.81 0 0 1-1.38-.13 2.32 2.32 0 0 1-1.15-.57 3 3 0 0 1-.81-1.26 6.72 6.72 0 0 1-.3-2.24v-3.36a6.69 6.69 0 0 1 .29-2.23 3 3 0 0 1 .78-1.27 2.38 2.38 0 0 1 1.13-.57 7.7 7.7 0 0 1 1.38-.12 12.38 12.38 0 0 1 1.42.07 7.87 7.87 0 0 1 1.41.29v-3.61a16.61 16.61 0 0 0-3.47-.36 11.25 11.25 0 0 0-3.11.41 6.05 6.05 0 0 0-2.45 1.38 6.53 6.53 0 0 0-1.61 2.55 11.57 11.57 0 0 0-.58 3.94v2.41a11.47 11.47 0 0 0 .58 3.93 6.31 6.31 0 0 0 1.63 2.56 6 6 0 0 0 2.47 1.37 11.12 11.12 0 0 0 3.13.42c.59 0 1.18 0 1.76-.08a15.68 15.68 0 0 0 1.76-.28v-3.56a9.44 9.44 0 0 1-1.29.23 15.65 15.65 0 0 1-1.59.08zm14.68-8.58a4.48 4.48 0 0 0-1.85-1.09 8.17 8.17 0 0 0-2.39-.33 8 8 0 0 0-2.35.33 4.47 4.47 0 0 0-1.83 1.09 5 5 0 0 0-1.19 1.93 8.29 8.29 0 0 0-.44 2.87v1.31a8.77 8.77 0 0 0 .42 2.89 5 5 0 0 0 1.18 1.94 4.43 4.43 0 0 0 1.84 1.08 7.67 7.67 0 0 0 2.37.34 8 8 0 0 0 2.42-.34 4.33 4.33 0 0 0 1.83-1.08 5.11 5.11 0 0 0 1.17-1.94 8.79 8.79 0 0 0 .41-2.89v-1.31a8.58 8.58 0 0 0-.41-2.87 5 5 0 0 0-1.18-1.93zm-2.66 5.83a8.4 8.4 0 0 1-.26 2.42 1.23 1.23 0 0 1-1.32.83 1.2 1.2 0 0 1-1.32-.83 9.34 9.34 0 0 1-.24-2.42v-.72a8.3 8.3 0 0 1 .27-2.42 1.22 1.22 0 0 1 1.35-.83 1.58 1.58 0 0 1 .84.2 1.12 1.12 0 0 1 .46.63 4.46 4.46 0 0 1 .18 1v1.39zm6.56-12.39h4.19v18.53h-4.19zm6.75 0h4.19v18.53h-4.19zm15.65 6.42a4.35 4.35 0 0 0-1.62-1 6.12 6.12 0 0 0-1.92-.3 6.71 6.71 0 0 0-2.22.35 4.69 4.69 0 0 0-3 2.79 6.45 6.45 0 0 0-.43 2.47v1.92a5.87 5.87 0 0 0 1.67 4.58 6.9 6.9 0 0 0 4.78 1.5h.75l.9-.07.9-.09a6.83 6.83 0 0 0 .75-.14V384a8.67 8.67 0 0 1-1.18.21c-.43 0-.83.07-1.18.07a5.43 5.43 0 0 1-2.53-.49 1.91 1.91 0 0 1-.94-1.74h6.78v-2.58a7.16 7.16 0 0 0-.42-2.6 4.57 4.57 0 0 0-1.09-1.74zm-5.26 4.3a2.79 2.79 0 0 1 .46-1.89 1.58 1.58 0 0 1 1.18-.47 1.39 1.39 0 0 1 1.12.47 3.09 3.09 0 0 1 .41 1.89zm16.31-4.08a3.94 3.94 0 0 0-1.23-1.13 3.87 3.87 0 0 0-1.88-.37 4.52 4.52 0 0 0-1.73.33 3.58 3.58 0 0 0-1.4 1.07 5.38 5.38 0 0 0-.94 1.92 10 10 0 0 0-.35 2.87v.96a11.2 11.2 0 0 0 .33 3 5.18 5.18 0 0 0 .92 1.9 3.23 3.23 0 0 0 1.39 1 4.86 4.86 0 0 0 1.72.31 3.74 3.74 0 0 0 1.76-.37 4.67 4.67 0 0 0 1.24-.94v1a5.06 5.06 0 0 1-.1 1.07 1.56 1.56 0 0 1-.41.82 2.3 2.3 0 0 1-.93.53 5.52 5.52 0 0 1-1.62.19 11.15 11.15 0 0 1-1.54-.12c-.56-.09-1-.16-1.4-.24v3.31l.79.15 1 .13.94.08h.79a10.41 10.41 0 0 0 3.22-.43 4.78 4.78 0 0 0 2-1.25 4.72 4.72 0 0 0 1.06-2 11.15 11.15 0 0 0 .3-2.72v-12.24h-3.65zm-.17 6a6.4 6.4 0 0 1-.06.88 2.25 2.25 0 0 1-.22.76 1.42 1.42 0 0 1-.46.54 1.25 1.25 0 0 1-.76.21 1.31 1.31 0 0 1-1.25-.64 4.87 4.87 0 0 1-.36-2.22v-.7a4.63 4.63 0 0 1 .39-2.12 1.34 1.34 0 0 1 1.28-.74 1.27 1.27 0 0 1 .76.21 1.37 1.37 0 0 1 .44.54 2.29 2.29 0 0 1 .2.77 8.31 8.31 0 0 1 0 .87zm17.08-1.89a7.17 7.17 0 0 0-.41-2.6 4.57 4.57 0 0 0-1.13-1.73 4.35 4.35 0 0 0-1.62-1 6.12 6.12 0 0 0-1.92-.3 6.63 6.63 0 0 0-2.22.35 4.73 4.73 0 0 0-1.78 1 4.79 4.79 0 0 0-1.18 1.75 6.45 6.45 0 0 0-.43 2.47v1.92a5.87 5.87 0 0 0 1.67 4.58 6.89 6.89 0 0 0 4.77 1.5h.75l.91-.07.9-.09a6.83 6.83 0 0 0 .75-.14V384a9 9 0 0 1-1.18.21c-.44 0-.83.07-1.18.07a5.4 5.4 0 0 1-2.53-.49 1.89 1.89 0 0 1-.94-1.74h6.77zm-6.8 0a2.79 2.79 0 0 1 .46-1.89 1.58 1.58 0 0 1 1.18-.47 1.41 1.41 0 0 1 1.12.47 3.09 3.09 0 0 1 .41 1.89z" class="cls-8"/><ellipse cx="93.7" cy="367.2" class="cls-4" rx="16.38" ry="43.8"/><path d="M92.79 412.33h.01-.01z" class="cls-9"/><path d="M91.39 404.25c0-.16-8.47-54.45 15.29-97.15-19.84 13-31.29 34.3-33.3 47.38C79.33 371 87.6 386.9 91.39 404.25z" class="cls-8"/><path d="M92.8 412.33c-.35-2.73-.82-5.41-1.4-8.06-.3-.31-21.68-20.66-18-49.76a122.5 122.5 0 0 1-5.27-18.66c-8.34 13.41-9.78 25.47-7.62 35.84 8.32 9.04 20.33 21.57 32.29 40.64z" class="cls-10"/><path d="M60.5 371.67c-4.11-4.48-7.31-8.11-9.17-11.27 0 0-4.87 20.75 6.55 36.07a97.92 97.92 0 0 1 26.05 14.77 73.13 73.13 0 0 0 8.85 1.08c-.27-.15-27-15.32-32.28-40.65z" class="cls-11"/><path d="M92.8 412.33c-12-19.07-24-31.6-32.3-40.67 5.28 25.3 32 40.5 32.29 40.66z" class="cls-8"/><path d="M57.89 396.48A61.8 61.8 0 0 0 43 392.65s5.38 25.27 41 18.6c-13-2.44-21.12-8.09-26.11-14.77zm0 0l-.01-.01h.01-.01l.01.01z" class="cls-12"/><path d="M83.94 411.24v.01h.01l-.01-.01z" class="cls-12"/><path d="M92.8 412.33h-.01.01zm-1.41-8.08zm-33.51-7.78c5 6.68 13.08 12.33 26 14.76a97.92 97.92 0 0 0-26-14.77z" class="cls-10"/><path d="M91.39 404.25c-3.79-17.35-12.06-33.21-18-49.76-3.68 29.1 17.7 49.45 18 49.76z" class="cls-11"/><path d="M104.84 334.61a31.15 31.15 0 0 0-6.12-9.69c-.42 1.19-.83 2.38-1.21 3.58l.72-.38c.62-.33 1.26-.42 1.42-.21a1.17 1.17 0 0 1-.55 1.38l-.74.39-1.46.77c-.1.31-.19.63-.29.94l1.78.9 4.08 2.06a3.49 3.49 0 0 1 1.45 1.31c.17.41.09 1.25-.54.93L96.16 333c-.12.42-.24.84-.35 1.26l7.5 3.78c.63.32.57.58-.14.59h-1.76A6.35 6.35 0 0 1 99 338l-3.7-1.87c-.11.42-.21.85-.32 1.27l1.22.62c.63.32.57.58-.13.59h-1.41l-.3 1.28h9.82c.7 0 1.37.3 1.49.68l.11.34c.07.23.14.46.2.69s.11.38.17.57l.3 1.1v.16c.05.17-.49.32-1.19.33H93.47c-.09.43-.17.86-.26 1.28h3.27c.71 0 .77.25.15.58l-3.91 2.05c-.1.53-.19 1.06-.28 1.59l1-.54 6-3.12a6.12 6.12 0 0 1 2.41-.6h3c.71 0 .78.26.15.59l-13 6.86c-.13.86-.25 1.71-.36 2.56a1.51 1.51 0 0 1 .3.1l13.18 6.65c.63.31.57.58-.14.58h-3.29a6.35 6.35 0 0 1-2.42-.57L93.59 359l-1.85-1a1.47 1.47 0 0 0-.5-.12c-.06.52-.12 1-.17 1.55a2.71 2.71 0 0 1 1.13.23l4.24 2.14c.63.32.56.59-.14.59h-5.54l-.12 1.29 8.16-.07h9.25a1.32 1.32 0 0 1 1.32 1.27v1.78a2.61 2.61 0 0 1 0 .28v.61c0 .53-.59 1-1.29 1H90.27c0 .43 0 .86-.07 1.28h3.76c.7 0 .77.26.14.58l-2.1 1.21a2.77 2.77 0 0 1-1.83.16l-.06 1.48h.07a1.75 1.75 0 0 0 1.4 0l1.83-1 3.55-1.87a6.34 6.34 0 0 1 2.42-.6h3c.71 0 .77.26.15.59l-10.78 5.65a2.84 2.84 0 0 1-1.77.19v2.28a2.83 2.83 0 0 1 1.83.14l13.58 6.85c.63.32.57.58-.14.59h-3.29a6.34 6.34 0 0 1-2.42-.56l-6-3.05-1.85-.94a1.71 1.71 0 0 0-1.4 0l-.27.14v1.47a2.8 2.8 0 0 1 2.11 0l4.64 2.34c.63.32.56.58-.14.59l-6.55.05v1.28l9-.07h7.11c.71 0 1.25.16 1.21.36v.18l-.33 1.44v.21c-.08.36-.18.71-.27 1.06l-.06.22c-.06.25-.69.45-1.39.46h-5.71l-9.31.08c0 .43.05.86.07 1.28l6.76-.05c.71 0 .77.25.15.58l-5.12 2.68a2.74 2.74 0 0 1-1.55.21c0 .56.09 1.09.14 1.59a1.72 1.72 0 0 0 1-.13l1.83-1 6.51-3.41a6.31 6.31 0 0 1 2.41-.61h2c.71 0 .77.26.15.58l-12.32 6.46a2.7 2.7 0 0 1-1.35.23c.09.83.17 1.55.24 2.15a2.54 2.54 0 0 1 1.13.24l6.46 3.26c.63.31.94.83.69 1.14a2.32 2.32 0 0 1-2.09.47l-3.71-1.87-1.85-.93a1.13 1.13 0 0 0-.34-.11l.33 1.58a2.25 2.25 0 0 1 .46.15l4.11 2.07a.67.67 0 0 1 .06 1.27 14 14 0 0 1-3.89 1.83c.07.44.13.88.19 1.32 4.81-.77 9.23-5.51 12.54-13.56 3.54-8.61 5.44-20 5.35-32.12s-2.17-23.48-5.85-32.03zm-3.23-2.13l-1.83-.92c-.63-.32-.63-.85 0-1.17a1.33 1.33 0 0 1 1.75.46c.37.56.71 1.95.08 1.63zm6.48 18.59l.76 5.73c.08.7-.37 1-1 .7l-6.31-3.19c-.63-.31-.64-.84 0-1.17l5.23-2.74a.86.86 0 0 1 1.32.67zm1.07 11.24a9.81 9.81 0 0 1-1.27-.58l-14.58-7.35c-.63-.32-.64-.85 0-1.17l12.69-6.66c.62-.33 1.21-.22 1.31.24s-.16 2-.78 2.29l-6.4 3.35-1.83 1c-.38.2-.38.53 0 .72l1.84.93L108 359a2.24 2.24 0 0 1 1.21 1.49 10.17 10.17 0 0 1-.05 1.82zm-5.59 37.39l-.7 1.47a1.28 1.28 0 0 1-1.72.56l-.47-.24c-.63-.31-.64-.84 0-1.17l2.28-1.2c.61-.32.89-.06.61.58zm1.85-4.77a6.22 6.22 0 0 1-1.75 2.37l-4.41 2.31-1.83 1c-.38.2-.38.53 0 .72l1.84.93 1.24.63c.63.32 1 .83.79 1.13a1.81 1.81 0 0 1-1.85.5l-5.84-3c-.62-.31-.63-.84 0-1.17l11-5.75c.6-.32.98-.17.81.33zm3.2-14.74a.83.83 0 0 1-1.29.69l-5.94-3c-.63-.32-.64-.85 0-1.18l6.77-3.55c.62-.32 1.09 0 1 .69zm-.41-8.51L100 376l-1.83 1c-.38.2-.38.52 0 .72l1.84.93 7.14 3.6a1.66 1.66 0 0 1 1 1.44c-.08.47-.81 1.44-1.44 1.12L93.16 378c-.63-.32-.64-.84 0-1.17l12.17-6.38a6.31 6.31 0 0 1 2.41-.61h.37a1.35 1.35 0 0 1 1.26.86c-.02.19-.53.66-1.16.98z" class="cls-8"/><path d="M389.98 309.68h368.67v347.14H389.98z" class="cls-13"/><path d="M760.11 316.62C571.19 354.93 506.32 540 693.94 630.84c38.42 17.67 82 28.2 124.52 25.87V310c-19.34-1-39.58 2.81-58.35 6.62z" class="cls-1"/><path d="M759.72 309.54c13.08.09 32.11-.09 45.19 0-15.85 2-36.5 5.59-50.66 9-223 54.22-235.67 275.82 6.81 334 6.18 1.49 27.41 3 33.93 4.3-16.77-.66-49.08 1.24-65.54-1-49.06-10.43-94.3-35.93-127.92-73.15-100.3-127.43 19.93-261.83 158.19-273.15z" class="cls-14"/><path d="M623.94 309.54c11.06 0 37.25-.08 38.81.23C518 364.36 406 501 393.41 656.71l-17.67-.06c10.81-149.41 110.74-288.24 248.2-347.11z" class="cls-14"/><path d="M232.26 315.31c.08 113.79-.17 227.59.09 341.38q71.7.15 143.39 0c10.72-149.33 110.32-287.11 247.06-346.88-.63-.12-389.53 0-390.42 0-.04 1.8-.12 3.65-.12 5.5z" class="cls-1"/></svg>