<svg xmlns="http://www.w3.org/2000/svg" id="Layer_1" viewBox="0 0 550.08 221.76" width="550.08" height="221.76"><defs><style>.cls-1{fill:#231f20}.cls-2{fill:url(#linear-gradient)}.cls-3{fill:#2b3e8a}.cls-4{fill:#fcdb03}</style><linearGradient id="linear-gradient" x1="86.7" x2="86.7" y1="81.1" y2="161.37" gradientUnits="userSpaceOnUse"><stop offset="0" stop-color="#fff"/><stop offset=".18" stop-color="#fafcfe"/><stop offset=".41" stop-color="#eaf4fc"/><stop offset=".67" stop-color="#d1e7f9"/><stop offset=".94" stop-color="#aed5f5"/><stop offset="1" stop-color="#a4d0f4"/></linearGradient></defs><g id="FLO_Logo"><rect width="117.78" height="81.4" x="27.81" y="80.53" class="cls-1" rx=".57"/><path d="M137 162h-.19l-.33-.13a2.92 2.92 0 0 0-.55-.18 75.47 75.47 0 0 1-19.32-6.09c-8.57-4.09-15-9.22-19.75-15.68a31 31 0 0 1-6-15.07c-.93-8.82 1.76-16.77 8.23-24.29a51.74 51.74 0 0 1 17.6-13 68.93 68.93 0 0 1 14.92-5.14c2.21-.48 4.48-.86 6.67-1.24l3-.52 1-.23h2.92a.57.57 0 0 1 .56.57v80.48a.62.62 0 0 1-.16.41.59.59 0 0 1-.4.16z" class="cls-1"/><path d="M85.27 107.67H73.08a6.35 6.35 0 0 1-1.17-.13l-.48-.07a.56.56 0 0 1-.45-.36.54.54 0 0 1 .1-.57l.27-.33c.21-.25.42-.5.65-.73a102.1 102.1 0 0 1 36.82-24.54l.34-.34a.56.56 0 0 1 .4-.17h22.69a.57.57 0 0 1 .41.17.57.57 0 0 1 .16.41v.22a.56.56 0 0 1-.5.51 63.41 63.41 0 0 0-14 3.13 50.89 50.89 0 0 0-20.23 12.6 42.76 42.76 0 0 0-7.09 9.9.56.56 0 0 1-.5.3zm58.86 54.58H10.56a2.85 2.85 0 0 1-.81-.15l-.28-.1a.57.57 0 0 1 .06-1.12h135.61a.55.55 0 0 1 .48.27.57.57 0 0 1 0 .55.68.68 0 0 1-.58.51h-.48zM99.7 81.79H9.54a.57.57 0 0 1-.08-1.12l.24-.07a2.44 2.44 0 0 1 .75-.15h89.91a.57.57 0 0 1 .56.48v.23a.57.57 0 0 1-.44.6l-.26.06h-.52z" class="cls-1"/><path d="M9.6 162a.57.57 0 0 1-.38-.14.59.59 0 0 1-.19-.43V81.2a.56.56 0 0 1 .57-.56h.3a.58.58 0 0 1 .51.58v80.2a.57.57 0 0 1-.5.57zm122.64-80.26a.57.57 0 0 1-.42-.19.56.56 0 0 1-.14-.43V81a.57.57 0 0 1 .56-.56h10.06a.58.58 0 0 1 .57.5.57.57 0 0 1-.43.62l-1 .24h-.13zm-23.1.26H109l-.37-.08a2.47 2.47 0 0 0-.61-.11h-7.67a.56.56 0 0 1-.56-.52v-.14a.56.56 0 0 1 .13-.46.57.57 0 0 1 .43-.2h9.2a.58.58 0 0 1 .53.35.59.59 0 0 1-.12.62l-.43.43a.55.55 0 0 1-.39.11z" class="cls-1"/><path d="M125.73 162a.65.65 0 0 1-.21 0l-.18-.08a1.57 1.57 0 0 0-.23-.09 60.87 60.87 0 0 1-16.42-6.18l-8-5.46-.09-.07-5.34-5.36-1.8-2.53-1.75-2.46-.94-1.85-1.77-3.6-1.74-5.66-.38-2.66-.32-2.56.07-2.55.08-2.46.93-5.21a.29.29 0 0 1 0-.09l2.36-6.22a43.91 43.91 0 0 1 7.27-10.24 52.1 52.1 0 0 1 20.67-12.88 65.11 65.11 0 0 1 14.25-3.18l9.14.06a.56.56 0 0 1 .56.51.56.56 0 0 1-.46.61l-3 .52c-2.18.37-4.43.75-6.62 1.23a67.69 67.69 0 0 0-14.67 5 50.74 50.74 0 0 0-17.23 12.68c-6.25 7.27-8.86 14.94-8 23.43a29.77 29.77 0 0 0 5.81 14.52c4.6 6.3 10.92 11.32 19.32 15.32a74.12 74.12 0 0 0 19 6 4 4 0 0 1 .78.25l.28.11a.57.57 0 0 1-.1 1.15z" class="cls-1"/><path d="M43 162a.6.6 0 0 1-.41-.18.62.62 0 0 1-.16-.43v-.63c0-.47 0-1 .1-1.42a103.43 103.43 0 0 1 4.35-20.21 94.12 94.12 0 0 1 15.9-29.41A96.64 96.64 0 0 1 77.06 95a92.86 92.86 0 0 1 14-9.93c2-1.11 4.05-2.1 6.06-3l2.74-1.31h.12l.26-.07H108a3.3 3.3 0 0 1 .87.14l.32.07a.57.57 0 0 1 .09 1.09 99.27 99.27 0 0 0-21.41 11.39 97.6 97.6 0 0 0-15.05 12.87c-.21.22-.4.45-.6.68l-5.54 6.5-3.74 5.14-3.11 4.86-2.83 5.14-2.62 5.74-2.09 5.32-1.53 4.89-1.36 5.29-1 5.77-.75 5.94a.57.57 0 0 1-.56.5z" class="cls-1"/><path d="M84.41 113.89H67.8a5.5 5.5 0 0 1-1.17-.16l-.47-.09a.56.56 0 0 1-.45-.36.57.57 0 0 1 .1-.56l5.27-6.17a.54.54 0 0 1 .43-.2h.07l.52.08a7 7 0 0 0 1 .11h17.42a.58.58 0 0 1 .47.24.59.59 0 0 1 .06.53l-2.32 6.21a.59.59 0 0 1-.54.37z" class="cls-1"/><path d="M28.12 162H9.83a.56.56 0 0 1-.56-.55V81.21a.57.57 0 0 1 .56-.55h90.29a.57.57 0 0 1 .24 1.08l-2.75 1.32c-2 .94-4.06 1.92-6 3a91.79 91.79 0 0 0-13.83 9.81 95.86 95.86 0 0 0-14.08 14.56A93.14 93.14 0 0 0 48 139.49a102 102 0 0 0-4.3 20c0 .45-.07.91-.1 1.36v.64a.59.59 0 0 1-.6.51H28.7z" class="cls-1"/><path d="M47.93 162h-.87a.62.62 0 0 1-.42-.2.58.58 0 0 1-.13-.44l.76-6a.57.57 0 0 1 .57-.49h60a1.89 1.89 0 0 0 .58-.16l.41-.15h.16a.54.54 0 0 1 .28.08 59.9 59.9 0 0 0 16.12 6.06 2 2 0 0 1 .44.16h.13a.58.58 0 0 1 .35.63.59.59 0 0 1-.55.47H47.93z" class="cls-1"/><path d="M47.84 156a.56.56 0 0 1-.56-.67l1-5.8a.57.57 0 0 1 .56-.47H101a.63.63 0 0 1 .32.1l7.92 5.41a.6.6 0 0 1 .26.57.55.55 0 0 1-.38.47c-.11 0-.21.08-.32.12a2.76 2.76 0 0 1-1 .23h-60z" class="cls-1"/><path d="M50 150.27h-1.09a.58.58 0 0 1-.53-.71l1.37-5.32a.57.57 0 0 1 .55-.43h45.37a.59.59 0 0 1 .4.16l5.34 5.36a.57.57 0 0 1 .12.62.58.58 0 0 1-.52.35H50zm21.36-10.06h-16.7c-.68 0-1.36-.07-2-.13l-.89-.08a.57.57 0 0 1-.49-.77l2.11-5.35a.55.55 0 0 1 .53-.36h35.55a.58.58 0 0 1 .51.31l2.7 5.36a.57.57 0 0 1-.49.82l-1.83.08c-1.32.06-2.69.12-4 .13z" class="cls-1"/><path d="M50.26 144.92a.57.57 0 0 1-.46-.24.56.56 0 0 1-.08-.5l1.54-4.92a.56.56 0 0 1 .54-.4l.92.08c.65.06 1.27.12 1.9.12h31.7c1.32 0 2.68-.06 4-.12l1.84-.08a.58.58 0 0 1 .47.24l3.5 4.9a.57.57 0 0 1-.46.9zm3.65-10.28a.56.56 0 0 1-.48-.26.55.55 0 0 1 0-.54l2.57-5.78a.56.56 0 0 1 .51-.33l31.23.2a.56.56 0 0 1 .54.4L90 133.9a.56.56 0 0 1-.09.5.53.53 0 0 1-.45.23z" class="cls-1"/><path d="M56.54 128.86A.57.57 0 0 1 56 128l2.81-5.18a.58.58 0 0 1 .5-.3h.07c.23 0 .45.06.68.09a9.38 9.38 0 0 0 1.35.14h25.71a.58.58 0 0 1 .57.5l.64 5.13a.55.55 0 0 1-.14.44.57.57 0 0 1-.42.19z" class="cls-1"/><path d="M76.86 123.94H61.45a9.43 9.43 0 0 1-1.52-.16l-.65-.09a.54.54 0 0 1-.44-.32.57.57 0 0 1 0-.55l3.16-4.89a.56.56 0 0 1 .47-.26h.07l.56.08a6.7 6.7 0 0 0 1.06.11h23.12a.58.58 0 0 1 .41.17.57.57 0 0 1 .15.42l-.15 4.92a.57.57 0 0 1-.57.55z" class="cls-1"/><path d="M77.65 119H64.17a8.26 8.26 0 0 1-1.24-.13l-.51-.08a.56.56 0 0 1-.46-.34.55.55 0 0 1 .07-.55l3.76-5.18a.55.55 0 0 1 .46-.23h.08l.53.1a4.71 4.71 0 0 0 .94.13h20.4a.57.57 0 0 1 .43.2.55.55 0 0 1 .12.46l-.91 5.13a.58.58 0 0 1-.56.47z" class="cls-1"/></g><path d="M153.9 157.66a.56.56 0 0 1-.56-.57v-18.34a.56.56 0 0 1 .56-.56h8.88a.57.57 0 0 1 .57.56v1.73a.58.58 0 0 1-.57.57h-6.24v5h5.92a.57.57 0 0 1 .57.57v1.73a.57.57 0 0 1-.57.57h-5.92v8.17a.56.56 0 0 1-.56.57zm16.43 0a.57.57 0 0 1-.57-.57v-18.34a.57.57 0 0 1 .57-.56h2.07a.56.56 0 0 1 .57.56v16.05h6a.57.57 0 0 1 .57.57v1.72a.57.57 0 0 1-.57.57zm15.26 0a.56.56 0 0 1-.57-.57v-18.34a.56.56 0 0 1 .57-.56h8.88a.56.56 0 0 1 .56.56v1.73a.57.57 0 0 1-.56.57h-6.24v5h5.92a.57.57 0 0 1 .56.57v1.73a.57.57 0 0 1-.56.57h-5.92v5.88h6.48a.56.56 0 0 1 .56.57v1.72a.56.56 0 0 1-.56.57zm26.66 0a.58.58 0 0 1-.49-.27l-4.14-6.9-4.16 6.9a.58.58 0 0 1-.49.27h-2.26a.56.56 0 0 1-.49-.29.56.56 0 0 1 0-.57l5.59-9.33-5-8.43a.57.57 0 0 1 .49-.85h2.26a.57.57 0 0 1 .49.27l3.6 6 3.56-6a.55.55 0 0 1 .49-.27h2.25a.58.58 0 0 1 .5.28.55.55 0 0 1 0 .57l-5 8.43 5.6 9.33a.58.58 0 0 1 0 .57.56.56 0 0 1-.49.29z" class="cls-1"/><rect width="3.21" height="19.48" x="220.51" y="138.19" class="cls-1" rx=".57"/><path d="M231.68 157.66a.57.57 0 0 1-.57-.57v-18.34a.57.57 0 0 1 .57-.56h4.87a7.38 7.38 0 0 1 2.14.3 5.11 5.11 0 0 1 1.8 1 4.47 4.47 0 0 1 1.2 1.63 5.38 5.38 0 0 1 .42 2.19 5.29 5.29 0 0 1-.75 2.8 4.2 4.2 0 0 1-1.13 1.21 4.43 4.43 0 0 1 1.79 1.43 5.78 5.78 0 0 1 .94 3.41 5.86 5.86 0 0 1-.51 2.55 4.91 4.91 0 0 1-1.4 1.75 5.72 5.72 0 0 1-2.07 1 10.05 10.05 0 0 1-2.43.28zm4.47-2.86a6.4 6.4 0 0 0 1.48-.16 3.3 3.3 0 0 0 1.13-.48 2.26 2.26 0 0 0 .72-.86 3.13 3.13 0 0 0 .27-1.39 3 3 0 0 0-.25-1.29 2.74 2.74 0 0 0-.68-.89 3.35 3.35 0 0 0-1.06-.56 4.63 4.63 0 0 0-1.37-.2h-2.07v5.83zm-.61-8.69A7 7 0 0 0 237 146a2.63 2.63 0 0 0 1-.43 1.89 1.89 0 0 0 .65-.79 3.07 3.07 0 0 0 .25-1.35 2.55 2.55 0 0 0-.23-1.19 1.9 1.9 0 0 0-.59-.69 2.46 2.46 0 0 0-.94-.36 6.88 6.88 0 0 0-1.31-.11h-1.51v5.06zm14.38 11.55a.56.56 0 0 1-.57-.57v-18.34a.56.56 0 0 1 .57-.56H252a.57.57 0 0 1 .57.56v16.05h6a.56.56 0 0 1 .56.57v1.72a.56.56 0 0 1-.56.57zm15.25 0a.56.56 0 0 1-.56-.57v-18.34a.56.56 0 0 1 .56-.56h8.88a.56.56 0 0 1 .57.56v1.73a.57.57 0 0 1-.57.57h-6.24v5h5.92a.57.57 0 0 1 .57.57v1.73a.57.57 0 0 1-.57.57h-5.92v5.88h6.48a.57.57 0 0 1 .57.57v1.72a.57.57 0 0 1-.57.57zm27.28 0a.56.56 0 0 1-.57-.57v-18.34a.56.56 0 0 1 .57-.56h2.07a.57.57 0 0 1 .57.56v16.05h6a.56.56 0 0 1 .56.57v1.72a.56.56 0 0 1-.56.57zm15.26 0a.56.56 0 0 1-.57-.57v-18.34a.56.56 0 0 1 .57-.56h8.87a.56.56 0 0 1 .57.56v1.73a.57.57 0 0 1-.57.57h-6.24v5h5.92a.57.57 0 0 1 .57.57v1.73a.57.57 0 0 1-.57.57h-5.92v5.88h6.48a.56.56 0 0 1 .57.57v1.72a.56.56 0 0 1-.57.57zm26.74 0a.56.56 0 0 1-.54-.39L332.2 152h-5.71l-1.66 5.26a.56.56 0 0 1-.54.4h-2.07a.56.56 0 0 1-.46-.23.55.55 0 0 1-.08-.51l5.85-18.34a.56.56 0 0 1 .54-.39h2.52a.55.55 0 0 1 .54.39l5.93 18.34a.58.58 0 0 1-.08.51.56.56 0 0 1-.46.23zm-3.16-8.52l-2-6.6-1.95 6.6zm20.57 8.52a.58.58 0 0 1-.56-.45l-.9-4.22c-.14-.62-.28-1.17-.43-1.64a3.23 3.23 0 0 0-.53-1 1.87 1.87 0 0 0-.85-.58 4.48 4.48 0 0 0-1.57-.22h-1.35v7.59a.56.56 0 0 1-.56.57H343a.57.57 0 0 1-.57-.57v-18.39a.57.57 0 0 1 .57-.56h4.65a7.24 7.24 0 0 1 4.69 1.31 4.77 4.77 0 0 1 1.62 3.88 5 5 0 0 1-1.17 3.5 5.73 5.73 0 0 1-1.53 1.13l.17.1a3.3 3.3 0 0 1 1 1 5 5 0 0 1 .57 1.3 15 15 0 0 1 .35 1.52l1.07 5a.57.57 0 0 1-.56.68zm-5.61-11a11.44 11.44 0 0 0 1.9-.15 4.18 4.18 0 0 0 1.42-.5 2.5 2.5 0 0 0 .89-.91 3.61 3.61 0 0 0 .05-2.9 1.81 1.81 0 0 0-.73-.72 3.8 3.8 0 0 0-1.28-.34c-.56-.05-1.18-.07-1.85-.07h-1v5.59zm24.56 11a.56.56 0 0 1-.51-.32L363.78 144v13.1a.57.57 0 0 1-.57.57h-2a.57.57 0 0 1-.57-.57v-18.35a.57.57 0 0 1 .57-.56h2.66a.57.57 0 0 1 .51.31l6.52 13.4v-13.15a.57.57 0 0 1 .57-.56h2a.57.57 0 0 1 .57.56v18.34a.57.57 0 0 1-.57.57z" class="cls-1"/><rect width="3.21" height="19.48" x="381.43" y="138.19" class="cls-1" rx=".57"/><path d="M402.18 157.66a.55.55 0 0 1-.51-.32L395.14 144v13.1a.56.56 0 0 1-.56.57h-2a.56.56 0 0 1-.57-.57v-18.35a.56.56 0 0 1 .57-.56h2.66a.58.58 0 0 1 .51.31l6.52 13.4v-13.15a.57.57 0 0 1 .57-.56h2a.56.56 0 0 1 .56.56v18.34a.56.56 0 0 1-.56.57zm17.49.34a7.41 7.41 0 0 1-3.95-1 6.82 6.82 0 0 1-2.42-2.5 10.63 10.63 0 0 1-1.16-3.42 24.66 24.66 0 0 1-.3-3.76 15.93 15.93 0 0 1 .36-3.39 9.44 9.44 0 0 1 1.22-3 6.8 6.8 0 0 1 2.29-2.17 6.91 6.91 0 0 1 3.53-.84 8.09 8.09 0 0 1 2.48.38 6.11 6.11 0 0 1 2.06 1.11 5.34 5.34 0 0 1 1.41 1.86 5.78 5.78 0 0 1 .52 2.51.57.57 0 0 1-.57.57h-2.33a.57.57 0 0 1-.57-.57 3 3 0 0 0-.78-2.2 2.93 2.93 0 0 0-2.19-.79 3.29 3.29 0 0 0-2 .56 4 4 0 0 0-1.22 1.51 7.43 7.43 0 0 0-.63 2.16 15.92 15.92 0 0 0-.18 2.32c0 .54 0 1.12.05 1.74a11.84 11.84 0 0 0 .23 1.79 10.3 10.3 0 0 0 .49 1.69 4.77 4.77 0 0 0 .78 1.34 3.43 3.43 0 0 0 1.16.89 3.72 3.72 0 0 0 1.64.33 5.81 5.81 0 0 0 .8-.05 4.68 4.68 0 0 0 .83-.16 4.36 4.36 0 0 0 .79-.28 3.61 3.61 0 0 0 .39-.22V149h-3.64a.56.56 0 0 1-.56-.56v-1.73a.56.56 0 0 1 .56-.57H425a.57.57 0 0 1 .57.57v8.9a.58.58 0 0 1-.21.44 6.56 6.56 0 0 1-1.28.83 9.36 9.36 0 0 1-1.47.58c-.5.14-1 .26-1.52.35a9.67 9.67 0 0 1-1.42.19zm30.17 0a6.35 6.35 0 0 1-3.62-1 6.58 6.58 0 0 1-2.17-2.45 10.29 10.29 0 0 1-1-3.23 21.09 21.09 0 0 1 0-6.85 10.09 10.09 0 0 1 1-3.21 6.55 6.55 0 0 1 2.18-2.41 6.37 6.37 0 0 1 3.61-1 6.27 6.27 0 0 1 3.6 1 6.53 6.53 0 0 1 2.16 2.42 10.19 10.19 0 0 1 1 3.21 21.67 21.67 0 0 1 0 6.82 10.57 10.57 0 0 1-1 3.23 6.54 6.54 0 0 1-2.16 2.45 6.26 6.26 0 0 1-3.6 1.02zm0-17.19a2.73 2.73 0 0 0-1.93.64 4.59 4.59 0 0 0-1.14 1.75 9 9 0 0 0-.53 2.36c-.07.88-.11 1.67-.11 2.36 0 .47 0 1 .05 1.55a15.62 15.62 0 0 0 .19 1.66 10.57 10.57 0 0 0 .4 1.59 4.71 4.71 0 0 0 .67 1.28 3.19 3.19 0 0 0 1 .84 3 3 0 0 0 1.41.3 2.58 2.58 0 0 0 1.88-.65 4.91 4.91 0 0 0 1.14-1.79 9.82 9.82 0 0 0 .53-2.42 23.53 23.53 0 0 0 .13-2.36v-1.53a15 15 0 0 0-.19-1.64 8.6 8.6 0 0 0-.41-1.55 4.74 4.74 0 0 0-.68-1.26 2.88 2.88 0 0 0-1-.83 2.93 2.93 0 0 0-1.41-.35zm14.09 16.85a.56.56 0 0 1-.57-.57v-18.34a.56.56 0 0 1 .57-.56h4.25a11.36 11.36 0 0 1 2.5.26 5.34 5.34 0 0 1 2.05 1 4.57 4.57 0 0 1 1.36 1.79 6.39 6.39 0 0 1 .48 2.62 6.28 6.28 0 0 1-.49 2.58 4.83 4.83 0 0 1-1.37 1.77 5.53 5.53 0 0 1-2 1 10.16 10.16 0 0 1-2.48.29h-1.61v7.62a.57.57 0 0 1-.57.57zm4.3-11a3.75 3.75 0 0 0 2.27-.58 2.48 2.48 0 0 0 .86-2.17 3.58 3.58 0 0 0-.26-1.5 2.05 2.05 0 0 0-.68-.8 2.78 2.78 0 0 0-1.09-.4 9.89 9.89 0 0 0-1.6-.11h-1.16v5.56zm15.47 11a.56.56 0 0 1-.56-.57v-16h-3.82a.57.57 0 0 1-.57-.57v-1.73a.56.56 0 0 1 .57-.56h10.84a.56.56 0 0 1 .57.56v1.73a.57.57 0 0 1-.57.57h-3.82v16a.56.56 0 0 1-.56.57z" class="cls-1"/><rect width="3.21" height="19.48" x="496.11" y="138.19" class="cls-1" rx=".57"/><path d="M513 158a6.3 6.3 0 0 1-3.61-1 6.52 6.52 0 0 1-2.18-2.45 10.29 10.29 0 0 1-1-3.23 21.09 21.09 0 0 1 0-6.85 10.09 10.09 0 0 1 1-3.21 6.55 6.55 0 0 1 2.18-2.41 6.4 6.4 0 0 1 3.61-1 6.24 6.24 0 0 1 3.6 1 6.53 6.53 0 0 1 2.16 2.42 10.19 10.19 0 0 1 1 3.21 21.67 21.67 0 0 1 0 6.82 10.83 10.83 0 0 1-1 3.23 6.66 6.66 0 0 1-2.17 2.45A6.24 6.24 0 0 1 513 158zm0-17.19a2.73 2.73 0 0 0-1.93.64 4.71 4.71 0 0 0-1.14 1.75 9 9 0 0 0-.52 2.36c-.08.88-.12 1.67-.12 2.36 0 .47 0 1 .05 1.55a15.62 15.62 0 0 0 .19 1.66 10.57 10.57 0 0 0 .4 1.59 4.73 4.73 0 0 0 .68 1.28 3 3 0 0 0 1 .84 3 3 0 0 0 1.41.3 2.56 2.56 0 0 0 1.88-.65 4.78 4.78 0 0 0 1.14-1.79 10.3 10.3 0 0 0 .54-2.42c.08-.88.13-1.68.13-2.36q0-.7-.06-1.53a12.87 12.87 0 0 0-.19-1.64 8.6 8.6 0 0 0-.41-1.55 4.47 4.47 0 0 0-.68-1.26 2.88 2.88 0 0 0-1-.83 2.93 2.93 0 0 0-1.37-.35zm23.63 16.85a.55.55 0 0 1-.51-.32L529.59 144v13.1a.56.56 0 0 1-.56.57h-2a.57.57 0 0 1-.57-.57v-18.35a.57.57 0 0 1 .57-.56h2.66a.58.58 0 0 1 .51.31l6.52 13.4v-13.15a.57.57 0 0 1 .57-.56h2a.56.56 0 0 1 .56.56v18.34a.56.56 0 0 1-.56.57zm-367.21-38h-4.07l-3.1-.09c-.93 0-1.73-.09-2.41-.1s-1.35 0-2 0h-1.77c-.4 0-.85 0-1.3.06h-1.16c-1.17 0-1.26-.7-1.26-.92a.82.82 0 0 1 .91-.82h.58a4.27 4.27 0 0 0 .56-.11.6.6 0 0 0 .51-.43 7.4 7.4 0 0 0 .34-1.48 36.58 36.58 0 0 0 .19-3.74V90.68c0-.38 0-.74-.07-1.08a3.15 3.15 0 0 0-.35-1.43 1.58 1.58 0 0 0-1.05-.52 2.43 2.43 0 0 0-.63-.09h-.72a.83.83 0 0 1-.92-.83c0-.21.1-.91 1.26-.91h3.1l1.78.07 3.41-.11h1.24c1.17 0 1.26.7 1.26.91a.83.83 0 0 1-.91.83h-.6a4.06 4.06 0 0 0-.7.09 1.22 1.22 0 0 0-.9.48 3.54 3.54 0 0 0-.34 1.47c0 .34-.05.7-.07 1.08s0 .9 0 1.55v14.32c0 3.13.06 5.49.17 7 .15 1.92.5 2.38.6 2.48a2.48 2.48 0 0 0 .51.37 2.78 2.78 0 0 0 .78.24c.37.07.84.12 1.41.17s1.27.06 2.09.06a24.5 24.5 0 0 0 3-.17 2.6 2.6 0 0 0 1.77-.92 4.22 4.22 0 0 0 .65-1.11 5.08 5.08 0 0 0 .35-1.2c.14-.94.71-1 .95-1s.82.11.82 1.21v.74c0 .37-.08.76-.16 1.21l-.21 1.31c-.08.47-.16.87-.25 1.2a6.16 6.16 0 0 1-.28.71 1.39 1.39 0 0 1-.62.6 2.75 2.75 0 0 1-1 .23c-.32.01-.81.02-1.39.02z" class="cls-1"/><path d="M202.63 119.54h-2l-2.23-.06-1-.07a.82.82 0 0 1-.88-.8.88.88 0 0 1 .71-.85 1.37 1.37 0 0 0-.1-.4l-4-10.52h-9.08l-2.57 7.6a8.11 8.11 0 0 0-.58 2.7.46.46 0 0 0 .25.46 1.74 1.74 0 0 0 .83.23h.43c.73 0 1 .44 1 .82 0 .22-.08.92-1.21.92h-.93l-1.88-.08h-5.43c-1.2 0-1.38-.58-1.38-.92a.84.84 0 0 1 .95-.82h.57c.24 0 .43 0 .59-.06a2.61 2.61 0 0 0 1.89-1.08 12 12 0 0 0 1.32-2.61l9.79-26.78a10.48 10.48 0 0 1 .6-1.47 1 1 0 0 1 1.75 0 8.84 8.84 0 0 1 .61 1.37c.11.24.38.92.8 2s.92 2.42 1.51 4 1.24 3.28 2 5.15l2.14 5.54q1 2.75 2 5.19l1.62 4.1a16.14 16.14 0 0 0 1.06 2.25 9.18 9.18 0 0 0 .93 1.34 2.55 2.55 0 0 0 .7.6 2.68 2.68 0 0 0 .62.25 3.61 3.61 0 0 0 .85.21h.74c.74 0 1 .44 1 .82a.84.84 0 0 1-.68.83 2.86 2.86 0 0 1-.75.09zm-10.44-15.41l-3.72-10.57-3.47 10.57zm29.67 15.41h-3.48l-1.82-.06-1.66.06h-2.57c-1.16 0-1.25-.7-1.25-.92a.82.82 0 0 1 .91-.82h.57a4.27 4.27 0 0 0 .56-.11.59.59 0 0 0 .51-.43 6.77 6.77 0 0 0 .34-1.48 36.58 36.58 0 0 0 .19-3.74V88.79l-5.81.08a15.08 15.08 0 0 0-1.64.08 8.27 8.27 0 0 0-1.14.22 2 2 0 0 0-.68.32 1.78 1.78 0 0 0-.47.51c-.21.34-.37.61-.47.79s-.16.32-.21.44c-.28.69-.72.79-1 .79-.08 0-.78 0-.78-1a5.79 5.79 0 0 1 .14-.95c.09-.45.19-.94.3-1.46l.33-1.43c.11-.46.18-.74.21-.83l.19-.53c.2-.56.53-.68.78-.68a2 2 0 0 1 .88.28 3 3 0 0 0 1.07.24c.62.06 1.28.11 2 .15s1.14.07 1.39.07h16.17c.67 0 1.26 0 1.74-.07s.9-.08 1.23-.14.55-.1.75-.15a2.9 2.9 0 0 1 .55-.07.73.73 0 0 1 .76.63v1.67l-.08 2.79v.73c0 1.08-.72 1.13-.86 1.13a.81.81 0 0 1-.75-.44 2.13 2.13 0 0 1-.16-.81l-.05-.47a1.56 1.56 0 0 0-.22-.67 1.5 1.5 0 0 0-.62-.52 5.76 5.76 0 0 0-1.44-.44 16.52 16.52 0 0 0-2.47-.23l-4.85-.08v23.21a34 34 0 0 0 .19 3.75 4.17 4.17 0 0 0 .34 1.43c0 .09.17.36.85.45a8.14 8.14 0 0 0 1 .12h.85a.82.82 0 0 1 .91.82c.03.32-.09 1.02-1.23 1.02zm41.88 0a17.85 17.85 0 0 1-2.9-.19 5.82 5.82 0 0 1-2-.71 9.62 9.62 0 0 1-2.84-2.44c-.86-1-1.92-2.41-3.16-4-.46-.61-.93-1.23-1.39-1.86l-1.31-1.81c-.42-.58-.8-1.1-1.16-1.57s-.65-.87-.85-1.16h-.09l-5-.08v6.35a36.64 36.64 0 0 0 .19 3.75 4.29 4.29 0 0 0 .34 1.42c0 .1.17.37.85.46a8.08 8.08 0 0 0 1 .12h.84a.82.82 0 0 1 .91.82c0 .22-.09.92-1.25.92h-3.49l-1.82-.06-1.53.06h-2.52c-1.17 0-1.26-.7-1.26-.92a.82.82 0 0 1 .91-.82h.58a4.27 4.27 0 0 0 .56-.11.6.6 0 0 0 .51-.43 7.4 7.4 0 0 0 .34-1.48 36.25 36.25 0 0 0 .19-3.74V90.68c0-.38 0-.74-.07-1.08a3.15 3.15 0 0 0-.35-1.43 1.58 1.58 0 0 0-1-.52 2.51 2.51 0 0 0-.63-.09h-.72a.83.83 0 0 1-.92-.83c0-.21.1-.91 1.26-.91h3.1l1.77.07h.78l3-.09h1.31a27 27 0 0 1 4.21.33 9.3 9.3 0 0 1 4 1.67 9.51 9.51 0 0 1 1 .91 8.34 8.34 0 0 1 1 1.37 8 8 0 0 1 .83 1.79 6.87 6.87 0 0 1 .36 2.26 11.73 11.73 0 0 1-1.22 5.09 17.73 17.73 0 0 1-3.8 4.93l4.55 5.8c1.45 1.85 2.82 3.46 4.07 4.79a9.48 9.48 0 0 0 2.91 2.28 8.72 8.72 0 0 0 2 .65c.38.06.7.09 1 .11h.62a.84.84 0 0 1 .95.82.86.86 0 0 1-.62.83 3.69 3.69 0 0 1-1 .09zM243 102.62a3.86 3.86 0 0 0 1.61.46 18.91 18.91 0 0 0 2.65.18 8.32 8.32 0 0 0 1.54-.14 3.37 3.37 0 0 0 1.37-.57 5.22 5.22 0 0 0 1.68-2.25 9.72 9.72 0 0 0 .71-3.93 8.88 8.88 0 0 0-1.84-6 6.31 6.31 0 0 0-5.05-2.09c-.64 0-1.21 0-1.71.08s-.75.1-1 .14zm41 17.52a17.78 17.78 0 0 1-7.86-1.61 16 16 0 0 1-5.38-4.16 16.67 16.67 0 0 1-3.08-5.65 20.09 20.09 0 0 1-1-6.1 17.36 17.36 0 0 1 .45-3.79 18 18 0 0 1 1.38-3.94 19.45 19.45 0 0 1 2.33-3.68 15.24 15.24 0 0 1 3.38-3.11 16.88 16.88 0 0 1 4.44-2.1 19 19 0 0 1 5.56-.78 20.22 20.22 0 0 1 6.92 1.16 16.2 16.2 0 0 1 5.56 3.33 15.49 15.49 0 0 1 3.7 5.29 17.5 17.5 0 0 1 1.34 7 19.63 19.63 0 0 1-1.27 7 17.55 17.55 0 0 1-3.59 5.79 16.89 16.89 0 0 1-5.62 3.93 18.05 18.05 0 0 1-7.26 1.42zm0-32.35a13.49 13.49 0 0 0-4.82.85 10.24 10.24 0 0 0-3.78 2.53 12 12 0 0 0-2.51 4.25 17.8 17.8 0 0 0-.92 6 20.3 20.3 0 0 0 1 6.62 15.28 15.28 0 0 0 2.82 5 12.48 12.48 0 0 0 4.19 3.17 12.2 12.2 0 0 0 5.2 1.12 13.59 13.59 0 0 0 3.34-.52 9.58 9.58 0 0 0 3.69-2 12.29 12.29 0 0 0 3-4.31 18.21 18.21 0 0 0 1.26-7.38 19.39 19.39 0 0 0-1.06-6.66 14.86 14.86 0 0 0-2.8-4.8 11.65 11.65 0 0 0-8.68-3.89zm33.86 31.87h-1.28l-1.85-.09c-.65-.06-1.21-.09-1.72-.1h-3.91c-.44 0-.88.05-1.2.05-1.17 0-1.26-.7-1.26-.92a.82.82 0 0 1 .91-.82h.58a4.27 4.27 0 0 0 .56-.11.6.6 0 0 0 .51-.43 7 7 0 0 0 .33-1.48 33.6 33.6 0 0 0 .19-3.74V90.68c0-.38 0-.74-.06-1.08a3.15 3.15 0 0 0-.35-1.43 1.58 1.58 0 0 0-1.05-.52 2.51 2.51 0 0 0-.63-.09h-.72a.83.83 0 0 1-.92-.83c0-.21.09-.91 1.26-.91h3.1l1.77.07c.51 0 1.16 0 2-.07s1.73-.06 2.74-.06a11.83 11.83 0 0 1 4.54.75 8.54 8.54 0 0 1 2.84 1.86 6.1 6.1 0 0 1 1.45 2.33 7.38 7.38 0 0 1 .37 2.09 8.39 8.39 0 0 1-.38 2.59 9.45 9.45 0 0 1-1 2.14 15.2 15.2 0 0 1-1.35 1.81c-.28.33-.59.66-.9 1a14 14 0 0 1 1.79.88 11.5 11.5 0 0 1 2.54 2 10.67 10.67 0 0 1 1.92 2.81 8.42 8.42 0 0 1 .76 3.65 9.48 9.48 0 0 1-.73 3.62 9.91 9.91 0 0 1-2.17 3.21 10.8 10.8 0 0 1-3.62 2.27 13.51 13.51 0 0 1-5.06.89zm-3.53-9.66v3.67c0 .48.06.91.09 1.27a2.28 2.28 0 0 0 .15.73 1.25 1.25 0 0 0 .29.44 2.26 2.26 0 0 0 .63.41 3.32 3.32 0 0 0 .84.3 9.13 9.13 0 0 0 1 .19c.34 0 .66.07.95.08h.73a7.14 7.14 0 0 0 1.77-.26 5.24 5.24 0 0 0 1.79-.88 4.88 4.88 0 0 0 1.39-1.68 5.93 5.93 0 0 0 .56-2.74 12 12 0 0 0-.19-2 10.36 10.36 0 0 0-.63-2.21 9.93 9.93 0 0 0-1.2-2.11 7.94 7.94 0 0 0-1.92-1.81 6.23 6.23 0 0 0-1.78-.87 11.5 11.5 0 0 0-1.54-.29 4.65 4.65 0 0 0-.63-.06h-2.36zm0-10.28c.14 0 .35 0 .61.08s1 .06 1.75.06h1.49a3.33 3.33 0 0 0 .87-.13 2.22 2.22 0 0 0 .58-.27 3.18 3.18 0 0 0 .57-.51 5.72 5.72 0 0 0 1-1.73 6.25 6.25 0 0 0 .4-2.22 11 11 0 0 0-.3-2.54 7.25 7.25 0 0 0-.94-2.22 4.75 4.75 0 0 0-1.6-1.52 4.67 4.67 0 0 0-2.41-.57h-.91a6.06 6.06 0 0 0-1 .16h-.09zm38.07 19.94h-4.26l-3.05-.09c-.84 0-1.52-.09-2.06-.1s-1 0-1.28 0h-3.03c-.45 0-.87.05-1.2.05-1.16 0-1.25-.7-1.25-.92a.82.82 0 0 1 .91-.82h.57a4.44 4.44 0 0 0 .57-.11.59.59 0 0 0 .5-.43 6.77 6.77 0 0 0 .34-1.48 33.6 33.6 0 0 0 .19-3.74V90.68c0-.38 0-.74-.06-1.08a3.45 3.45 0 0 0-.35-1.43 1.6 1.6 0 0 0-1.05-.52 2.51 2.51 0 0 0-.63-.09h-.73a.83.83 0 0 1-.91-.83c0-.21.09-.91 1.26-.91h3.13l1.77.09h9.85a13.2 13.2 0 0 0 1.73-.2.27.27 0 0 0 .11-.05 1.09 1.09 0 0 1 .61-.18c.13 0 .74 0 .74 1a2.86 2.86 0 0 1-.15.82 8.15 8.15 0 0 0-.19 1.26v.54c0 .28 0 .55-.07.86s-.05.57-.06.84a5.06 5.06 0 0 1-.08.69c0 .14-.09.28-.14.41a.76.76 0 0 1-.72.49c-.15 0-.91 0-.91-1.13v-.63a2.06 2.06 0 0 0-.17-.69 1.43 1.43 0 0 0-.57-.64 5.27 5.27 0 0 0-2-.49 9.72 9.72 0 0 0-1.11-.06h-4.42v11.63h5.11c.69 0 1.12 0 1.37-.06.51 0 .91-.11 1.22-.16a.8.8 0 0 0 .45-.25c.47-.56.75-.76 1.07-.76a.81.81 0 0 1 .78.92 3.92 3.92 0 0 1-.14.9 11 11 0 0 0-.2 1.56c0 .24-.05.48-.07.74v1.56a3.69 3.69 0 0 0 0 .41 4.7 4.7 0 0 1-.05.63.83.83 0 0 1-.82.76.87.87 0 0 1-.87-1V105a3.21 3.21 0 0 0-.13-.63 1.73 1.73 0 0 0-.43-.7 2.23 2.23 0 0 0-1.33-.41l-1.32-.08q-.93 0-1.89-.06l-2.63-.07v10.9a7.5 7.5 0 0 0 .21 1.66 1.38 1.38 0 0 0 .52.77 2.65 2.65 0 0 0 1.24.42 19.73 19.73 0 0 0 2.46.12q.85 0 2-.06a5.87 5.87 0 0 0 1.89-.37 1.93 1.93 0 0 0 1-.82 5.25 5.25 0 0 0 .57-1.85c.15-.75.47-1.12.95-1.12a.77.77 0 0 1 .8.72 4.15 4.15 0 0 1 0 .49c0 .1 0 .34-.07.74l-.21 1.63-.12.9a10 10 0 0 1-.18 1 3.86 3.86 0 0 1-.32.8 1.35 1.35 0 0 1-.66.56 2.49 2.49 0 0 1-.83.17c-.4-.05-.75-.05-1.2-.05zm36.27.48a1.3 1.3 0 0 1-1.17-.88 23.34 23.34 0 0 1-.91-2.16L376 90.67a10.55 10.55 0 0 0-.64-1.39 4.34 4.34 0 0 0-.59-.82 2 2 0 0 0-.59-.44 8.85 8.85 0 0 0-.93-.34 3.6 3.6 0 0 0-.81-.12h-.66a.84.84 0 0 1-.91-.87c0-.87 1.18-.87 1.68-.87h5.05c.22 0 .73 0 1.52-.07s1.65-.06 2.49-.06c.52 0 1.73 0 1.73.87a.88.88 0 0 1-1 .87h-.79a1.88 1.88 0 0 0-.62.13.33.33 0 0 0-.16.12.52.52 0 0 0-.06.22 4 4 0 0 0 .31 1.18c.23.63.5 1.36.82 2.19l7.77 20.74c.28-.68.58-1.43.92-2.25.57-1.4 1.18-2.91 1.81-4.5l1.92-4.87c.64-1.65 1.24-3.2 1.78-4.65s1-2.73 1.4-3.85.67-1.93.84-2.45c.11-.31.2-.59.27-.86a2.56 2.56 0 0 0 .09-.6 1.09 1.09 0 0 0-.07-.33.38.38 0 0 0-.18-.15 2.64 2.64 0 0 0-.61-.09h-.77c-1 0-1.05-.69-1.05-.83 0-.42.27-.91 1.52-.91.87 0 1.74 0 2.6.06s1.37.07 1.63.07l1.29-.07h2c1.13 0 1.3.54 1.3.87 0 .14 0 .87-1.08.87-.14 0-.4 0-.79.06a2.18 2.18 0 0 0-1 .36 1.79 1.79 0 0 0-.35.29 3.05 3.05 0 0 0-.44.59c-.17.28-.37.66-.6 1.13s-.48 1.07-.76 1.78c-.11.3-.33.85-.65 1.61s-.69 1.64-1.12 2.71-.91 2.23-1.45 3.5-1.07 2.55-1.61 3.87c-1.33 3.17-2.46 5.87-3.41 8.11s-1.67 3.92-2.16 5c-.61 1.29-1 2.16-1.21 2.61.01.29-.33 1.05-1 1.05zm40.97-.6h-2l-2.23-.06-1-.07a.82.82 0 0 1-.88-.8.88.88 0 0 1 .72-.85 2.51 2.51 0 0 0-.11-.4l-4-10.52h-9.04l-2.57 7.6a8.11 8.11 0 0 0-.58 2.7.46.46 0 0 0 .25.46 1.73 1.73 0 0 0 .82.23h.44c.73 0 1 .44 1 .82 0 .22-.09.92-1.22.92h-.93l-1.88-.08H401c-1.2 0-1.38-.58-1.38-.92a.84.84 0 0 1 .95-.82h.57c.24 0 .43 0 .59-.06a2.61 2.61 0 0 0 1.89-1.08 12 12 0 0 0 1.29-2.61l9.79-26.78a12 12 0 0 1 .6-1.47 1 1 0 0 1 .88-.59 1 1 0 0 1 .87.55 8.87 8.87 0 0 1 .61 1.37c.11.24.38.92.8 2s.92 2.42 1.51 4 1.24 3.28 2 5.15l2.14 5.54c.7 1.83 1.38 3.56 2 5.19l1.62 4.1a16.14 16.14 0 0 0 1.06 2.25 9.77 9.77 0 0 0 .93 1.34 2.55 2.55 0 0 0 .7.6 2.68 2.68 0 0 0 .62.25 3.61 3.61 0 0 0 .85.21h.74c.74 0 1 .44 1 .82a.83.83 0 0 1-.68.83 2.91 2.91 0 0 1-.75.09zm-10.44-15.41l-3.72-10.57-3.48 10.57zm33.38 15.53h-4.07l-3.11-.09c-.93 0-1.72-.09-2.4-.1s-1.35 0-2 0h-1.77c-.4 0-.84 0-1.29.06h-1.16c-1.17 0-1.26-.7-1.26-.92a.82.82 0 0 1 .91-.82h.58a4.27 4.27 0 0 0 .56-.11.6.6 0 0 0 .51-.43 7.47 7.47 0 0 0 .33-1.48 33.6 33.6 0 0 0 .19-3.74V90.68c0-.38 0-.74-.06-1.08a3.15 3.15 0 0 0-.35-1.43 1.58 1.58 0 0 0-1-.52 2.51 2.51 0 0 0-.63-.09h-.72a.83.83 0 0 1-.92-.83c0-.21.09-.91 1.26-.91h3.1l1.77.07 3.41-.11h1.25c1.17 0 1.26.7 1.26.91a.83.83 0 0 1-.91.83h-.6a4.18 4.18 0 0 0-.71.09 1.2 1.2 0 0 0-.89.48 3.64 3.64 0 0 0-.34 1.47c0 .34-.05.7-.07 1.08s0 .9 0 1.55v14.32c0 3.14.06 5.49.17 7 .14 1.87.47 2.35.6 2.48a2.7 2.7 0 0 0 .5.37 3 3 0 0 0 .79.24c.37.07.84.12 1.41.17s1.27.06 2.09.06a24.5 24.5 0 0 0 3-.17 2.62 2.62 0 0 0 1.77-.92 4.22 4.22 0 0 0 .65-1.11 5.08 5.08 0 0 0 .35-1.2c.14-.94.71-1 .95-1s.82.11.82 1.21v.74c0 .37-.09.76-.16 1.21l-.22 1.31a8.6 8.6 0 0 1-.25 1.2 4.92 4.92 0 0 1-.27.71 1.39 1.39 0 0 1-.62.6 2.75 2.75 0 0 1-1 .23c-.39.01-.85.02-1.45.02zm25.53 0h-4.07l-3.11-.09c-.93 0-1.72-.09-2.4-.1s-1.35 0-2 0h-1.76c-.41 0-.85 0-1.3.06h-1.16c-1.17 0-1.26-.7-1.26-.92a.82.82 0 0 1 .91-.82h.58a4.27 4.27 0 0 0 .56-.11.6.6 0 0 0 .51-.43 7.47 7.47 0 0 0 .33-1.48 31.31 31.31 0 0 0 .19-3.74V90.68c0-.38 0-.74-.06-1.08a3.15 3.15 0 0 0-.35-1.43 1.58 1.58 0 0 0-1.05-.52 2.51 2.51 0 0 0-.63-.09h-.73a.83.83 0 0 1-.91-.83c0-.21.09-.91 1.26-.91h3.1l1.77.07 3.41-.11h1.25c1.17 0 1.26.7 1.26.91a.83.83 0 0 1-.91.83h-.6a4.18 4.18 0 0 0-.71.09 1.2 1.2 0 0 0-.89.48 3.54 3.54 0 0 0-.34 1.51c0 .34 0 .7-.07 1.08s0 .9 0 1.55v14.32c0 3.14.06 5.49.17 7 .14 1.87.47 2.35.6 2.48a2.48 2.48 0 0 0 .51.37 2.78 2.78 0 0 0 .78.24c.37.07.84.12 1.41.17s1.27.06 2.09.06a24.5 24.5 0 0 0 3-.17 2.62 2.62 0 0 0 1.77-.92 4.22 4.22 0 0 0 .65-1.11 5.08 5.08 0 0 0 .35-1.2c.14-.94.71-1 1-1s.82.11.82 1.21v.74c0 .37-.08.76-.16 1.21l-.22 1.31a10.54 10.54 0 0 1-.24 1.2 6.16 6.16 0 0 1-.28.71 1.39 1.39 0 0 1-.62.6 2.75 2.75 0 0 1-1 .23c-.39-.03-.85-.02-1.45-.02zm24.63 0h-4.27l-3-.09c-.85 0-1.53-.09-2.07-.1s-1 0-1.28 0h-3.02c-.44 0-.88.05-1.2.05-1.17 0-1.26-.7-1.26-.92a.82.82 0 0 1 .91-.82h.58a4.27 4.27 0 0 0 .56-.11.6.6 0 0 0 .51-.43 7 7 0 0 0 .33-1.48 33.6 33.6 0 0 0 .19-3.74V90.68c0-.38 0-.74-.06-1.08a3.15 3.15 0 0 0-.35-1.43 1.58 1.58 0 0 0-1-.52 2.51 2.51 0 0 0-.63-.09h-.72a.83.83 0 0 1-.92-.83c0-.21.09-.91 1.26-.91h3.14l1.76.09h9.85a13.2 13.2 0 0 0 1.73-.2h.11a1 1 0 0 1 .62-.19c.12 0 .74 0 .74 1a3 3 0 0 1-.16.82 8.15 8.15 0 0 0-.19 1.26v.54c0 .28 0 .55-.07.86s-.05.57-.06.84a4.66 4.66 0 0 1-.08.68 2.3 2.3 0 0 1-.14.42.76.76 0 0 1-.71.49c-.16 0-.92 0-.92-1.13v-.63a2.33 2.33 0 0 0-.16-.69 1.49 1.49 0 0 0-.57-.64 5.44 5.44 0 0 0-2.05-.49 9.29 9.29 0 0 0-1.11-.06h-4.41v11.63h5.11c.68 0 1.13 0 1.38-.06.5 0 .9-.11 1.21-.16a.8.8 0 0 0 .45-.25c.47-.56.75-.76 1.07-.76a.82.82 0 0 1 .79.92 4.28 4.28 0 0 1-.15.9 11 11 0 0 0-.2 1.56c0 .24-.05.48-.06.74l-.05.81v1.16a4.7 4.7 0 0 1-.05.63.83.83 0 0 1-.82.76.87.87 0 0 1-.87-1v-.63a2.61 2.61 0 0 0-.13-.63 1.63 1.63 0 0 0-.43-.7c-.08-.09-.38-.31-1.33-.41l-1.32-.08c-.62 0-1.24 0-1.89-.06l-2.63-.07v10.9a7.42 7.42 0 0 0 .22 1.66 1.29 1.29 0 0 0 .52.77 2.61 2.61 0 0 0 1.23.42 19.8 19.8 0 0 0 2.47.12q.84 0 2-.06a5.92 5.92 0 0 0 1.89-.37 2 2 0 0 0 1-.82 5.47 5.47 0 0 0 .57-1.85c.15-.75.46-1.12.95-1.12a.78.78 0 0 1 .8.72v.49c0 .16 0 .34-.07.74s-.2 1.63-.2 1.63l-.12.9a9.47 9.47 0 0 1-.19 1 3.2 3.2 0 0 1-.32.8 1.37 1.37 0 0 1-.65.56 2.55 2.55 0 0 1-.84.17c-.42-.09-.78-.09-1.22-.09zm26.82-.12h-3.49l-1.82-.06-3 .1h-1.18c-1.17 0-1.26-.7-1.26-.92a.82.82 0 0 1 .91-.82h.58a4.27 4.27 0 0 0 .56-.11.77.77 0 0 0 .59-.48 4.22 4.22 0 0 0 .34-1.4c0-.9.09-1.75.1-2.55s0-1.37 0-1.71v-3.79a10.17 10.17 0 0 0-.09-1.44 9.9 9.9 0 0 0-.2-1.1 5.93 5.93 0 0 0-.28-.87c-.11-.28-.24-.58-.38-.89 0-.09-.22-.42-.53-1s-.72-1.22-1.2-2-1-1.66-1.58-2.6-1.11-1.83-1.65-2.71l-1.51-2.41c-.46-.72-.81-1.27-1.07-1.64a14.12 14.12 0 0 0-1.52-1.94 7.34 7.34 0 0 0-1.25-1.09 3 3 0 0 0-.88-.46 2.19 2.19 0 0 0-.67-.14.88.88 0 0 1-1-.87c0-.15.05-.87 1.12-.87h1l3.28.11c.14 0 .56 0 1.26-.07s1.52-.06 2.36-.06a1.21 1.21 0 0 1 .81.21.83.83 0 0 1 .32.66.75.75 0 0 1-.54.72l-.45.19c-.21.12-.21.22-.21.25a1.63 1.63 0 0 0 .11.6 5.74 5.74 0 0 0 .38.81l.77 1.35c.4.7.87 1.52 1.42 2.45l3.49 6c.55.93 1 1.75 1.43 2.46l.27.47c.09-.18.19-.37.31-.58.36-.68.79-1.45 1.28-2.31s1-1.74 1.53-2.69 1-1.85 1.53-2.7.92-1.59 1.3-2.22.64-1.08.78-1.31a4.51 4.51 0 0 0 .52-1.08 3 3 0 0 0 .13-.82 1.28 1.28 0 0 0-.1-.56s0-.07-.15-.09c-.36-.12-1.09-.36-1.09-1 0-.31.17-.82 1.26-.82q.88 0 1.77.06c.55 0 .91.07 1.08.07l3.19-.11h1c1 0 1.13.63 1.13.82s-.06.92-1.13.92a3.83 3.83 0 0 0-.78.11 2.69 2.69 0 0 0-.89.39 5 5 0 0 0-1 .79c-.29.31-.68.74-1.16 1.31-.14.18-.44.59-1 1.43s-1 1.51-1.55 2.41-1.16 1.86-1.76 2.87-1.17 2-1.7 2.91-1 1.73-1.4 2.45a12.23 12.23 0 0 0-.74 1.47 6.94 6.94 0 0 0-.52 2q-.09 1-.09 2.07v5.42c0 .8.05 1.65.11 2.56a3.57 3.57 0 0 0 .37 1.37c0 .09.2.39.91.48a7.72 7.72 0 0 0 1 .12h.84a.83.83 0 0 1 .92.82c.02.36-.08 1.06-1.24 1.06z" class="cls-1"/><g id="FLO_Logo-2"><path d="M28.38 81.1h116.65v80.27H28.38z" class="cls-2"/><path d="M142.31 81h2.79v80.48h-8.14a5.89 5.89 0 0 0-1-.34 75.83 75.83 0 0 1-19.17-6c-7.7-3.68-14.46-8.55-19.54-15.5a30.33 30.33 0 0 1-5.91-14.8c-1-9.18 2.2-17 8.09-23.86a51.43 51.43 0 0 1 17.42-12.82A67.94 67.94 0 0 1 131.67 83c3.19-.69 6.43-1.17 9.64-1.75z" class="cls-3"/><path d="M132.24 81.17l9.08.06c-3.22.58-6.46 1.06-9.65 1.75a67.94 67.94 0 0 0-14.79 5.1 51.43 51.43 0 0 0-17.42 12.82c-5.89 6.85-9.06 14.68-8.09 23.86a30.33 30.33 0 0 0 5.91 14.8c5.08 6.95 11.84 11.82 19.54 15.5a75.83 75.83 0 0 0 19.17 6 5.89 5.89 0 0 1 1 .34h-11.26a2.92 2.92 0 0 0-.49-.19 60.7 60.7 0 0 1-16.24-6.07l-8-5.44-5.34-5.36-3.5-4.91-2.7-5.37c-.57-1.85-1.14-3.71-1.7-5.56-.22-1.71-.43-3.42-.65-5.13 0-1.64.11-3.28.16-4.92l.91-5.13 2.33-6.21a43.57 43.57 0 0 1 7.15-10 51.89 51.89 0 0 1 20.45-12.75 65.24 65.24 0 0 1 14.13-3.19zm-31.86.01h7.68a6.86 6.86 0 0 1 1.08.21 101.75 101.75 0 0 0-36.73 24.44c-.32.33-.6.69-.9 1-1.76 2-3.51 4.11-5.26 6.16l-3.77 5.18-3.13 4.88-2.81 5.18-2.63 5.77-2.11 5.36-1.54 4.92-1.37 5.32-1 5.8-.76 6H43c0-.68.06-1.36.14-2a101.64 101.64 0 0 1 4.32-20.09 94.37 94.37 0 0 1 15.81-29.24 95.57 95.57 0 0 1 14.15-14.62 93.51 93.51 0 0 1 13.93-9.86c2.83-1.6 5.84-2.91 8.77-4.35z" class="cls-4"/><path d="M100.12 81.24c-2.93 1.44-5.94 2.75-8.77 4.35a93.51 93.51 0 0 0-13.93 9.86 95.57 95.57 0 0 0-14.16 14.63 94.37 94.37 0 0 0-15.81 29.24 101.64 101.64 0 0 0-4.32 20.09c-.08.67-.1 1.35-.14 2H9.83V81.23h89.01c.42-.03.85 0 1.28.01z" class="cls-3"/></g><path d="M153.9 157.09v-18.34h8.88v1.73H156v6.14h6.48v1.73H156v8.74zm16.43 0v-18.34h2.07v16.62h6.6v1.72zm15.26 0v-18.34h8.88v1.73h-6.81v6.14h6.49v1.73h-6.49v7h7.05v1.72zm26.66 0l-4.63-7.7-4.65 7.7h-2.26l5.77-9.62-5.21-8.72h2.26l4.09 6.86 4-6.86h2.26l-5.18 8.72 5.77 9.62zm8.82 0v-18.34h2.08v18.34zm10.61 0v-18.34h4.87a7.07 7.07 0 0 1 2 .28 4.5 4.5 0 0 1 1.59.85 3.93 3.93 0 0 1 1 1.42 4.88 4.88 0 0 1 .37 2 4.74 4.74 0 0 1-.66 2.5 3.71 3.71 0 0 1-2 1.57 4.58 4.58 0 0 1 2.7 1.65 5.24 5.24 0 0 1 .83 3.08 5.3 5.3 0 0 1-.45 2.3 4.08 4.08 0 0 1-1.23 1.54 5.12 5.12 0 0 1-1.87.87 9.34 9.34 0 0 1-2.29.26zm3.86-10.42a7.6 7.6 0 0 0 1.54-.14 3.34 3.34 0 0 0 1.25-.52 2.59 2.59 0 0 0 .83-1 3.62 3.62 0 0 0 .31-1.6 3.21 3.21 0 0 0-.29-1.44 2.35 2.35 0 0 0-.79-.91 3 3 0 0 0-1.15-.45 8 8 0 0 0-1.41-.12h-2.08v6.19zm.61 8.7a6.88 6.88 0 0 0 1.6-.18 3.55 3.55 0 0 0 1.33-.57 2.77 2.77 0 0 0 .91-1.06 3.67 3.67 0 0 0 .33-1.65 3.51 3.51 0 0 0-.31-1.53 3.1 3.1 0 0 0-.83-1.09 3.74 3.74 0 0 0-1.25-.66 5.12 5.12 0 0 0-1.54-.23h-2.64v7zm13.77 1.72v-18.34H252v16.62h6.57v1.72zm15.25 0v-18.34h8.88v1.73h-6.8v6.14h6.48v1.73h-6.48v7h7v1.72zm27.28 0v-18.34h2.07v16.62h6.57v1.72zm15.25 0v-18.34h8.88v1.73h-6.8v6.14h6.48v1.73h-6.48v7h7v1.72zm26.75 0l-1.84-5.66h-6.54l-1.78 5.66h-2.07l5.85-18.34h2.52l5.93 18.34zm-5.08-16.45h-.05l-2.69 9.06h5.42zm22.49 16.45l-.91-4.22c-.14-.64-.28-1.2-.43-1.69a3.92 3.92 0 0 0-.64-1.24 2.51 2.51 0 0 0-1.09-.75 5.09 5.09 0 0 0-1.77-.26h-1.91v8.16H343v-18.34h4.65a6.61 6.61 0 0 1 4.32 1.19 4.2 4.2 0 0 1 1.43 3.44 4.4 4.4 0 0 1-1 3.11 5.33 5.33 0 0 1-2.7 1.49v.02a4.62 4.62 0 0 1 1.45.56 2.72 2.72 0 0 1 .87.85 4.37 4.37 0 0 1 .5 1.16c.13.43.24.92.35 1.47l1.06 5zm-5.61-9.88a12.44 12.44 0 0 0 2-.16 4.64 4.64 0 0 0 1.62-.58 2.91 2.91 0 0 0 1.09-1.11 4.24 4.24 0 0 0 .06-3.46 2.31 2.31 0 0 0-1-.94 4.13 4.13 0 0 0-1.49-.4c-.58-.05-1.21-.08-1.9-.08h-1.54v6.73zm24.56 9.88l-7.55-15.44h-.05v15.44h-2v-18.34h2.66l7.55 15.5h.05v-15.5h2v18.34zm11.19 0v-18.34h2.07v18.34zm20.18 0l-7.55-15.44h-.05v15.44h-2v-18.34h2.66l7.55 15.5h.05v-15.5h2v18.34zm20.82-8.63h-4.2v-1.73h6.2v8.9a5.75 5.75 0 0 1-1.17.76 8.58 8.58 0 0 1-1.38.54 10.86 10.86 0 0 1-1.45.34 8.57 8.57 0 0 1-1.37.12 6.93 6.93 0 0 1-3.66-.88 6.43 6.43 0 0 1-2.22-2.3 9.85 9.85 0 0 1-1.05-3.21 23.5 23.5 0 0 1-.29-3.67 15.52 15.52 0 0 1 .35-3.27 8.58 8.58 0 0 1 1.14-2.83 6.07 6.07 0 0 1 2.1-2 6.32 6.32 0 0 1 3.24-.76 7.48 7.48 0 0 1 2.3.35 5.49 5.49 0 0 1 1.88 1 4.66 4.66 0 0 1 1.26 1.66 5.29 5.29 0 0 1 .46 2.27h-2.33a3.56 3.56 0 0 0-.95-2.59 3.43 3.43 0 0 0-2.59-1 3.74 3.74 0 0 0-2.34.68 4.53 4.53 0 0 0-1.4 1.72 8.35 8.35 0 0 0-.67 2.32 15.68 15.68 0 0 0-.19 2.4c0 .55 0 1.14.05 1.77A14.71 14.71 0 0 0 415 151a11.12 11.12 0 0 0 .52 1.78 5.5 5.5 0 0 0 .88 1.51 3.91 3.91 0 0 0 1.34 1 4.25 4.25 0 0 0 1.89.39h.86a7.12 7.12 0 0 0 .92-.18 4.9 4.9 0 0 0 .88-.32 2.64 2.64 0 0 0 .71-.46zm26.84 8.93a5.74 5.74 0 0 1-3.3-.87 6 6 0 0 1-2-2.24 10 10 0 0 1-1-3.06 21.52 21.52 0 0 1 0-6.67 9.64 9.64 0 0 1 1-3 6 6 0 0 1 2-2.21 5.82 5.82 0 0 1 3.3-.85 5.73 5.73 0 0 1 3.28.86 6.21 6.21 0 0 1 2 2.22 9.81 9.81 0 0 1 1 3 21.39 21.39 0 0 1 0 6.65 10 10 0 0 1-1 3.06 6 6 0 0 1-2 2.24 5.65 5.65 0 0 1-3.28.87zm0-1.73a3.12 3.12 0 0 0 2.27-.81 5.22 5.22 0 0 0 1.28-2 10.53 10.53 0 0 0 .57-2.55c.09-.9.13-1.71.13-2.42v-1.57a16.73 16.73 0 0 0-.2-1.7 9.11 9.11 0 0 0-.44-1.65 5.29 5.29 0 0 0-.76-1.41 3.64 3.64 0 0 0-1.15-1 3.41 3.41 0 0 0-1.65-.37 3.18 3.18 0 0 0-2.31.8 5 5 0 0 0-1.29 2 9.28 9.28 0 0 0-.56 2.51c-.08.9-.12 1.7-.12 2.41 0 .48 0 1 .05 1.58a17 17 0 0 0 .2 1.73 10.22 10.22 0 0 0 .43 1.67 5 5 0 0 0 .75 1.44 3.63 3.63 0 0 0 1.17 1 3.48 3.48 0 0 0 1.63.34zM474 143.83a5.49 5.49 0 0 1-.44 2.34 4.12 4.12 0 0 1-1.21 1.57 4.89 4.89 0 0 1-1.83.89 9.5 9.5 0 0 1-2.34.28H466v8.18h-2.07v-18.34h4.25a10.77 10.77 0 0 1 2.37.25 4.64 4.64 0 0 1 1.83.87 4.2 4.2 0 0 1 1.2 1.57 6 6 0 0 1 .42 2.39zm-2.07 0a4 4 0 0 0-.32-1.74 2.54 2.54 0 0 0-.88-1 3.22 3.22 0 0 0-1.31-.49 10.92 10.92 0 0 0-1.69-.12H466v6.7h2.23a4.31 4.31 0 0 0 2.61-.69 3.06 3.06 0 0 0 1.09-2.63zm11.77 13.26v-16.61h-4.38v-1.73h10.84v1.73h-4.38v16.61zm12.98 0v-18.34h2.07v18.34zm16.32.3a5.74 5.74 0 0 1-3.3-.87 6 6 0 0 1-2-2.24 9.72 9.72 0 0 1-1-3.06 20.73 20.73 0 0 1 0-6.67 9.38 9.38 0 0 1 1-3 6 6 0 0 1 2-2.21 5.82 5.82 0 0 1 3.3-.85 5.73 5.73 0 0 1 3.28.86 6 6 0 0 1 2 2.22 9.81 9.81 0 0 1 1 3 21.39 21.39 0 0 1 0 6.65 10 10 0 0 1-1 3.06 5.86 5.86 0 0 1-2 2.24 5.65 5.65 0 0 1-3.28.87zm0-1.73a3.11 3.11 0 0 0 2.27-.81 5.22 5.22 0 0 0 1.28-2 10.53 10.53 0 0 0 .57-2.55c.09-.9.13-1.71.13-2.42 0-.48 0-1-.05-1.57a16.73 16.73 0 0 0-.2-1.7 9.11 9.11 0 0 0-.44-1.65 5.29 5.29 0 0 0-.76-1.41 3.64 3.64 0 0 0-1.15-1 3.41 3.41 0 0 0-1.65-.37 3.2 3.2 0 0 0-2.31.8 5 5 0 0 0-1.29 2 9.67 9.67 0 0 0-.56 2.51c-.08.9-.12 1.7-.12 2.41 0 .48 0 1 .05 1.58s.11 1.15.2 1.73a10.22 10.22 0 0 0 .43 1.67 4.82 4.82 0 0 0 .76 1.44 3.53 3.53 0 0 0 1.17 1 3.44 3.44 0 0 0 1.67.34zm23.63 1.43l-7.55-15.44H529v15.44h-2v-18.34h2.66l7.55 15.5h.05v-15.5h2v18.34zm-376.95-50.54c0 3.16 0 5.5.17 7s.37 2.47.78 2.84a2.44 2.44 0 0 0 .62.46 3.22 3.22 0 0 0 .95.3 13.71 13.71 0 0 0 1.47.17c.58 0 1.3.07 2.13.07a23.55 23.55 0 0 0 3.08-.18 3.15 3.15 0 0 0 2.14-1.12 4.57 4.57 0 0 0 .73-1.25 5.79 5.79 0 0 0 .39-1.34c.06-.37.19-.56.39-.56s.26.22.26.65v.69c0 .35-.08.73-.15 1.16s-.14.87-.21 1.32a11.63 11.63 0 0 1-.24 1.14 6.51 6.51 0 0 1-.24.61.75.75 0 0 1-.36.34 2.2 2.2 0 0 1-.76.17h-5.36l-3.11-.08c-.92-.06-1.72-.1-2.41-.11s-1.35 0-2 0h-1.77l-1.32.07h-1.14c-.46 0-.69-.12-.69-.35s.11-.26.34-.26a5 5 0 0 0 .65 0 4.15 4.15 0 0 0 .65-.13 1.13 1.13 0 0 0 .88-.77 8.07 8.07 0 0 0 .37-1.6A35.42 35.42 0 0 0 156 112V90.66c0-.38 0-.76-.06-1.1a3.94 3.94 0 0 0-.43-1.69 2.06 2.06 0 0 0-1.43-.77 2.46 2.46 0 0 0-.71-.11h-.75c-.23 0-.35-.09-.35-.26s.23-.35.69-.35h9.53c.46 0 .69.12.69.35s-.11.26-.34.26h-.63a4.28 4.28 0 0 0-.8.11 1.68 1.68 0 0 0-1.27.75 4.45 4.45 0 0 0-.41 1.71c0 .34 0 .71-.06 1.1s0 .91 0 1.57v14.32zm28.54-19.11a10 10 0 0 1 .57-1.38c.11-.2.24-.3.38-.3a.46.46 0 0 1 .39.28 9.73 9.73 0 0 1 .56 1.27c.12.26.38.94.8 2s.92 2.42 1.51 4 1.24 3.28 2 5.15 1.43 3.72 2.14 5.54 1.38 3.56 2 5.2l1.62 4.1a16.15 16.15 0 0 0 1.1 2.33 10.56 10.56 0 0 0 1 1.42 3 3 0 0 0 .86.73 3 3 0 0 0 .76.3 3.58 3.58 0 0 0 .93.22 7.86 7.86 0 0 0 .79 0c.29 0 .44.09.44.26s-.09.24-.26.28a2.27 2.27 0 0 1-.61.07h-4.54l-2.22-.07-1-.06c-.23 0-.34-.1-.34-.24s.1-.24.3-.3a.71.71 0 0 0 .35-.37 1.08 1.08 0 0 0-.09-.8l-4-10.61a.42.42 0 0 0-.39-.25H184a.44.44 0 0 0-.43.34l-2.57 7.67a8.86 8.86 0 0 0-.6 2.89 1 1 0 0 0 .54 1 2.19 2.19 0 0 0 1.09.3h.44c.28 0 .43.09.43.26s-.22.35-.65.35h-6.69L174 119c-.54 0-.82-.12-.82-.35s.13-.26.39-.26h.61a5 5 0 0 0 .64-.06 3.16 3.16 0 0 0 2.27-1.32 12.71 12.71 0 0 0 1.36-2.74zm4.49 17.25c.17 0 .23-.1.17-.3l-4.09-11.64c-.23-.63-.45-.63-.65 0l-3.8 11.64c-.08.2 0 .3.13.3zm25.66 1.77V112a35 35 0 0 0 .2 3.82 4.76 4.76 0 0 0 .38 1.6 1.53 1.53 0 0 0 1.3.77 9.71 9.71 0 0 0 1 .13h.89c.2 0 .34.09.34.26s-.23.35-.69.35h-9.53c-.46 0-.69-.12-.69-.35s.12-.26.35-.26a4.88 4.88 0 0 0 .64 0 4.15 4.15 0 0 0 .65-.13 1.12 1.12 0 0 0 .88-.77 7.42 7.42 0 0 0 .37-1.6 35 35 0 0 0 .2-3.82V88.22l-6.39.09a14 14 0 0 0-1.7.08 8.39 8.39 0 0 0-1.23.24 2.75 2.75 0 0 0-.86.41 2.5 2.5 0 0 0-.6.65c-.23.37-.4.65-.5.84a5.39 5.39 0 0 0-.24.49c-.11.29-.26.43-.43.43s-.21-.13-.21-.38a5.76 5.76 0 0 1 .13-.85q.12-.66.3-1.44c.11-.52.22-1 .32-1.42s.17-.69.19-.78.13-.32.2-.52.15-.3.24-.3a1.44 1.44 0 0 1 .62.22 3.8 3.8 0 0 0 1.27.3 54.86 54.86 0 0 0 3.42.21h16.17c.69 0 1.29 0 1.79-.06s.93-.09 1.27-.15l.78-.15a2 2 0 0 1 .43-.07.17.17 0 0 1 .2.15v5.11c0 .38-.1.56-.3.56a.24.24 0 0 1-.24-.12 2.35 2.35 0 0 1-.11-.61v-.47a2.18 2.18 0 0 0-.3-.91A2.1 2.1 0 0 0 228 89a6.18 6.18 0 0 0-1.6-.5 15.53 15.53 0 0 0-2.57-.23l-5.43-.09zM239 98.87v-8.21c0-.38 0-.76-.06-1.1a3.94 3.94 0 0 0-.43-1.69 2.06 2.06 0 0 0-1.51-.77 2.46 2.46 0 0 0-.71-.11h-.75c-.23 0-.35-.09-.35-.26s.23-.35.69-.35h9.96a25.82 25.82 0 0 1 4.12.33 8.67 8.67 0 0 1 3.78 1.57 9 9 0 0 1 .9.84 7.28 7.28 0 0 1 1 1.28 8.44 8.44 0 0 1 .78 1.68 6.51 6.51 0 0 1 .32 2.07 11.23 11.23 0 0 1-1.15 4.85 17.72 17.72 0 0 1-4.06 5.11l4.88 6.21c1.46 1.87 2.83 3.48 4.09 4.83a10 10 0 0 0 3.11 2.41 9.36 9.36 0 0 0 2.15.69 9.76 9.76 0 0 0 1 .11h.65c.15 0 .38.09.38.26a.26.26 0 0 1-.21.28 3 3 0 0 1-.82.07h-3.06a18.11 18.11 0 0 1-2.81-.17 5.75 5.75 0 0 1-1.81-.65 9 9 0 0 1-2.67-2.31q-1.29-1.57-3.15-4c-.46-.61-.92-1.22-1.38-1.86s-.9-1.23-1.31-1.81-.81-1.1-1.17-1.57l-.84-1.14a.75.75 0 0 0-.56-.26l-5.3-.09c-.21 0-.31.12-.31.35V112a35 35 0 0 0 .2 3.82 5 5 0 0 0 .39 1.6 1.51 1.51 0 0 0 1.29.77 9.91 9.91 0 0 0 1.06.13h.88c.2 0 .35.09.35.26s-.23.35-.69.35h-5.31l-1.55.06h-2.5c-.46 0-.69-.12-.69-.35s.11-.26.34-.26a5 5 0 0 0 .65 0 4.15 4.15 0 0 0 .65-.13 1.13 1.13 0 0 0 .88-.77 8.07 8.07 0 0 0 .37-1.6A35.42 35.42 0 0 0 239 112v-5.54zm3.45 3.75a.55.55 0 0 0 .31.52 5 5 0 0 0 1.78.5 18.71 18.71 0 0 0 2.74.19 9.52 9.52 0 0 0 1.64-.15 3.83 3.83 0 0 0 1.6-.67 5.76 5.76 0 0 0 1.87-2.48 10.11 10.11 0 0 0 .76-4.16 9.32 9.32 0 0 0-2-6.34 6.87 6.87 0 0 0-5.47-2.29 15.58 15.58 0 0 0-1.77.09c-.52.06-.89.12-1.12.17a.51.51 0 0 0-.35.52zM267.66 99a17.21 17.21 0 0 1 1.34-3.86 19.18 19.18 0 0 1 2.26-3.58 15.12 15.12 0 0 1 3.26-3 16 16 0 0 1 4.31-2 17.82 17.82 0 0 1 5.39-.76 19.6 19.6 0 0 1 6.78 1.08 15.61 15.61 0 0 1 5.37 3.22 14.93 14.93 0 0 1 3.56 5.08 16.93 16.93 0 0 1 1.29 6.75 19 19 0 0 1-1.23 6.84 17 17 0 0 1-3.47 5.6 16.36 16.36 0 0 1-5.43 3.8 17.51 17.51 0 0 1-7.08 1.4 17.21 17.21 0 0 1-7.61-1.55 15.57 15.57 0 0 1-5.2-4 16.16 16.16 0 0 1-3-5.46 19.63 19.63 0 0 1-.95-5.93 16.69 16.69 0 0 1 .41-3.63zm4.72 9.27a15.77 15.77 0 0 0 2.94 5.22 13.12 13.12 0 0 0 4.37 3.32 12.83 12.83 0 0 0 5.44 1.16 13.91 13.91 0 0 0 3.49-.54 10 10 0 0 0 3.9-2.13 12.53 12.53 0 0 0 3.19-4.51 18.6 18.6 0 0 0 1.32-7.61 19.82 19.82 0 0 0-1.1-6.86 15.15 15.15 0 0 0-2.91-5 12.16 12.16 0 0 0-9.1-4.07 13.86 13.86 0 0 0-5 .88 10.54 10.54 0 0 0-4 2.68 12.35 12.35 0 0 0-2.63 4.44 18.18 18.18 0 0 0-.95 6.19 20.88 20.88 0 0 0 1.04 6.79zm37.93-9.4v-8.21c0-.38 0-.76-.06-1.1a3.92 3.92 0 0 0-.44-1.69 2 2 0 0 0-1.42-.77 2.46 2.46 0 0 0-.71-.11h-.75c-.24 0-.35-.09-.35-.26s.23-.35.69-.35h4.87c.52 0 1.18 0 2-.06s1.71-.07 2.71-.07a11.06 11.06 0 0 1 4.32.72 7.9 7.9 0 0 1 2.65 1.72 5.42 5.42 0 0 1 1.31 2.11 6.65 6.65 0 0 1 .35 1.92 7.9 7.9 0 0 1-.35 2.42 8.9 8.9 0 0 1-.92 2 13.92 13.92 0 0 1-1.3 1.75c-.47.55-1 1.08-1.49 1.6a12.9 12.9 0 0 1 2.53 1.14 10.56 10.56 0 0 1 2.41 1.9 9.5 9.5 0 0 1 1.81 2.65 7.83 7.83 0 0 1 .72 3.41 8.87 8.87 0 0 1-.69 3.4 9.1 9.1 0 0 1-2.05 3 10.26 10.26 0 0 1-3.43 2.16 13.2 13.2 0 0 1-4.83.82h-1.25l-1.86-.08c-.63-.06-1.2-.1-1.72-.11h-5.13c-.31 0-.69-.12-.69-.35s.11-.26.34-.26a5 5 0 0 0 .65 0 4.4 4.4 0 0 0 .65-.13 1.13 1.13 0 0 0 .88-.77 8.07 8.07 0 0 0 .37-1.6 35.42 35.42 0 0 0 .19-3.82v-5.54zm3.45.95a.46.46 0 0 0 .3.47c.15 0 .42.07.82.11s1 .07 1.81.07h1.51a3.61 3.61 0 0 0 1-.15 2.88 2.88 0 0 0 .8-.32 3.58 3.58 0 0 0 .67-.6 6.2 6.2 0 0 0 1.12-1.9 6.76 6.76 0 0 0 .43-2.46 11.6 11.6 0 0 0-.32-2.67 7.83 7.83 0 0 0-1-2.4 5.3 5.3 0 0 0-1.79-1.7 5.23 5.23 0 0 0-2.69-.65c-.23 0-.55 0-1 .05a5.48 5.48 0 0 0-1.12.17c-.35.08-.52.24-.52.47zm0 4.57v9.28c0 .51.05 1 .08 1.31a2.85 2.85 0 0 0 .2.91 1.77 1.77 0 0 0 .41.62 3 3 0 0 0 .77.52 5 5 0 0 0 1 .35 10.18 10.18 0 0 0 1.08.19l1 .09h.76a7.94 7.94 0 0 0 1.92-.28 5.89 5.89 0 0 0 2-1 5.49 5.49 0 0 0 1.55-1.88 6.35 6.35 0 0 0 .63-3 13 13 0 0 0-.2-2.11 10.76 10.76 0 0 0-.67-2.33 10 10 0 0 0-1.27-2.24A8.3 8.3 0 0 0 321 103a6.65 6.65 0 0 0-2-1 12.68 12.68 0 0 0-1.62-.3 5.31 5.31 0 0 0-.66-.07H314c-.17 0-.26.1-.26.3zm26.18-5.52v-8.21c0-.38 0-.76-.07-1.1a3.94 3.94 0 0 0-.43-1.69 2 2 0 0 0-1.44-.77 2.46 2.46 0 0 0-.71-.11h-.76c-.23 0-.34-.09-.34-.26s.23-.35.69-.35h3.1l1.77.08h9.88a16.42 16.42 0 0 0 1.85-.21 1.18 1.18 0 0 0 .3-.13.53.53 0 0 1 .3-.09q.18 0 .18.39a3.24 3.24 0 0 1-.13.67 7.82 7.82 0 0 0-.22 1.35v.57c0 .26 0 .53-.06.84s-.06.59-.07.86a4.12 4.12 0 0 1-.06.58 2.39 2.39 0 0 1-.11.32c0 .11-.11.16-.2.16s-.34-.19-.34-.57v-.69a2.94 2.94 0 0 0-.22-.86 1.92 1.92 0 0 0-.78-.88 5.9 5.9 0 0 0-2.28-.58 11.64 11.64 0 0 0-1.17-.07h-4.75c-.17 0-.26.14-.26.43v11.9c0 .29.09.43.26.43h5.43c.69 0 1.17 0 1.43-.06.51-.06.93-.12 1.25-.18a1.27 1.27 0 0 0 .77-.43c.32-.37.54-.56.65-.56s.22.12.22.35a4.75 4.75 0 0 1-.13.77 11.92 11.92 0 0 0-.22 1.64c0 .23-.05.48-.06.76s0 .54-.05.82 0 .51 0 .73v.45a5.29 5.29 0 0 1 0 .54c0 .19-.12.28-.26.28s-.3-.13-.3-.39v-.67a3.09 3.09 0 0 0-.15-.75 2.09 2.09 0 0 0-.56-.93 2.79 2.79 0 0 0-1.68-.58c-.29 0-.74-.06-1.36-.09s-1.25 0-1.9-.06h-2.91a.27.27 0 0 0-.3.31V114a8.1 8.1 0 0 0 .24 1.81 1.87 1.87 0 0 0 .73 1.07 3.23 3.23 0 0 0 1.49.52 19 19 0 0 0 2.54.13q.87 0 2.07-.06a6.66 6.66 0 0 0 2.07-.41 2.56 2.56 0 0 0 1.3-1.06 5.9 5.9 0 0 0 .64-2c.09-.43.22-.64.39-.64a.21.21 0 0 1 .24.21v.43c0 .14 0 .31-.06.67s-.1.76-.15 1.21l-.34 1.12a7.45 7.45 0 0 1-.17 1 3 3 0 0 1-.26.64.76.76 0 0 1-.39.33 2.12 2.12 0 0 1-.64.13h-5.25l-3-.08c-.83-.06-1.52-.1-2.07-.11s-1 0-1.29 0h-4.23c-.32 0-.69-.12-.69-.35s.12-.26.35-.26a5 5 0 0 0 .65 0 4 4 0 0 0 .64-.13 1.15 1.15 0 0 0 .89-.77 8.12 8.12 0 0 0 .36-1.6 35 35 0 0 0 .2-3.82v-5.54zm49.68 14.84c.4-1 .89-2.17 1.46-3.58s1.18-2.91 1.82-4.51l1.92-4.87c.64-1.66 1.24-3.21 1.78-4.66s1-2.74 1.41-3.86.67-1.94.84-2.46c.11-.31.21-.62.28-.9a3.31 3.31 0 0 0 .11-.74 1.58 1.58 0 0 0-.11-.54.93.93 0 0 0-.45-.45 2.85 2.85 0 0 0-.85-.15L397 87c-.32 0-.48-.09-.48-.26s.32-.35.95-.35c.86 0 1.72 0 2.57.07l1.66.06h3.31c.49 0 .73.11.73.31s-.17.3-.51.3q-.22 0-.84.06a2.86 2.86 0 0 0-1.23.46 2.32 2.32 0 0 0-.46.36 3.63 3.63 0 0 0-.51.69 11.17 11.17 0 0 0-.63 1.19c-.23.49-.49 1.09-.78 1.81-.11.32-.33.85-.64 1.6s-.69 1.65-1.12 2.71-.92 2.23-1.45 3.5-1.07 2.55-1.62 3.88q-2 4.74-3.4 8.1t-2.16 5l-1.21 2.61c-.2.45-.4.67-.6.67s-.48-.19-.67-.56-.48-1.08-.88-2.11l-10.48-26.64a9.82 9.82 0 0 0-.67-1.46 4.46 4.46 0 0 0-.67-.93 2.31 2.31 0 0 0-.77-.56 9.94 9.94 0 0 0-1-.37 4 4 0 0 0-.95-.15h-.69c-.23 0-.35-.1-.35-.3s.38-.31 1.12-.31h5.05l1.55-.06c.81 0 1.63-.07 2.46-.07s1.16.11 1.16.31-.14.3-.43.3h-.84a3 3 0 0 0-.8.17 1 1 0 0 0-.45.41 1.14 1.14 0 0 0-.11.46 4.82 4.82 0 0 0 .35 1.38c.23.63.5 1.36.82 2.2zm25.61-26.27a10 10 0 0 1 .57-1.38c.11-.2.24-.3.38-.3a.46.46 0 0 1 .39.28 9.73 9.73 0 0 1 .56 1.27c.12.26.38.94.8 2s.92 2.42 1.51 4 1.24 3.28 2 5.15 1.43 3.72 2.14 5.54 1.38 3.56 2 5.2l1.62 4.1a16.15 16.15 0 0 0 1.1 2.33 10.56 10.56 0 0 0 1 1.42 3 3 0 0 0 .86.73 3 3 0 0 0 .76.3 3.58 3.58 0 0 0 .93.22 7.86 7.86 0 0 0 .79 0c.29 0 .44.09.44.26s-.09.24-.26.28a2.27 2.27 0 0 1-.61.07h-4.54l-2.22-.07-1-.06c-.23 0-.34-.1-.34-.24s.1-.24.3-.3a.71.71 0 0 0 .35-.37 1.08 1.08 0 0 0-.09-.8l-4-10.61a.42.42 0 0 0-.39-.25H411a.44.44 0 0 0-.43.34l-2.57 7.67a8.86 8.86 0 0 0-.6 2.89 1 1 0 0 0 .53 1 2.25 2.25 0 0 0 1.1.3h.44c.28 0 .43.09.43.26s-.22.35-.65.35h-6.69L401 119c-.54 0-.82-.12-.82-.35s.13-.26.39-.26h.61a5 5 0 0 0 .64-.06 3.16 3.16 0 0 0 2.27-1.32 12.71 12.71 0 0 0 1.36-2.74zm4.49 17.25c.17 0 .23-.1.17-.3l-4.09-11.64c-.23-.63-.45-.63-.65 0l-3.8 11.64c-.08.2 0 .3.13.3zm23.11 1.86q0 4.74.18 7c.11 1.52.37 2.47.77 2.84a2.5 2.5 0 0 0 .63.46 3.22 3.22 0 0 0 .95.3 13.48 13.48 0 0 0 1.46.17c.59 0 1.3.07 2.14.07a23.55 23.55 0 0 0 3.08-.18 3.15 3.15 0 0 0 2.14-1.12 4.84 4.84 0 0 0 .73-1.25 5.79 5.79 0 0 0 .39-1.34c.06-.37.18-.56.39-.56s.25.22.25.65v.69c0 .35-.08.73-.15 1.16s-.14.87-.22 1.32-.15.83-.23 1.14a6.51 6.51 0 0 1-.24.61.73.73 0 0 1-.37.34 2.08 2.08 0 0 1-.75.17h-5.41l-3.11-.08c-.92-.06-1.72-.1-2.41-.11s-1.35 0-2 0h-1.76l-1.32.07h-1.14c-.46 0-.69-.12-.69-.35s.11-.26.34-.26a5 5 0 0 0 .65 0 4.4 4.4 0 0 0 .65-.13 1.13 1.13 0 0 0 .88-.77 8.07 8.07 0 0 0 .37-1.6 35.42 35.42 0 0 0 .19-3.82V90.66c0-.38 0-.76-.06-1.1a3.92 3.92 0 0 0-.44-1.69 2 2 0 0 0-1.42-.77 2.46 2.46 0 0 0-.71-.11h-.75c-.24 0-.35-.09-.35-.26s.23-.35.69-.35h9.53c.46 0 .69.12.69.35s-.11.26-.34.26h-.63a4.28 4.28 0 0 0-.8.11 1.68 1.68 0 0 0-1.27.75 4.27 4.27 0 0 0-.41 1.71c0 .34-.05.71-.06 1.1s0 .91 0 1.57v14.32zm25.53 0q0 4.74.18 7c.11 1.52.37 2.47.77 2.84a2.5 2.5 0 0 0 .63.46 3.22 3.22 0 0 0 .95.3 13.48 13.48 0 0 0 1.46.17c.59 0 1.3.07 2.14.07a23.55 23.55 0 0 0 3.08-.18 3.15 3.15 0 0 0 2.14-1.12 4.84 4.84 0 0 0 .73-1.25 5.79 5.79 0 0 0 .39-1.34c.06-.37.18-.56.39-.56s.25.22.25.65v.69c0 .35-.08.73-.15 1.16s-.14.87-.21 1.32-.16.83-.24 1.14a6.51 6.51 0 0 1-.24.61.73.73 0 0 1-.37.34 2.08 2.08 0 0 1-.75.17h-5.41L471 119c-.92-.06-1.72-.1-2.41-.11s-1.35 0-2 0h-1.76l-1.32.07h-1.14c-.46 0-.69-.12-.69-.35s.11-.26.34-.26a5 5 0 0 0 .65 0 4.4 4.4 0 0 0 .65-.13 1.13 1.13 0 0 0 .88-.77 8.07 8.07 0 0 0 .37-1.6 35.42 35.42 0 0 0 .19-3.82V90.66c0-.38 0-.76-.06-1.1a3.92 3.92 0 0 0-.44-1.69 2 2 0 0 0-1.42-.77 2.46 2.46 0 0 0-.71-.11h-.75c-.24 0-.35-.09-.35-.26s.23-.35.69-.35h9.53c.46 0 .69.12.69.35s-.11.26-.34.26h-.63a4.28 4.28 0 0 0-.8.11 1.68 1.68 0 0 0-1.27.75 4.27 4.27 0 0 0-.41 1.71c0 .34-.05.71-.06 1.1s0 .91 0 1.57v14.32zm21.91-7.68v-8.21c0-.38 0-.76-.06-1.1a3.92 3.92 0 0 0-.44-1.69 2 2 0 0 0-1.42-.77 2.46 2.46 0 0 0-.71-.11h-.75c-.24 0-.35-.09-.35-.26s.23-.35.69-.35h3.1l1.77.08h9.88a16.42 16.42 0 0 0 1.85-.21 1.26 1.26 0 0 0 .31-.13.49.49 0 0 1 .3-.09c.11 0 .17.13.17.39a2.67 2.67 0 0 1-.13.67 7.82 7.82 0 0 0-.22 1.35v.57c0 .26 0 .53-.06.84s-.05.59-.07.86a3 3 0 0 1-.06.58 2.39 2.39 0 0 1-.11.32.21.21 0 0 1-.19.16c-.23 0-.35-.19-.35-.57v-.69a2.66 2.66 0 0 0-.22-.86 2 2 0 0 0-.77-.88 6 6 0 0 0-2.29-.58 11.59 11.59 0 0 0-1.16-.07h-4.75c-.17 0-.26.14-.26.43v11.9c0 .29.09.43.26.43h5.44c.69 0 1.16 0 1.42-.06.52-.06.93-.12 1.25-.18a1.27 1.27 0 0 0 .78-.43c.31-.37.53-.56.64-.56s.22.12.22.35a3.82 3.82 0 0 1-.13.77 11.92 11.92 0 0 0-.22 1.64c0 .23-.05.48-.06.76s0 .54 0 .82 0 .51-.05.73 0 .36 0 .45a3.44 3.44 0 0 1 0 .54c0 .19-.12.28-.26.28s-.3-.13-.3-.39v-.67a4.49 4.49 0 0 0-.15-.75 2.3 2.3 0 0 0-.56-.93 2.8 2.8 0 0 0-1.69-.58c-.28 0-.74-.06-1.36-.09s-1.25 0-1.89-.06h-2.91a.28.28 0 0 0-.31.31V114a8.1 8.1 0 0 0 .24 1.81 1.87 1.87 0 0 0 .73 1.07 3.23 3.23 0 0 0 1.49.52 19.06 19.06 0 0 0 2.55.13q.86 0 2.07-.06a6.78 6.78 0 0 0 2.07-.41 2.57 2.57 0 0 0 1.29-1.06 5.88 5.88 0 0 0 .65-2c.08-.43.21-.64.39-.64a.21.21 0 0 1 .23.21 3.17 3.17 0 0 1 0 .43c0 .09 0 .31-.06.67s-.09.76-.15 1.21-.12.88-.17 1.31a9 9 0 0 1-.18 1 3 3 0 0 1-.25.64.85.85 0 0 1-.39.33 2.26 2.26 0 0 1-.65.13h-5.25l-3-.08c-.84-.06-1.53-.1-2.07-.11s-1 0-1.3 0h-4.22c-.46 0-.69-.12-.69-.35s.11-.26.34-.26a5 5 0 0 0 .65 0 4.4 4.4 0 0 0 .65-.13 1.13 1.13 0 0 0 .88-.77 8.07 8.07 0 0 0 .37-1.6 35.42 35.42 0 0 0 .19-3.82v-5.54zm32.17 8.93a13.11 13.11 0 0 0-.08-1.51 10.66 10.66 0 0 0-.22-1.17 8.7 8.7 0 0 0-.3-.94l-.39-.91c-.06-.11-.24-.45-.56-1s-.72-1.24-1.21-2-1-1.65-1.57-2.59-1.12-1.84-1.66-2.72l-1.51-2.41c-.46-.73-.82-1.29-1.08-1.66a17.91 17.91 0 0 0-1.57-2 8.13 8.13 0 0 0-1.36-1.18 3.78 3.78 0 0 0-1-.52 3 3 0 0 0-.84-.17c-.28 0-.43-.1-.43-.3s.19-.31.56-.31h4.3l1.3-.06c.71 0 1.49-.07 2.33-.07a.77.77 0 0 1 .45.09.28.28 0 0 1 .11.22c0 .08-.06.15-.18.19l-.47.19a.89.89 0 0 0-.56.78 2.31 2.31 0 0 0 .15.8 6.74 6.74 0 0 0 .41.88l.77 1.36c.41.71.88 1.53 1.43 2.46s1.13 1.93 1.74 3l1.75 3c.55.94 1 1.76 1.42 2.46s.68 1.16.82 1.36c.15-.32.4-.81.76-1.49s.78-1.43 1.27-2.28 1-1.75 1.53-2.7 1-1.85 1.53-2.69.92-1.59 1.3-2.22.63-1.07.77-1.3a4.75 4.75 0 0 0 .58-1.23 3.32 3.32 0 0 0 .16-1 1.78 1.78 0 0 0-.16-.8.75.75 0 0 0-.53-.41c-.44-.14-.65-.28-.65-.43s.23-.26.69-.26 1.15 0 1.72.07l1.12.06h4.22c.37 0 .56.09.56.26s-.19.35-.56.35a4.09 4.09 0 0 0-.91.13 3.2 3.2 0 0 0-1.08.47 5.38 5.38 0 0 0-1.09.86c-.31.32-.7.77-1.19 1.34-.23.29-.58.79-1 1.49s-1 1.51-1.55 2.41-1.16 1.87-1.77 2.89-1.17 2-1.7 2.91-1 1.74-1.4 2.46a13.57 13.57 0 0 0-.78 1.56 7.66 7.66 0 0 0-.56 2.2c-.06.68-.08 1.39-.08 2.11v5.43c0 .8 0 1.67.1 2.59a4.31 4.31 0 0 0 .44 1.6 1.63 1.63 0 0 0 1.33.77 9.91 9.91 0 0 0 1.06.13h.88c.2 0 .35.09.35.26s-.23.35-.69.35h-8.37L520 119c-.46 0-.69-.12-.69-.35s.11-.26.34-.26a5 5 0 0 0 .65 0 4.15 4.15 0 0 0 .65-.13 1.28 1.28 0 0 0 .94-.77 4.53 4.53 0 0 0 .39-1.6c.06-.92.1-1.78.11-2.59s0-1.38 0-1.72z" class="cls-3"/></svg>