<svg id="Layer_1" data-name="Layer 1" xmlns="http://www.w3.org/2000/svg" viewBox="0 0 619.44 631.42"><defs><style>.cls-1{fill:#231f20;}.cls-2{fill:#fff;}.cls-3{fill:#ea4535;}.cls-4{fill:#f9bc15;}.cls-5{fill:#557ebf;}.cls-6{fill:#36a852;}</style></defs><path class="cls-1" d="M322.82,638.71A319.71,319.71,0,0,1,240,628,315.78,315.78,0,0,1,125.3,570.16,319.08,319.08,0,0,1,39.56,464.78a315.32,315.32,0,0,1,0-283.54C76.13,108.12,141.34,51,218.49,24.59a319,319,0,0,1,212.59,1.89c37,13.59,71.29,34.8,101.79,63a16,16,0,0,1,.91,22.58c-6,6.56-12.36,12.8-18.48,18.84-3.63,3.6-7.39,7.31-11,11l-.15.15q-10.77,10.75-21.52,21.52c-11,11-22.4,22.42-33.65,33.6a16,16,0,0,1-22.33.23,146.55,146.55,0,0,0-58.21-34.23,159.92,159.92,0,0,0-46.3-6.78,159.5,159.5,0,0,0-115.11,48.79,170.35,170.35,0,0,0-39.8,64.62,164.88,164.88,0,0,0-.06,106.41,170.16,170.16,0,0,0,62.74,84.1,158.66,158.66,0,0,0,92.67,29.31,201.63,201.63,0,0,0,33.7-3c21.83-3.83,42.52-12,59.75-23.56a125.93,125.93,0,0,0,48.4-63.3H321.67a16,16,0,0,1-16-16c-.05-25.24,0-50.9,0-75.71q0-20.64,0-41.28a16,16,0,0,1,16-16H475.82q63.93,0,127.87,0a16,16,0,0,1,15.74,13.2c10,56.28,7.23,113.81-8,166.37-15,51.64-42.78,97.2-80.37,131.74C495.43,595,450.49,618.44,401.1,629.81A353.22,353.22,0,0,1,322.82,638.71Z" transform="translate(-5.89 -7.29)"/><path class="cls-1" d="M152.11,280.66a16,16,0,0,1-9.8-3.36l-32.19-25q-33-25.62-66-51.23a16,16,0,0,1-4.51-19.8C76.13,108.12,141.34,51,218.49,24.59a319,319,0,0,1,212.59,1.89c37,13.59,71.29,34.8,101.79,63a16,16,0,0,1,.91,22.58c-6,6.55-12.36,12.8-18.48,18.84-3.63,3.59-7.39,7.31-11,11l-.15.15q-10.77,10.75-21.52,21.52c-11,11-22.4,22.42-33.65,33.6a16,16,0,0,1-22.33.23,146.55,146.55,0,0,0-58.21-34.23,159.92,159.92,0,0,0-46.3-6.78,159.5,159.5,0,0,0-115.11,48.79,170.35,170.35,0,0,0-39.8,64.62,16,16,0,0,1-15.15,10.86Z" transform="translate(-5.89 -7.29)"/><path class="cls-1" d="M53.85,473.58a15.64,15.64,0,0,1-3.52-.4,16,16,0,0,1-10.75-8.38,315.29,315.29,0,0,1,0-283.56,16.06,16.06,0,0,1,10.76-8.4,16.25,16.25,0,0,1,3.53-.39,16,16,0,0,1,9.8,3.35l66,51.21,32.22,25a16,16,0,0,1,5.32,17.85,164.8,164.8,0,0,0,0,106.34,16,16,0,0,1-5.34,17.8l-31,24.05q-33.6,26.1-67.24,52.17A16,16,0,0,1,53.85,473.58Z" transform="translate(-5.89 -7.29)"/><path class="cls-1" d="M520.21,566.38a16,16,0,0,1-9.83-3.38c-15.46-12-31.22-24.27-46.45-36.1-16-12.41-32.54-25.24-48.79-37.91a16,16,0,0,1,1-25.92,125.87,125.87,0,0,0,48.36-63.27H321.67a16,16,0,0,1-16-16c-.05-25.23,0-50.89,0-75.7q0-20.64,0-41.29a16,16,0,0,1,16-16H475.92l127.77,0a16,16,0,0,1,15.74,13.2c10,56.28,7.23,113.81-8,166.37-15,51.64-42.78,97.2-80.37,131.74A16,16,0,0,1,520.21,566.38Z" transform="translate(-5.89 -7.29)"/><path class="cls-1" d="M322.82,638.71A319.71,319.71,0,0,1,240,628,315.78,315.78,0,0,1,125.3,570.16,319.08,319.08,0,0,1,39.56,464.78a16,16,0,0,1,4.5-19.86q33.63-26,67.21-52.14l31-24a16,16,0,0,1,9.82-3.36,15.77,15.77,0,0,1,4.6.68,16,16,0,0,1,10.55,10.19,170.18,170.18,0,0,0,62.73,84.07,158.66,158.66,0,0,0,92.67,29.31,201.63,201.63,0,0,0,33.7-3c21.83-3.83,42.52-12,59.75-23.56a16,16,0,0,1,18.76.66c16.22,12.64,32.75,25.47,48.73,37.87,15.25,11.83,31,24.06,46.5,36.13a16,16,0,0,1,1,24.38c-35.64,32.9-80.58,56.3-130,67.67A353.22,353.22,0,0,1,322.82,638.71Z" transform="translate(-5.89 -7.29)"/><path class="cls-2" d="M223.67,39.72c-73.07,25-135.29,79.66-169.78,148.73a299.28,299.28,0,0,0,0,269.13,302,302,0,0,0,81.43,100.07,298.5,298.5,0,0,0,108.9,54.92c49.93,13.39,103.08,13.08,153.33,1.65,45.42-10.46,88.39-32.16,122.7-63.84,36.27-33.33,62.14-77.24,75.84-124.42,14.93-51.48,17-106.42,7.63-159.11q-141-.08-282,0,0,58.5,0,117,81.66,0,163.32,0a140.82,140.82,0,0,1-60,92.58c-19.79,13.31-42.54,21.94-66,26.05-23.6,4-48,4.55-71.53-.22a176,176,0,0,1-66.72-28.81,186.27,186.27,0,0,1-68.7-92,181.56,181.56,0,0,1,.06-116.71A186.07,186.07,0,0,1,195.61,194a176.1,176.1,0,0,1,177.5-46.14,162.37,162.37,0,0,1,64.62,38c18.43-18.32,36.76-36.75,55.15-55.1,9.65-9.88,19.78-19.33,29.13-29.48-27.94-25.85-60.68-46.62-96.45-59.76C361.15,17.79,288.51,17.28,223.67,39.72Z" transform="translate(-5.89 -7.29)"/><path class="cls-3" d="M223.67,39.72c64.84-22.44,137.48-21.93,201.89,1.77C461.33,54.63,494.07,75.4,522,101.25c-9.35,10.15-19.48,19.6-29.13,29.48-18.39,18.35-36.72,36.78-55.15,55.1a162.37,162.37,0,0,0-64.62-38A176.1,176.1,0,0,0,195.61,194a186.07,186.07,0,0,0-43.5,70.66Q103,226.56,53.89,188.45C88.38,119.38,150.6,64.74,223.67,39.72Z" transform="translate(-5.89 -7.29)"/><path class="cls-4" d="M27.84,263.78a298.3,298.3,0,0,1,26.05-75.33q49.13,38.09,98.22,76.21a181.56,181.56,0,0,0-.06,116.71q-49.1,38.1-98.2,76.21A300.12,300.12,0,0,1,27.84,263.78Z" transform="translate(-5.89 -7.29)"/><path class="cls-5" d="M321.64,266.83q141,0,282,0C613,319.54,611,374.48,596.05,426c-13.7,47.18-39.57,91.09-75.84,124.42-31.7-24.71-63.53-49.28-95.23-74a140.82,140.82,0,0,0,60-92.58q-81.64,0-163.32,0Q321.57,325.33,321.64,266.83Z" transform="translate(-5.89 -7.29)"/><path class="cls-6" d="M53.85,457.58q49.15-38.06,98.2-76.21a186.27,186.27,0,0,0,68.7,92,176,176,0,0,0,66.72,28.81c23.54,4.77,47.93,4.25,71.53.22,23.44-4.11,46.19-12.74,66-26.05,31.7,24.72,63.53,49.29,95.23,74-34.31,31.68-77.28,53.38-122.7,63.84-50.25,11.43-103.4,11.74-153.33-1.65a298.5,298.5,0,0,1-108.9-54.92A302,302,0,0,1,53.85,457.58Z" transform="translate(-5.89 -7.29)"/></svg>