<svg viewBox="0 0 69 69" xmlns="http://www.w3.org/2000/svg"><path d="m0 0h69v69h-69z" fill="#fff"/><g fill="#4d4d4d"><path d="m18.73 56.94h4.72a3.08 3.08 0 0 1 .07.39 3.39 3.39 0 0 1 0 .45 5.31 5.31 0 0 1 -.28 1.75 4 4 0 0 1 -.86 1.47 4.68 4.68 0 0 1 -1.55 1.07 5.31 5.31 0 0 1 -2 .37 5.24 5.24 0 0 1 -2-.37 4.93 4.93 0 0 1 -1.64-1.07 5.06 5.06 0 0 1 -1.09-1.59 5 5 0 0 1 -.4-2 4.91 4.91 0 0 1 .4-2 5.06 5.06 0 0 1 1.09-1.59 4.78 4.78 0 0 1 1.61-1.05 5.25 5.25 0 0 1 2-.38 5.11 5.11 0 0 1 2.08.41 4.7 4.7 0 0 1 1.58 1.11l-1.25 1.22a3.24 3.24 0 0 0 -1-.75 3.55 3.55 0 0 0 -2.64 0 3.25 3.25 0 0 0 -1 .66 3.31 3.31 0 0 0 -.71 1 3.56 3.56 0 0 0 -.26 1.37 3.51 3.51 0 0 0 .26 1.36 3.1 3.1 0 0 0 .71 1 3.2 3.2 0 0 0 1.05.67 3.48 3.48 0 0 0 1.26.23 3.28 3.28 0 0 0 1.29-.22 3.07 3.07 0 0 0 .91-.57 2.22 2.22 0 0 0 .46-.61 3.4 3.4 0 0 0 .31-.83h-3z"/><path d="m33.54 59.65a2.5 2.5 0 0 1 -.93 2 3.55 3.55 0 0 1 -2.28.75 3.35 3.35 0 0 1 -2.11-.7 3.53 3.53 0 0 1 -1.22-1.87l1.18-.49a3.05 3.05 0 0 0 .33.78 2.7 2.7 0 0 0 .51.6 2.2 2.2 0 0 0 .64.39 2 2 0 0 0 .73.14 2.14 2.14 0 0 0 1.39-.44 1.41 1.41 0 0 0 .53-1.16 1.36 1.36 0 0 0 -.44-1 4.22 4.22 0 0 0 -1.56-.81 15.06 15.06 0 0 1 -1.43-.56 2.47 2.47 0 0 1 -1.58-2.28 2.35 2.35 0 0 1 .85-1.81 3.1 3.1 0 0 1 2.11-.76 3.24 3.24 0 0 1 1.91.57 2.7 2.7 0 0 1 1.07 1.38l-1.15.48a1.75 1.75 0 0 0 -.64-.89 2.09 2.09 0 0 0 -2.39 0 1.17 1.17 0 0 0 -.49 1 1.14 1.14 0 0 0 .39.86 6.67 6.67 0 0 0 1.86.86 4.78 4.78 0 0 1 2.09 1.21 2.59 2.59 0 0 1 .63 1.75z"/><path d="m40.39 62.22h-1.18v-.92h-.06a2.18 2.18 0 0 1 -.86.81 2.56 2.56 0 0 1 -1.22.32 2.42 2.42 0 0 1 -1.86-.69 2.79 2.79 0 0 1 -.65-2v-4.11h1.23v4.06a1.45 1.45 0 0 0 1.63 1.61 1.59 1.59 0 0 0 1.24-.59 2.18 2.18 0 0 0 .49-1.43v-3.65h1.24z"/><path d="m43.49 53.36a.83.83 0 0 1 -.25.62.87.87 0 0 1 -1.24.02.86.86 0 0 1 0-1.23.87.87 0 0 1 1.24 0 .82.82 0 0 1 .25.59zm-.25 2.27v6.59h-1.24v-6.59z"/><path d="m47.39 62.32a1.88 1.88 0 0 1 -1.34-.49 1.86 1.86 0 0 1 -.54-1.39v-3.68h-1.16v-1.13h1.16v-2h1.23v2h1.61v1.13h-1.61v3.24a1.18 1.18 0 0 0 .26.89.81.81 0 0 0 .57.24 1.36 1.36 0 0 0 .29 0l.27-.09.38 1.1a3.18 3.18 0 0 1 -1.12.18z"/><path d="m52.42 62.43a3.17 3.17 0 0 1 -2.39-1 3.85 3.85 0 0 1 0-5 3.27 3.27 0 0 1 4.66-.05 3.76 3.76 0 0 1 .85 2.62v.13h-5.19a2.15 2.15 0 0 0 .65 1.58 2 2 0 0 0 1.48.59 2.06 2.06 0 0 0 1.85-1.18l1.1.54a3.21 3.21 0 0 1 -1.23 1.34 3.4 3.4 0 0 1 -1.78.43zm-2-4.3h3.77a1.63 1.63 0 0 0 -.52-1.13 2 2 0 0 0 -1.35-.45 1.79 1.79 0 0 0 -1.21.43 2.07 2.07 0 0 0 -.66 1.15z"/></g><path d="m22.74 22.94c.09-.26.18-.51.28-.76a12.6 12.6 0 0 1 7-7 13.48 13.48 0 0 1 5.06-1 13.49 13.49 0 0 1 5.64 1 13.3 13.3 0 0 1 4.3 3l5-5a18.94 18.94 0 0 0 -6.47-4.45 20.83 20.83 0 0 0 -8.55-1.59 21.26 21.26 0 0 0 -8 1.63 19.89 19.89 0 0 0 -10.53 10.23z" fill="#ed1c24"/><path d="m16.56 36.67 6-4.53a14.48 14.48 0 0 1 -.69-4.56 14.26 14.26 0 0 1 .7-4.57l-6.11-4.31-.33.72a20.13 20.13 0 0 0 -1.64 8.16 20.21 20.21 0 0 0 1.64 8.17c.14.31.28.62.43.92z" fill="#fbb03b"/><path d="m54.4 27.26a12.4 12.4 0 0 0 -.27-1.59h-19.13v6.33h12.25a13.91 13.91 0 0 1 -1.25 3.31 8.77 8.77 0 0 1 -1.88 2.49c-.32.29-.67.57-1 .84l6 4.21q.35-.33.69-.69a16.42 16.42 0 0 0 3.6-5.95 21.79 21.79 0 0 0 1.15-7.1 14.37 14.37 0 0 0 -.16-1.85z" fill="#4285f4"/><path d="m43.16 38.6a12.57 12.57 0 0 1 -2.7 1.51 13.71 13.71 0 0 1 -5.27.91 13.74 13.74 0 0 1 -5.14-1 13.18 13.18 0 0 1 -4.23-2.7 12.77 12.77 0 0 1 -2.89-4.23c-.16-.38-.3-.76-.43-1.16l-6 4.5a20.26 20.26 0 0 0 4.08 5.75 20 20 0 0 0 6.55 4.26 21.14 21.14 0 0 0 8 1.53 21.52 21.52 0 0 0 8.36-1.53 27 27 0 0 0 5.69-3.78z" fill="#34b73f"/></svg>