<svg xmlns="http://www.w3.org/2000/svg" id="Layer_1" viewBox="0 0 1042.37 1027" width="1042.37" height="1027"><defs><style>.cls-1{fill:#fff}</style></defs><path d="M263.58 572.85L33.22 803.22l-6.37 6.36 12.73 12.73L46 816l217.58-217.69L481.22 816l6.36 6.36 12.73-12.73-6.31-6.41zm-160 28.73v107.28l64-64v-43.28zm160 20.73l-192 192v225.27h64v-166h96v166h224V814.31zm32 251.27h96v80h-96z" class="cls-1" transform="translate(-26.85 -12.58)"/><path d="M767.58 536.58v97.57a13.94 13.94 0 0 1-27.87 0v-50L592.17 731.71h50a13.94 13.94 0 0 1 0 27.87h-97.59V662a13.94 13.94 0 0 1 27.88 0v50L720 564.46h-50a13.94 13.94 0 1 1 0-27.88z" transform="translate(-26.85 -12.58)"/><path d="M767.58 536.58v97.57a13.94 13.94 0 0 1-27.87 0v-50L592.17 731.71h50a13.94 13.94 0 0 1 0 27.87h-97.59V662a13.94 13.94 0 0 1 27.88 0v50L720 564.46h-50a13.94 13.94 0 1 1 0-27.88z" class="cls-1" transform="translate(-26.85 -12.58)"/><path d="M681.12 241.41l26.55 42.32h28.43l-34.99-55.13 33.74-49.04h-27.49l-26.24 39.04v-39.04h-24.05v104.17h24.05v-42.32z" class="cls-1"/><path d="M829.64 222.91h-23.58v41.54a41.31 41.31 0 0 1-.24 4.53 13.43 13.43 0 0 1-1 4 6.47 6.47 0 0 1-2.27 2.81 6.6 6.6 0 0 1-3.82 1c-2.4 0-4.06-.83-5-2.5s-1.41-4.32-1.41-8v-43.38h-23.59V274a35.07 35.07 0 0 0 1.56 11.17 19.65 19.65 0 0 0 4.37 7.5 16.89 16.89 0 0 0 6.64 4.21 27.63 27.63 0 0 0 14.29.71 16.53 16.53 0 0 0 4.46-1.8 23.18 23.18 0 0 0 3.59-2.66c1.09-1 2.21-2.11 3.36-3.35l1.56 6.56h21.08zm59.2-.16a15.93 15.93 0 0 0-2.5-.47 28.1 28.1 0 0 0-3-.15 26.68 26.68 0 0 0-8.28 1.56 17.77 17.77 0 0 0-8.28 6.09l-1.71-6.87H844v73.41h23.58V254q0-6.72 4.14-9.29t11.17-2.58a29.23 29.23 0 0 1 5.94.62zm33.89 32.02a44.3 44.3 0 0 1 .23-4.53 12.07 12.07 0 0 1 1.1-4 6.31 6.31 0 0 1 6.32-3.83c2.5 0 4.22.84 5.16 2.5s1.4 4.32 1.4 8v43.42h23.59v-51.09a33.24 33.24 0 0 0-1.65-11.16 20.29 20.29 0 0 0-4.45-7.5 16.8 16.8 0 0 0-6.63-4.22 25.53 25.53 0 0 0-8.36-1.33 24.44 24.44 0 0 0-5.93.63 17.55 17.55 0 0 0-4.53 1.79 24.31 24.31 0 0 0-3.75 2.66 41.44 41.44 0 0 0-3.44 3.36l-1.56-6.56h-21.09v73.41h23.59zm108.54-1.72a57.24 57.24 0 0 0-1.4-13.35 20.12 20.12 0 0 0-5.31-9.76 24.87 24.87 0 0 0-10.7-5.94q-6.79-2-17.73-2c-1.14 0-2.52.06-4.13.16s-3.31.26-5.08.47-3.46.41-5.08.62a32.09 32.09 0 0 0-4.14.78v17.49q3-.62 7.11-1.32a46.18 46.18 0 0 1 7.73-.71 40.1 40.1 0 0 1 8.67.78 14.09 14.09 0 0 1 5.23 2.19 6.77 6.77 0 0 1 2.5 3.44 15.21 15.21 0 0 1 .63 4.53v2.65a28.15 28.15 0 0 0-5.94-1.87 37.52 37.52 0 0 0-7.34-.63 40.52 40.52 0 0 0-9.22 1 22.05 22.05 0 0 0-7.73 3.36 17 17 0 0 0-5.38 6.24 20.81 20.81 0 0 0-2 9.69v4.06a29.26 29.26 0 0 0 1.87 11.4 17.9 17.9 0 0 0 5 6.95 17.07 17.07 0 0 0 7.18 3.51 37.11 37.11 0 0 0 8.43.94 18.7 18.7 0 0 0 8.75-1.87 25.76 25.76 0 0 0 6.72-5.16l1.25 5.63h20.14zm-21.55 20.62a8.34 8.34 0 0 1-2.26 5.46c-1.51 1.78-3.78 2.66-6.8 2.66s-5-.65-6.25-2-1.87-3.36-1.87-6.17v-1.09q0-5 2.58-6.64a12.77 12.77 0 0 1 7-1.64 11.6 11.6 0 0 1 7.65 2.34z" class="cls-1" transform="translate(-26.85 -12.58)"/><path d="M1018.79 179.56h23.58v21.24h-23.58zm0 30.77h23.58v73.41h-23.58z" class="cls-1"/><path d="M726 394.6a36 36 0 0 1-6.85-.62 11.83 11.83 0 0 1-5.74-2.83 15.47 15.47 0 0 1-4-6.3 32.91 32.91 0 0 1-1.52-11.13V357a34.23 34.23 0 0 1 1.45-11.14 15.36 15.36 0 0 1 3.87-6.29 11.48 11.48 0 0 1 5.67-2.83 36 36 0 0 1 6.85-.63 65.67 65.67 0 0 1 7 .35 42.68 42.68 0 0 1 7.06 1.45v-18a82.69 82.69 0 0 0-17.29-1.8 54.45 54.45 0 0 0-15.5 2.09 29.92 29.92 0 0 0-12.15 6.8 32.12 32.12 0 0 0-8 12.73q-2.91 8-2.91 19.57v12q0 11.61 2.91 19.57a31.57 31.57 0 0 0 8.09 12.72 30.47 30.47 0 0 0 12.31 6.85 55.56 55.56 0 0 0 15.56 2.07q4.41 0 8.78-.41a75.75 75.75 0 0 0 8.78-1.38v-17.64a50.63 50.63 0 0 1-6.43 1.11 70.32 70.32 0 0 1-7.94.41zm73.06-42.73a22.16 22.16 0 0 0-9.2-5.39 40.15 40.15 0 0 0-11.86-1.66 39 39 0 0 0-11.69 1.66 22.22 22.22 0 0 0-9.13 5.39 25.36 25.36 0 0 0-5.94 9.61 42 42 0 0 0-2.15 14.31v6.51a43.68 43.68 0 0 0 2.08 14.38 24.76 24.76 0 0 0 5.87 9.68 22.22 22.22 0 0 0 9.13 5.39 39.51 39.51 0 0 0 11.83 1.66 40.73 40.73 0 0 0 12-1.66 21.66 21.66 0 0 0 9.13-5.39 25.26 25.26 0 0 0 5.81-9.68A44 44 0 0 0 807 382.3v-6.51a43.35 43.35 0 0 0-2.07-14.31 24.9 24.9 0 0 0-5.87-9.61zm-13.21 29q0 7.89-1.31 12t-6.54 4.22q-5.4 0-6.57-4.15a46.42 46.42 0 0 1-1.18-12v-3.59q0-7.89 1.32-12c.87-2.76 3.11-4.14 6.7-4.14a7.64 7.64 0 0 1 4.22 1 5.72 5.72 0 0 1 2.28 3.11 21.08 21.08 0 0 1 .9 5.12q.21 3 .21 6.92z" class="cls-1" transform="translate(-26.85 -12.58)"/><path d="M791.64 306.65h20.88v92.25h-20.88zm33.6 0h20.88v92.25h-20.88z" class="cls-1"/><path d="M930 351.18a21.53 21.53 0 0 0-8.09-4.84 29.89 29.89 0 0 0-9.55-1.52 34.41 34.41 0 0 0-11.06 1.72 24.48 24.48 0 0 0-8.85 5.19 24.11 24.11 0 0 0-5.88 8.71 32.47 32.47 0 0 0-2.14 12.31v9.55q0 15.34 8.3 22.81t23.78 7.47c1 0 2.26 0 3.74-.14s3-.2 4.49-.34 3-.3 4.5-.49a26.19 26.19 0 0 0 3.73-.69V395.3a39.69 39.69 0 0 1-5.88 1 56.05 56.05 0 0 1-5.87.35q-8.16 0-12.59-2.42t-4.7-8.65h33.77v-12.83a35.77 35.77 0 0 0-2.07-12.93 23.15 23.15 0 0 0-5.63-8.64zm-26.21 21.43q0-7 2.28-9.4a7.82 7.82 0 0 1 5.88-2.35 7 7 0 0 1 5.6 2.35q2 2.35 2 9.4zM985 352.28a19.88 19.88 0 0 0-6.08-5.6q-3.31-1.86-9.41-1.86a22.11 22.11 0 0 0-8.57 1.66 17.6 17.6 0 0 0-7 5.32 27.1 27.1 0 0 0-4.7 9.54 51.41 51.41 0 0 0-1.73 14.32v4.56a55.47 55.47 0 0 0 1.67 14.78 26.22 26.22 0 0 0 4.57 9.47 16.12 16.12 0 0 0 6.91 5.12 23.83 23.83 0 0 0 8.58 1.52 18.69 18.69 0 0 0 8.78-1.8 23.63 23.63 0 0 0 6.15-4.7v4.84a27.5 27.5 0 0 1-.48 5.33 8.13 8.13 0 0 1-2.08 4.08 10.83 10.83 0 0 1-4.63 2.62 27 27 0 0 1-8 1 53.75 53.75 0 0 1-7.68-.62q-4.21-.63-7-1.18v16.46c1.11.28 2.42.53 3.94.76s3.09.44 4.7.62 3.18.33 4.71.42 2.83.14 3.94.14a50.91 50.91 0 0 0 16-2.15 23.58 23.58 0 0 0 10.1-6.22 23.14 23.14 0 0 0 5.25-10 55 55 0 0 0 1.52-13.55v-60.68h-18.07zm-.83 29.72a35 35 0 0 1-.27 4.36 12.06 12.06 0 0 1-1.11 3.8 7.19 7.19 0 0 1-2.28 2.69 6.35 6.35 0 0 1-3.8 1c-3 0-5-1.06-6.23-3.18s-1.8-5.81-1.8-11.06v-3.46q0-6.91 1.94-10.58A6.65 6.65 0 0 1 977 362a6.43 6.43 0 0 1 3.81 1 6.72 6.72 0 0 1 2.21 2.7 11.78 11.78 0 0 1 1 3.8c.14 1.43.21 2.89.21 4.36zm85.06-9.25a35.54 35.54 0 0 0-2.08-12.93 23.15 23.15 0 0 0-5.6-8.64 21.53 21.53 0 0 0-8.09-4.84 29.78 29.78 0 0 0-9.54-1.52 34.43 34.43 0 0 0-11.07 1.72 24.48 24.48 0 0 0-8.85 5.19 24 24 0 0 0-5.87 8.71 32.27 32.27 0 0 0-2.15 12.31v9.55q0 15.34 8.3 22.81t23.79 7.47c1 0 2.26 0 3.73-.14s3-.2 4.5-.34 3-.3 4.49-.49a26.19 26.19 0 0 0 3.73-.69V395.3a39.78 39.78 0 0 1-5.87 1 56.38 56.38 0 0 1-5.88.35q-8.16 0-12.59-2.42t-4.7-8.65h33.75zm-33.89-.14q0-7 2.28-9.4a7.83 7.83 0 0 1 5.88-2.35 6.94 6.94 0 0 1 5.6 2.35q2 2.35 2 9.4zM700 453.13a5.75 5.75 0 0 0-2.36-1.45 11.28 11.28 0 0 0-3.78-.53h-8.63v23.74h2.23V464.4h5a17.88 17.88 0 0 0 3.26-.29 9 9 0 0 0 2.9-1 5.89 5.89 0 0 0 2.09-2 6.1 6.1 0 0 0 .8-3.26 9.6 9.6 0 0 0-.34-2.53 5.08 5.08 0 0 0-1.17-2.19zm-1.14 6.94a3.65 3.65 0 0 1-1.35 1.48 5.43 5.43 0 0 1-2.11.74 17.14 17.14 0 0 1-2.82.2h-5.08v-9.43h5.77a7.48 7.48 0 0 1 4.64 1.16 4.07 4.07 0 0 1 1.46 3.39 5.59 5.59 0 0 1-.47 2.46zm13.66-8.92l-9.28 23.74h2.29l2.79-7.45h10.75l2.72 7.45h2.3L715 451.15zm-3.45 14.38l4.63-12.47 4.62 12.47z" class="cls-1" transform="translate(-26.85 -12.58)"/><path d="M698.28 440.48h7.48v21.83h2.23v-21.83h7.47v-1.91h-17.18v1.91zm36.52 8.28h-13.96v-10.19h-2.23v23.74h2.23v-11.64h13.96v11.64h2.23v-23.74h-2.23v10.19zm26.1 10.38h-.06l-5.38-20.57h-2.49l-5.48 20.57h-.06l-5.08-20.57h-2.23l6.09 23.74h2.46l5.48-20.97h.06l5.48 20.97h2.46l6.19-23.74h-2.29l-5.15 20.57z" class="cls-1"/><path d="M805.42 451.15l-9.28 23.74h2.3l2.79-7.45H812l2.72 7.45H817l-9-23.74zM802 465.53l4.62-12.47 4.63 12.47z" class="cls-1" transform="translate(-26.85 -12.58)"/><path d="M800.57 450.01l-6.95-11.44h-2.56l8.43 13.55v10.19h2.22v-10.36l8.56-13.38h-2.59l-7.11 11.44z" class="cls-1"/><path d="M854 463.88a7.83 7.83 0 0 0-2.18-1.16c-.82-.28-1.67-.53-2.54-.74s-1.73-.41-2.58-.59a13.32 13.32 0 0 1-2.31-.73 5.66 5.66 0 0 1-1.77-1.13 3.25 3.25 0 0 1-.91-1.85 4.14 4.14 0 0 1 .09-1.85 4.32 4.32 0 0 1 1-1.68 4.89 4.89 0 0 1 1.85-1.24 7.52 7.52 0 0 1 2.87-.48 7.82 7.82 0 0 1 2.16.3 5.56 5.56 0 0 1 1.87.93 4.29 4.29 0 0 1 1.29 1.61 5.31 5.31 0 0 1 .48 2.34h2.13a7.51 7.51 0 0 0-.49-2.73 6.29 6.29 0 0 0-1.48-2.26 7 7 0 0 0-2.47-1.54 10 10 0 0 0-3.49-.56 10.56 10.56 0 0 0-3.48.53 7.35 7.35 0 0 0-2.51 1.42 6.23 6.23 0 0 0-1.39 7.3 5.54 5.54 0 0 0 1.62 1.87 8.54 8.54 0 0 0 2.3 1.15c.86.29 1.74.53 2.65.74l2.66.64a9.93 9.93 0 0 1 2.29.88 4.84 4.84 0 0 1 1.63 1.4 3.76 3.76 0 0 1 .62 2.24 5.15 5.15 0 0 1-.35 1.88 4.24 4.24 0 0 1-1.06 1.57 5.13 5.13 0 0 1-1.87 1.07 8.48 8.48 0 0 1-2.72.4 9.79 9.79 0 0 1-2.53-.32 5.91 5.91 0 0 1-2.08-1 5.24 5.24 0 0 1-1.47-1.8 7 7 0 0 1-.71-2.69H839a8.16 8.16 0 0 0 .64 3.38 6.54 6.54 0 0 0 1.79 2.41 7.48 7.48 0 0 0 2.72 1.45 11.61 11.61 0 0 0 3.41.48 9.93 9.93 0 0 0 6.36-1.82 7 7 0 0 0 1.68-8 5.26 5.26 0 0 0-1.6-1.82z" class="cls-1" transform="translate(-26.85 -12.58)"/><path d="M840.37 440.48h7.47v21.83h2.23v-21.83h7.47v-1.91h-17.17v1.91z" class="cls-1"/><path d="M905.85 454.17a9.57 9.57 0 0 0-3.47-2.67 11.3 11.3 0 0 0-4.84-1 10.53 10.53 0 0 0-4.68 1 9.83 9.83 0 0 0-3.41 2.69 11.77 11.77 0 0 0-2.09 4 17.31 17.31 0 0 0 0 9.71 11.49 11.49 0 0 0 2.06 4 9.88 9.88 0 0 0 3.45 2.69 12.06 12.06 0 0 0 9.57 0 9.94 9.94 0 0 0 3.44-2.69 11.7 11.7 0 0 0 2.08-4 16.07 16.07 0 0 0 .71-4.83 16.52 16.52 0 0 0-.71-4.89 11.53 11.53 0 0 0-2.11-4.01zm.07 12.87a10 10 0 0 1-1.58 3.37 7.87 7.87 0 0 1-2.72 2.32 8.38 8.38 0 0 1-4 .88 8.57 8.57 0 0 1-4-.86 7.72 7.72 0 0 1-2.72-2.31 9.81 9.81 0 0 1-1.57-3.36 16 16 0 0 1 0-8 10 10 0 0 1 1.57-3.38 7.9 7.9 0 0 1 6.64-3.25 9 9 0 0 1 3.67.73 7.6 7.6 0 0 1 2.79 2.11 9.61 9.61 0 0 1 1.75 3.35 15.11 15.11 0 0 1 .61 4.43 15.36 15.36 0 0 1-.44 3.93zm30.08-3.16a7.69 7.69 0 0 0-2.18-1.16c-.82-.28-1.67-.53-2.54-.74s-1.73-.41-2.57-.59a13.16 13.16 0 0 1-2.32-.73 5.9 5.9 0 0 1-1.77-1.13 3.25 3.25 0 0 1-.91-1.85 4 4 0 0 1 .1-1.85 4.17 4.17 0 0 1 .95-1.68 4.89 4.89 0 0 1 1.85-1.24 7.52 7.52 0 0 1 2.87-.48 7.82 7.82 0 0 1 2.16.3 5.56 5.56 0 0 1 1.87.93 4.19 4.19 0 0 1 1.29 1.61 5.31 5.31 0 0 1 .48 2.34h2.13a7.51 7.51 0 0 0-.49-2.73 6.29 6.29 0 0 0-1.48-2.26 7 7 0 0 0-2.47-1.54 10 10 0 0 0-3.49-.56 10.56 10.56 0 0 0-3.48.53 7.35 7.35 0 0 0-2.51 1.42 5.92 5.92 0 0 0-2 4.42 6 6 0 0 0 .62 2.88 5.76 5.76 0 0 0 1.62 1.87 8.54 8.54 0 0 0 2.3 1.15c.86.29 1.75.53 2.65.74l2.66.64a9.93 9.93 0 0 1 2.29.88 4.84 4.84 0 0 1 1.63 1.4 3.76 3.76 0 0 1 .62 2.24 5.15 5.15 0 0 1-.35 1.88 4.13 4.13 0 0 1-1.06 1.57 5.05 5.05 0 0 1-1.87 1.07 8.43 8.43 0 0 1-2.72.4 9.66 9.66 0 0 1-2.52-.32 5.87 5.87 0 0 1-2.09-1 5.24 5.24 0 0 1-1.47-1.8 7.17 7.17 0 0 1-.71-2.69H921a8.16 8.16 0 0 0 .64 3.38 6.65 6.65 0 0 0 1.79 2.41 7.48 7.48 0 0 0 2.67 1.41 11.61 11.61 0 0 0 3.41.48 9.93 9.93 0 0 0 6.36-1.82 7 7 0 0 0 1.68-8 5.26 5.26 0 0 0-1.55-1.78zm22.32 1.41A16.46 16.46 0 0 1 958 469a6.4 6.4 0 0 1-1.18 2.58 4.81 4.81 0 0 1-2.15 1.55 9 9 0 0 1-3.22.52q-3.64 0-5.28-1.95c-1.1-1.3-1.64-3.42-1.64-6.37v-14.18h-2.23V466q0 4.55 2.26 7.05c1.51 1.67 3.8 2.51 6.89 2.51s5.34-.82 6.86-2.46 2.28-4 2.28-7.1v-14.85h-2.23zm23.59 4.39a8.08 8.08 0 0 1-1.57 2.06 6.83 6.83 0 0 1-2.18 1.37 7.41 7.41 0 0 1-2.76.5 8 8 0 0 1-4-.93 7.25 7.25 0 0 1-2.56-2.42 10.64 10.64 0 0 1-1.36-3.41A18.85 18.85 0 0 1 967 463a16.24 16.24 0 0 1 .48-4 10.19 10.19 0 0 1 1.52-3.4 7.17 7.17 0 0 1 6.22-3.17 8.43 8.43 0 0 1 4.88 1.29 6.8 6.8 0 0 1 2.56 4.32h2.29a9.94 9.94 0 0 0-1.06-3.25 7.93 7.93 0 0 0-2-2.36 8.47 8.47 0 0 0-2.75-1.43 11.37 11.37 0 0 0-3.36-.48 13.51 13.51 0 0 0-4.36.68 8.68 8.68 0 0 0-3.48 2.18 10.39 10.39 0 0 0-2.31 3.87 17.4 17.4 0 0 0-.84 5.77 20.11 20.11 0 0 0 .56 4.8 11.42 11.42 0 0 0 1.79 4 8.87 8.87 0 0 0 3.16 2.72 10 10 0 0 0 4.66 1 11.42 11.42 0 0 0 4.11-.68 9 9 0 0 0 3-1.83 9.32 9.32 0 0 0 2-2.69 14.82 14.82 0 0 0 1.14-3.24h-2.32a10.34 10.34 0 0 1-.98 2.58zm23.67 0a7.89 7.89 0 0 1-1.58 2.06 6.67 6.67 0 0 1-2.17 1.37 7.45 7.45 0 0 1-2.76.5 7.93 7.93 0 0 1-4-.93 7.25 7.25 0 0 1-2.56-2.42 10.42 10.42 0 0 1-1.36-3.41 18.85 18.85 0 0 1-.41-3.9 16.24 16.24 0 0 1 .48-4 10.19 10.19 0 0 1 1.47-3.35 7.17 7.17 0 0 1 6.21-3.17 8.44 8.44 0 0 1 4.89 1.29 6.8 6.8 0 0 1 2.56 4.32h2.29a10.18 10.18 0 0 0-1.06-3.25 7.93 7.93 0 0 0-2-2.36 8.42 8.42 0 0 0-2.76-1.43 11.27 11.27 0 0 0-3.36-.48 13.6 13.6 0 0 0-4.36.68 8.71 8.71 0 0 0-3.47 2.18 10.39 10.39 0 0 0-2.31 3.87 17.4 17.4 0 0 0-.84 5.77 20.11 20.11 0 0 0 .56 4.8 11.42 11.42 0 0 0 1.79 4 8.87 8.87 0 0 0 3.16 2.72 10 10 0 0 0 4.66 1 11.42 11.42 0 0 0 4.11-.68 9 9 0 0 0 3-1.83 9.32 9.32 0 0 0 2-2.69 14.82 14.82 0 0 0 1.14-3.24h-2.32a10.75 10.75 0 0 1-1 2.58z" class="cls-1" transform="translate(-26.85 -12.58)"/><path d="M988.61 450.96h12.16v-1.91h-12.16v-8.57h13.47v-1.91h-15.7v23.74h16.03v-1.91h-13.8v-9.44z" class="cls-1"/><path d="M1047.1 463.88a7.83 7.83 0 0 0-2.18-1.16c-.82-.28-1.67-.53-2.54-.74s-1.74-.41-2.58-.59a13.32 13.32 0 0 1-2.31-.73 5.66 5.66 0 0 1-1.77-1.13 3.33 3.33 0 0 1-.92-1.85 4.14 4.14 0 0 1 .1-1.85 4.29 4.29 0 0 1 .95-1.68 5 5 0 0 1 1.86-1.24 7.5 7.5 0 0 1 2.86-.48 7.84 7.84 0 0 1 2.17.3 5.56 5.56 0 0 1 1.87.93 4.38 4.38 0 0 1 1.29 1.61 5.31 5.31 0 0 1 .48 2.34h2.13a7.73 7.73 0 0 0-.49-2.73 6.29 6.29 0 0 0-1.48-2.26 7.06 7.06 0 0 0-2.47-1.54 10 10 0 0 0-3.5-.56 10.5 10.5 0 0 0-3.47.53 7.26 7.26 0 0 0-2.51 1.42 5.88 5.88 0 0 0-2 4.42 5.9 5.9 0 0 0 .63 2.88 5.54 5.54 0 0 0 1.62 1.87 8.54 8.54 0 0 0 2.3 1.15c.86.29 1.74.53 2.65.74l2.66.64a10.11 10.11 0 0 1 2.29.88 4.71 4.71 0 0 1 1.62 1.4 3.69 3.69 0 0 1 .63 2.24 5.15 5.15 0 0 1-.35 1.88 4.24 4.24 0 0 1-1.06 1.57 5.13 5.13 0 0 1-1.87 1.07 8.48 8.48 0 0 1-2.72.4 9.79 9.79 0 0 1-2.53-.32 5.91 5.91 0 0 1-2.08-1 5.24 5.24 0 0 1-1.47-1.8 7 7 0 0 1-.71-2.69h-2.2a8.16 8.16 0 0 0 .64 3.38 6.62 6.62 0 0 0 1.78 2.41 7.65 7.65 0 0 0 2.72 1.45 11.66 11.66 0 0 0 3.41.48 9.89 9.89 0 0 0 6.36-1.82 6.16 6.16 0 0 0 2.27-5.11 6.34 6.34 0 0 0-.58-2.85 5.26 5.26 0 0 0-1.5-1.86zm21.55 1.86a5.26 5.26 0 0 0-1.52-1.86 7.83 7.83 0 0 0-2.18-1.16c-.82-.28-1.67-.53-2.54-.74s-1.74-.41-2.58-.59a13.32 13.32 0 0 1-2.31-.73 5.66 5.66 0 0 1-1.77-1.13 3.33 3.33 0 0 1-.92-1.85 4.14 4.14 0 0 1 .1-1.85 4.29 4.29 0 0 1 1-1.68 5.05 5.05 0 0 1 1.85-1.24 7.59 7.59 0 0 1 2.87-.48 7.84 7.84 0 0 1 2.17.3 5.56 5.56 0 0 1 1.87.93 4.38 4.38 0 0 1 1.29 1.61 5.31 5.31 0 0 1 .48 2.34h2.13a7.73 7.73 0 0 0-.49-2.73 6.29 6.29 0 0 0-1.48-2.26 7.06 7.06 0 0 0-2.47-1.54 10 10 0 0 0-3.5-.56 10.5 10.5 0 0 0-3.47.53 7.26 7.26 0 0 0-2.51 1.42 5.88 5.88 0 0 0-2 4.42 5.9 5.9 0 0 0 .63 2.88 5.54 5.54 0 0 0 1.62 1.87 8.62 8.62 0 0 0 2.29 1.15c.87.29 1.75.53 2.66.74l2.66.64a10.11 10.11 0 0 1 2.29.88 4.71 4.71 0 0 1 1.62 1.4 3.69 3.69 0 0 1 .63 2.24 5.15 5.15 0 0 1-.35 1.88 4.24 4.24 0 0 1-1.06 1.57 5.13 5.13 0 0 1-1.87 1.07 8.48 8.48 0 0 1-2.72.4 9.79 9.79 0 0 1-2.53-.32 5.91 5.91 0 0 1-2.08-1 5.24 5.24 0 0 1-1.47-1.8 7 7 0 0 1-.71-2.69h-2.16a8.16 8.16 0 0 0 .64 3.38 6.62 6.62 0 0 0 1.78 2.41 7.65 7.65 0 0 0 2.72 1.45 11.66 11.66 0 0 0 3.41.48 9.89 9.89 0 0 0 6.36-1.82 6.16 6.16 0 0 0 2.27-5.11 6.34 6.34 0 0 0-.65-2.85z" class="cls-1" transform="translate(-26.85 -12.58)"/><path d="M531.87 523.8l.02.03-.02-.03z" class="cls-1"/><path d="M551.74 496.15v.08c-.13-.83-42.16-271.11 76.14-483.65-98.79 64.5-155.8 170.76-165.79 235.87 29.6 82.37 70.77 161.33 89.65 247.7z" class="cls-1" transform="translate(-26.85 -12.58)"/><path d="M558.74 536.38a439.573 439.573 0 0 0-7-40.13v-.07c-1.5-1.55-107.94-102.88-89.62-247.71v-.06c-10.88-30.32-20.18-61.11-26.21-92.9-41.52 66.77-48.7 126.8-38 178.4 41.51 45.18 101.32 107.54 160.83 202.47z" class="cls-1" transform="translate(-26.85 -12.58)"/><path d="M398 334c-20.44-22.27-36.41-40.35-45.65-56.08 0 0-24.26 103.31 32.6 179.56 35.84 13.33 81.5 35.8 129.7 73.51a366.61 366.61 0 0 0 44 5.41c-1.33-.81-134.41-76.48-160.65-202.4z" class="cls-1" transform="translate(-26.85 -12.58)"/><path d="M385 457.47c-44.67-16.62-74.07-19-74.07-19S337.65 564.22 514.68 531C450.11 518.85 409.8 490.75 385 457.47zm0 0zM514.66 531zM618.7 149.48c-8.9-20.72-19.23-36.93-30.47-48.24q-3.15 8.9-6 17.8l3.56-1.87c3.11-1.63 6.3-2.11 7.1-1.07s.34 5.27-2.77 6.9l-3.64 1.91-7.3 3.83c-.48 1.57-.95 3.15-1.42 4.72l8.82 4.46 20.35 10.26c3.13 1.58 6.38 4.52 7.23 6.53s.42 6.22-2.71 4.64l-35.95-18.13c-.6 2.08-1.2 4.16-1.77 6.25l37.35 18.84c3.13 1.58 2.82 2.9-.68 2.92l-8.79.07a31.27 31.27 0 0 1-12.07-2.82l-18.41-9.29q-.82 3.17-1.6 6.33l6.07 3.07c3.14 1.58 2.83 2.89-.68 2.92l-6.89.06c-.51 2.13-1 4.26-1.51 6.38l20.85-.16 12.75-.1h1.18l12.76-.1h1.34c3.5 0 6.86 1.49 7.45 3.36l.52 1.73c.35 1.13.69 2.26 1 3.41.28.94.55 1.87.82 2.82.51 1.81 1 3.65 1.5 5.49l.21.8c.24.87-2.44 1.6-5.94 1.63h-4.67l-12.75.1h-1.18l-12.76.1-27.33.21q-.66 3.19-1.29 6.39l16.28-.13c3.51 0 3.83 1.28.73 2.91l-19.45 10.2q-.72 4-1.39 7.93l5.12-2.69L592 204.33a31.39 31.39 0 0 1 12-3l15.15-.12c3.5 0 3.83 1.29.73 2.91l-65.21 34.2q-1 6.39-1.81 12.71a11.13 11.13 0 0 1 1.51.5l65.59 33.1c3.13 1.58 2.82 2.89-.68 2.92l-16.38.13a31.46 31.46 0 0 1-12.07-2.83l-28.13-14.19-9.19-4.66a7.41 7.41 0 0 0-2.49-.62q-.46 3.9-.89 7.75a12.76 12.76 0 0 1 5.63 1.15L576.87 285c3.13 1.58 2.83 2.9-.68 2.93l-27.59.21c-.2 2.14-.38 4.26-.56 6.38l40.59-.31 12.76-.1h1.18l12.75-.1 19.37-.15a6.57 6.57 0 0 1 6.58 6.32s.12 3.74.16 8.87v4.4c0 2.64-2.9 4.81-6.41 4.84h-.21l-8 .06-8 .07-15.14.11-12.76.1h-1.18l-12.75.1-30.69.24c-.13 2.14-.26 4.27-.37 6.38l18.71-.14c3.51 0 3.84 1.28.73 2.91l-10.75 5.64a14 14 0 0 1-9.15.81q-.17 3.72-.3 7.37l.36.18a8.59 8.59 0 0 0 7-.05l9.11-4.78 17.61-9.29a31.39 31.39 0 0 1 12-3l15.15-.12c3.5 0 3.83 1.28.73 2.91l-53.62 28.08a14 14 0 0 1-8.82.93q-.13 5.77-.19 11.39a14 14 0 0 1 9.11.69L621.18 403c3.13 1.58 2.83 2.9-.68 2.92l-16.38.13a31.31 31.31 0 0 1-12.07-2.82L562 388l-9.19-4.64a8.59 8.59 0 0 0-7 .05l-1.35.71q0 3.71.07 7.31a14 14 0 0 1 10.5.21l23.11 11.66c3.13 1.58 2.82 2.89-.69 2.92l-32.62.25q.09 3.24.19 6.38l44.88-.35 12.75-.1h1.18l12.76-.1 8.72-.07c3.51 0 6.21.78 6 1.79l-.2.9c-.52 2.42-1.07 4.79-1.63 7.15l-.24 1c-.43 1.79-.89 3.54-1.35 5.3l-.28 1.11c-.32 1.22-3.44 2.24-7 2.27h-1.72l-12.76.1H605l-12.75.1-46.37.36q.18 3.25.36 6.38l33.66-.27c3.51 0 3.84 1.29.73 2.92l-25.46 13.35a13.82 13.82 0 0 1-7.73 1.06c.22 2.76.45 5.38.67 7.88a8.42 8.42 0 0 0 4.93-.63l9.12-4.78 32.41-17a31.16 31.16 0 0 1 12-3l9.86-.08c3.51 0 3.84 1.28.73 2.91l-61.33 32.16a13.16 13.16 0 0 1-6.71 1.15q.64 6.19 1.19 10.7a12.58 12.58 0 0 1 5.62 1.16l32.17 16.23c3.13 1.58 4.66 4.13 3.4 5.68s-7.23 3.95-10.36 2.37l-18.49-9.33-9.19-4.64a6.65 6.65 0 0 0-1.7-.55v.18c.57 2.61 1.11 5.24 1.64 7.87a10.35 10.35 0 0 1 2.28.76l20.47 10.32c3.13 1.58 3.28 4.43.33 6.33 0 0-9.48 6.08-18.67 8.26.31 2.18.63 4.36.9 6.55 24-3.84 46-27.44 62.46-67.51 17.63-42.84 27.08-99.63 26.61-159.89S637 192 618.7 149.48zm-16.07-10.6l-9.12-4.6c-3.13-1.58-3.15-4.21 0-5.84l.17-.09a6.63 6.63 0 0 1 8.73 2.28c1.66 2.89 3.36 9.83.22 8.25zm32.27 92.52l3.77 28.6c.39 3.49-1.86 5-5 3.46l-31.42-15.85c-3.13-1.58-3.15-4.2 0-5.83l26.07-13.67c3.06-1.68 6.05-.18 6.58 3.29zm5.29 56a49.89 49.89 0 0 1-6.31-2.87l-72.59-36.63c-3.13-1.58-3.15-4.2 0-5.83l63.17-33.13c3.11-1.63 6.06-1.09 6.55 1.2s-.81 9.76-3.91 11.39l-31.88 16.67-9.12 4.8c-1.91 1-1.89 2.61 0 3.58l9.19 4.64 39 19.66c3.13 1.58 5.83 4.91 6 7.4s.25 9.09-.1 9.1zm-27.83 186.12l-3.45 7.3a6.4 6.4 0 0 1-8.57 2.82l-2.34-1.19c-3.13-1.58-3.15-4.21 0-5.84l11.36-6c3.04-1.61 4.42-.3 3 2.91zm9.24-23.76c-.82 2.5-5.62 10.19-8.73 11.82l-21.94 11.5-9.12 4.78c-1.91 1-1.89 2.62 0 3.59l9.19 4.63 6.15 3.11c3.13 1.58 4.92 4.12 4 5.64s-6.08 4.06-9.21 2.48l-29.06-14.66c-3.13-1.58-3.15-4.21 0-5.84l54.6-28.63c3.06-1.63 4.93-.92 4.12 1.58zm15.9-73.38c-.4 3.48-3.28 5-6.42 3.46l-29.57-14.92c-3.13-1.58-3.15-4.21 0-5.84l33.72-17.68c3.11-1.62 5.45-.09 5.21 3.4zm-2-42.34l-41 21.51-9.12 4.78c-1.91 1-1.9 2.62 0 3.59l9.19 4.64 35.53 17.93c3.14 1.58 5.39 4.8 5 7.16s-4 7.19-7.15 5.61l-67.42-34c-3.13-1.58-3.15-4.21 0-5.84l60.59-31.77a31.39 31.39 0 0 1 12-3h1.81c3.51 0 6.31 3.1 6.28 4.3s-2.6 3.46-5.71 5.05z" class="cls-1" transform="translate(-26.85 -12.58)"/></svg>