<?xml version="1.0" encoding="utf-8"?>
<!-- Generator: Adobe Illustrator 26.1.0, SVG Export Plug-In . SVG Version: 6.00 Build 0)  -->
<svg version="1.1" id="a" xmlns="http://www.w3.org/2000/svg" xmlns:xlink="http://www.w3.org/1999/xlink" x="0px" y="0px"
	 viewBox="0 0 595.3 595.3" style="enable-background:new 0 0 595.3 595.3;" xml:space="preserve">
<style type="text/css">
	.st0{fill:#B0B7BC;}
</style>
<path class="st0" d="M16.2,241.8c0,4.7-3.1,8.4-8.4,8.4c-4.7,0-7.7-4-7.7-8.4s3.5-8.7,8.2-8.7C12.7,232.9,16.2,236.9,16.2,241.8
	L16.2,241.8z M3,370.6V270.4h10.1v100.2L3,370.6L3,370.6z M39.6,231.5c8.2-1.4,18.3-2.8,30.3-2.8c16.7,0,29.3,4.5,37.1,12
	c6.8,6.6,10.8,16,10.8,27.5c0,12.2-3.3,21.1-9.9,28.2C99,306.5,84,311.9,66.6,311.9c-6.6,0-12.2-0.2-17.1-1.6v60.1H39.4V231.5
	L39.6,231.5L39.6,231.5z M49.7,301.6c4.7,1.6,11,2.1,18.1,2.1c25.1,0,40.1-12.2,40.1-34.5s-16.2-32.2-38.5-32.2
	c-9.2,0-16.2,0.9-19.9,1.6v62.9L49.7,301.6L49.7,301.6z M193.6,346.7c0,8,0.2,16.2,1.4,23.7h-9.1l-1.4-14.3H184
	c-4.9,7.7-16.2,16.7-32.1,16.7c-20.2,0-29.3-14.3-29.3-27.5c0-23.2,20.2-37.1,61.2-36.8v-2.8c0-9.9-1.9-29.6-25.6-29.3
	c-8.7,0-18.1,2.4-25.3,7.5l-3.1-7.3c9.1-6.1,20.4-8.5,29.3-8.5c29.1,0,34.7,21.8,34.7,39.4v39.2H193.6L193.6,346.7z M183.5,316.9
	c-21.8-0.7-50.7,2.8-50.7,26.8c0,14.3,9.6,20.9,19.9,20.9c16.7,0,26.3-10.3,29.6-19.9c0.9-2.1,0.9-4.5,0.9-6.1v-21.6H183.5
	L183.5,316.9z M298.9,222.3v124.8c0,7.5,0.2,16.2,0.9,23.5h-8.9l-0.9-19h-0.5c-5.2,11-17.1,21.4-35.7,21.4
	c-24.9,0-43.2-20.6-43.2-50.5c-0.2-33.3,20.4-54.2,45.1-54.2c17.4,0,28.4,8.9,32.8,17.8h0.5v-63.8L298.9,222.3L298.9,222.3z
	 M288.8,310.1c0-2.8-0.2-6.6-0.9-9.1c-3.3-13.4-15.2-24.4-31.4-24.4c-21.8,0-35.7,19-35.7,44.8c0,22.5,11.3,43.2,35.2,43.2
	c14.3,0,27.9-9.6,32.2-26c0.9-2.8,0.9-5.2,0.9-8.5v-19.9L288.8,310.1L288.8,310.1z M363.9,231.5c8.2-1.4,18.3-2.8,30.3-2.8
	c16.7,0,29.3,4.5,37.1,12c6.8,6.6,10.8,16,10.8,27.5c0,12.2-3.3,21.1-9.9,28.2c-8.9,10.3-23.9,15.7-41.3,15.7
	c-6.6,0-12.2-0.2-17.1-1.6v60.1h-10.1V231.5H363.9L363.9,231.5z M374,301.6c4.7,1.6,11,2.1,18.1,2.1c25.3,0,40.4-12.2,40.4-34.5
	s-16.2-32.2-38.5-32.2c-9.1,0-16.2,0.9-19.9,1.6L374,301.6L374,301.6z M457.1,300.4c0-10.1-0.2-20.2-0.9-30h9.1l0.5,20.2h0.7
	c4.5-12.4,14.8-22.5,28.4-22.5c1.4,0,2.8,0.2,4.2,0.5v9.6c-1.4-0.5-2.8-0.5-4.7-0.5c-13.8,0-23.7,12-26.3,27.9
	c-0.7,2.8-0.9,6.3-0.9,9.6v55.4h-10.1L457.1,300.4L457.1,300.4z M595.3,319.5c0,37.3-25.6,53.5-48.1,53.5c-25.8,0-46-20.2-46-51.6
	c0-34.3,22.5-53.3,47.4-53.3C576.3,268.1,595.3,289,595.3,319.5L595.3,319.5z M511.3,320.6c0,25.1,16.2,43.9,36.6,43.9
	s37.3-18.8,37.3-44.6c0-18.3-10.3-43.6-36.8-43.6C522.8,276.5,511.3,299.3,511.3,320.6L511.3,320.6z"/>
</svg>
