<svg xmlns="http://www.w3.org/2000/svg" id="Layer_1" viewBox="0 0 246.1 246.1" width="246.1" height="246.1"><style>.st0{fill:#0f1634}.st1{fill:none}.st2{fill:#252c64}.st3{fill:#78a6d8}.st4{fill:#bcd7f0}.st5{enable-background:new}.st6{fill:#ed1c24}</style><path d="M127.4 90.3l8 12.7h8.5l-10.5-16.5 10.1-14.7h-8.2l-7.9 11.7V71.8h-7.2V103h7.2zm36.5-9.3h-7.1v12.5c0 .5 0 .9-.1 1.4 0 .4-.1.8-.3 1.2-.1.3-.4.6-.7.8-.3.2-.7.3-1.1.3-.6.1-1.2-.2-1.5-.8-.3-.7-.5-1.6-.4-2.4V81h-7.1v15.3c0 1.1.1 2.3.5 3.3.3.8.7 1.6 1.3 2.2.6.6 1.2 1 2 1.3.8.3 1.6.4 2.5.4.6 0 1.2-.1 1.8-.2.5-.1.9-.3 1.3-.5s.7-.5 1.1-.8c.3-.3.7-.6 1-1l.5 2h6.3V81zm17.7 0c-.2-.1-.5-.1-.7-.1h-.9c-.8 0-1.7.2-2.5.5-1 .3-1.8.9-2.5 1.8l-.5-2.1h-6.3v22h7.1V90.3c-.1-1.1.4-2.1 1.2-2.8 1-.6 2.2-.8 3.4-.8.6 0 1.2.1 1.8.2l-.1-5.9zm10.1 9.6c0-.5 0-.9.1-1.3 0-.4.2-.8.3-1.2.2-.3.4-.6.7-.8.4-.2.8-.3 1.2-.3.6-.1 1.2.2 1.6.8.3.7.5 1.6.4 2.4v13h7.1V87.7c0-1.1-.1-2.3-.5-3.3-.3-.8-.7-1.6-1.3-2.2-.6-.6-1.2-1-2-1.3-1.4-.4-2.9-.5-4.3-.2-.5.1-.9.3-1.4.5-.4.2-.8.5-1.1.8-.4.3-.7.6-1 1l-.5-2h-6.3v22h7.1l-.1-12.4zm32.6-.5c0-1.3-.1-2.7-.4-4-.2-1.1-.8-2.1-1.6-2.9-.9-.9-2-1.5-3.2-1.8-1.7-.4-3.5-.6-5.3-.6h-1.2c-.4 0-1 .1-1.5.1l-1.5.2c-.4 0-.8.1-1.2.2v5.2c.6-.1 1.3-.3 2.1-.4.8-.1 1.5-.2 2.3-.2.9 0 1.7.1 2.6.2.6.1 1.1.3 1.6.7.3.2.6.6.8 1 .1.4.2.9.2 1.3v.9c-.6-.3-1.2-.4-1.8-.6-.7-.1-1.5-.2-2.2-.2-.9 0-1.9.1-2.8.3-.8.2-1.6.5-2.3 1-.7.5-1.2 1.1-1.6 1.9-.4.9-.6 1.9-.6 2.9v1.3c0 1.2.2 2.3.6 3.4.3.8.8 1.5 1.5 2.1.6.5 1.4.9 2.1 1.1.8.2 1.7.3 2.5.3.9 0 1.8-.2 2.6-.6.7-.4 1.4-.9 2-1.5l.4 1.7h6l-.1-13zm-6.5 6.1c0 .6-.3 1.2-.7 1.6-.5.6-1.2.8-2 .8-.7.1-1.4-.1-1.9-.6-.4-.5-.6-1.2-.6-1.8v-.3c-.1-.8.2-1.5.8-2 .6-.4 1.4-.5 2.1-.5.8 0 1.6.2 2.3.7v2.1zm10.8-24.4h7.1v6.4h-7.1zm0 9.2h7.1v22h-7.1zm-95.8 51.5c-.7 0-1.3-.1-2-.2-.6-.1-1.2-.4-1.7-.9s-1-1.2-1.2-1.9c-.3-1.1-.5-2.2-.5-3.3v-5c0-1.1.1-2.3.4-3.3.2-.7.6-1.3 1.2-1.9.5-.4 1.1-.7 1.7-.8.7-.1 1.4-.2 2.1-.2.8 0 1.5 0 2.1.1.7.1 1.4.2 2.1.4v-5.4c-1.7-.4-3.4-.5-5.2-.5-1.6 0-3.1.2-4.6.6-1.4.4-2.6 1.1-3.6 2-1.1 1.1-1.9 2.4-2.4 3.8-.6 1.9-.9 3.9-.9 5.9v3.6c-.1 2 .2 4 .9 5.9.5 1.4 1.3 2.8 2.4 3.8 1 1 2.3 1.7 3.7 2.1 1.5.4 3.1.6 4.7.6.9 0 1.8 0 2.6-.1.9-.1 1.8-.2 2.6-.4V132c-.6.2-1.3.3-1.9.3-.9.1-1.7.2-2.5.2zm21.9-12.8c-.8-.8-1.7-1.3-2.8-1.6-1.2-.3-2.4-.5-3.6-.5-1.2 0-2.4.2-3.5.5-1 .3-2 .9-2.7 1.6-.8.8-1.4 1.8-1.8 2.9-.5 1.4-.7 2.8-.6 4.3v2c0 1.5.2 2.9.6 4.3.4 1.1 1 2.1 1.8 2.9.8.8 1.7 1.3 2.7 1.6 1.1.3 2.3.5 3.5.5 1.2 0 2.4-.1 3.6-.5 1-.3 2-.9 2.7-1.6.8-.8 1.4-1.8 1.7-2.9.4-1.4.7-2.8.6-4.3v-2c0-1.5-.2-2.9-.6-4.3-.2-1.2-.8-2.1-1.6-2.9zm-4 8.7c0 1.2-.1 2.4-.4 3.6-.3.8-1.1 1.4-2 1.2-1.1 0-1.7-.4-2-1.2-.3-1.2-.4-2.4-.4-3.6v-1.1c0-1.2.1-2.4.4-3.6.3-.8 1.1-1.4 2-1.2.4 0 .9.1 1.3.3.3.2.6.6.7.9.2.5.2 1 .3 1.5 0 .6.1 1.3.1 2.1v1.1zm9.8-18.5h6.3v27.6h-6.3zm10.1 0h6.3v27.6h-6.3zm23.3 9.5c-.7-.7-1.5-1.2-2.4-1.4-.9-.3-1.9-.5-2.9-.5-1.1 0-2.2.2-3.3.5-1 .3-1.9.8-2.6 1.6-.8.7-1.4 1.6-1.8 2.6-.5 1.2-.7 2.4-.6 3.7v2.9c0 3.1.8 5.3 2.5 6.8s4 2.2 7.1 2.2h1.1l1.4-.1c.5 0 .9-.1 1.4-.1.4 0 .8-.1 1.1-.2v-4.7c-.6.2-1.2.3-1.8.3-.6.1-1.2.1-1.8.1-1.3.1-2.6-.2-3.8-.7-.9-.5-1.5-1.5-1.4-2.6h10.1V126c0-1.3-.2-2.6-.6-3.9-.3-1-.9-1.9-1.7-2.7zm-7.8 6.5c-.1-1 .1-2 .7-2.8.5-.5 1.1-.7 1.8-.7.6 0 1.3.2 1.7.7.5.9.7 1.8.6 2.8h-4.8zm24.3-6.1c-1-1.5-2.8-2.4-4.6-2.2-.9 0-1.8.2-2.6.5s-1.5.9-2.1 1.6c-.6.9-1.1 1.8-1.4 2.9-.4 1.4-.6 2.8-.5 4.3v1.4c0 1.5.1 3 .5 4.4.3 1 .7 2 1.3 2.8.5.7 1.3 1.2 2.1 1.5.8.3 1.7.5 2.6.5.9 0 1.8-.1 2.6-.5.7-.4 1.3-.8 1.9-1.4v1.4c0 .5 0 1.1-.1 1.6s-.3.9-.6 1.2c-.4.4-.9.6-1.4.8-.8.2-1.6.3-2.4.3-.8 0-1.5-.1-2.3-.2-.8-.1-1.5-.2-2.1-.4v4.9c.3.1.7.2 1.2.2s.9.1 1.4.2 1 .1 1.4.1h1.2c1.6 0 3.2-.2 4.8-.6 1.1-.4 2.2-1 3-1.9.8-.9 1.3-1.9 1.6-3 .3-1.3.5-2.7.5-4.1V118H211l-.6 1.8zm-.3 8.9c0 .4 0 .9-.1 1.3 0 .4-.2.8-.3 1.1-.2.3-.4.6-.7.8-.3.2-.7.3-1.1.3-.7.1-1.5-.3-1.9-.9-.4-1-.6-2.2-.5-3.3v-1c-.1-1.1.1-2.2.6-3.2.4-.7 1.1-1.1 1.9-1.1.4 0 .8.1 1.1.3.3.2.5.5.7.8.2.4.3.7.3 1.1 0 .4.1.9.1 1.3v2.5zm25.5-2.8c0-1.3-.2-2.7-.6-3.9-.4-1-.9-1.9-1.7-2.6-.7-.7-1.5-1.2-2.4-1.4-.9-.3-1.9-.5-2.9-.5-1.1 0-2.2.2-3.3.5-1 .3-1.9.9-2.6 1.6-.8.7-1.4 1.6-1.8 2.6-.5 1.2-.7 2.4-.6 3.7v2.9c0 3.1.8 5.3 2.5 6.8s4 2.2 7.1 2.2h1.1l1.4-.1c.4 0 .9-.1 1.3-.1s.8-.1 1.1-.2v-4.7c-.6.2-1.2.3-1.8.3-.6.1-1.2.1-1.8.1-1.3.1-2.6-.2-3.8-.7-.9-.5-1.5-1.5-1.4-2.6h10.1l.1-3.9zm-10.1 0c-.1-1 .1-2 .7-2.8.5-.5 1.1-.7 1.8-.7.6 0 1.3.2 1.7.7.5.9.7 1.8.6 2.8h-4.8zM125 150c-.2-.2-.4-.3-.7-.4-.4-.1-.7-.2-1.1-.2h-2.6v7.1h.7v-3.1h1.5c.3 0 .7 0 1-.1.3 0 .6-.2.9-.3.3-.1.5-.4.6-.6.2-.3.3-.7.2-1 0-.3 0-.5-.1-.8-.1-.2-.2-.4-.4-.6zm-.3 2.1c-.1.2-.2.3-.4.4-.2.1-.4.2-.6.2-.3 0-.6.1-.8.1h-1.5V150h1.7c.5 0 1 .1 1.4.4.3.2.5.6.4 1-.1.2-.1.4-.2.7zm4.1-2.7l-2.8 7.1h.7l.8-2.2h3.2l.8 2.2h.7l-2.7-7.1h-.7zm-1 4.3l1.4-3.7 1.4 3.7h-2.8zm4.7-3.7h2.3v6.5h.6V150h2.3v-.6h-5.2zm11 2.4h-4.2v-3h-.7v7.1h.7V153h4.2v3.5h.6v-7.1h-.6zm7.8 3.2l-1.6-6.2h-.8l-1.6 6.2-1.6-6.2h-.6l1.8 7.1h.7l1.7-6.3 1.6 6.3h.8l1.8-7.1h-.7zm5.3-6.2l-2.8 7.1h.7l.8-2.2h3.2l.8 2.2h.7l-2.7-7.1h-.7zm-1 4.3l1.4-3.7 1.4 3.7h-2.8zm7.6-.9l-2.1-3.4h-.8l2.6 4.1v3h.6v-3.1l2.6-4h-.8zm8 .4c-.2-.1-.4-.3-.6-.3-.2-.1-.5-.2-.8-.2l-.8-.2c-.2-.1-.5-.1-.7-.2-.2-.1-.4-.2-.5-.3-.1-.2-.2-.3-.3-.6-.1-.2-.1-.4 0-.6.1-.2.1-.4.3-.5.2-.2.3-.3.6-.4.3-.1.6-.2.9-.1.2 0 .4 0 .6.1.2.1.4.1.6.3.2.1.3.3.4.5.1.2.1.5.1.7h.6c0-.3-.1-.6-.1-.8-.1-.3-.2-.5-.4-.7-.2-.2-.5-.4-.7-.5-.7-.2-1.4-.2-2.1 0-.3.1-.5.2-.8.4-.2.2-.3.4-.4.6-.1.2-.2.5-.1.7 0 .3.1.6.2.9.1.2.3.4.5.6.2.2.4.3.7.4.3.1.5.2.8.2l.8.2c.2.1.5.1.7.3.2.1.4.2.5.4.1.2.2.4.2.7 0 .2 0 .4-.1.6-.1.2-.2.3-.3.5-.2.1-.4.3-.6.3-.3.1-.5.1-.8.1-.3 0-.5 0-.8-.1-.5-.1-.9-.4-1.1-.8-.1-.3-.2-.5-.2-.8h-.6c0 .3.1.7.2 1 .1.3.3.5.5.7.2.2.5.4.8.4.3.1.7.1 1 .1.7 0 1.4-.1 1.9-.5s.7-.9.7-1.5c0-.3-.1-.6-.2-.9-.3-.3-.5-.5-.6-.7zm3.9-3.2h2.3v6.5h.6V150h2.2v-.6h-5.1zm11.6.3c-.3-.3-.6-.6-1-.8-.5-.2-1-.3-1.4-.3-.5 0-1 .1-1.4.3-.4.2-.7.5-1 .8-.3.4-.5.8-.6 1.2-.1.5-.2 1-.2 1.5s.1 1 .2 1.4c.1.4.3.8.6 1.2.3.3.6.6 1 .8.4.2.9.3 1.4.3.5 0 1-.1 1.4-.3.4-.2.7-.5 1-.8.3-.4.5-.8.6-1.2.1-.5.2-1 .2-1.4 0-.5-.1-1-.2-1.5-.1-.4-.3-.8-.6-1.2zm0 3.9c-.1.4-.3.7-.5 1-.2.3-.5.5-.8.7-.4.2-.8.3-1.2.3-.4 0-.8-.1-1.2-.3-.3-.2-.6-.4-.8-.7-.2-.3-.4-.6-.5-1-.2-.8-.2-1.6 0-2.4.1-.4.3-.7.5-1 .2-.3.5-.5.8-.7.4-.2.8-.3 1.2-.3.4 0 .8.1 1.1.2.3.1.6.4.8.6.2.3.4.6.5 1 .1.4.2.9.2 1.3 0 .5 0 .9-.1 1.3zm9-1c-.2-.1-.4-.3-.6-.3-.2-.1-.5-.2-.8-.2l-.8-.2c-.2-.1-.5-.1-.7-.2-.2-.1-.4-.2-.5-.3-.2-.1-.3-.3-.3-.6v-.6c.1-.2.2-.4.3-.5.2-.2.3-.3.6-.4.3-.1.6-.2.9-.1.2 0 .4 0 .6.1l.6.3c.2.1.3.3.4.5.1.2.1.5.1.7h.6c0-.3-.1-.6-.1-.8-.1-.3-.2-.5-.4-.7-.2-.2-.5-.4-.7-.5-.7-.2-1.4-.2-2.1 0-.3.1-.5.2-.8.4-.2.2-.3.4-.4.6-.1.2-.2.5-.2.7 0 .3.1.6.2.9.1.2.3.4.5.6.2.2.4.3.7.4.3.1.5.2.8.2l.8.2c.2.1.5.1.7.3.2.1.4.2.5.4.1.2.2.4.2.7 0 .2 0 .4-.1.6-.1.2-.2.3-.3.5-.2.1-.4.3-.6.3-.3.1-.5.1-.8.1-.3 0-.5 0-.8-.1l-.6-.3c-.2-.1-.3-.3-.4-.5-.1-.2-.2-.5-.2-.8h-.6c0 .3.1.7.2 1 .1.3.3.5.5.7.2.2.5.4.8.4.3.1.7.1 1 .1.7 0 1.4-.1 1.9-.5s.7-.9.7-1.5c0-.3 0-.6-.2-.9-.3-.3-.4-.5-.6-.7zm6.7.4c0 .4 0 .7-.1 1.1-.1.3-.2.5-.4.8-.2.2-.4.4-.6.5-.3.1-.7.2-1 .2-.6 0-1.2-.2-1.6-.6-.4-.6-.6-1.2-.5-1.9v-4.2h-.7v4.4c0 .8.2 1.5.7 2.1.5.5 1.3.8 2.1.8.8.1 1.5-.2 2.1-.7.5-.6.7-1.4.7-2.1v-4.4h-.7v4zm7.1 1.4c-.1.2-.3.4-.5.6-.2.2-.4.3-.6.4-.3.1-.5.2-.8.1-.4 0-.8-.1-1.2-.3-.3-.2-.6-.4-.8-.7-.2-.3-.3-.6-.4-1-.1-.4-.1-.8-.1-1.2 0-.4 0-.8.1-1.2.1-.4.2-.7.4-1 .2-.3.5-.5.8-.7.3-.2.7-.3 1.1-.3.5 0 1 .1 1.5.4.4.3.7.8.8 1.3h.7c0-.3-.2-.7-.3-1-.1-.3-.3-.5-.6-.7-.2-.2-.5-.3-.8-.4-.3-.1-.7-.1-1-.1-.4 0-.9.1-1.3.2s-.7.4-1 .7c-.3.3-.5.7-.7 1.2-.2.6-.3 1.1-.2 1.7 0 .5 0 1 .2 1.4.1.4.3.8.5 1.2.2.3.6.6.9.8.4.2.9.3 1.4.3.4 0 .8-.1 1.2-.2.3-.1.6-.3.9-.6.2-.2.4-.5.6-.8.2-.3.3-.7.4-1h-.7c-.3.4-.4.6-.5.9zm7.1 0c-.1.2-.3.4-.5.6-.2.2-.4.3-.6.4-.3.1-.5.2-.8.1-.4 0-.8-.1-1.2-.3-.3-.2-.6-.4-.8-.7-.2-.3-.3-.6-.4-1-.1-.4-.1-.8-.1-1.2 0-.4 0-.8.1-1.2.1-.4.2-.7.4-1 .2-.3.5-.5.8-.7.3-.2.7-.3 1.1-.3.5 0 1 .1 1.5.4.4.3.7.8.8 1.3h.7c0-.3-.2-.7-.3-1-.1-.3-.3-.5-.6-.7-.2-.2-.5-.3-.8-.4-.3-.1-.7-.1-1-.1-.4 0-.9.1-1.3.2s-.7.4-1 .7c-.3.3-.5.7-.7 1.2-.2.6-.3 1.1-.2 1.7 0 .5.1 1 .2 1.4.1.4.3.8.5 1.2.3.4.6.6 1 .8.4.2.9.3 1.4.3.4 0 .8-.1 1.2-.2.3-.1.6-.3.9-.6.2-.2.4-.5.6-.8.2-.3.3-.7.4-1h-.7c-.3.4-.5.6-.6.9zm2.9-1.9h3.7v-.6h-3.7V150h4.1v-.6h-4.7v7.1h4.8v-.6h-4.2zm9.5.1c-.2-.1-.4-.3-.6-.3-.2-.1-.5-.2-.8-.2l-.8-.2c-.2-.1-.5-.1-.7-.2-.2-.1-.4-.2-.5-.3-.1-.2-.2-.3-.3-.6-.1-.2-.1-.4 0-.6.1-.2.1-.4.3-.5.2-.2.3-.3.6-.4.3-.1.6-.2.9-.1.2 0 .4 0 .6.1.2.1.4.1.6.3.2.1.3.3.4.5.1.2.1.5.1.7h.6c0-.3 0-.6-.1-.8-.2-.5-.6-.9-1.2-1.1-.3-.1-.7-.2-1-.2-.4 0-.7 0-1.1.2-.3.1-.5.2-.8.4-.2.2-.3.4-.4.6-.1.2-.2.5-.1.7 0 .3.1.6.2.9.1.2.3.4.5.6.2.2.4.3.7.4.3.1.5.2.8.2l.8.2c.2.1.5.1.7.3.2.1.4.2.5.4.1.2.2.4.2.7 0 .2 0 .4-.1.6-.1.2-.2.3-.3.5-.2.1-.4.3-.6.3-.3.1-.5.1-.8.1-.3 0-.5 0-.8-.1-.5-.1-.9-.4-1.1-.8-.1-.3-.2-.5-.2-.8h-.6c0 .3.1.7.2 1 .1.3.3.5.5.7.2.2.5.4.8.4.3.1.7.1 1 .1.7 0 1.3-.2 1.9-.5.5-.4.7-.9.7-1.5 0-.3-.1-.6-.2-.9-.2-.5-.3-.6-.5-.8zm6.5.6c-.1-.2-.3-.4-.5-.6-.2-.1-.4-.3-.6-.3-.2-.1-.5-.2-.8-.2l-.8-.2c-.2-.1-.5-.1-.7-.2-.2-.1-.4-.2-.5-.3-.1-.2-.2-.3-.3-.6v-.6c.1-.2.1-.4.3-.5.2-.2.3-.3.6-.4.3-.1.6-.2.9-.1.2 0 .4 0 .6.1.2.1.4.1.6.3.2.1.3.3.4.5.1.2.1.5.1.7h.6c0-.3 0-.6-.1-.8-.2-.5-.6-.9-1.2-1.1-.7-.2-1.4-.2-2.1 0-.3.1-.5.2-.8.4-.2.2-.3.4-.4.6-.1.2-.2.5-.1.7 0 .3.1.6.2.9.1.2.3.4.5.6.2.2.4.3.7.4.3.1.5.2.8.2l.8.2c.2.1.5.1.7.3.2.1.4.2.5.4.1.2.2.4.2.7 0 .2 0 .4-.1.6-.1.2-.2.3-.3.5-.2.1-.4.3-.6.3-.3.1-.5.1-.8.1-.3 0-.5 0-.8-.1-.5-.1-.9-.4-1.1-.8-.1-.3-.2-.5-.2-.8h-.6c0 .3.1.7.2 1 .1.3.3.5.5.7.2.2.5.4.8.4.3.1.7.1 1 .1.7 0 1.3-.2 1.9-.5.5-.4.7-.9.7-1.5-.1-.6-.1-.9-.2-1.1zm-154.9 9.1c0-.2-12.6-81.2 22.8-144.9-29.6 19.3-46.7 51.2-49.7 70.7 8.9 24.6 21.2 48.3 26.9 74.2z" class="st0"/><path d="M82.7 174.9c-.5-4.1-1.2-8.1-2.1-12-.4-.5-32.3-30.8-26.8-74.2-3.3-9.1-6-18.4-7.8-27.8-12.4 20-14.6 38-11.4 53.4 12.3 13.5 30.3 32.2 48.1 60.6z" class="st2"/><path d="M34.5 114.3c-6.1-6.7-10.9-12.1-13.7-16.8 0 0-7.3 31 9.8 53.8 14 5.3 27.1 12.7 38.9 22 4.4.8 8.8 1.4 13.2 1.6-.4-.2-40.3-22.9-48.2-60.6z" class="st3"/><path d="M82.7 174.9c-17.8-28.4-35.8-47.1-48.2-60.7 7.9 37.8 47.8 60.5 48.2 60.7z" class="st0"/><path d="M30.6 151.3c-13.4-5-22.2-5.7-22.2-5.7s8 37.7 61.1 27.7c-19.4-3.6-31.4-12-38.9-22zm0 0zm38.9 22z" class="st4"/><path d="M82.7 174.9zm-2.1-12zm-50-11.6c7.4 10 19.5 18.4 38.8 22-11.7-9.3-24.8-16.7-38.8-22z" class="st2"/><path d="M80.6 162.9c-5.7-25.9-18-49.5-26.8-74.2-5.5 43.4 26.3 73.7 26.8 74.2z" class="st3"/><path d="M100.7 59c-2.7-6.2-5.8-11-9.1-14.4-.6 1.8-1.2 3.5-1.8 5.3l1.1-.6c.9-.5 1.9-.6 2.1-.3.2.8-.1 1.7-.8 2.1l-1.2.6-2.2 1.1c-.1.5-.3 1-.4 1.4l2.6 1.3 6.1 3.1c.9.4 1.7 1.1 2.2 2 .2.6.1 1.9-.8 1.4l-10.7-5.5c-.2.6-.4 1.2-.5 1.9L98.5 64c.9.5.8.9-.2.9h-2.6c-1.2 0-2.5-.3-3.6-.8l-5.5-2.8c-.2.6-.3 1.3-.5 1.9l1.8.9c.9.5.8.9-.2.9h-2.1l-.6 2h14.5c1 0 2.1.4 2.2 1l.2.5c.1.3.2.7.3 1l.2.8c.2.5.3 1.1.4 1.6l.1.2c.1.3-.7.5-1.8.5h-9.4l-8.2.1c-.1.6-.3 1.3-.4 1.9H88c1 0 1.1.4.2.9l-5.8 3.1c-.2.8-.3 1.6-.4 2.4l1.5-.8 8.9-4.7c1.1-.5 2.4-.8 3.6-.9h4.5c1 0 1.2.4.2.9L81.5 85.6c-.2 1.3-.4 2.5-.5 3.8.2 0 .3.1.4.2l19.6 9.9c.9.5.8.9-.2.9h-4.9c-1.2 0-2.5-.3-3.6-.8l-8.4-4.2-2.8-1.4c-.2-.1-.5-.2-.8-.2-.1.8-.2 1.6-.3 2.3.6 0 1.2.1 1.7.3l6.3 3.2c.9.5.8.9-.2.9l-8.3.1c-.1.6-.1 1.3-.2 1.9l12.2-.1h13.8c1.1 0 1.9.8 2 1.9v4c0 .8-.9 1.4-1.9 1.4H88.2l-9.2.1c0 .6-.1 1.3-.1 1.9h5.6c1 0 1.2.4.2.9l-3.2 1.7c-.9.4-1.8.5-2.7.2 0 .7-.1 1.5-.1 2.2h.1c.7.3 1.4.3 2.1 0l2.7-1.4 5.3-2.8c1.1-.5 2.4-.8 3.6-.9H97c1 0 1.2.4.2.9l-16.1 8.4c-.8.4-1.8.5-2.6.3 0 1.2 0 2.3-.1 3.4.9-.2 1.9-.2 2.7.2l20.2 10.3c.9.5.8.9-.2.9h-4.9c-1.2 0-2.5-.3-3.6-.8l-9-4.6c-.9-.5-2.2-1.1-2.8-1.4-.7-.3-1.4-.3-2.1 0l-.4.2v2.2c1-.4 2.1-.4 3.2.1l6.9 3.5c.9.5.8.9-.2.9l-9.8.1c0 .6 0 1.3.1 1.9l13.4-.1h10.5c1.1 0 1.9.2 1.8.5v.3c-.2.7-.3 1.4-.5 2.1 0 .1 0 .2-.1.3-.1.5-.3 1.1-.4 1.6l-.1.3c-.1.4-1 .7-2.1.7h-8.5l-13.9.1c0 .6.1 1.3.1 1.9l10-.1c1 0 1.2.4.2.9l-7.6 4c-.7.3-1.5.4-2.3.3.1.8.1 1.6.2 2.4.5.1 1 0 1.5-.2l2.7-1.4 9.7-5.1c1.1-.5 2.4-.8 3.6-.9h3c1 0 1.2.4.2.9L81.8 156c-.6.3-1.3.4-2 .3.1 1.2.2 2.3.3 3.2.6 0 1.2.1 1.7.4l9.6 4.9c.9.5 1.4 1.2 1 1.7-.9.7-2 1-3.1.7l-5.5-2.8-2.7-1.4c-.2-.1-.3-.1-.5-.2v.1c.2.8.3 1.6.5 2.4.2 0 .5.1.7.2l6.1 3.1c.5.2.8.7.7 1.2-.1.3-.3.5-.6.7-1.7 1.1-3.6 2-5.6 2.6.1.6.2 1.3.3 2 7.2-1.1 13.8-8.2 18.7-20.2 5.3-12.8 8.1-29.8 8-47.9s-3.3-35.2-8.7-48zm-4.9-3.2l-2.7-1.4c-.9-.5-1-1.3 0-1.7.9-.5 2.1-.2 2.6.7.6.8 1.1 2.9.1 2.4zm9.7 27.7l1.1 8.6c.1 1-.6 1.5-1.5 1l-9.4-4.7c-.9-.5-1-1.3 0-1.7l7.8-4.1c.6-.4 1.4-.2 1.8.4.1.1.2.4.2.5zm1.6 16.8c-.7-.2-1.3-.5-1.9-.9l-21.8-11c-.9-.5-.9-1.3 0-1.8l18.9-9.9c.9-.5 1.8-.3 2 .4s-.2 2.9-1.2 3.4l-9.5 5-2.7 1.5c-.6.3-.6.8 0 1.1l2.8 1.4 11.7 5.9c.9.4 1.6 1.2 1.8 2.2 0 .9 0 1.8-.1 2.7zm-8.3 55.8l-1 2.2c-.5.9-1.6 1.3-2.6.8l-.7-.4c-.9-.5-.9-1.3 0-1.7l3.4-1.8c.9-.4 1.3-.1.9.9zm2.7-7.1c-.6 1.4-1.5 2.6-2.6 3.5l-6.6 3.5-2.7 1.4c-.6.3-.6.8 0 1.1l2.8 1.4 1.8.9c.9.5 1.5 1.2 1.2 1.7-.7.7-1.8 1-2.8.7l-8.7-4.4c-.9-.5-1-1.2 0-1.7l16.4-8.6c.9-.5 1.5-.3 1.2.5zm4.8-22c0 .7-.6 1.2-1.3 1.2-.2 0-.4-.1-.6-.2l-8.9-4.5c-.9-.5-.9-1.3 0-1.7l10.1-5.3c.9-.5 1.6 0 1.6 1l-.9 9.5zm-.6-12.7l-12.3 6.4-2.7 1.4c-.6.3-.6.8 0 1.1l2.8 1.4 10.7 5.4c.9.4 1.5 1.2 1.5 2.1-.1.7-1.2 2.1-2.1 1.7l-20.2-10.2c-.9-.5-1-1.3 0-1.8l18.2-9.5c1.1-.5 2.4-.8 3.6-.9h.5c.8 0 1.6.5 1.9 1.3-.2.4-1 1.1-1.9 1.6z" class="st0"/><g class="st5"><path d="M67.8 182.9c.7-.8 1.4-1.2 2.3-1.2 1.2 0 1.8.9 1.8 2.8 0 2.6-.3 4.4-.8 5.3s-1.3 1.3-2.3 1.3c-1 0-1.6-.6-2-1.7-.3-1.2-.7-1.8-1.1-1.9s-1.1-.2-2.2-.2c-2.8 0-6.1 2.4-10.2 7.2s-6 9-6 12.7c0 1.6.5 3 1.5 4.2s2.4 1.9 4.1 1.9c1.4 0 2.7-.3 4-.8s3.2-1.6 5.7-3.2c1-.6 1.7-1 2.2-1 .6 0 1.1.2 1.5.6s.6.9.6 1.5c0 .5-.2.9-.5 1.4s-1.4 1.4-3.3 2.6-3.8 2.2-5.6 2.8-3.6.9-5.3.9c-2.9 0-5.2-1-7-3s-2.7-4.4-2.7-7.1c0-5 2.5-10.5 7.6-16.5s9.8-9 14.1-9c1.7 0 2.9.1 3.6.4zm18 33.3c-3.4 1.6-5.8 2.4-7.2 2.4-5.8 0-8.8-2.8-8.8-8.3 0-5.2 1.6-9.4 4.9-12.6s6.9-4.8 10.8-4.8c1.5 0 3.1.4 4.7 1.2s2.4 1.7 2.4 2.7c0 .6-.2 1.1-.6 1.5-.3.6-.8 2.4-1.3 5.3s-.9 5-.9 6.3c0 1.6.4 3.8 1.2 6.5l.1.4c-.3 1.5-1.2 2.2-2.6 2.2-.2 0-.7-.3-1.3-.9s-1.1-1.3-1.4-1.9zm1.7-18.2c-1-.6-1.8-.9-2.3-.9-2.6 0-5 1.2-7.3 3.5s-3.4 5.3-3.4 8.8c0 3.4 1.5 5.2 4.5 5.2 2.3 0 4.5-.9 6.6-2.6.1-6.5.8-11.2 1.9-14zm29.2 2.1c-.1.6-.4 1.3-.9 1.9s-1.1 1-2 1c-1.1 0-1.7-.6-1.7-1.7l.1-1.3c0-.3 0-.6.1-1l.2-2c-4.7.5-8.2 2.7-10.5 6.7l-2 12.8c-.2 1.6-1.1 2.4-2.7 2.4-1.4 0-1.9-.8-1.7-2.4l2.6-16.4c.6-3.7 1.1-5.8 1.5-6.3s1-.7 1.8-.7c1.2 0 1.9.9 1.9 2.6 0 .4 0 .8-.1 1.3 3.4-2.9 6.9-4.4 10.7-4.4 2 0 3 1.2 3 3.7 0 .6-.1 1.3-.2 2.1l-.1 1.7zm5.6 10.3c1.4 2.6 3.8 3.9 7.2 3.9 1.2 0 2.7-.2 4.3-.8s2.8-1.1 3.4-1.9c.6-.8 1.3-1.2 1.9-1.2.5 0 .9.2 1.3.5s.5.8.5 1.2c0 1.6-1.4 3.1-4.1 4.4s-5.4 2-8.1 2c-3.3 0-6-.8-7.8-2.4s-2.8-3.7-2.8-6.3c0-3.8 1.3-7.6 3.9-11.3s6-5.5 10.1-5.5c2.8 0 4.9.5 6.3 1.4s2.2 2.2 2.2 3.9c0 1.4-.5 2.6-1.4 3.6s-2 1.8-3.1 2.3-2.5 1.2-4.3 2l-9.5 4.2zm.3-4.3l7.7-3.5c3.2-1.5 5.4-2.6 6.6-3.5-1.1-1.2-2.9-1.9-5.3-1.9-3.9 0-6.9 3-9 8.9zm26 4.3c1.4 2.6 3.8 3.9 7.2 3.9 1.2 0 2.7-.2 4.3-.8s2.8-1.1 3.4-1.9c.6-.8 1.3-1.2 1.9-1.2.5 0 .9.2 1.3.5s.5.8.5 1.2c0 1.6-1.4 3.1-4.1 4.4s-5.4 2-8.1 2c-3.3 0-6-.8-7.8-2.4s-2.8-3.7-2.8-6.3c0-3.8 1.3-7.6 3.9-11.3s6-5.5 10.1-5.5c2.8 0 4.9.5 6.3 1.4s2.2 2.2 2.2 3.9c0 1.4-.5 2.6-1.4 3.6s-2 1.8-3.1 2.3-2.5 1.2-4.3 2l-9.5 4.2zm.3-4.3l7.7-3.5c3.2-1.5 5.4-2.6 6.6-3.5-1.1-1.2-2.9-1.9-5.3-1.9-3.9 0-6.9 3-9 8.9zm43.4-6c-.1.6-.4 1.3-.9 1.9s-1.1 1-2 1c-1.1 0-1.7-.6-1.7-1.7l.1-1.3c0-.3 0-.6.1-1l.2-2c-4.7.5-8.2 2.7-10.5 6.7l-2 12.8c-.2 1.6-1.1 2.4-2.7 2.4-1.4 0-1.9-.8-1.7-2.4l2.6-16.4c.6-3.7 1.1-5.8 1.5-6.3s1-.7 1.8-.7c1.2 0 1.9.9 1.9 2.6 0 .4 0 .8-.1 1.3 3.4-2.9 6.9-4.4 10.7-4.4 2 0 3 1.2 3 3.7 0 .6-.1 1.3-.2 2.1l-.1 1.7zm18.5-4.1c-.6.2-1.4.4-2.3.6-2.8.8-4.7 1.5-5.8 2.2s-1.7 1.6-1.9 2.5c.4.1.8.2 1.3.3 3.7.7 6.3 1.6 8 3s2.5 3.1 2.5 5.3c0 2.8-1.1 5-3.2 6.5s-4.9 2.3-8.4 2.3c-2.3 0-4.3-.4-6.1-1.2s-2.7-1.8-2.7-3c0-.7.3-1.4.9-1.9s1.2-.8 1.9-.8c.5 0 1 .4 1.7 1.1.3.3 1.1.6 2.2.9s2.1.4 2.8.4c4.1 0 6.1-1.1 6.1-3.3 0-1.8-1.3-3-3.8-3.7l-2.3-.5c-2.4-.6-4-1.2-4.6-2s-.9-1.6-.9-2.5c0-1.4.4-2.8 1.1-4.1s1.8-2.3 3.1-3.1 3.4-1.6 6.3-2.3c2.2-.6 3.8-1.1 4.7-1.5.6-.3 1.3-.4 2.2-.4 1.3 0 2 .6 2 1.9l-.1 1.7v1.6c0 1.4-.3 2.4-.9 2.8s-1.2.7-1.9.7c-.8 0-1.3-.2-1.5-.7s-.4-1.4-.4-2.8z" class="st6"/></g></svg>