<svg xmlns="http://www.w3.org/2000/svg" id="Layer_1" viewBox="0 0 246.08 170.08" width="246.08" height="170.08"><defs><style>.cls-1{fill:#0f1634}.cls-2{fill:none}.cls-3{fill:#252c64}.cls-4{fill:#78a6d8}.cls-5{fill:#bcd7f0}</style></defs><path d="M127.4 77.33l7.95 12.68h8.52l-10.48-16.52L143.5 58.8h-8.24l-7.86 11.7V58.8h-7.21v31.21h7.21V77.33zM163.85 68h-7.07v12.46a12 12 0 0 1-.07 1.36 3.65 3.65 0 0 1-.3 1.19 2 2 0 0 1-.68.85 2 2 0 0 1-1.15.3 1.56 1.56 0 0 1-1.49-.75 5.08 5.08 0 0 1-.42-2.38V68h-7.07v15.3a10.5 10.5 0 0 0 .47 3.34 5.82 5.82 0 0 0 1.31 2.25 4.9 4.9 0 0 0 2 1.26 7.45 7.45 0 0 0 2.5.4 7.14 7.14 0 0 0 1.78-.19 4.8 4.8 0 0 0 1.33-.53 7.19 7.19 0 0 0 1.08-.8c.33-.3.66-.63 1-1l.46 2h6.32zm17.73 0a4.44 4.44 0 0 0-.74-.14 8.37 8.37 0 0 0-.89 0 8 8 0 0 0-2.48.47 5.22 5.22 0 0 0-2.47 1.75l-.53-2.08h-6.32v22h7.07V77.33a3 3 0 0 1 1.24-2.78 6.24 6.24 0 0 1 3.35-.78 8.88 8.88 0 0 1 1.77.19zm10.16 9.56a11.84 11.84 0 0 1 .07-1.35 3.55 3.55 0 0 1 .33-1.2 2 2 0 0 1 .7-.84 2.1 2.1 0 0 1 1.19-.3 1.62 1.62 0 0 1 1.55.75A5.05 5.05 0 0 1 196 77v13h7.06V74.71a10 10 0 0 0-.49-3.35 6.06 6.06 0 0 0-1.33-2.24 5.1 5.1 0 0 0-2-1.27 8.48 8.48 0 0 0-4.28-.21 5.68 5.68 0 0 0-1.36.54 7.07 7.07 0 0 0-1.12.8 10.68 10.68 0 0 0-1 1L191 68h-6.32v22h7.07zm32.52-.51a17.24 17.24 0 0 0-.42-4 6 6 0 0 0-1.59-2.93 7.51 7.51 0 0 0-3.25-1.78 19.26 19.26 0 0 0-5.31-.6h-1.24c-.48 0-1 .08-1.52.14l-1.52.19a9.59 9.59 0 0 0-1.24.23v5.25c.59-.13 1.3-.26 2.13-.4a13.88 13.88 0 0 1 2.32-.21 12.15 12.15 0 0 1 2.59.23 4.26 4.26 0 0 1 1.57.66 2.05 2.05 0 0 1 .75 1 4.68 4.68 0 0 1 .19 1.35v.8a8.38 8.38 0 0 0-1.78-.56 11 11 0 0 0-2.2-.19 12.29 12.29 0 0 0-2.76.3 6.68 6.68 0 0 0-2.32 1 5.06 5.06 0 0 0-1.61 1.87 6.19 6.19 0 0 0-.61 2.9v1.3A8.91 8.91 0 0 0 207 87a5.34 5.34 0 0 0 1.5 2.08 5.21 5.21 0 0 0 2.15 1.05 11 11 0 0 0 2.53.28 5.67 5.67 0 0 0 2.62-.56 7.93 7.93 0 0 0 2-1.54l.37 1.68h6zm-6.46 6.18a2.46 2.46 0 0 1-.68 1.63 2.52 2.52 0 0 1-2 .8 2.49 2.49 0 0 1-1.87-.59 2.55 2.55 0 0 1-.56-1.84v-.33a2.18 2.18 0 0 1 .77-2 3.81 3.81 0 0 1 2.08-.49 3.44 3.44 0 0 1 2.29.7zm10.76-24.43h7.07v6.36h-7.07zm0 9.22h7.07v21.99h-7.07zm-95.77 51.44a10.42 10.42 0 0 1-2-.19 3.54 3.54 0 0 1-1.72-.85 4.56 4.56 0 0 1-1.2-1.88 9.71 9.71 0 0 1-.46-3.34v-5a10.29 10.29 0 0 1 .44-3.34A4.51 4.51 0 0 1 129 103a3.39 3.39 0 0 1 1.7-.85 10.35 10.35 0 0 1 2.05-.19c.77 0 1.47 0 2.11.1a13.07 13.07 0 0 1 2.11.44v-5.42a24.68 24.68 0 0 0-5.18-.54 16.22 16.22 0 0 0-4.64.63 8.8 8.8 0 0 0-3.64 2 9.49 9.49 0 0 0-2.41 3.81 17.2 17.2 0 0 0-.87 5.86v3.61a17.2 17.2 0 0 0 .87 5.86 9.42 9.42 0 0 0 2.43 3.81 9.06 9.06 0 0 0 3.68 2 16.49 16.49 0 0 0 4.67.62c.88 0 1.76 0 2.63-.12a22.38 22.38 0 0 0 2.63-.41V119a14.24 14.24 0 0 1-1.93.33 19.52 19.52 0 0 1-2.42.13zm21.9-12.81a6.7 6.7 0 0 0-2.76-1.61 12.11 12.11 0 0 0-3.56-.5 11.74 11.74 0 0 0-3.5.5 6.69 6.69 0 0 0-2.74 1.61 7.7 7.7 0 0 0-1.78 2.88 12.59 12.59 0 0 0-.64 4.29v2a13.26 13.26 0 0 0 .62 4.31 7.36 7.36 0 0 0 1.76 2.9 6.71 6.71 0 0 0 2.74 1.62 11.88 11.88 0 0 0 3.54.49 12.24 12.24 0 0 0 3.6-.49 6.58 6.58 0 0 0 2.74-1.62 7.69 7.69 0 0 0 1.74-2.9 13.26 13.26 0 0 0 .62-4.31v-2a13.14 13.14 0 0 0-.62-4.29 7.54 7.54 0 0 0-1.76-2.88zm-4 8.71a12.71 12.71 0 0 1-.39 3.6 1.82 1.82 0 0 1-2 1.24c-1.08 0-1.74-.41-2-1.24a14.25 14.25 0 0 1-.35-3.6v-1.08a12.74 12.74 0 0 1 .39-3.61 1.84 1.84 0 0 1 2-1.24 2.22 2.22 0 0 1 1.26.31 1.74 1.74 0 0 1 .69.93 6.19 6.19 0 0 1 .27 1.54c0 .6.06 1.3.06 2.07zm9.82-18.48h6.26v27.64h-6.26zm10.07 0h6.26v27.64h-6.26zm23.35 9.57a6.43 6.43 0 0 0-2.43-1.45 8.79 8.79 0 0 0-2.86-.46 10.12 10.12 0 0 0-3.31.52 7.17 7.17 0 0 0-2.65 1.55 7 7 0 0 0-1.76 2.61 9.69 9.69 0 0 0-.65 3.69v2.86c0 3.07.83 5.34 2.49 6.84s4 2.23 7.13 2.23H191l1.35-.1q.69-.06 1.35-.15a8.19 8.19 0 0 0 1.12-.2v-4.69a12 12 0 0 1-1.76.32c-.65.06-1.24.1-1.76.1a7.92 7.92 0 0 1-3.78-.73 2.83 2.83 0 0 1-1.4-2.59h10.11v-3.85a10.53 10.53 0 0 0-.63-3.87 6.87 6.87 0 0 0-1.67-2.63zm-7.86 6.42a4.15 4.15 0 0 1 .69-2.82 2.33 2.33 0 0 1 1.76-.7 2.08 2.08 0 0 1 1.68.7 4.62 4.62 0 0 1 .6 2.82zm24.33-6.09a5 5 0 0 0-4.64-2.24 6.65 6.65 0 0 0-2.57.5 5.27 5.27 0 0 0-2.1 1.59 8.22 8.22 0 0 0-1.4 2.86 15.25 15.25 0 0 0-.52 4.29v1.37a16.57 16.57 0 0 0 .49 4.41 8 8 0 0 0 1.34 2.84 4.8 4.8 0 0 0 2.07 1.53 7.06 7.06 0 0 0 2.57.46 5.56 5.56 0 0 0 2.63-.54 7.33 7.33 0 0 0 1.85-1.41v1.45a8 8 0 0 1-.15 1.6 2.34 2.34 0 0 1-.62 1.22 3.35 3.35 0 0 1-1.39.79 8.26 8.26 0 0 1-2.4.29 16.53 16.53 0 0 1-2.3-.19c-.84-.12-1.54-.24-2.09-.35v4.93c.33.08.72.16 1.18.23s.92.13 1.41.18 1 .1 1.41.13.85 0 1.18 0a15.49 15.49 0 0 0 4.8-.64 7.08 7.08 0 0 0 3-1.87 6.91 6.91 0 0 0 1.57-3 16.14 16.14 0 0 0 .46-4.06V105h-5.43zm-.25 8.91a9.36 9.36 0 0 1-.09 1.3 3.3 3.3 0 0 1-.33 1.14 2.14 2.14 0 0 1-.68.81 1.9 1.9 0 0 1-1.14.31 2 2 0 0 1-1.86-1 7.27 7.27 0 0 1-.54-3.32v-1a6.89 6.89 0 0 1 .58-3.17 2 2 0 0 1 1.9-1.1 1.9 1.9 0 0 1 1.14.31 2.12 2.12 0 0 1 .67.81 3.81 3.81 0 0 1 .29 1.14c0 .43.06.86.06 1.3zm25.48-2.78A10.75 10.75 0 0 0 235 109a7 7 0 0 0-1.68-2.59 6.32 6.32 0 0 0-2.42-1.45 8.88 8.88 0 0 0-2.86-.46 10.18 10.18 0 0 0-3.32.52 7.25 7.25 0 0 0-2.65 1.55 7.16 7.16 0 0 0-1.76 2.61 9.7 9.7 0 0 0-.64 3.69v2.86c0 3.07.83 5.34 2.48 6.84s4 2.23 7.13 2.23h1.12l1.35-.1c.45 0 .9-.09 1.34-.15a7.92 7.92 0 0 0 1.12-.2v-4.69a11.57 11.57 0 0 1-1.76.32c-.65.06-1.24.1-1.76.1a7.88 7.88 0 0 1-3.77-.73 2.84 2.84 0 0 1-1.41-2.59h10.11zm-10.15 0a4.21 4.21 0 0 1 .68-2.82 2.34 2.34 0 0 1 1.76-.7 2.08 2.08 0 0 1 1.68.7 4.62 4.62 0 0 1 .6 2.82zM125 137a1.71 1.71 0 0 0-.71-.43 3.26 3.26 0 0 0-1.13-.16h-2.56v7.11h.67v-3.14h1.51a5.31 5.31 0 0 0 1-.09 2.56 2.56 0 0 0 .87-.31 1.75 1.75 0 0 0 .63-.61 1.8 1.8 0 0 0 .24-1 3.08 3.08 0 0 0-.1-.75 1.54 1.54 0 0 0-.42-.62zm-.34 2.08a1.17 1.17 0 0 1-.4.45 1.93 1.93 0 0 1-.64.22 5.35 5.35 0 0 1-.84.06h-1.53V137H123a2.23 2.23 0 0 1 1.39.35 1.22 1.22 0 0 1 .44 1 1.71 1.71 0 0 1-.15.72zm4.1-2.68l-2.76 7.11h.69l.83-2.23h3.22l.82 2.23h.69l-2.71-7.11zm-1 4.31l1.38-3.74 1.39 3.74zm4.78-3.74h2.24v6.54h.67v-6.54h2.24v-.57h-5.15v.57zm10.94 2.48h-4.18v-3.05h-.67v7.11h.67v-3.49h4.18v3.49h.67v-7.11h-.67v3.05zm7.82 3.11h-.02l-1.61-6.16h-.75l-1.64 6.16h-.02l-1.52-6.16h-.67l1.83 7.11h.74l1.64-6.28h.02l1.64 6.28h.73l1.86-7.11h-.69l-1.54 6.16zm5.29-6.16l-2.78 7.11h.69l.84-2.23h3.22l.81 2.23h.69l-2.71-7.11zm-1 4.31L157 137l1.38 3.74zm7.59-.88l-2.08-3.43h-.76l2.52 4.06v3.05h.67v-3.1l2.56-4.01h-.77l-2.14 3.43zm7.98.38a2.36 2.36 0 0 0-.65-.34c-.25-.09-.5-.16-.76-.23l-.78-.17a4.3 4.3 0 0 1-.69-.22 1.79 1.79 0 0 1-.53-.34 1 1 0 0 1-.27-.56 1 1 0 0 1 0-.55 1.19 1.19 0 0 1 .28-.5 1.44 1.44 0 0 1 .56-.37 2.12 2.12 0 0 1 .85-.15 2.32 2.32 0 0 1 .65.09 1.55 1.55 0 0 1 .56.28 1.22 1.22 0 0 1 .39.48 1.54 1.54 0 0 1 .14.7h.64a2.29 2.29 0 0 0-.15-.82 1.74 1.74 0 0 0-.44-.67 1.9 1.9 0 0 0-.74-.46 3.39 3.39 0 0 0-2.09 0 2.26 2.26 0 0 0-.75.42 1.79 1.79 0 0 0-.45.62 1.74 1.74 0 0 0-.15.71 1.71 1.71 0 0 0 .19.86 1.54 1.54 0 0 0 .48.56 2.49 2.49 0 0 0 .69.35c.26.08.52.16.79.22l.8.19a3.1 3.1 0 0 1 .69.26 1.4 1.4 0 0 1 .48.42 1.09 1.09 0 0 1 .19.67 1.56 1.56 0 0 1-.1.57 1.36 1.36 0 0 1-.32.47 1.68 1.68 0 0 1-.56.32 2.49 2.49 0 0 1-.82.12 2.57 2.57 0 0 1-.75-.1 1.59 1.59 0 0 1-1.07-.84 2.29 2.29 0 0 1-.21-.8h-.65a2.6 2.6 0 0 0 .19 1 2 2 0 0 0 .54.72 2.27 2.27 0 0 0 .81.44 3.75 3.75 0 0 0 1 .14 3 3 0 0 0 1.91-.54 1.88 1.88 0 0 0 .68-1.54 2 2 0 0 0-.17-.85 1.69 1.69 0 0 0-.41-.56zm3.95-3.24h2.24v6.54h.66v-6.54h2.24v-.57h-5.14v.57zm11.57.33a3 3 0 0 0-1-.8 3.44 3.44 0 0 0-1.45-.29 3.1 3.1 0 0 0-1.4.3 2.78 2.78 0 0 0-1 .8 3.48 3.48 0 0 0-.63 1.19 5 5 0 0 0-.21 1.47 4.82 4.82 0 0 0 .21 1.44 3.46 3.46 0 0 0 .62 1.19 2.81 2.81 0 0 0 1 .8 3.23 3.23 0 0 0 1.43.3 3.28 3.28 0 0 0 1.44-.3 2.9 2.9 0 0 0 1-.8 3.64 3.64 0 0 0 .62-1.19 4.82 4.82 0 0 0 .21-1.44 5 5 0 0 0-.21-1.47 3.44 3.44 0 0 0-.63-1.2zm0 3.86a3 3 0 0 1-.47 1 2.26 2.26 0 0 1-.81.69 2.46 2.46 0 0 1-1.19.27 2.58 2.58 0 0 1-1.19-.26 2.38 2.38 0 0 1-.82-.69 3 3 0 0 1-.47-1 4.88 4.88 0 0 1 0-2.4 3 3 0 0 1 .47-1 2.44 2.44 0 0 1 .82-.71 2.41 2.41 0 0 1 1.17-.27 2.73 2.73 0 0 1 1.1.22 2.38 2.38 0 0 1 .84.63 2.84 2.84 0 0 1 .52 1 4.49 4.49 0 0 1 .19 1.33 4.68 4.68 0 0 1-.14 1.19zm9.04-.95a2.23 2.23 0 0 0-.65-.34c-.24-.09-.5-.16-.76-.23l-.77-.17a4.3 4.3 0 0 1-.69-.22 1.67 1.67 0 0 1-.53-.34.94.94 0 0 1-.28-.56 1.29 1.29 0 0 1 0-.55 1.22 1.22 0 0 1 .29-.5 1.4 1.4 0 0 1 .55-.37 2.17 2.17 0 0 1 .86-.15 2.37 2.37 0 0 1 .65.09 1.64 1.64 0 0 1 .56.28 1.42 1.42 0 0 1 .39.48 1.68 1.68 0 0 1 .14.7h.64a2.29 2.29 0 0 0-.15-.82 2 2 0 0 0-.44-.67 2.06 2.06 0 0 0-.74-.46 3.39 3.39 0 0 0-2.09 0 2.26 2.26 0 0 0-.75.42 1.79 1.79 0 0 0-.45.62 1.6 1.6 0 0 0-.16.71 1.82 1.82 0 0 0 .19.86 1.57 1.57 0 0 0 .49.56 2.43 2.43 0 0 0 .68.35c.26.08.53.16.8.22l.79.19a3.1 3.1 0 0 1 .69.26 1.54 1.54 0 0 1 .49.42 1.15 1.15 0 0 1 .18.67 1.56 1.56 0 0 1-.1.57 1.23 1.23 0 0 1-.32.47 1.59 1.59 0 0 1-.56.32 2.47 2.47 0 0 1-.81.12 2.68 2.68 0 0 1-.76-.1 1.7 1.7 0 0 1-.62-.3 1.56 1.56 0 0 1-.44-.54 2.09 2.09 0 0 1-.22-.8h-.64a2.43 2.43 0 0 0 .19 1 1.93 1.93 0 0 0 .53.72 2.23 2.23 0 0 0 .82.44 3.64 3.64 0 0 0 1 .14 3 3 0 0 0 1.91-.54 1.88 1.88 0 0 0 .67-1.54 1.82 1.82 0 0 0-.17-.85 1.58 1.58 0 0 0-.41-.56zm6.68.43a4.41 4.41 0 0 1-.11 1.09 2 2 0 0 1-.35.78 1.43 1.43 0 0 1-.64.46 2.56 2.56 0 0 1-1 .16 2 2 0 0 1-1.58-.59 2.91 2.91 0 0 1-.49-1.9v-4.24h-.67v4.43a3.07 3.07 0 0 0 .68 2.12 2.64 2.64 0 0 0 2.06.75 2.69 2.69 0 0 0 2.06-.74 3 3 0 0 0 .68-2.13v-4.43h-.67zm7.07 1.36a2.67 2.67 0 0 1-.47.62 2.31 2.31 0 0 1-.65.41 2.23 2.23 0 0 1-.83.15 2.46 2.46 0 0 1-1.21-.28 2.13 2.13 0 0 1-.76-.73 3.08 3.08 0 0 1-.41-1 5.64 5.64 0 0 1-.12-1.16 4.72 4.72 0 0 1 .14-1.21 3 3 0 0 1 .44-1 2.19 2.19 0 0 1 .76-.69 2.26 2.26 0 0 1 1.1-.26 2.5 2.5 0 0 1 1.46.39 2 2 0 0 1 .77 1.29h.69a3.08 3.08 0 0 0-.32-1 2.26 2.26 0 0 0-.59-.71 2.52 2.52 0 0 0-.83-.43 3.55 3.55 0 0 0-1-.14 4.23 4.23 0 0 0-1.31.2 2.72 2.72 0 0 0-1 .66 3.14 3.14 0 0 0-.69 1.16 5.14 5.14 0 0 0-.25 1.73 6 6 0 0 0 .16 1.43 3.5 3.5 0 0 0 .54 1.19 2.6 2.6 0 0 0 .95.82 3 3 0 0 0 1.39.3 3.62 3.62 0 0 0 1.24-.2 2.85 2.85 0 0 0 .89-.55 2.82 2.82 0 0 0 .59-.81 4.48 4.48 0 0 0 .35-1h-.7a3.3 3.3 0 0 1-.33.82zm7.09 0a2.42 2.42 0 0 1-.47.62 2.17 2.17 0 0 1-.65.41 2.23 2.23 0 0 1-.83.15 2.46 2.46 0 0 1-1.21-.28 2.13 2.13 0 0 1-.76-.73 3.08 3.08 0 0 1-.41-1 5.64 5.64 0 0 1-.12-1.16 4.72 4.72 0 0 1 .14-1.21 3 3 0 0 1 .44-1 2.19 2.19 0 0 1 .76-.69 2.26 2.26 0 0 1 1.1-.26 2.55 2.55 0 0 1 1.47.39 2.07 2.07 0 0 1 .76 1.29h.69a3.08 3.08 0 0 0-.32-1 2.26 2.26 0 0 0-.59-.71 2.57 2.57 0 0 0-.82-.43 3.68 3.68 0 0 0-1-.14 4.23 4.23 0 0 0-1.31.2 2.72 2.72 0 0 0-1 .66 3.14 3.14 0 0 0-.69 1.16 5.14 5.14 0 0 0-.25 1.73 5.55 5.55 0 0 0 .17 1.43 3.49 3.49 0 0 0 .53 1.19 2.6 2.6 0 0 0 1 .82 3 3 0 0 0 1.39.3 3.54 3.54 0 0 0 1.24-.2 2.85 2.85 0 0 0 .89-.55 2.64 2.64 0 0 0 .59-.81 4.48 4.48 0 0 0 .35-1h-.7a2.92 2.92 0 0 1-.39.82zm2.96-1.89h3.65v-.57h-3.65v-2.57h4.04v-.57h-4.71v7.11h4.81v-.57h-4.14v-2.83zm9.48.1a2.36 2.36 0 0 0-.65-.34c-.25-.09-.5-.16-.76-.23l-.78-.17a4.3 4.3 0 0 1-.69-.22 1.79 1.79 0 0 1-.53-.34 1 1 0 0 1-.27-.56 1 1 0 0 1 0-.55 1.19 1.19 0 0 1 .28-.5 1.44 1.44 0 0 1 .56-.37 2.14 2.14 0 0 1 .86-.15 2.3 2.3 0 0 1 .64.09 1.55 1.55 0 0 1 .56.28 1.22 1.22 0 0 1 .39.48 1.54 1.54 0 0 1 .14.7h.64a2.52 2.52 0 0 0-.14-.82 2 2 0 0 0-1.19-1.13 3 3 0 0 0-1-.17 3.09 3.09 0 0 0-1.05.16 2.26 2.26 0 0 0-.75.42 1.79 1.79 0 0 0-.45.62 1.74 1.74 0 0 0-.15.71 1.71 1.71 0 0 0 .19.86 1.54 1.54 0 0 0 .48.56 2.49 2.49 0 0 0 .69.35c.26.08.52.16.8.22l.79.19a3.1 3.1 0 0 1 .69.26 1.4 1.4 0 0 1 .48.42 1.09 1.09 0 0 1 .19.67 1.56 1.56 0 0 1-.1.57 1.36 1.36 0 0 1-.32.47 1.68 1.68 0 0 1-.56.32 2.49 2.49 0 0 1-.82.12 2.57 2.57 0 0 1-.75-.1 1.59 1.59 0 0 1-1.07-.84 2.29 2.29 0 0 1-.21-.8h-.65a2.6 2.6 0 0 0 .19 1 2 2 0 0 0 .54.72 2.27 2.27 0 0 0 .81.44 3.77 3.77 0 0 0 1 .14 3 3 0 0 0 1.9-.54 1.88 1.88 0 0 0 .68-1.54 2 2 0 0 0-.17-.85 1.69 1.69 0 0 0-.44-.55zm6.46.56a1.69 1.69 0 0 0-.46-.56 2.36 2.36 0 0 0-.65-.34c-.25-.09-.5-.16-.76-.23l-.77-.17a4.12 4.12 0 0 1-.7-.22 1.79 1.79 0 0 1-.53-.34 1 1 0 0 1-.27-.56 1.15 1.15 0 0 1 0-.55 1.19 1.19 0 0 1 .28-.5 1.44 1.44 0 0 1 .56-.37 2.17 2.17 0 0 1 .86-.15 2.25 2.25 0 0 1 .64.09 1.55 1.55 0 0 1 .56.28 1.22 1.22 0 0 1 .39.48 1.54 1.54 0 0 1 .14.7h.64a2.52 2.52 0 0 0-.14-.82 2 2 0 0 0-1.19-1.13 3.36 3.36 0 0 0-2.08 0 2.21 2.21 0 0 0-.76.42 1.79 1.79 0 0 0-.45.62 1.74 1.74 0 0 0-.15.71 1.71 1.71 0 0 0 .19.86 1.54 1.54 0 0 0 .48.56 2.49 2.49 0 0 0 .69.35c.26.08.52.16.8.22l.79.19a3.1 3.1 0 0 1 .69.26 1.54 1.54 0 0 1 .49.42 1.15 1.15 0 0 1 .18.67 1.56 1.56 0 0 1-.1.57 1.36 1.36 0 0 1-.32.47 1.59 1.59 0 0 1-.56.32 2.49 2.49 0 0 1-.82.12 2.61 2.61 0 0 1-.75-.1 1.59 1.59 0 0 1-1.07-.84 2.29 2.29 0 0 1-.21-.8h-.65a2.6 2.6 0 0 0 .19 1 2 2 0 0 0 .54.72 2.27 2.27 0 0 0 .81.44 3.77 3.77 0 0 0 1 .14 3 3 0 0 0 1.9-.54 1.88 1.88 0 0 0 .68-1.54 2 2 0 0 0-.11-.85z" class="cls-1"/><path d="M82.68 161.94h.01-.01z" class="cls-2"/><path d="M80.59 149.88c0-.24-12.63-81.22 22.81-144.9-29.58 19.35-46.66 51.18-49.66 70.69 8.86 24.68 21.19 48.33 26.85 74.21z" class="cls-1"/><path d="M82.69 161.93q-.78-6.09-2.09-12c-.45-.46-32.34-30.82-26.85-74.21a183.42 183.42 0 0 1-7.85-27.83c-12.44 20-14.59 38-11.37 53.44 12.41 13.48 30.33 32.16 48.16 60.6z" class="cls-3"/><path d="M34.52 101.29c-6.13-6.68-10.91-12.09-13.68-16.81 0 0-7.27 31 9.77 53.8a146.14 146.14 0 0 1 38.86 22 107.54 107.54 0 0 0 13.2 1.62c-.41-.2-40.28-22.9-48.15-60.61z" class="cls-4"/><path d="M82.69 161.93c-17.83-28.44-35.75-47.12-48.17-60.65 7.87 37.72 47.74 60.42 48.16 60.66z" class="cls-1"/><path d="M30.62 138.29c-13.39-5-22.19-5.7-22.19-5.7s8 37.7 61.07 27.74c-19.36-3.65-31.43-12.07-38.88-22.04z" class="cls-5"/><path d="M30.63 138.29l-.01-.01.01.01-.01-.01h-.01v.01h.02zm38.85 22.02h-.01l.02.01-.01-.01z" class="cls-5"/><path d="M82.69 161.94h-.01.01zm-2.1-12.06zm-49.97-11.6c7.45 10 19.52 18.39 38.85 22a146.14 146.14 0 0 0-38.86-22z" class="cls-3"/><path d="M80.59 149.89c-5.66-25.88-18-49.53-26.84-74.21-5.49 43.39 26.4 73.75 26.85 74.21z" class="cls-4"/><path d="M100.65 46c-2.65-6.19-5.76-11-9.13-14.43q-.94 2.66-1.8 5.33l1.07-.56c.93-.49 1.89-.63 2.13-.32a1.77 1.77 0 0 1-.83 2.07l-1.09.57-2.19 1.14c-.14.48-.29 1-.43 1.42L91 42.55l6.09 3.08a5.14 5.14 0 0 1 2.17 2c.25.6.12 1.86-.81 1.39l-10.74-5.48c-.18.63-.36 1.25-.53 1.87l11.19 5.65c.94.47.84.87-.21.88h-2.63a9.36 9.36 0 0 1-3.61-.85l-5.52-2.76c-.17.63-.32 1.26-.48 1.9l1.82.91c.94.48.85.87-.2.88h-2.07L85 54l6.24-.05h8.4c1 0 2.06.44 2.23 1l.16.52c.1.34.21.68.31 1l.24.85c.16.54.31 1.09.45 1.64l.07.24c.07.26-.73.48-1.78.49h-9.4l-8.19.07c-.13.64-.26 1.27-.38 1.91h4.88c1 0 1.14.39.21.87l-5.82 3.06c-.15.79-.29 1.59-.42 2.37l1.54-.8 8.88-4.66a9.37 9.37 0 0 1 3.6-.9h4.54c1 0 1.15.39.22.88L81.46 72.63q-.28 1.92-.54 3.81a3 3 0 0 1 .45.15L101 86.51c.94.47.85.86-.2.87h-4.91a9.18 9.18 0 0 1-3.61-.85l-8.43-4.25-2.75-1.39a2.36 2.36 0 0 0-.75-.18c-.09.78-.18 1.55-.26 2.32a3.88 3.88 0 0 1 1.68.34l6.33 3.2c.94.47.85.86-.2.87l-8.27.07c-.06.64-.11 1.27-.17 1.91l12.16-.1h13.8a2 2 0 0 1 2 1.89v3.98c0 .79-.87 1.44-1.92 1.45H88.18l-9.2.07c0 .64-.07 1.28-.11 1.92h5.61c1 0 1.15.39.22.87l-3.23 1.69a4.2 4.2 0 0 1-2.73.25c0 .74-.07 1.48-.09 2.21h.1a2.58 2.58 0 0 0 2.09 0l2.73-1.43 5.3-2.78a9.37 9.37 0 0 1 3.6-.9h4.54c1 0 1.15.39.22.88l-16.07 8.42a4.13 4.13 0 0 1-2.64.28c0 1.15 0 2.29-.06 3.41a4.28 4.28 0 0 1 2.73.21L101.4 122c.93.47.84.86-.21.87h-4.91a9.39 9.39 0 0 1-3.61-.84l-9-4.56c-.94-.47-2.18-1.09-2.75-1.39a2.58 2.58 0 0 0-2.09 0l-.41.21v2.19a4.23 4.23 0 0 1 3.15.06l6.92 3.5c.94.47.85.87-.2.87l-9.78.08c0 .65 0 1.28.06 1.91l13.45-.1h10.61c1.05 0 1.86.23 1.79.54v.27c-.16.72-.33 1.43-.5 2.14 0 .1 0 .21-.07.31-.13.54-.26 1.06-.4 1.59l-.09.33c-.09.37-1 .67-2.08.68h-8.51l-13.89.11c0 .65.07 1.28.11 1.91l10.01-.07c1 0 1.15.38.22.87l-7.63 4a4.1 4.1 0 0 1-2.31.32c.06.82.13 1.61.2 2.36A2.52 2.52 0 0 0 81 140l2.73-1.43 9.71-5.09a9.38 9.38 0 0 1 3.6-.91h3c1 0 1.15.39.22.87L81.82 143a3.89 3.89 0 0 1-2 .34c.12 1.24.24 2.31.35 3.21a3.81 3.81 0 0 1 1.69.35l9.63 4.86c.94.47 1.4 1.24 1 1.7a3.44 3.44 0 0 1-3.1.71l-5.54-2.8-2.74-1.37a2 2 0 0 0-.51-.17v.05c.17.78.33 1.57.49 2.36a2.48 2.48 0 0 1 .68.23l6.13 3.09a1 1 0 0 1 .1 1.89 21.27 21.27 0 0 1-5.58 2.55c.09.65.19 1.3.27 2 7.19-1.15 13.77-8.22 18.71-20.22 5.28-12.84 8.11-29.85 8-47.91s-3.27-35.1-8.75-47.87zm-4.81-3.18l-2.73-1.38c-.94-.47-1-1.26 0-1.74a2 2 0 0 1 2.62.68c.54.86 1.05 2.94.11 2.46zm9.67 27.72l1.12 8.55c.12 1-.55 1.52-1.49 1l-9.41-4.69c-.94-.47-1-1.26 0-1.74l7.81-4.1a1.29 1.29 0 0 1 1.97 1zm1.58 16.77a14.22 14.22 0 0 1-1.89-.86l-21.75-11c-.94-.47-.94-1.26 0-1.75l18.92-9.92c.93-.49 1.82-.33 2 .36s-.25 2.92-1.18 3.41l-9.53 5L90.89 74c-.58.3-.57.78 0 1.07l2.76 1.39 11.67 5.89a3.3 3.3 0 0 1 1.8 2.22 15.07 15.07 0 0 1-.03 2.76zm-8.34 55.79l-1 2.19a1.91 1.91 0 0 1-2.57.84l-.71-.36c-.94-.47-.94-1.26 0-1.74l3.4-1.79c.89-.49 1.31-.1.88.86zm2.77-7.12a9.21 9.21 0 0 1-2.61 3.54L92.33 143l-2.73 1.4c-.57.3-.57.78 0 1.08l2.75 1.39 1.85.92c.93.48 1.47 1.24 1.18 1.7a2.74 2.74 0 0 1-2.76.74l-8.7-4.4c-.94-.47-1-1.25 0-1.74l16.36-8.58c.92-.51 1.48-.28 1.24.49zm4.77-22a1.25 1.25 0 0 1-1.93 1l-8.86-4.47c-.94-.47-.94-1.26 0-1.74l10.1-5.3c.93-.49 1.63 0 1.56 1zm-.61-12.69l-12.29 6.45-2.73 1.43c-.57.3-.57.78 0 1.07s1.81.92 2.75 1.39l10.66 5.37a2.45 2.45 0 0 1 1.5 2.14c-.12.71-1.21 2.15-2.14 1.68l-20.2-10.19c-.94-.47-1-1.26 0-1.75l18.16-9.52a9.37 9.37 0 0 1 3.6-.9h.54a2 2 0 0 1 1.88 1.28c-.03.39-.79 1.08-1.73 1.57z" class="cls-1"/></svg>