<svg xmlns="http://www.w3.org/2000/svg" id="Layer_1" viewBox="0 0 549.69 221.46" width="549.69" height="221.46"><defs><style>.cls-1{fill:#0f1634}.cls-2{fill:none}.cls-3{fill:#252c64}.cls-4{fill:#78a6d8}.cls-5{fill:#bcd7f0}</style></defs><path d="M369.8 122.47a17.07 17.07 0 0 1-3.34-.31 5.74 5.74 0 0 1-2.8-1.38 7.57 7.57 0 0 1-2-3.07 16.15 16.15 0 0 1-.74-5.43v-8.17a16.52 16.52 0 0 1 .71-5.43 7.39 7.39 0 0 1 1.89-3.07 5.53 5.53 0 0 1 2.76-1.38 18 18 0 0 1 3.34-.31 32.57 32.57 0 0 1 3.44.17 21.65 21.65 0 0 1 3.45.71V86a40.1 40.1 0 0 0-8.44-.88 27 27 0 0 0-7.56 1 14.67 14.67 0 0 0-5.93 3.34 15.77 15.77 0 0 0-3.92 6.21 28.17 28.17 0 0 0-1.41 9.55v5.87a28.17 28.17 0 0 0 1.41 9.55 15.52 15.52 0 0 0 3.95 6.21 15 15 0 0 0 6 3.34 27.16 27.16 0 0 0 7.59 1c1.44 0 2.86-.07 4.28-.2a36 36 0 0 0 4.29-.68v-8.64a22.84 22.84 0 0 1-3.14.54 33.4 33.4 0 0 1-3.83.26zm35.66-20.85A10.8 10.8 0 0 0 401 99a19.64 19.64 0 0 0-5.8-.81 19.06 19.06 0 0 0-5.7.81 10.88 10.88 0 0 0-4.46 2.64 12.43 12.43 0 0 0-2.9 4.69 20.41 20.41 0 0 0-1 7v3.17a21.26 21.26 0 0 0 1 7 12 12 0 0 0 2.86 4.7 10.76 10.76 0 0 0 4.45 2.63 19.29 19.29 0 0 0 5.77.81 19.88 19.88 0 0 0 5.87-.81 10.51 10.51 0 0 0 4.45-2.63 12.26 12.26 0 0 0 2.84-4.72 21.52 21.52 0 0 0 1-7v-3.17a21.23 21.23 0 0 0-1-7 12 12 0 0 0-2.92-4.69zM399 115.79a20.4 20.4 0 0 1-.65 5.87c-.42 1.35-1.49 2-3.2 2s-2.82-.67-3.21-2a23 23 0 0 1-.57-5.87V114a20.47 20.47 0 0 1 .64-5.87c.43-1.35 1.52-2 3.28-2a3.75 3.75 0 0 1 2.05.5 2.85 2.85 0 0 1 1.12 1.52 10.17 10.17 0 0 1 .43 2.5c.07 1 .11 2.11.11 3.37zm15.94-30.1h10.19v45.01h-10.19zm16.4 0h10.19v45.01h-10.19zm38.02 15.59a10.49 10.49 0 0 0-3.95-2.36 14.43 14.43 0 0 0-4.65-.75 16.79 16.79 0 0 0-5.4.85 11.43 11.43 0 0 0-7.19 6.78 16 16 0 0 0-1 6v4.66c0 5 1.35 8.71 4.05 11.13s6.56 3.65 11.6 3.65c.5 0 1.1 0 1.82-.07s1.45-.1 2.2-.17 1.47-.14 2.19-.23a13.92 13.92 0 0 0 1.82-.34v-7.63a18.27 18.27 0 0 1-2.87.51 27.87 27.87 0 0 1-2.86.17 12.94 12.94 0 0 1-6.14-1.18 4.66 4.66 0 0 1-2.3-4.22h16.47v-6.28a17.25 17.25 0 0 0-1-6.3 11.18 11.18 0 0 0-2.79-4.22zm-12.79 10.46c0-2.3.37-3.83 1.12-4.59a3.79 3.79 0 0 1 2.87-1.15 3.39 3.39 0 0 1 2.73 1.15c.65.76 1 2.29 1 4.59zm39.61-9.92a8.09 8.09 0 0 0-7.55-3.65 10.86 10.86 0 0 0-4.19.81 8.68 8.68 0 0 0-3.41 2.6 13.44 13.44 0 0 0-2.29 4.66 25.11 25.11 0 0 0-.84 7v2.23a27 27 0 0 0 .81 7.19 12.92 12.92 0 0 0 2.22 4.62 7.86 7.86 0 0 0 3.38 2.49 11.57 11.57 0 0 0 4.18.75 9.21 9.21 0 0 0 4.29-.88 11.77 11.77 0 0 0 3-2.3v2.37a13 13 0 0 1-.24 2.59 3.86 3.86 0 0 1-1 2 5.36 5.36 0 0 1-2.26 1.29 13.4 13.4 0 0 1-3.91.47 26.14 26.14 0 0 1-3.75-.3c-1.37-.21-2.51-.4-3.41-.58v8a18.56 18.56 0 0 0 1.93.37 48.85 48.85 0 0 0 4.58.51c.74.05 1.39.07 1.93.07a24.79 24.79 0 0 0 7.83-1 11.5 11.5 0 0 0 4.92-3 11.15 11.15 0 0 0 2.57-4.89 27 27 0 0 0 .74-6.61V99h-8.84zm-.4 14.51a16.53 16.53 0 0 1-.14 2.12 5.78 5.78 0 0 1-.54 1.86 3.46 3.46 0 0 1-1.11 1.31 3.1 3.1 0 0 1-1.86.51 3.19 3.19 0 0 1-3-1.55q-.89-1.56-.88-5.4v-1.69a11.27 11.27 0 0 1 .95-5.16 3.23 3.23 0 0 1 3.1-1.79 3.15 3.15 0 0 1 1.86.51 3.19 3.19 0 0 1 1.07 1.31 5.77 5.77 0 0 1 .48 1.86c.06.7.1 1.41.1 2.12zm41.5-4.53a17.25 17.25 0 0 0-1-6.3 11.18 11.18 0 0 0-2.73-4.22 10.49 10.49 0 0 0-3.95-2.36 14.43 14.43 0 0 0-4.65-.75 16.79 16.79 0 0 0-5.4.85 11.43 11.43 0 0 0-7.19 6.78 16 16 0 0 0-1 6v4.66c0 5 1.35 8.71 4.05 11.13s6.56 3.65 11.6 3.65c.5 0 1.1 0 1.82-.07s1.46-.1 2.2-.17 1.47-.14 2.19-.23a13.92 13.92 0 0 0 1.82-.34v-7.63a18.27 18.27 0 0 1-2.87.51 27.87 27.87 0 0 1-2.86.17 12.94 12.94 0 0 1-6.14-1.18 4.66 4.66 0 0 1-2.3-4.22h16.47zm-16.54-.06c0-2.3.38-3.83 1.12-4.59a3.8 3.8 0 0 1 2.87-1.15 3.39 3.39 0 0 1 2.73 1.15c.65.76 1 2.29 1 4.59zm-349.21 30.17a4.91 4.91 0 0 0-1.93-1.18 9.37 9.37 0 0 0-3.1-.43h-7v19.28h1.82v-8.51h4.13a14.87 14.87 0 0 0 2.66-.24 7.33 7.33 0 0 0 2.37-.85 4.85 4.85 0 0 0 1.7-1.64 4.9 4.9 0 0 0 .66-2.66 7.61 7.61 0 0 0-.28-2 4.17 4.17 0 0 0-1.03-1.77zm-.94 5.64a3 3 0 0 1-1.1 1.2 4.37 4.37 0 0 1-1.73.6 14.47 14.47 0 0 1-2.3.16h-4.18v-7.65H166a6.14 6.14 0 0 1 3.78.93 3.3 3.3 0 0 1 1.2 2.76 4.42 4.42 0 0 1-.39 2zm11.12-7.25l-7.57 19.28H176l2.28-6.05h8.78l2.22 6.05h1.88l-7.39-19.28zM178.9 152l3.78-10.12 3.77 10.12zm13.13-10.15h6.1v17.73h1.82v-17.73h6.11v-1.55h-14.03v1.55zm29.83 6.73h-11.41v-8.28h-1.82v19.28h1.82v-9.45h11.41v9.45h1.82V140.3h-1.82v8.28zm21.32 8.43h-.06l-4.39-16.71h-2.04l-4.47 16.71h-.05l-4.15-16.71h-1.82l4.98 19.28h2.01l4.47-17.03h.05l4.48 17.03h2l5.06-19.28h-1.87l-4.2 16.71zm14.43-16.71L250 159.58h1.87l2.28-6.05H263l2.22 6.05h1.87l-7.39-19.28zM254.8 152l3.77-10.12 3.78 10.12zm20.78-2.41l-5.68-9.29h-2.09l6.88 11.01v8.27h1.82v-8.4l7-10.88h-2.12l-5.81 9.29zm21.74 1.05a6.28 6.28 0 0 0-1.78-.94q-1-.34-2.07-.6l-2.11-.48a10.91 10.91 0 0 1-1.88-.59 4.64 4.64 0 0 1-1.45-.93 2.62 2.62 0 0 1-.75-1.5 3.27 3.27 0 0 1 .08-1.49 3.32 3.32 0 0 1 .78-1.37 4.12 4.12 0 0 1 1.51-1 6.41 6.41 0 0 1 2.34-.38 6.52 6.52 0 0 1 1.77.24 4.55 4.55 0 0 1 1.53.75 3.61 3.61 0 0 1 1.06 1.31 4.47 4.47 0 0 1 .38 1.9h1.74a6.07 6.07 0 0 0-.4-2.22 5.1 5.1 0 0 0-1.2-1.84 5.75 5.75 0 0 0-2-1.24 8.29 8.29 0 0 0-2.86-.46 8.72 8.72 0 0 0-2.83.43 6 6 0 0 0-2.05 1.15 4.76 4.76 0 0 0-1.23 1.66 4.7 4.7 0 0 0-.42 1.93 4.84 4.84 0 0 0 .51 2.35 4.59 4.59 0 0 0 1.32 1.51 7.19 7.19 0 0 0 1.88.94c.7.23 1.43.43 2.17.6l2.17.52a8.37 8.37 0 0 1 1.87.71 3.79 3.79 0 0 1 1.33 1.14 3 3 0 0 1 .51 1.82 4.2 4.2 0 0 1-.29 1.53 3.29 3.29 0 0 1-.87 1.27 4.37 4.37 0 0 1-1.52.87 7 7 0 0 1-2.22.32 8.09 8.09 0 0 1-2.07-.26 4.7 4.7 0 0 1-1.7-.81 4.32 4.32 0 0 1-1.2-1.46 5.76 5.76 0 0 1-.58-2.18H285a6.63 6.63 0 0 0 .53 2.74 5.39 5.39 0 0 0 1.46 2 6 6 0 0 0 2.22 1.17 9.53 9.53 0 0 0 2.78.39 8.15 8.15 0 0 0 5.2-1.47 5 5 0 0 0 1.85-4.15 5.15 5.15 0 0 0-.47-2.32 4.3 4.3 0 0 0-1.25-1.56zm10.77-8.79h6.1v17.73h1.83v-17.73h6.1v-1.55h-14.03v1.55zm31.56.9a8.07 8.07 0 0 0-2.84-2.17 9.37 9.37 0 0 0-3.95-.79 8.63 8.63 0 0 0-3.83.81 8 8 0 0 0-2.78 2.18 9.41 9.41 0 0 0-1.7 3.23 13 13 0 0 0-.58 4 13.46 13.46 0 0 0 .56 3.92 9.43 9.43 0 0 0 1.69 3.22 8.1 8.1 0 0 0 2.81 2.18 10 10 0 0 0 7.82 0 8 8 0 0 0 2.81-2.18 9.45 9.45 0 0 0 1.7-3.22 12.82 12.82 0 0 0 .58-3.92 13.21 13.21 0 0 0-.58-4 9.3 9.3 0 0 0-1.71-3.26zm.05 10.46a7.82 7.82 0 0 1-1.28 2.73 6.31 6.31 0 0 1-2.23 1.89 6.86 6.86 0 0 1-3.22.71 7 7 0 0 1-3.26-.7 6.31 6.31 0 0 1-2.22-1.87 8 8 0 0 1-1.28-2.73 12.53 12.53 0 0 1-.42-3.27 12.35 12.35 0 0 1 .42-3.24 8.09 8.09 0 0 1 1.28-2.75 6.53 6.53 0 0 1 2.22-1.91 6.75 6.75 0 0 1 3.2-.72 7.24 7.24 0 0 1 3 .59 6.1 6.1 0 0 1 2.28 1.71 7.92 7.92 0 0 1 1.43 2.72 12.09 12.09 0 0 1 .5 3.6 12.35 12.35 0 0 1-.42 3.24zm24.6-2.57a6.42 6.42 0 0 0-1.78-.94c-.67-.23-1.36-.43-2.08-.6l-2.1-.48a11 11 0 0 1-1.89-.59 4.59 4.59 0 0 1-1.44-.93 2.56 2.56 0 0 1-.75-1.5 3.27 3.27 0 0 1 .08-1.49 3.32 3.32 0 0 1 .78-1.37 4 4 0 0 1 1.51-1 6.37 6.37 0 0 1 2.34-.38 6.52 6.52 0 0 1 1.77.24 4.55 4.55 0 0 1 1.53.75 3.59 3.59 0 0 1 1.05 1.31 4.33 4.33 0 0 1 .39 1.9h1.74a6.07 6.07 0 0 0-.4-2.22 5.24 5.24 0 0 0-1.2-1.84 5.71 5.71 0 0 0-2-1.24 8.19 8.19 0 0 0-2.85-.46 8.79 8.79 0 0 0-2.84.43 6.23 6.23 0 0 0-2.05 1.15 5 5 0 0 0-1.23 1.66 4.68 4.68 0 0 0-.41 1.93 4.84 4.84 0 0 0 .51 2.35 4.48 4.48 0 0 0 1.32 1.51 7.19 7.19 0 0 0 1.88.94c.7.23 1.42.43 2.17.6s1.46.34 2.16.52a8.46 8.46 0 0 1 1.88.71 3.88 3.88 0 0 1 1.33 1.14 3.06 3.06 0 0 1 .5 1.82 4.19 4.19 0 0 1-.28 1.53 3.4 3.4 0 0 1-.87 1.27 4.37 4.37 0 0 1-1.52.87 7 7 0 0 1-2.23.32 8 8 0 0 1-2.06-.26 4.7 4.7 0 0 1-1.7-.81 4.32 4.32 0 0 1-1.2-1.46 5.58 5.58 0 0 1-.58-2.18H352a6.8 6.8 0 0 0 .52 2.74 5.51 5.51 0 0 0 1.46 2 6.17 6.17 0 0 0 2.23 1.17 9.48 9.48 0 0 0 2.78.39 8.17 8.17 0 0 0 5.2-1.47 5 5 0 0 0 1.84-4.15 5.16 5.16 0 0 0-.46-2.32 4.41 4.41 0 0 0-1.27-1.56zm18.21 1.15a13.57 13.57 0 0 1-.29 3 5.34 5.34 0 0 1-1 2.11 3.94 3.94 0 0 1-1.75 1.25 7.31 7.31 0 0 1-2.64.42 5.36 5.36 0 0 1-4.31-1.58c-.89-1.05-1.34-2.78-1.34-5.17V140.3h-1.82v12a8.19 8.19 0 0 0 1.85 5.73q1.85 2 5.62 2t5.61-2a8.17 8.17 0 0 0 1.86-5.77v-12h-1.82zm19.27 3.56a6.53 6.53 0 0 1-1.29 1.68 5.7 5.7 0 0 1-1.78 1.11 6.25 6.25 0 0 1-2.25.4 6.54 6.54 0 0 1-3.29-.75 5.91 5.91 0 0 1-2.09-2 8.22 8.22 0 0 1-1.11-2.77 14.56 14.56 0 0 1-.34-3.16 13.15 13.15 0 0 1 .39-3.25 8.12 8.12 0 0 1 1.21-2.72 6 6 0 0 1 2.07-1.89 6.16 6.16 0 0 1 3-.69 6.92 6.92 0 0 1 4 1 5.51 5.51 0 0 1 2.09 3.51h1.88a8.29 8.29 0 0 0-.87-2.64 6.23 6.23 0 0 0-1.61-1.91 6.7 6.7 0 0 0-2.25-1.17 9.33 9.33 0 0 0-2.75-.39 11.3 11.3 0 0 0-3.56.55 7.26 7.26 0 0 0-2.84 1.77 8.29 8.29 0 0 0-1.88 3.15 13.92 13.92 0 0 0-.69 4.68 15.79 15.79 0 0 0 .46 3.9 9.25 9.25 0 0 0 1.46 3.23 7.38 7.38 0 0 0 2.58 2.21 8.26 8.26 0 0 0 3.8.81 9.34 9.34 0 0 0 3.37-.55 7.24 7.24 0 0 0 4-3.67 11.75 11.75 0 0 0 .94-2.63h-1.9a8.44 8.44 0 0 1-.75 2.19zm19.33 0a6.28 6.28 0 0 1-1.28 1.68 5.7 5.7 0 0 1-1.78 1.11 6.25 6.25 0 0 1-2.25.4 6.6 6.6 0 0 1-3.3-.75 6 6 0 0 1-2.09-2 8.65 8.65 0 0 1-1.11-2.77 15.2 15.2 0 0 1-.33-3.16 13.15 13.15 0 0 1 .39-3.25 8.31 8.31 0 0 1 1.2-2.72 5.84 5.84 0 0 1 5.08-2.57 6.92 6.92 0 0 1 4 1 5.59 5.59 0 0 1 2.09 3.51h1.87a8 8 0 0 0-.87-2.64 6.23 6.23 0 0 0-1.61-1.91 6.7 6.7 0 0 0-2.25-1.17 9.26 9.26 0 0 0-2.74-.39 11.26 11.26 0 0 0-3.56.55 7.18 7.18 0 0 0-2.84 1.77 8.44 8.44 0 0 0-1.89 3.15 14.19 14.19 0 0 0-.68 4.68 16.29 16.29 0 0 0 .45 3.9 9.44 9.44 0 0 0 1.46 3.23 7.33 7.33 0 0 0 2.59 2.21 8.23 8.23 0 0 0 3.8.81 9.24 9.24 0 0 0 3.36-.55 7.35 7.35 0 0 0 2.44-1.48 7.47 7.47 0 0 0 1.62-2.19 11.73 11.73 0 0 0 .93-2.63h-1.9a8.44 8.44 0 0 1-.8 2.18zm8.08-4.98h9.93v-1.55h-9.93v-6.97h11v-1.55h-12.82v19.28h13.09v-1.55h-11.27v-7.66zm25.81.27a6.42 6.42 0 0 0-1.78-.94c-.67-.23-1.36-.43-2.08-.6l-2.1-.48a10.75 10.75 0 0 1-1.89-.59 4.59 4.59 0 0 1-1.44-.93 2.51 2.51 0 0 1-.75-1.5 3.13 3.13 0 0 1 .08-1.49 3.41 3.41 0 0 1 .77-1.37 4.17 4.17 0 0 1 1.52-1 6.37 6.37 0 0 1 2.34-.38 6.52 6.52 0 0 1 1.77.24 4.41 4.41 0 0 1 1.52.75 3.51 3.51 0 0 1 1.06 1.31 4.33 4.33 0 0 1 .39 1.9h1.74a6.07 6.07 0 0 0-.4-2.22 5.13 5.13 0 0 0-1.21-1.84 5.66 5.66 0 0 0-2-1.24 8.19 8.19 0 0 0-2.85-.46 8.79 8.79 0 0 0-2.84.43 6.23 6.23 0 0 0-2.05 1.15 5 5 0 0 0-1.23 1.66 4.68 4.68 0 0 0-.41 1.93 5 5 0 0 0 .5 2.35 4.62 4.62 0 0 0 1.33 1.51 7.13 7.13 0 0 0 1.87.94c.71.23 1.43.43 2.17.6s1.47.34 2.17.52a8.46 8.46 0 0 1 1.88.71 3.85 3.85 0 0 1 1.32 1.14 3 3 0 0 1 .51 1.82 4.19 4.19 0 0 1-.28 1.53 3.52 3.52 0 0 1-.87 1.27 4.33 4.33 0 0 1-1.53.87 6.94 6.94 0 0 1-2.22.32 8 8 0 0 1-2.06-.26 4.7 4.7 0 0 1-1.7-.81 4.47 4.47 0 0 1-1.21-1.46 5.76 5.76 0 0 1-.57-2.18h-1.77a6.63 6.63 0 0 0 .52 2.74 5.51 5.51 0 0 0 1.46 2 6.17 6.17 0 0 0 2.23 1.17 9.48 9.48 0 0 0 2.78.39 8.19 8.19 0 0 0 5.2-1.47 5.71 5.71 0 0 0 1.37-6.47 4.27 4.27 0 0 0-1.26-1.56zm17.64 1.51a4.41 4.41 0 0 0-1.25-1.51 6.42 6.42 0 0 0-1.78-.94q-1-.34-2.07-.6l-2.11-.48a10.91 10.91 0 0 1-1.88-.59 4.52 4.52 0 0 1-1.45-.93 2.62 2.62 0 0 1-.75-1.5 3.27 3.27 0 0 1 .08-1.49 3.32 3.32 0 0 1 .78-1.37 4.12 4.12 0 0 1 1.51-1 6.37 6.37 0 0 1 2.34-.38 6.52 6.52 0 0 1 1.77.24 4.55 4.55 0 0 1 1.53.75 3.49 3.49 0 0 1 1.05 1.31 4.33 4.33 0 0 1 .39 1.9h1.74a6.07 6.07 0 0 0-.4-2.22 5.24 5.24 0 0 0-1.2-1.84 5.71 5.71 0 0 0-2-1.24 8.19 8.19 0 0 0-2.85-.46 8.79 8.79 0 0 0-2.84.43 6.08 6.08 0 0 0-2 1.15 4.92 4.92 0 0 0-1.24 1.66 5.21 5.21 0 0 0 .1 4.28 4.59 4.59 0 0 0 1.32 1.51 7.19 7.19 0 0 0 1.88.94c.7.23 1.43.43 2.17.6l2.17.52a8.37 8.37 0 0 1 1.87.71 3.88 3.88 0 0 1 1.33 1.14 3.06 3.06 0 0 1 .5 1.82 4.19 4.19 0 0 1-.28 1.53 3.29 3.29 0 0 1-.87 1.27 4.37 4.37 0 0 1-1.52.87 7 7 0 0 1-2.23.32 8 8 0 0 1-2.06-.26 4.7 4.7 0 0 1-1.7-.81 4.32 4.32 0 0 1-1.2-1.46 5.58 5.58 0 0 1-.58-2.18h-1.77a6.63 6.63 0 0 0 .53 2.74 5.28 5.28 0 0 0 1.46 2 6 6 0 0 0 2.22 1.17 9.48 9.48 0 0 0 2.78.39 8.17 8.17 0 0 0 5.2-1.47 5 5 0 0 0 1.85-4.15 5.15 5.15 0 0 0-.54-2.37zm-302.61-39.32l11.89 18.94h12.72l-15.66-24.67 15.1-21.95h-12.3l-11.75 17.48V85.15h-10.76v46.62h10.76v-18.94zm54.45-13.91h-10.55v18.59a19 19 0 0 1-.11 2 6.12 6.12 0 0 1-.45 1.78 2.85 2.85 0 0 1-1 1.26 3 3 0 0 1-1.71.45 2.36 2.36 0 0 1-2.24-1.11 7.79 7.79 0 0 1-.62-3.57v-19.4h-10.58v22.86a15.51 15.51 0 0 0 .7 5 8.76 8.76 0 0 0 2 3.36 7.49 7.49 0 0 0 3 1.88 12.24 12.24 0 0 0 6.39.32 7.47 7.47 0 0 0 2-.8 10.55 10.55 0 0 0 1.6-1.19c.49-.44 1-1 1.51-1.51l.69 2.94h9.44zm26.52-.07a7.73 7.73 0 0 0-1.12-.21c-.42 0-.86-.07-1.33-.07a11.8 11.8 0 0 0-3.7.7 7.88 7.88 0 0 0-3.7 2.73l-.77-3.08h-9.44v32.85h10.55v-18.94q0-3 1.86-4.16a9.36 9.36 0 0 1 5-1.15 12.66 12.66 0 0 1 2.66.28zm15.14 14.33a19 19 0 0 1 .1-2 5.39 5.39 0 0 1 .49-1.78 3.19 3.19 0 0 1 1-1.26 3.13 3.13 0 0 1 1.78-.45 2.41 2.41 0 0 1 2.31 1.12 7.56 7.56 0 0 1 .63 3.56v19.43H283v-22.88a15 15 0 0 0-.73-5 9.16 9.16 0 0 0-2-3.36 7.35 7.35 0 0 0-3-1.88 11.2 11.2 0 0 0-3.74-.6 11.34 11.34 0 0 0-2.65.28 8 8 0 0 0-2 .81 11 11 0 0 0-1.68 1.18 19.67 19.67 0 0 0-1.53 1.51l-.7-2.94h-9.44v32.85h10.56zm48.57-.77a25.71 25.71 0 0 0-.63-6 9 9 0 0 0-2.37-4.36 11.16 11.16 0 0 0-4.79-2.66 28.3 28.3 0 0 0-7.92-.89c-.51 0-1.13 0-1.85.07s-1.48.12-2.27.21l-2.27.28a13.34 13.34 0 0 0-1.85.35v7.83q1.32-.28 3.18-.6a20.56 20.56 0 0 1 3.46-.31 17.9 17.9 0 0 1 3.88.35 6.22 6.22 0 0 1 2.34 1 3 3 0 0 1 1.12 1.53 7.17 7.17 0 0 1 .28 2v1.19a13.09 13.09 0 0 0-2.66-.84 17.44 17.44 0 0 0-3.28-.28 17.84 17.84 0 0 0-4.13.46 9.83 9.83 0 0 0-3.46 1.5 7.71 7.71 0 0 0-2.41 2.79 9.29 9.29 0 0 0-.91 4.34v1.82a13.11 13.11 0 0 0 .84 5.1 8 8 0 0 0 2.24 3.11 7.66 7.66 0 0 0 3.21 1.57 16.72 16.72 0 0 0 3.78.42 8.37 8.37 0 0 0 3.91-.84 11.7 11.7 0 0 0 3-2.31l.55 2.52h9zm-9.64 9.23a4.3 4.3 0 0 1-6.85 2.76 3.9 3.9 0 0 1-.84-2.76v-.49c0-1.49.38-2.48 1.15-3a5.75 5.75 0 0 1 3.11-.74 5.21 5.21 0 0 1 3.43 1zm16.07-36.49h10.55v9.51h-10.55zm0 13.77h10.55v32.85h-10.55z" class="cls-1"/><path d="M107.01 215.07l.01.01-.01-.01z" class="cls-2"/><path d="M104.23 199.06c0-.33-16.78-107.9 30.31-192.49-39.32 25.67-62 68-66 93.87 11.79 32.81 28.17 64.24 35.69 98.62z" class="cls-1"/><path d="M107 215.06c-.69-5.4-1.63-10.72-2.77-16-.59-.62-43-41-35.67-98.59a244.6 244.6 0 0 1-10.43-37C41.6 90.07 38.74 114 43 134.5c16.52 17.96 40.33 42.78 64 80.56z" class="cls-3"/><path d="M43 134.5c-8.13-8.87-14.49-16.07-18.17-22.33 0 0-9.65 41.12 13 71.47a194.1 194.1 0 0 1 51.63 29.26 147.85 147.85 0 0 0 17.54 2.18c-.55-.33-53.52-30.45-64-80.58z" class="cls-4"/><path d="M107 215.06c-23.69-37.78-47.5-62.6-64-80.57 10.45 50.13 63.42 80.25 64 80.57z" class="cls-1"/><path d="M37.85 183.66c-17.8-6.66-29.5-7.59-29.5-7.59S19 226.15 89.48 212.92c-25.7-4.83-41.74-16.02-51.63-29.26zm0 0zm51.62 29.25z" class="cls-5"/><path d="M107.02 215.07h-.01l.01.01v-.01zm-2.79-16.01zm-66.39-15.41c9.89 13.24 25.93 24.43 51.61 29.25a194.1 194.1 0 0 0-51.63-29.26z" class="cls-3"/><path d="M104.23 199.06c-7.52-34.38-23.9-65.81-35.66-98.6-7.29 57.64 35.08 98 35.67 98.59z" class="cls-4"/><path d="M130.88 61.07c-3.54-8.24-7.65-14.69-12.13-19.19-.83 2.35-1.63 4.72-2.39 7.08l1.42-.74c1.23-.65 2.51-.84 2.82-.43a2.33 2.33 0 0 1-1.1 2.75l-1.45.76-2.9 1.52-.57 1.88 3.51 1.77 8.1 4.09a6.88 6.88 0 0 1 2.88 2.6c.33.8.17 2.47-1.08 1.84l-14.31-7.21c-.23.83-.47 1.65-.7 2.48l14.87 7.5c1.24.63 1.12 1.16-.28 1.17h-3.49a12.5 12.5 0 0 1-4.81-1.13l-7.33-3.7-.63 2.52 2.42 1.23c1.24.62 1.12 1.15-.28 1.16h-2.74l-.6 2.54 8.3-.06h11.19c1.4 0 2.73.59 3 1.34l.21.69c.14.45.27.9.41 1.35s.22.75.32 1.13c.21.71.4 1.45.6 2.18l.08.32c.1.34-1 .64-2.36.65h-12.48l-10.88.08-.51 2.54h6.48c1.39 0 1.52.51.29 1.16L107 87c-.19 1-.38 2.11-.56 3.15l2-1.06 11.8-6.19a12.44 12.44 0 0 1 4.79-1.2h6c1.4 0 1.53.51.29 1.16l-25.93 13.57c-.26 1.7-.5 3.38-.72 5.06a3.84 3.84 0 0 1 .6.2l26.1 13.17c1.25.63 1.13 1.15-.27 1.16l-6.52.06a12.45 12.45 0 0 1-4.8-1.13l-11.19-5.64-3.66-1.85a3 3 0 0 0-1-.25c-.12 1-.24 2.06-.35 3.09a4.88 4.88 0 0 1 2.24.46l8.4 4.24c1.25.62 1.13 1.15-.27 1.16l-11 .08c-.08.86-.15 1.7-.23 2.54l16.16-.12h10.63l7.71-.06a2.62 2.62 0 0 1 2.61 2.52s0 1.49.07 3.53v1.8c0 1-1.16 1.91-2.55 1.92h-6.48l-6 .05h-10.63l-12.21.1-.15 2.53 7.45-.05c1.4 0 1.53.51.29 1.16l-4.28 2.24a5.67 5.67 0 0 1-3.64.33l-.12 2.93.14.07a3.41 3.41 0 0 0 2.78 0l3.62-1.91 7.05-3.69a12.4 12.4 0 0 1 4.78-1.2h6c1.4 0 1.53.51.29 1.16l-21.35 11.19a5.53 5.53 0 0 1-3.51.37c0 1.53-.06 3-.08 4.53a5.58 5.58 0 0 1 3.63.28L131.87 162c1.24.63 1.12 1.15-.27 1.16l-6.52.06a12.5 12.5 0 0 1-4.81-1.13l-12-6-3.66-1.85a3.39 3.39 0 0 0-2.77 0l-.54.28v2.91a5.64 5.64 0 0 1 4.18.08l9.2 4.65c1.24.62 1.12 1.15-.28 1.16l-13 .1c0 .86 0 1.7.08 2.54l17.86-.14h14.21c1.4 0 2.47.31 2.39.71l-.08.36c-.21 1-.43 1.9-.65 2.84l-.09.42-.54 2.11-.11.44c-.13.48-1.37.89-2.77.9h-11.33l-18.45.14c0 .87.09 1.71.14 2.54l13.4-.1c1.4 0 1.53.51.29 1.15l-10.14 5.32a5.45 5.45 0 0 1-3.07.42c.09 1.1.18 2.14.27 3.14a3.45 3.45 0 0 0 2-.25l3.63-1.91 12.9-6.76a12.4 12.4 0 0 1 4.78-1.2h3.93c1.39 0 1.52.51.29 1.16L105.86 190a5.28 5.28 0 0 1-2.67.46c.17 1.64.33 3.06.47 4.26a5 5 0 0 1 2.24.46l12.8 6.46c1.25.63 1.86 1.64 1.35 2.26s-2.87 1.57-4.12.94l-7.36-3.71-3.66-1.85a2.64 2.64 0 0 0-.67-.22v.07c.23 1 .44 2.09.65 3.13a4.06 4.06 0 0 1 .91.31l8.15 4.11a1.33 1.33 0 0 1 .13 2.51 28.68 28.68 0 0 1-7.43 3.29c.12.87.25 1.74.36 2.61 9.54-1.53 18.29-10.92 24.86-26.87 7-17.05 10.77-39.65 10.58-63.64S138.16 78 130.88 61.07zm-6.39-4.21L120.85 55c-1.24-.62-1.25-1.67 0-2.32h.07a2.64 2.64 0 0 1 3.47.9c.66 1.14 1.34 3.91.1 3.28zm12.84 36.82l1.5 11.36c.15 1.39-.74 2-2 1.38l-12.5-6.31c-1.25-.63-1.26-1.67 0-2.32l10.37-5.44a1.71 1.71 0 0 1 2.63 1.33zm2.1 22.28a20.18 20.18 0 0 1-2.51-1.14L108 100.24c-1.25-.63-1.25-1.67 0-2.32l25.14-13.19c1.24-.64 2.41-.43 2.61.48s-.32 3.88-1.56 4.53l-12.67 6.65-3.63 1.9c-.75.4-.75 1 0 1.43l3.65 1.84 15.51 7.83a4.37 4.37 0 0 1 2.39 2.94 19.1 19.1 0 0 1-.01 3.67zm-11.07 74.09L127 193a2.54 2.54 0 0 1-3.41 1.12l-.94-.47c-1.25-.63-1.25-1.67 0-2.32l4.53-2.38c1.19-.69 1.74-.18 1.18 1.1zm3.67-9.46c-.32 1-2.23 4-3.47 4.7l-8.73 4.58-3.63 1.9c-.76.4-.76 1 0 1.43l3.66 1.85 2.45 1.23c1.24.63 2 1.64 1.57 2.25s-2.42 1.61-3.67 1l-11.56-5.83c-1.25-.63-1.26-1.68 0-2.32L130.38 180c1.23-.69 1.98-.4 1.62.59zm6.33-29.21a1.65 1.65 0 0 1-2.55 1.38L124 146.82c-1.25-.63-1.26-1.67 0-2.32l13.42-7c1.24-.65 2.17 0 2.07 1.36zm-.79-16.85l-16.34 8.56-3.62 1.91c-.76.4-.76 1 0 1.42l3.66 1.85 14.14 7.14c1.25.63 2.14 1.91 2 2.85s-1.6 2.86-2.85 2.23L107.73 147c-1.25-.63-1.25-1.67 0-2.32l24.1-12.68a12.4 12.4 0 0 1 4.78-1.2h.73a2.68 2.68 0 0 1 2.5 1.71c-.02.49-1.04 1.37-2.27 2.02z" class="cls-1"/></svg>