<svg xmlns="http://www.w3.org/2000/svg" id="Layer_1" viewBox="0 0 150 150" width="150" height="150"><defs><style>.cls-1{fill:#fff}</style></defs><path d="M135 108.54v10.84c-.09 6.16-2.6 8.65-8.92 8.66H38.62c-5.17 0-10.33.06-15.5 0-5.35-.09-8-2.67-8.11-7.93-.09-3.17.11-6.34 0-9.5-.24-5.07 1.47-8 6.18-11.1 3.39-2.25 9-5.64 7.86-12.56-.9-5.31-.18-10.9-.18-16.9-2.31 0-4.51.58-6.14-.13-2.65-1.17-5.77-2.68-7.16-5-1.78-2.95-.07-6.11 2.85-8.13q7.19-5 14.43-9.84C45.07 38.66 57.35 30.4 69.56 22c3.37-2.31 6.55-2.91 10.11-.48Q101.32 36.3 123 51a6.1 6.1 0 0 1 1 1.25c-7.16 2.82-14.08 3.63-21.42 1.32a134.07 134.07 0 0 0-18.38-4.51c-7.75-1.27-10.34 1.29-10.42 9.16v4.27l-4.48.81v35.29c6 5.84 12.36 9.14 20.15 10.14 7.53 1 14.9 4.59 22.33 4.58 7.62-.01 15.22-3 23.22-4.77zM47.23 63.1v37H58v-37z" class="cls-1"/><path d="M144.94 78c0 6.5.23 13-.16 19.48-.11 1.77-1.81 4.51-3.33 5a165.54 165.54 0 0 1-22.74 5.41 55.18 55.18 0 0 1-16.17-.38c-6.87-1.06-13.56-3.2-20.38-4.66-3-.63-4.17-2-4.14-5.09q.17-20 0-40c0-4.31 2.1-5.25 5.7-4.41 5.5 1.3 11 2.45 16.42 4.16a35.84 35.84 0 0 0 22.5.06c5.21-1.67 10.58-2.89 15.93-4.06s6.32-.23 6.36 5c.07 6.49.01 12.95.01 19.49zm-30-12.5v37.33l23.66-6.13V59.32zm-30.5-6.15V96.7l23.67 6.1V65.46z" class="cls-1"/><path d="M116.14 69.91l20.37-5.49.56 2L116.69 72zM137.16 86l-20.45 5.63-.58-2L136.59 84zm0 4.94l-20.49 5.56-.56-2 20.49-5.59c.19.69.4 1.36.56 2.03zm-20.98-11.1l20.28-5.49.56 2-20.25 5.59zm-.02 4.79L136.31 79c-.44 2.93-14.66 7.37-20.15 5.63zM137 71.45l-20.31 5.42-.54-2 20.45-5.52zm-50.48-2.08l20.29 5.52-.51 1.93L86 71.44zm-.02-4.96l20.33 5.51-.51 1.94L86 66.48zM86.47 84l20.19 5.44-.48 1.89-20.31-5.26zm19.8 12.45L85.86 91l.53-2 20.4 5.49zm.03-14.63l-20.24-5.37.5-1.93 20.25 5.28zm0 4.71l-20.37-5.39.52-2 20.36 5.38z" class="cls-1"/></svg>