<svg xmlns="http://www.w3.org/2000/svg" id="Layer_1" viewBox="0 0 1417.32 1417.32" width="1417.32" height="1417.32"><defs><style>.cls-1{fill:#005d93}.cls-2{fill:#0085c3}</style></defs><path d="M269.72 490.55c0-20.3-3.1-30.27-9-37.15l2.41-5.85c3.44-2.41 10.32-4.13 17.2-4.13 6.19 0 12.39 1.38 15.48 3.78-2.06 45.76-4.13 107.33-4.13 161.34 0 26.14.69 49.53 1.72 65.7h-18.87L143.82 524.6s-11.7-15.13-14.11-21.32a97.64 97.64 0 0 1 1 15.13c0 16.86-.69 33.71-.69 50.91 0 40.59.69 83.25 3.44 104.92h-24.73v-5.5c.34-44.72.34-89.44.34-122.81v-55.38c0-18.23-1.72-27.52-8.94-37.15l2.41-5.85c5.16-2.07 13.07-5.51 20.64-3.44 16.85 20.29 6.88 7.57 135.53 155.83 7.23 7.91 12.73 22 12.73 22S269 607.51 269 600.28c0 0 .72-1.37.72-109.73zm188.51-21.33l60.54 177.5a100.43 100.43 0 0 0 12 27.52h-41.58a44.14 44.14 0 0 0-2.41-11.7l-23-67.42h-79.8l-26.15 74.65c-.68 2.06-.68 3.44-1 4.47H331.3l78.08-205C418 441.36 437.94 443.08 450 440c1.69 8.58 5.82 22 8.23 29.22zm-33.71 11.35l-34.74 98h68.11zm145.86 193.67v-5.5c0-29.93.68-59.51.34-86 0-58.14 3.09-113.52-9.29-129l2.41-5.85 61.92-2.06h3.78c34.4 0 76 14.1 76 70.17 0 42.31-37.15 72.24-82.55 72.24a82.75 82.75 0 0 1-18.24-2.06c.69 34.74 1.72 77.4 3.1 88.06zM675 523.57c0-43.69-28.9-59.17-50.57-58.48l-18.57.69c-1 12.38-1 60.89-1 91.85V568c4.82 2.4 10.67 3.09 21.68 3.09C652.93 571 675 552.81 675 523.57zm85.26 150.67c.35-11.35.69-23.39.69-183 0-27.18-5.16-32-9-37.84l2.41-5.85a68.27 68.27 0 0 1 23.74-4.47 45.83 45.83 0 0 1 19.61 4.12c-1.72 38.53-3.44 89.1-3.44 136.23 0 24.08 0 53 1 71.89h39.56c20.29 0 34.05-7.91 36.12-18.23h6.53c4.48 5.85 3.1 29.93-4.12 37.15zm253.18-205.02l60.56 177.5a100.43 100.43 0 0 0 12 27.52h-41.6a44.14 44.14 0 0 0-2.41-11.7l-23-67.42h-79.85L913 669.77c-.68 2.06-.68 3.44-1 4.47h-25.49l78.08-205c8.6-27.86 28.56-26.14 40.6-29.24 1.72 8.58 5.81 22 8.25 29.22zm-33.71 11.35l-34.74 98h68.11zm308.27 9.98c0-20.3-3.1-30.27-8.94-37.15l2.4-5.85c3.44-2.41 10.32-4.13 17.2-4.13 6.2 0 12.39 1.38 15.48 3.78C1312 493 1310 554.53 1310 608.54c0 26.14.69 49.53 1.73 65.7h-18.92L1162.05 524.6s-11.7-15.13-14.11-21.32a97.64 97.64 0 0 1 1 15.13c0 16.86-.69 33.71-.69 50.91 0 40.59.69 83.25 3.44 104.92H1127v-5.5c.34-44.72.34-89.44.34-122.81v-55.38c0-18.23-1.72-27.52-8.94-37.15l2.41-5.85c5.16-2.07 13.07-5.51 20.64-3.44 16.85 20.29 6.88 7.57 135.53 155.83 7.23 7.91 12.73 22 12.73 22s-2.41-14.44-2.41-21.67c-.04.01.7-1.36.7-109.72z" class="cls-1"/><path d="M199.33 961V845.49c0-19.75-3.75-23.5-6.5-27.75l1.75-4.25 44.25-1.25c33-1 48.25 18 48.25 35.75 0 15.25-9.75 27.5-24.25 36 18.75 5.5 35.25 18 35.25 43.5 0 30.75-23.25 50.5-59.5 50.5h-39.5c.5-8.25.25-16.99.25-16.99zm25-68.75c-.25 27-.25 54.25.5 73.75h16c25 0 35-15.25 35-30.25 0-28.25-18-42-41-43zm30.25-10c5-4.75 11.25-13.5 11.25-27.25 0-18.5-12.5-29.25-28-29l-12.25.25c0 6.75 0 16-.25 26.75-.25 9-.75 18.25-.75 27.75h13.25a99.2 99.2 0 0 1 16.75 1.49zm83.5 95.75v-4c0-21.75.5-43.25.25-62.5 0-42.25 2.25-82.5-6.75-93.75l1.75-4.25c46-1.25 46.75-1.25 47.75-1.25 25 0 55.25 10 55.25 50.75 0 22.25-14 40-34.5 47.75 6 3 50.5 62 57.5 67.25h-33.75c-9-18.25-33.25-44.5-49.25-62.5a59.83 59.83 0 0 1-13.25-1.5c.5 25.25 1.25 56.25 2.25 64zm76-109.5c0-32.25-21-43-36.75-42.5l-13.5.5c-.75 9-.75 44.25-.75 66.75v7.5c3.5 1.75 7.75 2.25 15.75 2.25 19.25 0 35.25-13.26 35.25-34.51zm135.74-58.01c36.25 0 66.5 28.25 66.5 82.25-1 49.75-31.75 88.5-81.25 88.5-31.25 0-63.5-28.5-63.5-82.75 0-51.75 33.25-88 78.25-88zm-2.75 155.75c24 0 42-29.25 42-65 0-41.25-22.25-75.25-48-75.25-24.25 0-42.5 29-42.5 64.5 0 38.75 21.25 75.75 48.5 75.75zm251.25 17l-10.5-2.24c-12.25-2.5-16.75-13.25-18.25-19l-22.25-68.5-25.5 68.5-6.75 21.25-10.5-2.25c-12.25-2.5-16.75-13.25-18.25-19l-35-108.25c-9.25-29-16.75-35.5-18.25-36l1.75-4.25a46.32 46.32 0 0 1 17.75-3.5c6 0 12 1.25 15.25 4.5 5.75 26 33.5 116 43.75 139a124.51 124.51 0 0 1 5.25-18.5l22.5-66.5-4.75-14.75c-9.25-29-16.75-35.5-18.25-36l1.75-4.25a46.32 46.32 0 0 1 17.75-3.5c6 0 12 1.25 15.25 4.5 5.75 26 33.5 116 43.75 139a124.51 124.51 0 0 1 5.25-18.5l29.5-87c2.25-5.5 3.75-11 3.75-16.25a19.61 19.61 0 0 0-5.25-14l1.75-4.25c4-2 9-2.5 13.75-2.5 6.25 0 11.25 1 14.5 2.5-1 10-6 25.5-9 33.25l-44 115.25zM875.07 956a15.46 15.46 0 0 1 2.75-8.25c2 7.25 21.5 16 37.25 16 14.75 0 31.25-5 31.25-23 0-33.5-70.5-40.5-70.5-86.25 0-21.75 15.75-44.75 46.25-44.75 20.5 0 32.5 7.25 39.25 11.25 1.75 6 2 21-4.25 27.25l-4.75-1c-5.75-17.75-23.25-24-33-24-11.25 0-24.25 6.75-24.25 21.25 0 32.75 75 38.75 75 89 0 26-21.75 47.75-54 47.75-21.75-.01-41-12.25-41-25.25zm127.5-138.26l1.75-4.25h37.5l42.75-.75c6 6.25 6 25 3.25 27.75h-4.75c-1.5-7.5-12.25-13.25-26.25-13.75l-21.25-.75c-.75 12.75-1.75 45-1.75 61h39.25c7.75 0 9.25-3.25 9.25-3.25a22.68 22.68 0 0 1 .5 5c0 14-13.75 13.75-22.5 13.75-1.5 0-20.25-.5-26.75-.25-.25 21 .25 42.25.75 58.5a3.55 3.55 0 0 0 .5 1.5h47.5c7.75 0 9.25-3.25 9.25-3.25a22.68 22.68 0 0 1 .5 5c0 14-13.75 14-22.5 14h-60.75c.5-8.25.25-17 .25-17v-115.5c0-19.75-3.75-23.49-6.5-27.75zM1133.82 978v-4c0-21.75.5-43.25.25-62.5 0-42.25 2.25-82.5-6.75-93.75l1.75-4.25c46-1.25 46.75-1.25 47.75-1.25 25 0 55.25 10 55.25 50.75 0 22.25-14 40-34.5 47.75 6 3 50.5 62 57.5 67.25h-33.75c-9-18.25-33.25-44.5-49.25-62.5a59.83 59.83 0 0 1-13.25-1.5c.5 25.25 1.25 56.25 2.25 64zm76-109.5c0-32.25-21-43-36.75-42.5l-13.5.5c-.75 9-.75 44.25-.75 66.75v7.5c3.5 1.75 7.75 2.25 15.75 2.25 19.25 0 35.25-13.26 35.25-34.51z" class="cls-2"/></svg>