<svg xmlns="http://www.w3.org/2000/svg" id="Layer_1" viewBox="0 0 1417.32 1417.32" width="1417.32" height="1417.32"><defs><style>.cls-1{fill:#005d93}.cls-2{fill:#0085c3}</style></defs><path d="M269.72 490.55c0-20.3-3.1-30.27-9-37.15l2.41-5.85c3.44-2.41 10.32-4.13 17.2-4.13 6.19 0 12.39 1.38 15.48 3.78-2.06 45.76-4.13 107.33-4.13 161.34 0 26.14.69 49.53 1.72 65.7h-18.87L143.82 524.6s-11.7-15.13-14.11-21.32a97.64 97.64 0 0 1 1 15.13c0 16.86-.69 33.71-.69 50.91 0 40.59.69 83.25 3.44 104.92h-24.73v-5.5c.34-44.72.34-89.44.34-122.81v-55.38c0-18.23-1.72-27.52-8.94-37.15l2.41-5.85c5.16-2.07 13.07-5.51 20.64-3.44 16.85 20.29 6.88 7.57 135.53 155.83 7.23 7.91 12.73 22 12.73 22S269 607.51 269 600.28c0 0 .72-1.37.72-109.73zm188.51-21.33l60.54 177.5a100.43 100.43 0 0 0 12 27.52h-41.58a44.14 44.14 0 0 0-2.41-11.7l-23-67.42h-79.8l-26.15 74.65c-.68 2.06-.68 3.44-1 4.47H331.3l78.08-205C418 441.36 437.94 443.08 450 440c1.69 8.58 5.82 22 8.23 29.22zm-33.71 11.35l-34.74 98h68.11zm145.86 193.67v-5.5c0-29.93.68-59.51.34-86 0-58.14 3.09-113.52-9.29-129l2.41-5.85 61.92-2.06h3.78c34.4 0 76 14.1 76 70.17 0 42.31-37.15 72.24-82.55 72.24a82.75 82.75 0 0 1-18.24-2.06c.69 34.74 1.72 77.4 3.1 88.06zM675 523.57c0-43.69-28.9-59.17-50.57-58.48l-18.57.69c-1 12.38-1 60.89-1 91.85V568c4.82 2.4 10.67 3.09 21.68 3.09C652.93 571 675 552.81 675 523.57zm85.26 150.67c.35-11.35.69-23.39.69-183 0-27.18-5.16-32-9-37.84l2.41-5.85a68.27 68.27 0 0 1 23.74-4.47 45.83 45.83 0 0 1 19.61 4.12c-1.72 38.53-3.44 89.1-3.44 136.23 0 24.08 0 53 1 71.89h39.56c20.29 0 34.05-7.91 36.12-18.23h6.53c4.48 5.85 3.1 29.93-4.12 37.15zm253.18-205.02l60.56 177.5a100.43 100.43 0 0 0 12 27.52h-41.6a44.14 44.14 0 0 0-2.41-11.7l-23-67.42h-79.85L913 669.77c-.68 2.06-.68 3.44-1 4.47h-25.49l78.08-205c8.6-27.86 28.56-26.14 40.6-29.24 1.72 8.58 5.81 22 8.25 29.22zm-33.71 11.35l-34.74 98h68.11zm308.27 9.98c0-20.3-3.1-30.27-8.94-37.15l2.4-5.85c3.44-2.41 10.32-4.13 17.2-4.13 6.2 0 12.39 1.38 15.48 3.78C1312 493 1310 554.53 1310 608.54c0 26.14.69 49.53 1.73 65.7h-18.92L1162.05 524.6s-11.7-15.13-14.11-21.32a97.64 97.64 0 0 1 1 15.13c0 16.86-.69 33.71-.69 50.91 0 40.59.69 83.25 3.44 104.92H1127v-5.5c.34-44.72.34-89.44.34-122.81v-55.38c0-18.23-1.72-27.52-8.94-37.15l2.41-5.85c5.16-2.07 13.07-5.51 20.64-3.44 16.85 20.29 6.88 7.57 135.53 155.83 7.23 7.91 12.73 22 12.73 22s-2.41-14.44-2.41-21.67c-.04.01.7-1.36.7-109.72z" class="cls-1"/><path d="M138.67 885.21c.2-3.4.2-6.8.2-9.4v-95c0-8-.2-17.6-5.2-23.8l1.4-3.4 45.2-1c31.4-.6 61.4 20.4 61.4 62.8 0 39.4-23.8 69.8-60.6 69.8zm81.2-59.4c.4-35-21.6-63-48.8-62l-11.2.4c0 6.4-1 45.4-1 71.4 0 14.4.2 28 .6 39h24c17.8 0 36-19.2 36.4-48.8zm108.2 5.6l-48.2-.6c.2 3 .2 5.2.2 8 0 21.6 12.4 33.8 29.4 33.8 11.4 0 24-6.6 31.2-17.6a17.44 17.44 0 0 1 .8 4.8c0 15.4-20 28-39 28-21.2 0-40.4-14-41-47.6 0-32.2 16.6-56.4 42-56.4 34.6 0 36.2 30.8 36.2 40.6V829c-3.8 2.21-7.4 2.41-11.6 2.41zm-48.8-8.6l42.8-.8c0-12.8-6.6-27-21.4-27-13.2-.01-17.8 12.2-21.4 27.8zm131 67.8l-7.21-1.8c-9.19-1.6-12.79-10.2-13.79-14.4l-18-56.4c-7-22.2-17.6-25-18.6-25.2l-.2-3.6c3.2-2.4 11.2-5 16.6-5 9.4 0 11.8 4.2 14.2 13.2 1 5.6 6.6 22.6 19 57.6a120.45 120.45 0 0 0 5.4 13 138.54 138.54 0 0 1 4-13.4L427.46 813a35.31 35.31 0 0 0 2.8-12.6c0-3.2-1-6.2-3.4-7.6v-3.6c2.6-2.4 8.8-5 14.4-5 5.2 0 6.8 2.8 6.8 6.8 0 5.4-3.2 12.6-5 17l-28.2 66.4zm59.4-5.4v-.8l1.6-67.4c.8-23.4-9.6-24.2-9.6-24.2v-3.6a33.73 33.73 0 0 1 17.8-5c9.59 0 10.59 7.6 10 16.8 0 0-1.2 23.8-1.2 69.2a78.33 78.33 0 0 0 1.2 15zm8.8-138.6A10.76 10.76 0 0 1 489.06 757c0 5.6-5 10.8-10.59 10.8a11 11 0 0 1-10.8-10.8 10.68 10.68 0 0 1 10.8-10.39zm80.8 48.39c-15.6 0-25.2 19.2-25.2 38.6s9.8 39 30.19 39c11.4 0 24-6.6 31.2-17.6a17.44 17.44 0 0 1 .8 4.8c0 15.4-20 28-39 28-21.2 0-41-14-41-47.6 0-33 18.8-56.4 47-56.4 14.6 0 31 5 31 18 0 4.4-3.6 9-10.2 9a9.25 9.25 0 0 1-6.6-2.8c-.8-7.39-5.8-13-18.19-13zm117.99 36.41l-48.2-.6c.2 3 .2 5.2.2 8 0 21.6 12.4 33.8 29.4 33.8 11.4 0 24-6.6 31.2-17.6a17.44 17.44 0 0 1 .8 4.8c0 15.4-20 28-39 28-21.2 0-40.4-14-41-47.6 0-32.2 16.6-56.4 42-56.4 34.6 0 36.2 30.8 36.2 40.6V829c-3.8 2.21-7.4 2.41-11.6 2.41zm-48.8-8.6l42.8-.8c0-12.8-6.6-27-21.4-27-13.2-.01-17.8 12.2-21.4 27.8zm247 36.19c0 17.4-20.4 28.8-45.4 28.8-37.6 0-58-28.4-58-65.6 0-41.6 25.6-71 64-71 17.2 0 34.6 7.6 39 16.6 0 4-5.6 15.2-12.6 18.2l-3.2-2.6c0-5.2-7.4-20.2-25.6-20.2-27.6 0-39.6 24.4-39.6 50.4 0 31.2 14.6 60.6 44.8 60.6 11.6 0 28.6-6.2 35.8-19.4a10.44 10.44 0 0 1 .8 4.2zm89.2 26.21a48.57 48.57 0 0 1-.4-9.6l.4-48c.2-19.2-3.4-27.8-16.2-28-14.2 0-23.2 7.8-27.8 13 .2 18.8 1 52 1.6 64.2a43.9 43.9 0 0 0 1 8.4h-19.8v-3c.4-49.6-.2-105.4-.4-121.4 0-11.2-3.6-17.2-9.4-18v-3.6a30.08 30.08 0 0 1 16.4-5c13.6 0 13 10.8 11.6 32.4-.8 11.4-1.2 26.8-1 40 6-10 18-22.8 37.6-22.8 14 0 23.6 11.6 24 23.8.4 8.4-1.6 60.6 2 77.6zm111.6-53.8l-48.2-.6c.2 3 .2 5.2.2 8 0 21.6 12.4 33.8 29.4 33.8 11.4 0 24-6.6 31.2-17.6a17.44 17.44 0 0 1 .8 4.8c0 15.4-20 28-39 28-21.2 0-40.4-14-41-47.6 0-32.2 16.6-56.4 42-56.4 34.6 0 36.2 30.8 36.2 40.6V829c-3.8 2.21-7.4 2.41-11.6 2.41zm-48.8-8.6l42.8-.8c0-12.8-6.6-27-21.4-27-13.2-.01-17.8 12.2-21.4 27.8zm123.6-27.81c-15.6 0-25.2 19.2-25.2 38.6s9.8 39 30.2 39c11.4 0 24-6.6 31.19-17.6a17.44 17.44 0 0 1 .8 4.8c0 15.4-20 28-39 28-21.2 0-41-14-41-47.6 0-33 18.8-56.4 47-56.4 14.6 0 31 5 31 18 0 4.4-3.59 9-10.19 9a9.28 9.28 0 0 1-6.61-2.8c-.79-7.39-5.79-13-18.19-13zm61.99-34.19c0-11.2-3.6-17.2-9.4-18v-3.6a30.08 30.08 0 0 1 16.4-5c9.4 0 12.6 5 12.6 15.4 0 12.6-1.8 47.6-1.8 81l31.4-26c3-2.4 5.8-5.8 6-8.4 0-1.4-.8-2.4-2.4-3.4v-3.6c2.2-1.6 10.6-5 17.4-5 4.8 0 8.6 1.2 8.6 5.2 0 6.8-12.6 14.6-21.6 21l-23 16.2s2.6 4 10.2 14.2c12.4 16.8 24 36.4 42.2 39v3.4c-3.2 2.6-11.6 4.6-16.2 4.6-14.2 0-19-4.6-30-21-12.2-18.2-20-31.6-22.6-32.8 0 26 .8 43.6 2.2 51.2h-20v-3c0-13.4.2-30.4.2-45 0-39.8-.2-76.4-.2-76.4z" class="cls-2"/></svg>