<svg xmlns="http://www.w3.org/2000/svg" id="Layer_1" viewBox="0 0 580 580" width="580" height="580"><defs><style>.cls-1{fill:#fff}.cls-2{fill:#f08022}.cls-3{fill:#ef8322}.cls-4{fill:#f38220}.cls-5{fill:#e0a652}.cls-6{fill:#e1a652}.cls-7{fill:#f16522}.cls-8{fill:#ccd5ec}.cls-9{fill:#e1a752}.cls-10{fill:#e0a551}.cls-11{fill:#e1a651}.cls-12{fill:#f3821f}.cls-13{fill:#ccd4eb}.cls-14{fill:#f16422}.cls-15{fill:#e0a651}.cls-16{fill:#f7fbfb}.cls-17{fill:#dfe0e8}</style></defs><path d="M560 241.28c-6.62.34-13.62 1.33-20.2 2.21h-.45c-44.17 4.94-88.46 9.08-132.58 14.35a67.71 67.71 0 0 1 4.37 14.42c50-9.75 99.73-20.64 149.73-30.25v.43l1.62-.55c.56-1.06.67-1.1 1.79-.64l2.11-.74c-2.15.39-4.26.66-6.39.77z" class="cls-1"/><path d="M-.06 111.11l112.22-16.5v4.65q-12 1.71-23.91 3.43-15.51 2.27-31 4.57l-31 4.55c-8 1.18-16.09 2.38-24.14 3.55a19 19 0 0 1-2.14.07z" class="cls-2"/><path d="M38.31 521.36c-5.05.71-10.11 1.41-15.16 2.14-6.95 1-13.89 2.07-20.84 3.08a18.69 18.69 0 0 1-2.37 0v-4.28c3.24-.4 6.48-.74 9.71-1.21 10.17-1.47 20.34-3 30.52-4.48.63-.1 1.27-.08 1.91-.12z" class="cls-3"/><path d="M127.1 61.15L144.29 71v18.88l365.18-53.66c2.62 17.32 5 34.59 7.52 51.84s4.92 34.45 7.4 51.67 5 34.59 7.51 51.89 4.91 34.41 7.41 51.95l-4.34.35q-3.42-23.82-6.85-47.65-3.74-25.85-7.49-51.68-3.6-24.89-7.18-49.79-3.45-24.3-6.92-48.61c-.21-1.5-.48-3-.7-4.35a4 4 0 0 0-.33-.24.45.45 0 0 0-.21-.1c-.48 0-1 0-1.43.08L144.42 94.44v49.05l14 6.73 88 42.12c4.32 2.07 8.62 4.19 13 6.18a5.84 5.84 0 0 1 3 3.11q16 34.31 32.16 68.57c.4.86.84 1.71 1.41 2.86l70.45-7.82c.83 5.85 1.34 11.7 1.86 17.55-3.85.55-7.72 1-11.56 1.66-7.12 1.18-14.23 2.49-21.36 3.67-9.08 1.51-18.18 2.91-27.27 4.43-8.22 1.37-16.43 2.83-24.64 4.25a12.62 12.62 0 0 0-.46-1.35q-3.63-7.8-7.3-15.6-6.22-13.2-12.47-26.38c-2.23-4.69-4.52-9.34-6.76-14-1.55-3.24-3.07-6.49-4.6-9.74-2.2-4.69-4.36-9.4-6.64-14.05a3.74 3.74 0 0 0-1.86-1.69c-8.43-3.14-16.89-6.2-25.35-9.28l-15.26-5.56c-1.57-.57-3.16-1.1-4.75-1.64a57.36 57.36 0 0 0 5 6.57c4.15 4.83 8.33 9.62 12.5 14.43s8.32 9.63 12.5 14.42c3.5 4 7.05 8 10.53 12 .28.33.22.95.32 1.43q-6.15 13-12.29 25.94-9.68 20.31-19.37 40.6c-.34.72-.73 1.41-1.1 2.12a11.4 11.4 0 0 1-1.9-1.35c-3.08-3.33-6.08-6.73-9.16-10.06q-7-7.53-14-15c-3.45-3.66-6.93-7.27-10.4-10.9-.27-.29-.49-.63-.77-.92-1.15-1.19-2.32-2.38-3.48-3.57q1.5-3.63 3-7.28 5.91-14.47 11.81-29 5.41-13.38 10.79-26.79c1.46-3.61 3-7.2 4.41-10.83.28-.72 1.09-1.5.27-2.38a3.33 3.33 0 0 0-.52-.48l-20.67-11.07c-4.5-2.4-9-4.82-13.5-7.22l-24.53-13c-2.88-1.54-5.74-3.12-8.63-4.65A10.3 10.3 0 0 0 127 160v-10.05z" class="cls-4"/><path d="M540.17 248.83c.71 5.14 1.4 10.28 2.13 15.42 1.21 8.45 2.45 16.9 3.66 25.35l4.5 31.29q1.8 12.56 3.62 25.12 2 14.22 4.07 28.44t4.13 28.69l4.08 28.19c.56 3.95 1.11 7.89 1.69 12-2.46.4-4.79.8-7.14 1.15q-22.73 3.36-45.47 6.7c-13.59 2-27.18 3.92-40.76 5.91-11.45 1.68-22.89 3.43-34.34 5.11-12.55 1.85-25.12 3.63-37.67 5.47s-24.78 3.71-37.18 5.53c-10.26 1.51-20.54 3-30.8 4.47-9.32 1.37-18.63 2.79-27.95 4.16-9.16 1.35-18.32 2.65-27.48 4q-15.4 2.25-30.8 4.53L223.83 494l-28 4.13-27.24 4q-14.22 2.1-28.42 4.21l-30.8 4.47c-2.29.33-4.58.72-6.88 1a3.84 3.84 0 0 0-2.94 1.73c-5 6.92-10.09 13.81-15.15 20.7q-3.9 5.31-7.83 10.6l-24.43-.11s-.11-.1-.15-.17a2.26 2.26 0 0 1-.12-.28q9.22-12.71 18.51-25.46c7.33-10 14.72-20 22.08-30q7.77-10.57 15.55-21.17c3.81-5.21 7.58-10.44 11.4-15.64a6.71 6.71 0 0 0 1.42-4.41c-.12-4.47 0-8.95 0-13.42V317.86a6 6 0 0 0-.81-3.63c-5.9-8.9-11.71-17.86-17.56-26.8-.31-.47-.7-.89-1.16-1.47l-.3 1.94V285c1.1-.59 1.85.24 2.63.65q12.54 6.52 25 13.14l123.47 64.93q14.22 7.49 28.43 15c.56.29 1.07.66 1.61 1a6.75 6.75 0 0 1-1.74.55c-3.82.21-7.64.34-11.45.51-3.58.15-7.16.35-10.74.47-6 .19-12 .28-17.93.52a21.46 21.46 0 0 0-6.33.85c-5.77 2.08-11.42 4.49-17.11 6.77q-14.42 5.81-28.82 11.6c-8.79 3.55-17.56 7.16-26.37 10.68-2.5 1-5.08 1.81-7.63 2.71v-12.86c4-1.63 8.06-3.28 12.11-4.91q17.28-7 34.55-14a14.88 14.88 0 0 0 2.15-1.31 22.32 22.32 0 0 0 2.31-.59c4.61-1.76 9.21-3.56 13.82-5.35l5.87-2.24c-3.05-2.14-80.71-44.9-82.89-45.19v16.78a5.4 5.4 0 0 0 .38 1.37 12.13 12.13 0 0 0-.36 2c-.11 7.51-.17 15-.26 22.54q-.23 18.69-.48 37.4l-.48 36.92c-.06 3.75-.22 7.5-.19 11.26a5.2 5.2 0 0 1-1.31 3.23l-32 43.7-2.45 3.38c.12.23.14.31.19.35a.45.45 0 0 0 .22.08 11.69 11.69 0 0 0 1.19-.09l455.4-67c.38-.06.75-.16 1.26-.27-.66-4.69-1.29-9.26-1.94-13.83q-2.05-14.22-4.12-28.44t-4.15-28.68c-1.52-10.59-3-21.18-4.53-31.77s-3.06-21-4.57-31.52l-4-28.45c-1.18-8.22-2.34-16.44-3.58-24.65-.11-.78.2-1.86-.91-2.29z" class="cls-4"/><path d="M101 287.9l.33-1.94c.46.58.85 1 1.16 1.47 5.85 8.94 11.66 17.9 17.56 26.8a6 6 0 0 1 .81 3.63v116.28c0 4.47-.08 8.95 0 13.42a6.71 6.71 0 0 1-1.42 4.41c-3.82 5.2-7.59 10.43-11.4 15.64q-7.75 10.61-15.55 21.17c-7.36 10-14.75 20-22.08 30q-9.32 12.72-18.51 25.46a2.26 2.26 0 0 0 .12.28c0 .07.1.17.15.17l24.43.11a5 5 0 0 1-1.47.49H21.65a5.51 5.51 0 0 1-.93-.22c1.61-2.15 3.11-4.18 4.63-6.2q6.12-8.13 12.24-16.28a10.7 10.7 0 0 0 .7-1.24l3.77-4.87c2-2.51 4-5 5.89-7.55q25.16-33.42 50.31-66.85a6.77 6.77 0 0 0 1.47-4.37q0-16.91.16-33.81.21-30.21.47-60.41.21-26.85.44-53.7c.02-.62.12-1.26.2-1.89z" class="cls-5"/><path d="M196.65 197c.82.88 0 1.66-.27 2.38-1.38 3.62-2.95 7.21-4.38 10.82q-5.4 13.4-10.79 26.79-5.88 14.49-11.81 29-1.49 3.65-3 7.28h-47.53c1.3-3.08 2.55-6.18 3.9-9.24q14.37-32.73 28.79-65.45c.25-.57.59-1.11.89-1.66.4 0 .8.08 1.19.08z" class="cls-6"/><path d="M238.88 246.37c-.1-.48 0-1.1-.32-1.43-3.48-4-7-8-10.53-12q-6.27-7.18-12.5-14.42c-4.17-4.81-8.35-9.6-12.5-14.43a57.36 57.36 0 0 1-5-6.57c1.59.54 3.18 1.07 4.75 1.64l15.26 5.56c8.46 3.08 16.92 6.14 25.35 9.28a3.74 3.74 0 0 1 1.86 1.69c2.28 4.65 4.44 9.36 6.64 14.05 1.53 3.25 3.05 6.5 4.6 9.74 2.24 4.68 4.53 9.33 6.76 14q6.25 13.17 12.47 26.38 3.67 7.8 7.3 15.6a12.62 12.62 0 0 1 .46 1.35c-1.52 3.33-3 6.67-4.56 10-1.14 2.45-2.36 4.85-3.55 7.27-3-5.55-6-11.08-8.95-16.65q-13-24.52-26-49.06a14.43 14.43 0 0 0-1.54-2zm-84.83 167.99c2.55-.9 5.13-1.71 7.63-2.71 8.81-3.52 17.58-7.13 26.37-10.68q14.4-5.82 28.82-11.6c5.69-2.28 11.34-4.69 17.11-6.77a21.46 21.46 0 0 1 6.33-.85c6-.24 12-.33 17.93-.52 3.58-.12 7.16-.32 10.74-.47 3.81-.17 7.63-.3 11.45-.51a6.75 6.75 0 0 0 1.74-.55l1.49.78-129.57 56.12c-.07-.92-.15-1.52-.15-2.12q.06-10.06.11-20.12z" class="cls-7"/><path d="M406.15 267.49A38.18 38.18 0 0 1 377.66 315c-.6.14-1.23.19-2.1.32-.3-2.68-.59-5.19-.85-7.7q-1.63-15.48-3.24-30.95-1.32-12.74-2.59-25.47c-.16-1.58-.25-3.17-.37-4.76a83.08 83.08 0 0 1 9.49.56c10 1.73 17.9 7.13 24.13 15 1.4 1.78 2.68 3.66 4.02 5.49z" class="cls-8"/><path d="M127.1 61.15V160c-1.17 1.78-2.4 3.52-3.52 5.33q-5.66 9.09-11.25 18.2c0-.95-.11-1.91-.11-2.86V52.35c5.19 2.94 10.16 5.65 14.88 8.8z" class="cls-9"/><path d="M275.4 314.05c1.19-2.42 2.41-4.82 3.55-7.27 1.55-3.31 3-6.65 4.56-10 8.21-1.42 16.42-2.88 24.64-4.25 9.09-1.52 18.19-2.92 27.27-4.43 7.13-1.18 14.24-2.49 21.36-3.67 3.84-.63 7.71-1.11 11.56-1.66.57 5.13 1.14 10.27 1.72 15.56-3.3.62-6.34 1.2-9.38 1.76l-62.07 11.43c-7 1.28-14 2.51-20.93 3.83-1.27.26-2.01-.02-2.28-1.3z" class="cls-10"/><path d="M142.37 346.09a5.4 5.4 0 0 1-.38-1.37v-16.78c2.18.29 79.84 43.05 82.89 45.19l-5.88 2.24c-4.61 1.79-9.21 3.59-13.82 5.35a22.32 22.32 0 0 1-2.31.59c-6.13-3.55-12.28-7.07-18.4-10.64q-21.07-12.27-42.1-24.58z" class="cls-11"/><path d="M112.25 183.53q5.61-9.1 11.25-18.2c1.12-1.81 2.35-3.55 3.52-5.33a10.3 10.3 0 0 1 1.78.58c2.89 1.53 5.75 3.11 8.63 4.65l24.53 13c4.51 2.4 9 4.82 13.5 7.22l20.67 11.07a3.33 3.33 0 0 1 .52.48h-43c-.39 0-.79 0-1.19-.08.2-1-.39-1.2-1.17-1.42-2.69-.74-5.35-1.56-8-2.34-9.57-2.78-19.14-5.53-28.69-8.36-.86-.23-2.08.02-2.35-1.27z" class="cls-7"/><path d="M211.57 119.26a27 27 0 0 1 16.36-7.15 29.68 29.68 0 0 1 32.26 23.94c2.1 11.08-.86 20.7-9.25 28.45-.48-.73-.9-1.5-1.44-2.18-4.93-6.24-9.85-12.48-14.82-18.68-.93-1.17-2-2.2-3.05-3.3a12.94 12.94 0 0 0-1.43-2.1c-5.62-5.69-11.28-11.33-16.92-17-.61-.62-1.14-1.32-1.71-1.98z" class="cls-12"/><path d="M540.17 248.83l-5 1.19-125.03 37.35c1.3-5.18 1.14-10.1 1-15 6.07-1.2 12.16-2.38 18.23-3.61 7.4-1.49 14.78-3 22.18-4.55q12.38-2.52 24.76-5c10-2 19.94-4 29.9-6.06l28.94-6c7.55-1.55 15.11-3 22.67-4.51 1-.2 2-.33 3.05-.49v.48l-18.65 5.52c-.73.14-1.38.43-2.05.68z" class="cls-13"/><path d="M118.85 273.28h47.53c1.16 1.19 2.33 2.38 3.48 3.57.28.29.5.63.77.92 3.47 3.63 7 7.24 10.4 10.9q7 7.47 14 15c3.08 3.33 6.08 6.73 9.16 10.06a11.4 11.4 0 0 0 1.9 1.35c-.78 1.1-1.46 0-2-.22-5.73-2.62-11.43-5.33-17.13-8l-66.53-31.25c-.51-.24-1-.48-1.5-.75-.8-.51-.58-1.04-.08-1.58z" class="cls-14"/><path d="M231.63 140.34c1 1.1 2.12 2.13 3.05 3.3 5 6.2 9.89 12.44 14.82 18.68.54.68 1 1.45 1.44 2.18a25.83 25.83 0 0 1-14.15 7.35c-10.44 2-19.49-.9-27.1-8.31a6.68 6.68 0 0 1-.72-.94c.66-.57 1.36-1.09 2-1.71 4.85-4.84 9.68-9.71 14.53-14.55 2-2.02 4.07-4 6.13-6z" class="cls-7"/><path d="M231.63 140.34c-2.06 2-4.13 4-6.16 6-4.85 4.84-9.68 9.71-14.53 14.55-.61.62-1.31 1.14-2 1.71-6.38-6.83-8.78-15-7.77-24.14a29.31 29.31 0 0 1 9.23-18.37 10.37 10.37 0 0 1 1.14-.83c.57.66 1.1 1.36 1.71 2 5.64 5.67 11.3 11.31 16.92 17a12.94 12.94 0 0 1 1.46 2.08z" class="cls-15"/><path d="M406.15 267.49c-1.34-1.83-2.62-3.71-4-5.5-6.23-7.9-14.09-13.3-24.13-15a83.08 83.08 0 0 0-9.49-.56l-.87-6.8c15.49-1.63 33.67 9.11 38.49 27.86z" class="cls-16"/><path d="M564.4 241.4l-2.06.76c.66-1.33.66-1.33 2.06-.76zm-3.58 1.17v-.48c.01.16.01.32 0 .48z" class="cls-17"/><path d="M-.06 111.11h6.12v410.45H-.06z" class="cls-2"/></svg>