<svg xmlns="http://www.w3.org/2000/svg" id="Layer_1" viewBox="0 0 283 283" width="283" height="283"><defs><style>.cls-1{fill:#fdfefe}</style></defs><path d="M53.88 263.63V82.72c0-21.86 8.28-39.84 26.28-52.79a50.54 50.54 0 0 1 29.76-9.82c38.26-.11 76.5-.11 114.73-.11.37 0 .73.08 1.33.15a22.28 22.28 0 0 1 .26 2.46c0 40.11.14 80.22-.06 120.33-.1 18.68-7.13 34.57-21.24 47-10.54 9.27-23 13.73-37.08 13.73-22.36 0-44.73.07-67.1-.07a6.4 6.4 0 0 0-6 3.22c-12.56 18-25.25 36-37.91 53.94-.71 1-1.42 2-2.14 3zm59.6-184.17v61.85h56V79.46z" class="cls-1"/></svg>