<svg xmlns="http://www.w3.org/2000/svg" id="Layer_1" viewBox="0 0 550 550" width="550" height="550"><style>.st0{fill:#fff}</style><path d="M445.6 486.2l-6.4-1.5c-1.5-.3-2.7-.7-3.7-1.1-1-.4-1.8-.8-2.3-1.3-.6-.4-1-.9-1.2-1.5-.2-.5-.4-1.2-.4-2 0-1.9.7-3.3 2-4.3s3.3-1.5 5.8-1.5c5.5 0 8.4 1.7 9 5.2.1.6.3 1 .6 1.3.3.2.8.3 1.6.3h2.3c.8 0 1.3-.1 1.6-.4.3-.3.5-.7.5-1.4 0-2.5-1-4.7-2.9-6.5-2.5-2.5-6.6-3.8-12.1-3.8-4.6 0-8.2 1-10.9 3.1-2.7 2-4 4.8-4 8.3v.4c0 2.7.8 4.9 2.4 6.6 1.5 1.6 4 2.9 7.3 3.7l6.9 1.7c2.5.6 4.3 1.4 5.3 2.4s1.5 2.4 1.5 4.1c0 3.8-2.8 5.6-8.5 5.6-2.9 0-5-.4-6.5-1.3-1.4-.8-2.3-2.2-2.8-4-.1-.6-.3-1.1-.7-1.3-.3-.2-.8-.3-1.5-.3h-2.3c-.8 0-1.3.1-1.6.4-.3.3-.5.7-.5 1.4 0 2.6 1.1 4.9 3.2 6.7 2.8 2.5 7.1 3.7 12.8 3.7 10.1 0 15.2-3.8 15.2-11.4v-.4c-.1-5.7-3.3-9.4-9.7-10.9zm-130.8-17.6c-.8 0-1.5.5-1.6 1.2-.2.8-.3 1.4-.4 1.5-.7 3-1.8 7.2-3.3 12.8-2.7 9.8-4.6 15.3-5.3 17.4-.7-2.1-2.3-12.2-5-22-.4-1.5-.8-3-1.2-4.4-.3-1.1-.6-2.1-.8-3.1-.6-2.5-2.8-3.3-4.3-3.3s-3.7.9-4.3 3.3c-.3 1-.6 2.1-.8 3.1-.4 1.4-.8 3.3-1.2 4.8-2.7 9.8-4.3 19.6-5 21.6-.7-2.1-2.5-7.6-5.3-17.4-1.1-4-1.9-7.3-2.6-9.9-.3-1.3-.8-3.2-1.1-4.4-.2-.7-.8-1.2-1.6-1.2h-3.2c-1.1 0-1.9.9-1.6 1.9.3 1.3.7 3.1 1.1 4.5.7 2.8 1.6 6.3 2.9 10.7 1.7 6.4 3.6 12.5 5.4 17.9l.2.5c.9 2.4 3 3.8 5.9 3.8 2.9 0 5-1.4 5.9-3.7l.1-.2c0-.1.1-.3.2-.6 2.1-6.3 3.8-16.7 5.2-21.8 1.4 5.1 3.2 15.5 5.2 21.8.1.3.2.5.2.6l.1.2c.9 2.4 3.1 3.7 5.9 3.7s5-1.4 5.9-3.8l.2-.5c1.9-5.5 3.7-11.5 5.5-17.9 1.7-6.4 2.9-11 3.5-13.8.1-.3.2-.8.3-1.4.2-1-.6-1.9-1.6-1.9h-3.5zm-93.2 27.2H219c-.8 0-1.3.1-1.6.3-.3.2-.5.6-.6 1.3-.7 4-3.6 6-8.7 6-3.3 0-5.7-.9-7.2-2.8s-2.3-4.9-2.3-9v-6.2c0-4.2.8-7.3 2.3-9.1 1.5-1.8 4-2.8 7.4-2.8 2.5 0 4.6.5 6 1.6 1.4 1 2.3 2.5 2.5 4.5.1.6.3 1 .6 1.3.3.2.8.3 1.6.3h2.5c.8 0 1.3-.1 1.6-.4.3-.3.5-.7.5-1.4 0-2.7-1-5.2-3.1-7.4-2.6-2.8-6.8-4.2-12.6-4.2-5.3 0-9.4 1.5-12.2 4.5-2.7 2.9-4.1 7.4-4.1 13.2v7.3c0 5.4 1.4 9.5 4.1 12.2 2.8 2.8 6.9 4.2 12.2 4.2 6.4 0 10.9-1.8 13.4-5.2.7-1 1.3-2.1 1.7-3.2.4-1.1.6-2.2.6-3.1 0-.7-.2-1.1-.5-1.4-.2-.4-.7-.5-1.5-.5zm37.9 1.5h-2.8c-.7 0-1.1.1-1.4.3-.2.2-.5.5-.8 1.2-1.4 3.1-4.2 4.6-8.4 4.6-6.7 0-10-3.8-10-11.8v-1h11.7c4.1 0 7.8-1.8 10.4-4.8 2.5-2.9 3.4-6.6 2.5-10-1.1-5.1-6.3-8-14.7-8-5.4 0-9.6 1.6-12.5 4.9-2.8 3.2-4.3 7.9-4.3 13.9v5.5c0 5.4 1.5 9.6 4.3 12.6 2.9 3 7.1 4.5 12.4 4.5 2.7 0 5.2-.4 7.4-1.2 2.2-.8 4.1-1.9 5.4-3.3.7-.8 1.4-1.8 2-2.9.6-1.1.9-2.1.9-2.8 0-.4-.1-1-.5-1.3-.2-.2-.5-.4-1.6-.4zm-6-15.6c-1.1 2.1-3.3 3.3-5.7 3.3h-11.7c.1-8.1 3.4-12 9.9-12 3.2 0 5.6 1 7.2 3 1.2 1.7 1.3 3.8.3 5.7zm86.9-14c-5.4 0-9.7 1.5-12.7 4.5s-4.5 7.2-4.5 12.6v7.8c0 5.2 1.5 9.2 4.5 12.1 3 2.9 7.2 4.3 12.7 4.3 5.4 0 9.7-1.5 12.7-4.5s4.5-7.2 4.5-12.6v-7.8c0-5.2-1.5-9.2-4.5-12.1-3.1-2.8-7.3-4.3-12.7-4.3zm-10.3 17.6c0-8 3.4-11.8 10.3-11.8s10.3 3.9 10.3 11.8v6.2c0 8-3.4 11.8-10.3 11.8s-10.3-3.9-10.3-11.8v-6.2zm-213.3.9l-6.4-1.5c-1.5-.3-2.7-.7-3.7-1.1-1-.4-1.8-.8-2.3-1.3-.6-.4-1-.9-1.2-1.5-.2-.5-.4-1.2-.4-2 0-1.9.7-3.3 2-4.3s3.3-1.5 5.8-1.5c5.5 0 8.4 1.7 9 5.2.1.7.3 1.1.6 1.3.3.2.8.3 1.6.3h2.3c.8 0 1.3-.1 1.6-.4.3-.3.5-.7.5-1.4 0-2.5-1-4.7-2.9-6.5-2.5-2.5-6.6-3.8-12.1-3.8-4.6 0-8.2 1-10.9 3.1-2.7 2-4 4.8-4 8.3v.4c0 2.7.8 4.9 2.4 6.6 1.6 1.6 4 2.9 7.3 3.7l6.9 1.7c2.5.6 4.3 1.4 5.3 2.4s1.5 2.4 1.5 4.1c0 3.8-2.8 5.6-8.5 5.6-2.9 0-5-.4-6.5-1.3-1.4-.8-2.3-2.2-2.8-4-.1-.7-.3-1.1-.7-1.3-.3-.2-.8-.3-1.5-.3h-2.3c-.8 0-1.3.1-1.6.4-.3.3-.5.7-.5 1.4 0 2.6 1.1 4.9 3.2 6.7 2.8 2.5 7.1 3.7 12.8 3.7 10.1 0 15.2-3.8 15.2-11.4v-.4c-.1-5.6-3.3-9.3-9.7-10.9zm266-17.5h-1c-2.6 0-4.9.7-6.9 2-1.6 1-2.9 2.3-3.9 3.9v-4.1c0-.7-.2-1.2-.5-1.5-.3-.3-.8-.4-1.5-.4h-2.7c-.7 0-1.2.1-1.5.4-.3.3-.5.7-.5 1.5v35.6c0 .7.2 1.2.5 1.5.3.3.8.4 1.5.4h2.9c.7 0 1.2-.1 1.5-.4.3-.3.5-.7.5-1.5v-18.7c0-1.8.2-3.4.7-4.9.5-1.5 1.1-2.8 2-3.9.8-1.1 1.9-2 3-2.6 1.2-.6 2.5-.9 4-.9h2c.7 0 1.2-.1 1.4-.4.2-.3.3-.7.3-1.4v-2.6c0-.7-.1-1.1-.3-1.4-.3-.5-.8-.6-1.5-.6zm37.8 36.8l-13.7-18.1c.6-.6 1-1.1 1.7-2l.4-.5 11.3-13.7c.8-1 .1-2.5-1.3-2.5h-4.3c-.5 0-1 .2-1.3.6l-10 12.1c-1.3 1.5-1.9 2.3-2.7 2.9-.8.6-1.6.7-2.5.8v-29.5c0-.9-.7-1.6-1.7-1.6h-3.6c-.9 0-1.7.7-1.7 1.6v50.8c0 .9.7 1.6 1.7 1.6h3.6c.9 0 1.7-.7 1.7-1.6v-15.9c1 0 1.5-.1 2.5-.4l12.9 17.1c.3.4.8.7 1.4.7h4.3c1.3.1 2.1-1.4 1.3-2.4zM165 472c-3-2.8-7.2-4.2-12.6-4.2-5.1 0-9.2 1.3-12.1 4-1.4-1.8-3.8-2.8-7.3-2.9h-.7c-.3 0-.6 0-.8.1-.1 0-.3.1-.4.1-.1.1-.2.1-.2.2-.2.3-.3.7-.3 1.4v2.6c0 .7.1 1.1.3 1.4l.2.2c.2.1.6.2 1 .2 2.4.1 3.2 1.7 3.2 4.7v40.8c0 .7.2 1.2.5 1.4.3.3.8.4 1.5.4h2.9c.7 0 1.2-.1 1.5-.4.3-.3.5-.7.5-1.4V505c1.1 1.1 2.5 2.1 4.2 2.7 2 .8 4.3 1.2 6.8 1.2 10.8 0 16.3-5.9 16.3-17.5v-7.8c0-4.9-1.5-8.8-4.5-11.6zm-2.4 19.5c0 8-3.4 11.8-10.3 11.8-3.3 0-5.9-1-7.6-3-1.7-2-2.6-5-2.6-8.8v-6.2c0-8 3.4-11.8 10.3-11.8 6.8 0 10.2 3.9 10.2 11.8v6.2zm23.2 17.5h.7c.3 0 .6 0 .8-.1.1 0 .3-.1.4-.1.1-.1.2-.1.2-.2.2-.3.3-.7.3-1.4v-2.6c0-.7-.1-1.1-.3-1.4l-.2-.2c-.2-.1-.4-.2-.8-.2h-.2c-1.2 0-2-.5-2.5-1.3s-.7-2-.7-3.5v-28c-.1-.8-.7-1.4-1.5-1.4h-3.8c-.9 0-1.6.7-1.6 1.5v29.2c0 2.7.5 4.9 1.5 6.4.1.1.2.2.3.4 1.5 1.9 3.9 2.8 7.4 2.9zm188.1-130.1c4.6-.7 57.5-15.1 81.1-42-31-10-25.5-20-47.6-45.5 17.5-33.8 11.6-49.6 39.1-73.9-27.7-8.6-49.2-12.8-66.8-13.3-2.9-.1-5.7-.1-8.4-.1h-2c-2.6 0-5.2.1-7.6.2h-.2c-2.5.1-4.9.3-7.2.5-.6.1-1.2.1-1.8.2-2.2.2-4.4.4-6.5.7h-.3c-1.1.2-2.1.3-3.2.5-.5.1-1.1.2-1.6.3-1.6.3-3.1.6-4.6.9-10.6 2.3-19.8 5.9-28.6 10.7-4.1 2.3-8 4.9-11.4 8 14.5 5.5 25.9 15.8 33 28.4v.1c7.2 12.8 9.9 27.9 7.1 43 9.5-3.4 18.1-8.9 25.1-16.3 4.2-4.4 7.7-9.5 10.5-15.2 1.2-2.4 2.2-4.8 3.1-7.3 4.9-14.1 6.9-28.1 5.5-45.3l2.5.1c13 .7 28.2 3.5 46.3 8.5-10.4 12.4-14.2 23.7-18.1 35.7-2.5 7.5-5.3 16.1-10.2 26.1l-.8 1.7c-7.7-6.4-14.7-11.5-21.6-15.6-3 6.1-6.9 11.7-11.6 16.7-7.7 8.2-17.4 14.5-28.1 18.3l-5 1.8c0 .1 0 .1-.1.2-1.5 4.3-3.8 9-6.7 13.5-2 3-4.2 5.9-6.7 8.7-3.8 4.1-8.1 7.6-13 10.2 1 .4 2 .7 3 1 .3.1.7.2 1.1.2.7.2 1.4.3 2.1.5.4.1.9.1 1.3.2.7.1 1.3.2 2 .3.5.1 1 .1 1.5.1.7.1 1.3.1 2 .2.5 0 1 0 1.6.1h3.6c.7 0 1.4 0 2-.1.6 0 1.1-.1 1.7-.1.7 0 1.4-.1 2-.2.6-.1 1.2-.1 1.7-.2.7-.1 1.4-.2 2-.2.4-.1.9-.1 1.3-.2 2-.3 4-.6 5.9-1 .3-.1.6-.1.9-.2 2-.4 3.9-.9 5.9-1.4.2-.1.5-.1.7-.2 2-.6 3.9-1.2 5.7-1.8.1 0 .3-.1.4-.2 1.9-.7 3.7-1.4 5.5-2.2 2.4-1.1 4.8-2.3 7.1-3.6 12.7-7.7 23.2-17 33.3-31l1.1 1.3c5.2 6.4 8.6 11.7 11.6 16.3 5.9 9.2 10.7 16.7 23.7 23.2-24.2 19-61.6 28.9-63.3 29.3l-2.8.6c-2.1-10.6-4.9-20.6-7.8-28.9-8.1 3.5-17.7 6.2-27.2 7.5-8.8 1.2-21.6 1.9-32.4-2.2l-5.3-2c-.1 0-.2.1-.3.1-.1.1-.3.1-.5.2-.1.1-.2.1-.4.2-.1.1-.3.1-.4.2-1.3.6-2.7 1.1-4 1.6-.4.1-.7.3-1.1.4-1.5.5-3 .9-4.5 1.3-.2.1-.4.1-.7.1-1.4.3-2.8.6-4.2.8-.4.1-.7.1-1.1.2-.2 0-.5.1-.7.1-1.3.2-2.7.3-4.1.5-.3 0-.5 0-.8.1l-4.2.3h-1.3c-1.6 0-3.3.1-5 .1.5.9 1 1.7 1.6 2.6.6.8 1.2 1.7 1.9 2.5 1.3 1.6 2.8 3.2 4.4 4.7 1.6 1.5 3.3 2.9 5.2 4.3 6.4 4.7 13.9 8.6 21.3 11.5 3.2 1.2 6.3 2.3 9.4 3.2 2.5.7 5.1 1.3 7.8 1.8l4.2.6c.4.1.7.1 1.1.2 1 .1 1.9.3 2.9.4.4 0 .7.1 1.1.1h.3c1.4.2 2.9.3 4.3.5.2 0 .4 0 .6.1h.5c.7.1 1.5.1 2.2.2.6 0 1.1.1 1.7.1h1.3c1.2.1 2.5.1 3.7.1h5.9c1.5 0 3-.1 4.6-.3.4 0 .7-.1 1.1-.1 1.3-.1 2.6-.3 4-.4.1 0 .3 0 .4-.1.2 0 .4 0 .6-.1.7-.1 1.4-.2 2.2-.3.6-.1.9-.1 1.4-.2h.2c.8-.1 1.5-.3 2.3-.5.2 0 .4-.1.6-.1l.3 2.6c1.9 14.1 1.8 27.1-4.4 46.4-15-13-29.2-14.4-42.9-15.8-6.5-.7-13.3-1.4-20.2-3.4l-1.6-.5c5.5-8.5 10.5-16.2 12.7-23.7-.3-.1-.6-.1-.9-.2-3.3-1-6.7-2.1-10-3.4-8.7-3.4-16.7-7.7-23.1-12.5-2.1-1.5-4-3.2-5.8-4.8-1.9-1.8-3.6-3.6-5.1-5.4-.8-1-1.6-2-2.3-3-.7-1-1.4-2.1-2-3.2l-2.8-5c-10.1-2.6-21.2-9-24.8-14.8-2.9 15.8.2 32.5 9.5 46.4 1.5 2.2 3.1 4.3 4.8 6.3 11.5 13.2 24.6 22.9 44.8 31.2 2.6.9 5.2 1.7 7.7 2.3s4.9 1.1 7.3 1.4c6.4 1 12.4 1.4 18.4 2.1 1.8.2 3.7.5 5.5.9 1.8.4 3.6.8 5.5 1.3 2.2.6 4.4 1.4 6.5 2.4 1.5.6 2.9 1.4 4.4 2.2.7.4 1.5.9 2.2 1.3 1.5.9 3 2 4.4 3.2s3 2.5 4.5 3.9c2.3 2.2 4.6 4.7 6.9 7.5 13.4-33.1 12.1-50.9 9.5-68.3M189.5 107.2c-4.7.1-59 6.9-86.1 30.3 29.3 14.2 22.5 23.3 40.8 51.6-22 31-18.3 47.5-49 67.8 26.2 12.4 47 19.5 64.3 22.4 2.9.5 5.6.9 8.3 1.2.7.1 1.4.2 2 .3 2.6.3 5.1.6 7.6.9h.2c2.5.2 4.9.4 7.2.5.6 0 1.2.1 1.8.1 2.2.1 4.4.2 6.5.2h.3c1.1 0 2.2 0 3.2-.1h1.6c1.6-.1 3.2-.1 4.7-.3 10.9-.8 20.4-3 29.8-6.6 4.4-1.7 8.6-3.8 12.4-6.3-13.6-7.5-23.5-19.2-28.8-32.7v-.1c-5.3-13.6-6-29-1.1-43.6-9.9 2-19.2 6.3-27.1 12.7-4.7 3.8-9 8.4-12.5 13.6-1.5 2.2-2.8 4.4-4.1 6.8-6.8 13.3-10.7 26.9-11.8 44.1l-2.4-.5c-12.8-2.5-27.4-7.4-44.7-14.8 12-10.8 17.3-21.5 22.9-32.8 3.5-7.1 7.5-15.2 13.7-24.4l1-1.6c6.7 7.4 13 13.4 19.2 18.5 3.9-5.6 8.5-10.6 13.8-14.9 8.8-7.1 19.3-12 30.4-14.2l5.2-1.1c0-.1.1-.1.1-.2 2.1-4.1 5-8.4 8.5-12.4 2.4-2.7 5-5.3 7.8-7.6 4.3-3.5 9.1-6.4 14.2-8.3-.9-.5-1.9-.9-2.9-1.4-.3-.1-.7-.3-1-.4-.7-.3-1.3-.5-2.1-.8-.4-.1-.9-.3-1.3-.4-.7-.2-1.3-.4-2-.6-.5-.1-1-.2-1.4-.3-.7-.2-1.3-.3-2-.4-.5-.1-1-.2-1.6-.3-.7-.1-1.3-.2-2-.3-.5-.1-1.1-.1-1.6-.2-.7-.1-1.4-.2-2-.2-.6-.1-1.1-.1-1.7-.1-.7-.1-1.4-.1-2-.1-.6 0-1.2 0-1.7-.1h-3.3c-2 0-4 .1-6 .2-.3 0-.6 0-.9.1-2 .1-4 .3-6 .6-.2 0-.5.1-.7.1-2 .3-4 .6-5.9 1-.1 0-.3.1-.4.1-2 .4-3.9.9-5.7 1.4-2.5.7-5 1.6-7.5 2.6-13.7 5.8-25.4 13.6-37.2 26.1l-.9-1.5c-4.3-7-6.9-12.7-9.2-17.8-4.6-9.9-8.3-18-20.2-26.3 26.7-15.5 65-20 66.8-20.2l2.9-.2c.6 10.8 2 21.1 3.7 29.7 8.5-2.4 18.4-3.7 27.9-3.7 8.9 0 21.7 1.2 31.8 6.7l5 2.7c.1 0 .2-.1.3-.1.2 0 .3-.1.5-.1.1 0 .3-.1.4-.1.1 0 .3-.1.4-.1 1.4-.4 2.8-.8 4.2-1.1.4-.1.7-.2 1.1-.2 1.5-.3 3.1-.5 4.6-.7.2 0 .5 0 .7-.1 1.4-.1 2.8-.2 4.2-.2h1.9c1.4 0 2.7 0 4.1.1.3 0 .5 0 .8.1l4.2.3c.4 0 .9.1 1.3.1 1.6.2 3.3.4 4.9.6-.4-.9-.8-1.9-1.2-2.8l-1.5-2.7c-1.1-1.8-2.3-3.5-3.7-5.2-1.4-1.7-2.9-3.3-4.5-4.9-5.7-5.6-12.6-10.5-19.5-14.4-3-1.7-5.9-3.2-8.8-4.5-2.4-1.1-4.9-2-7.4-2.8-1.3-.4-2.7-.8-4.1-1.2-.4-.1-.7-.2-1.1-.3-.9-.3-1.9-.5-2.8-.8-.4-.1-.7-.2-1.1-.3-.1 0-.2-.1-.3-.1-1.4-.4-2.8-.7-4.2-1.1-.2 0-.4-.1-.6-.1-.2 0-.3-.1-.5-.1-.7-.2-1.4-.3-2.2-.5-.6-.1-1.1-.2-1.7-.4-.2 0-.4-.1-.6-.1-.2 0-.4-.1-.7-.1-1.2-.2-2.4-.5-3.7-.7-.4-.1-.7-.1-1.1-.2-.2 0-.4-.1-.6-.1-1.1-.2-2.1-.3-3.2-.4-.2 0-.5-.1-.7-.1-1.5-.2-3-.3-4.6-.4-.4 0-.7 0-1.1-.1-1.3-.1-2.6-.1-4-.1h-4.9c-.8 0-1.6.1-2.3.1h-.6v-2.6c.1-14.2 2-27 10.8-45.4 13 14.9 26.9 18.3 40.3 21.6 6.4 1.6 13 3.2 19.6 6.2l1.5.7c-6.6 7.7-12.6 14.6-15.8 21.7.3.1.6.2.8.3 3.2 1.4 6.3 3 9.4 4.8 8.1 4.6 15.4 10 21.2 15.6 1.9 1.8 3.6 3.7 5.1 5.6 1.6 2 3.1 4.1 4.3 6.1.7 1.1 1.3 2.2 1.8 3.3.6 1.1 1.1 2.3 1.5 3.4l2.1 5.4c9.6 4 19.8 11.9 22.5 18.1 5-15.2 4.3-32.2-3-47.3-1.1-2.4-2.4-4.7-3.9-6.9-9.5-14.7-21.2-26.1-40-37.1-2.5-1.3-4.9-2.4-7.3-3.3-2.4-.9-4.7-1.7-7.1-2.4-6.2-1.9-12.1-3.1-17.9-4.7-1.8-.5-3.6-1-5.3-1.6-1.8-.6-3.5-1.3-5.2-2-2.1-.9-4.1-2-6.2-3.2-1.4-.8-2.7-1.8-4-2.8-.7-.5-1.3-1.1-2-1.6-1.3-1.1-2.6-2.4-4-3.8s-2.6-2.9-3.9-4.5c-1.9-2.5-3.9-5.3-5.8-8.4-17.6 30.8-18.8 48.7-18.6 66.2" class="st0"/></svg>