<svg xmlns="http://www.w3.org/2000/svg" viewBox="0 0 58.59 61.34" width="58.59" height="61.34"><defs><style>.cls-1{fill:#343333}.cls-2{fill:#ee443e}.cls-3{fill:#f99c35}.cls-4{fill:#ce3432}.cls-5{fill:#f7b462}.cls-6{fill:#e5802b}.cls-7{fill:#929496}.cls-8{fill:#d1d2d3}.cls-9{fill:#a6a9ac}</style></defs><g id="Layer_2"><g id="Layer_1-2"><path d="M8.37 50.81a2.73 2.73 0 0 0-1.76-.74c-.46 0-.86.25-.86.67s.66.84 1.4 1.15c1.15.47 2.6 1 2.6 2.73 0 2-1.69 2.85-3.41 2.85A5 5 0 0 1 2.77 56l1.37-1.42a2.84 2.84 0 0 0 2.09 1c.49 0 1.13-.24 1.13-.78s-.81-.9-1.69-1.28c-1.06-.46-2.23-1.06-2.23-2.62 0-1.81 1.55-2.72 3.17-2.72a4.38 4.38 0 0 1 3.07 1.16zm5.79-.42v3.44a5.55 5.55 0 0 0 0 .76c.07.52.27.84.78.84a2 2 0 0 0 1-.25l.74 1.77a4.48 4.48 0 0 1-2.11.52 2.55 2.55 0 0 1-2.63-1.91 5.2 5.2 0 0 1-.17-1.48v-3.7H10.7v-2h1.06l.37-2h2v2h2.26v2zm5.64-1.99l1.78 5.28h.04l1.82-5.28h2.6l-5 12.94-2.14-.83 1.42-3.76-3.14-8.35h2.62zm18.45 8.87v-4.49a4.59 4.59 0 0 0-.25-1.9 1.2 1.2 0 0 0-1.18-.62 2.2 2.2 0 0 0-1.74 1 12.14 12.14 0 0 1 .09 1.4v4.61h-2.4v-4.49a4.4 4.4 0 0 0-.27-1.92 1.18 1.18 0 0 0-1.13-.61 2.45 2.45 0 0 0-1.7.88v6.14h-2.42v-8.88h2.07l.17 1.08a3.28 3.28 0 0 1 2.56-1.28 2.9 2.9 0 0 1 2.51 1.49 3.45 3.45 0 0 1 3-1.49 2.94 2.94 0 0 1 2.33 1.15 5.23 5.23 0 0 1 .79 3.32v4.61zm4.66-12.15h2.4v2h-2.4zm0 3.27h2.4v8.88h-2.4zm6.55 5.03a2.24 2.24 0 0 0 2.23 2.13A2.51 2.51 0 0 0 54 54.23l1.57 1.06a4.42 4.42 0 0 1-4 2.18A4.3 4.3 0 0 1 47 52.93a4.55 4.55 0 0 1 4.51-4.74 4.08 4.08 0 0 1 4.29 4.1 6.38 6.38 0 0 1-.12 1.13zm3.91-1.64a1.71 1.71 0 0 0-1.77-1.72 2 2 0 0 0-2 1.72z" class="cls-1"/><path d="M22.58 0C10.63 0 .64 7.24 0 16.56c-.47 7.16 4.68 13.75 13.11 16.8l.24.09v.28a13.44 13.44 0 0 1-4.65 9.69c7.37-1.44 10-5.18 11.42-8.29l.11-.24h.24c.35 0 .71.05 1.07.07h1.26a28.8 28.8 0 0 0 6.2-.63 14.29 14.29 0 0 1-.9-1.33 13.49 13.49 0 0 1-2.15-7.29v-.58a12.79 12.79 0 0 1 2.45-7 10.81 10.81 0 0 1-3.67-7.58 9.6 9.6 0 0 1 .67-3.82 11.69 11.69 0 0 1 3.25-4.46A14.43 14.43 0 0 1 30.33 1a27.73 27.73 0 0 0-3.42-.68A29.21 29.21 0 0 0 23.82 0h-1.24" class="cls-2"/><path d="M52 19a16.38 16.38 0 0 1-5.21 2.74l-.17.05V22a9.37 9.37 0 0 0 3 6.87 10.64 10.64 0 0 1-6.48-3.8 18.62 18.62 0 0 1-5.24 5.42 24.92 24.92 0 0 1-8.9 3.84 14.9 14.9 0 0 0 3.23 3 15.1 15.1 0 0 0 7.33 2.55h1.14a14.05 14.05 0 0 0 7.79-2.31l.13-.08.14.08A12.76 12.76 0 0 0 55 39.16a14.36 14.36 0 0 0 3.61-.47c-4.35-1-5.62-3.42-5.9-5.38v-.13a11.45 11.45 0 0 0 .75-1.49 12.73 12.73 0 0 0 1-4.38 13.5 13.5 0 0 0-2.28-8.08L52 19" class="cls-5"/><path d="M28.41 18.16a12.79 12.79 0 0 0-2.45 7v.58A13.49 13.49 0 0 0 28.1 33a14.49 14.49 0 0 0 .93 1.3 25 25 0 0 0 8.89-3.83 18.63 18.63 0 0 0 5.24-5.43 10.39 10.39 0 0 1-1.27-2.26l-.07-.17h-1.06a18.61 18.61 0 0 1-11.16-3.46 14.71 14.71 0 0 1-1.18-1" class="cls-6"/><path d="M25.41 6.75a9.6 9.6 0 0 0-.68 3.82 10.8 10.8 0 0 0 3.67 7.58 13.93 13.93 0 0 1 12.38-5.54 15.12 15.12 0 0 1 3.92.82c-.05-.17-.11-.33-.16-.49a16.77 16.77 0 0 0-4.44-6.56A23.73 23.73 0 0 0 30.33 1a14.54 14.54 0 0 0-1.66 1.24 11.7 11.7 0 0 0-3.25 4.46" class="cls-7"/><path d="M45.32 18.46a14.33 14.33 0 0 1-2.15 6.62 10.63 10.63 0 0 0 6.48 3.8 9.37 9.37 0 0 1-3-6.87v-.19l.17-.06A16.36 16.36 0 0 0 52 19a14.56 14.56 0 0 0-3.68-3.71 15 15 0 0 0-3.62-1.87 13.73 13.73 0 0 1 .61 5" class="cls-8"/><path d="M28.41 18.16a14.71 14.71 0 0 0 1.18 1 18.64 18.64 0 0 0 11.32 3.53h.92l.07.17a10.39 10.39 0 0 0 1.27 2.26 14.33 14.33 0 0 0 2.15-6.62 13.73 13.73 0 0 0-.61-5 15.15 15.15 0 0 0-3.92-.83 13.93 13.93 0 0 0-12.38 5.54" class="cls-9"/></g></g></svg>