<?xml version="1.0" encoding="utf-8"?>
<!-- Generator: Adobe Illustrator 20.1.0, SVG Export Plug-In . SVG Version: 6.00 Build 0)  -->
<svg version="1.1" id="Layer_1" xmlns="http://www.w3.org/2000/svg" xmlns:xlink="http://www.w3.org/1999/xlink" x="0px" y="0px"
	 viewBox="0 0 20 20" style="enable-background:new 0 0 20 20;" xml:space="preserve">
<style type="text/css">
	.Drop_x0020_Shadow{fill:none;}
	.Round_x0020_Corners_x0020_2_x0020_pt{fill:#FFFFFF;stroke:#000000;stroke-miterlimit:10;}
	.Live_x0020_Reflect_x0020_X{fill:none;}
	.Bevel_x0020_Soft{fill:url(#SVGID_1_);}
	.Dusk{fill:#FFFFFF;}
	.Foliage_GS{fill:#FFDD00;}
	.Pompadour_GS{fill-rule:evenodd;clip-rule:evenodd;fill:#44ADE2;}
	.st0{fill:#ED2027;}
</style>
<linearGradient id="SVGID_1_" gradientUnits="userSpaceOnUse" x1="0" y1="0" x2="0.7071" y2="0.7071">
	<stop  offset="0" style="stop-color:#DEDFE3"/>
	<stop  offset="0.1738" style="stop-color:#D8D9DD"/>
	<stop  offset="0.352" style="stop-color:#C9CACD"/>
	<stop  offset="0.5323" style="stop-color:#B4B5B8"/>
	<stop  offset="0.7139" style="stop-color:#989A9C"/>
	<stop  offset="0.8949" style="stop-color:#797C7E"/>
	<stop  offset="1" style="stop-color:#656B6C"/>
</linearGradient>
<path class="st0" d="M15.7,5.6C15.6,3,14.7,1,13,0.3c-1.8-0.8-4.1,0.1-6.1,2.1C3.7,2.2,1.1,3.1,0.3,5.1c-0.8,1.8,0.1,4.1,2.1,6.1
	c-0.8,4,0.1,7.5,2.5,8.5c2.4,1,5.6-0.9,8-4.4c0,0,0,0,0,0c0.1-0.2,0.3-0.4,0.4-0.7c0,0,0,0,0-0.1l0,0c0,0-0.2,0.6-0.5,1.5
	c3.3,0.3,6-0.7,6.9-2.7C20.7,10.9,19,7.9,15.7,5.6z M10.7,12.2L10.7,12.2c-0.1,0.2-0.2,0.5-0.4,0.7c0,0,0,0.1-0.1,0.1
	c-0.1,0.2-0.2,0.4-0.3,0.6c0,0,0,0,0,0.1l0,0c0,0,0.2-0.7,0.4-1.7c-0.4-0.2-0.9-0.3-1.3-0.5C7.2,10.8,5.7,9.9,4.4,9
	c0.1-0.2,0.2-0.5,0.3-0.7c0.7-1.8,1.6-3.4,2.6-4.6c1.4,0.3,2.9,0.7,4.4,1.4c0.4,0.2,0.7,0.3,1.1,0.5C12.6,7.1,12.1,9,11.3,11
	C11.1,11.4,10.9,11.8,10.7,12.2z M11.6,0.9c0.8,0.3,1.2,1.5,1.3,3c-0.2-0.1-0.4-0.2-0.6-0.3c-1.4-0.6-2.7-1-4.1-1.2
	C9.5,1.2,10.7,0.5,11.6,0.9z M1.7,4.6c0.4-1,2.1-1.4,4.3-1.2C5,4.6,4.1,6.1,3.4,7.7c0,0.1-0.1,0.2-0.1,0.3C2,6.8,1.3,5.5,1.7,4.6z
	 M8.7,15.6c-1.5,2.1-3.2,3.2-4.3,2.7c-1.3-0.5-1.6-3-0.9-6.1c1.2,1,2.6,1.8,4.2,2.5C8.1,14.8,8.6,15,9,15.1c0,0,0,0,0,0
	c0,0,0,0,0.1,0c0.2,0.1,0.5,0.1,0.7,0.2c0.1,0,0.1,0,0.2,0.1c0.2,0.1,0.4,0.1,0.6,0.2c0,0,0.1,0,0.1,0C10.5,15.6,9.7,15.6,8.7,15.6z
	 M19.1,11.9C18.6,13,16.6,13.4,14,13c-0.2,0-0.4-0.1-0.5-0.1c-0.1,0-0.2,0-0.3-0.1c-0.2,0-0.3-0.1-0.5-0.1c-0.1,0-0.1,0-0.2,0
	c0.3,0,1,0,1.8-0.1c0-0.1,0.1-0.2,0.1-0.2c0.7-1.8,1.2-3.5,1.3-5.2C18.2,8.8,19.6,10.6,19.1,11.9z"/>
</svg>
