<svg xmlns="http://www.w3.org/2000/svg" viewBox="0 0 96 95.51" width="96" height="95.51"><defs><style>.a{fill:#fff}.a,.h{fill-rule:evenodd}.b{mask:url(#a)}.c{fill:#52218a}.d{fill:#6c33af}.e{fill:#854cc7}.f{fill:#b179f1}.g{opacity:.25}.h{fill:url(#b)}</style><mask id="a" width="96" height="95.51" x="0" y="0" maskUnits="userSpaceOnUse"><path d="M68.89 95.6a6 6 0 0 0 3.93-.44l19.78-9.51a6 6 0 0 0 3.4-5.41V15.76a6 6 0 0 0-3.4-5.41L72.82.84a6 6 0 0 0-4.48-.29A6 6 0 0 0 66 2L34.12 37.26 15.5 22l-1.63-1.4a4 4 0 0 0-3.61-.83 2.55 2.55 0 0 0-.53.18L2.46 23A4 4 0 0 0 0 26.37v43.26A4 4 0 0 0 2.46 73l7.27 3a2.55 2.55 0 0 0 .53.18 4 4 0 0 0 3.61-.83L15.5 74l18.62-15.26L66 94a6 6 0 0 0 2.89 1.6zM72 27.68L47.21 48 72 68.32zm-60 6.59L24.41 48 12 61.73z" class="a" transform="translate(0 -.25)"/></mask><linearGradient id="b" x1="48" x2="48" y1="97.75" y2="2.25" gradientTransform="matrix(1 0 0 -1 0 98)" gradientUnits="userSpaceOnUse"><stop offset="0" stop-color="#fff"/><stop offset="1" stop-color="#fff" stop-opacity="0"/></linearGradient></defs><g class="b"><path d="M13.87 75.15a4 4 0 0 1-4.14.65l-7.27-3.05A4 4 0 0 1 0 69.08V26.42a4 4 0 0 1 2.46-3.67l7.27-3a4 4 0 0 1 4.14.65l1.63 1.35a2.21 2.21 0 0 0-3.5 1.8v48.4a2.21 2.21 0 0 0 3.5 1.8z" class="c"/><path d="M2.46 72.75A4 4 0 0 1 0 69.08v-.33a2.31 2.31 0 0 0 4 1.55L66 1.75A6 6 0 0 1 72.82.59l19.78 9.52a6 6 0 0 1 3.4 5.41v.23a3.79 3.79 0 0 0-6.19-2.93L15.5 73.75l-1.63 1.4a4 4 0 0 1-4.14.65z" class="d"/><path d="M2.46 22.75A4 4 0 0 0 0 26.42v.33a2.31 2.31 0 0 1 4-1.55l62 68.55a6 6 0 0 0 6.82 1.16l19.78-9.52a6 6 0 0 0 3.4-5.41v-.23a3.79 3.79 0 0 1-6.19 2.93L15.5 21.75l-1.63-1.4a4 4 0 0 0-4.14-.6z" class="e"/><path d="M72.82 94.91A6 6 0 0 1 66 93.75a3.52 3.52 0 0 0 6-2.49v-87a3.52 3.52 0 0 0-6-2.51A6 6 0 0 1 72.82.59L92.6 10.1a6 6 0 0 1 3.4 5.41v64.48a6 6 0 0 1-3.4 5.41z" class="f"/><g class="g"><path d="M68.89 95.35a6 6 0 0 0 3.93-.44L92.6 85.4a6 6 0 0 0 3.4-5.41V15.51a6 6 0 0 0-3.4-5.41L72.82.59A6 6 0 0 0 68.34.3 6 6 0 0 0 66 1.75L34.12 37.01 15.5 21.75l-1.63-1.4a4 4 0 0 0-3.61-.83 2.55 2.55 0 0 0-.53.18l-7.27 3.05A4 4 0 0 0 0 26.12v43.26a4 4 0 0 0 2.46 3.37l7.27 3a2.55 2.55 0 0 0 .53.18 4 4 0 0 0 3.61-.83l1.63-1.35 18.62-15.26L66 93.75a6 6 0 0 0 2.89 1.6zM72 27.43L47.21 47.75 72 68.07zm-60 6.59l12.41 13.73L12 61.48z" class="h"/></g></g></svg>